<?xml version="1.0" standalone="no"?>
<!DOCTYPE svg PUBLIC "-//W3C//DTD SVG 1.1//EN" "http://www.w3.org/Graphics/SVG/1.1/DTD/svg11.dtd" >
<svg xmlns="http://www.w3.org/2000/svg" xmlns:xlink="http://www.w3.org/1999/xlink" version="1.1">
<metadata>
Created by FontForge 20170731 at Tue Jul 31 01:58:06 2018
 By Aleksey,,,
Copyright (c) 2018 by Goyang. All rights reserved.
</metadata>
<defs>
<font id="GoyangIlsanR-Regular" horiz-adv-x="0" >
  <font-face 
    font-family="GoyangIlsan R"
    font-weight="400"
    font-stretch="normal"
    units-per-em="1000"
    panose-1="2 11 3 3 0 0 0 2 0 4"
    ascent="800"
    descent="-200"
    x-height="474"
    cap-height="717"
    bbox="0 -263 985 836"
    underline-thickness="50"
    underline-position="-150"
    unicode-range="U+000D-FFE6"
  />
<missing-glyph horiz-adv-x="300" 
 />
    <glyph glyph-name=".notdef" horiz-adv-x="300" 
 />
    <glyph glyph-name=".null" 
 />
    <glyph glyph-name=".null" 
 />
    <glyph glyph-name="uni000D" unicode="&#xd;" horiz-adv-x="300" 
 />
    <glyph glyph-name="space" unicode=" " horiz-adv-x="300" 
 />
    <glyph glyph-name="exclam" unicode="!" horiz-adv-x="300" 
d="M118 166l-18 539h100l-19 -539h-63zM194 -80h-91v114h91v-114z" />
    <glyph glyph-name="quotedbl" unicode="&#x22;" horiz-adv-x="422" 
d="M159 751l-14 -271h-54l-14 271h82zM332 751l-14 -271h-54l-14 271h82z" />
    <glyph glyph-name="numbersign" unicode="#" horiz-adv-x="698" 
d="M28 249h128l35 210h-108v62h118l34 209h78l-35 -209h197l34 209h78l-35 -209h116v-62h-126l-34 -210h105v-62h-115l-33 -198l-5 -33h-77l37 231h-196l-33 -198l-5 -33h-77l37 231h-118v62zM234 249h196l35 210h-197z" />
    <glyph glyph-name="dollar" unicode="$" horiz-adv-x="524" 
d="M224 0q-51 3 -95 16t-84 34l28 62q42 -21 79 -32.5t72 -15.5v281l-47 23q-69 33 -99 75t-30 93q0 58 44 101.5t132 53.5v69h77v-67q47 -2 84.5 -13.5t82.5 -40.5l-36 -53q-18 11 -33 18.5t-30 13t-31.5 8.5t-36.5 4v-242l46 -23q44 -23 74.5 -44t49 -43.5t27 -48
t8.5 -56.5q0 -42 -17 -73t-45.5 -52t-65.5 -33t-77 -15v-73h-77v73zM427 172q0 40 -28.5 71t-97.5 64v-242q63 9 94.5 40.5t31.5 66.5zM127 536q0 -36 24.5 -60.5t72.5 -48.5v200q-19 -3 -36.5 -10t-31 -18t-21.5 -26.5t-8 -36.5z" />
    <glyph glyph-name="percent" unicode="%" horiz-adv-x="855" 
d="M40 538q0 78 41 122.5t119 44.5q75 0 117 -44.5t42 -122.5t-41.5 -122t-117.5 -44q-78 0 -119 42.5t-41 123.5zM118 538q0 -21 3 -40t12 -33.5t25 -22.5t42 -8q25 0 40.5 8t24.5 22.5t12 33.5t3 40t-3 40t-12 33.5t-24.5 22.5t-40.5 8q-26 0 -42 -8t-25 -22.5t-12 -33.5
t-3 -40zM638 716l-345 -746h-82l345 746h82zM491 144q0 79 41 123t119 44q76 0 118 -44t42 -123t-41 -122.5t-119 -43.5t-119 42.5t-41 123.5zM569 144q0 -21 3.5 -40t12.5 -33.5t25 -22.5t41 -8t41 8t25 22.5t12 33.5t3 40t-3 40.5t-12 33.5t-25 22.5t-41 8.5t-41 -8.5
t-25 -22.5t-12.5 -33.5t-3.5 -40.5z" />
    <glyph glyph-name="ampersand" unicode="&#x26;" horiz-adv-x="693" 
d="M584 -30l-63 70q-40 -42 -97.5 -63t-138.5 -21q-67 0 -114 16.5t-77 43.5t-43.5 61t-13.5 70q0 34 10 61.5t26 49.5t35 38.5t37 29.5l76 52l-53 63q-24 29 -44 60.5t-20 74.5q0 32 11.5 60t36 49t61.5 33t88 12q42 0 77.5 -11t62 -31.5t41.5 -49.5t15 -65q0 -42 -21 -80
t-58 -65l-92 -67l190 -208q9 15 15.5 34.5t10.5 40t6 40.5t2 35l71 -8q-2 -57 -17.5 -107.5t-39.5 -88.5l110 -129h-90zM266 325l-77 -54q-42 -29 -57.5 -58.5t-15.5 -66.5q0 -30 13 -53t35.5 -39.5t53.5 -25t67 -8.5q54 0 107 17.5t83 55.5zM363 471q27 19 41 47t14 55
q0 45 -31.5 69t-85.5 24q-114 0 -119 -89q-1 -28 12 -49.5t24 -35.5l63 -77z" />
    <glyph glyph-name="quotesingle" unicode="'" horiz-adv-x="268" 
d="M176 751l-14 -271h-54l-14 271h82z" />
    <glyph glyph-name="parenleft" unicode="(" horiz-adv-x="330" 
d="M167 224q4 -29 14 -64t25.5 -68.5t36 -62t44.5 -44.5l-39 -46q-30 19 -56.5 52t-47.5 72.5t-35 81.5t-18 80q-2 18 -3 32t-2 28.5t-1 30.5v37q0 42 0.5 72.5t5.5 65.5q5 39 17.5 77.5t32 74t46.5 66t62 54.5l38 -43q-24 -17 -44 -43t-35.5 -56.5t-26 -64t-14.5 -64.5
q-5 -34 -5.5 -65.5t-0.5 -73.5v-39v-30.5t1.5 -28t4.5 -31.5z" />
    <glyph glyph-name="parenright" unicode=")" horiz-adv-x="330" 
d="M184 224q3 18 4.5 31.5t1.5 28v30.5v39q0 42 -0.5 73.5t-5.5 65.5q-5 32 -15.5 65t-25.5 63.5t-34.5 56t-44.5 43.5l38 43q34 -24 61.5 -54.5t47 -66t32 -74t17.5 -77.5q5 -35 5.5 -65.5t0.5 -72.5v-37t-1 -30.5t-2 -28.5t-3 -32q-5 -38 -18.5 -80t-34 -81.5t-47 -72.5
t-57.5 -52l-39 46q25 17 45 45.5t35 61.5t25 67.5t15 64.5z" />
    <glyph glyph-name="asterisk" unicode="*" horiz-adv-x="559" 
d="M311 475l17 -180h-80l16 179l-154 -101l-47 77l178 71l-176 85l44 74l155 -117l-17 188h78l-14 -186l153 108l41 -75l-170 -78l170 -79l-42 -69z" />
    <glyph glyph-name="plus" unicode="+" horiz-adv-x="595" 
d="M337 377h204v-63h-204v-210h-80v210h-202v63h202v205h80v-205z" />
    <glyph glyph-name="comma" unicode="," horiz-adv-x="237" 
d="M61 -80v114h109v-89q0 -59 -21 -103.5t-60 -56.5l-24 26q29 17 38.5 45t9.5 64h-52z" />
    <glyph glyph-name="hyphen" unicode="-" horiz-adv-x="546" 
d="M66 377h415v-64h-415v64z" />
    <glyph glyph-name="period" unicode="." horiz-adv-x="237" 
d="M163 -80h-90v114h90v-114z" />
    <glyph glyph-name="slash" unicode="/" horiz-adv-x="472" 
d="M422 751l-286 -803h-79l285 803h80z" />
    <glyph glyph-name="zero" unicode="0" horiz-adv-x="550" 
d="M274 730q71 0 117.5 -24.5t74 -73t38.5 -120.5t11 -166q0 -104 -13.5 -178t-43 -121t-75 -69t-109.5 -22q-66 0 -112 24t-74 73t-40.5 122t-12.5 171q0 92 11.5 163.5t39 120.5t73.5 74.5t115 25.5zM274 20q52 0 84 23t49.5 65.5t23 102.5t5.5 135q0 72 -5.5 131
t-22.5 101t-49 65t-85 23q-50 0 -81.5 -23t-49 -65t-24 -101t-6.5 -131q0 -75 6.5 -135t24 -102.5t49 -65.5t81.5 -23z" />
    <glyph glyph-name="one" unicode="1" horiz-adv-x="372" 
d="M263 -30h-79v678l-138 -45l-21 59l192 65q16 5 31 -5t15 -24v-728z" />
    <glyph glyph-name="two" unicode="2" horiz-adv-x="520" 
d="M50 -30v54q0 42 16.5 74.5t40.5 61.5q37 45 87 91.5t116 106.5q29 27 46 48.5t26 41.5t11.5 40.5t2.5 44.5q0 30 -11 55t-30.5 42.5t-46.5 27.5t-58 10q-43 0 -81 -21t-73 -49l-42 50q37 33 86 57.5t112 24.5q49 0 90.5 -14t70.5 -40t45.5 -62.5t16.5 -81.5
q0 -66 -27.5 -118.5t-89.5 -107.5q-55 -49 -101.5 -93t-88.5 -93q-20 -23 -28 -42.5t-8 -29.5v-15h344v-63h-426z" />
    <glyph glyph-name="three" unicode="3" horiz-adv-x="529" 
d="M233 730q52 0 94.5 -10.5t73 -33.5t47 -59t16.5 -87q0 -64 -32 -107.5t-83 -62.5q33 -9 59 -27.5t43.5 -43t27 -53t9.5 -58.5q0 -118 -64.5 -176t-190.5 -56q-20 0 -45 2.5t-51 8t-51.5 14t-45.5 20.5l26 62q49 -27 91 -34.5t77 -7.5q85 0 130.5 40t45.5 121q0 42 -13 71
t-36.5 47t-57 26.5t-73.5 8.5h-99v63h99q81 0 118 36t37 108q0 63 -37 94t-116 31q-22 0 -39.5 -2.5t-33 -7.5t-31 -12.5t-33.5 -17.5l-34 54q38 23 81 36t91 13z" />
    <glyph glyph-name="four" unicode="4" horiz-adv-x="526" 
d="M94 181h254v474zM423 119v-149h-75v149h-329v72l289 525h115v-535h87v-62h-87z" />
    <glyph glyph-name="five" unicode="5" horiz-adv-x="521" 
d="M228 356q-34 0 -64.5 -7.5t-62.5 -16.5q-13 -4 -24.5 2.5t-11.5 23.5l26 358h356v-63h-286l-22 -246q20 6 44.5 9t44.5 3q127 0 190 -59.5t63 -164.5q0 -51 -16 -95t-48 -76t-79 -50t-108 -18q-54 0 -102.5 10.5t-86.5 35.5l25 60q22 -11 40.5 -19t37.5 -13.5t39.5 -8
t46.5 -2.5q42 0 74.5 14.5t54 38.5t32.5 56t11 67q0 75 -43 118t-131 43z" />
    <glyph glyph-name="six" unicode="6" horiz-adv-x="520" 
d="M286 434q97 0 154 -55.5t57 -173.5v-18q0 -117 -56.5 -174t-154.5 -57q-64 0 -110.5 15t-76.5 41t-44.5 62.5t-14.5 79.5v309q0 54 15 101t45 82t74.5 55t103.5 20q53 0 93.5 -10t82.5 -33l-33 -52q-34 17 -68.5 24t-74.5 7q-38 0 -68 -15.5t-51.5 -42t-33 -62.5
t-11.5 -77v-79q32 24 75 38.5t97 14.5zM418 205q0 84 -34.5 125t-97.5 41q-35 0 -63 -8t-49 -20.5t-35 -28.5t-20 -32v-115q0 -35 8 -62t27 -46t51 -29t81 -10q63 0 97.5 39.5t34.5 127.5v18z" />
    <glyph glyph-name="seven" unicode="7" horiz-adv-x="505" 
d="M467 666q0 -27 -11 -54l-235 -642h-79l249 683h-351v63h427v-50z" />
    <glyph glyph-name="eight" unicode="8" horiz-adv-x="566" 
d="M284 -44q-53 0 -98 12.5t-79 38.5t-53 65.5t-19 92.5q0 78 29 126.5t86 77.5q-26 12 -43 30t-27 39t-13.5 44.5t-3.5 47.5q0 54 17 92t46.5 62t69.5 35t86 11t86.5 -11.5t70.5 -35.5t47.5 -62t17.5 -90q0 -24 -5 -49t-16 -47t-29 -40t-43 -28q66 -26 93 -76.5t27 -119.5
q0 -48 -15.5 -87.5t-46.5 -68t-77.5 -44t-107.5 -15.5zM282 337q-85 0 -126.5 -42t-41.5 -120q0 -75 44.5 -115t125.5 -40q46 0 78 13t52.5 34.5t29.5 49t9 56.5q0 78 -40 121t-131 43zM281 394q72 0 108 32.5t36 104.5q0 74 -39.5 104.5t-102.5 30.5q-69 0 -105.5 -32.5
t-36.5 -102.5q0 -137 140 -137z" />
    <glyph glyph-name="nine" unicode="9" horiz-adv-x="533" 
d="M494 212q0 -55 -12.5 -102t-41 -81t-74 -53.5t-112.5 -19.5q-21 0 -45.5 3.5t-49 9t-47.5 13t-42 15.5l21 61q36 -17 80.5 -27.5t82.5 -10.5q45 0 76.5 14.5t51.5 40t29 61.5t9 79v86q-30 -24 -70.5 -37t-91.5 -13q-48 0 -89 13.5t-70 41.5t-45.5 71.5t-16.5 102.5v23
q0 58 16 101t45.5 70.5t70 41t89.5 13.5q64 0 109 -15t73 -42t41 -65.5t13 -85.5v-309zM116 480q0 -84 39.5 -124.5t102.5 -40.5q64 0 107 23.5t50 61.5v108q0 37 -6.5 66.5t-23.5 49.5t-47.5 30.5t-79.5 10.5q-63 0 -102.5 -37.5t-39.5 -124.5v-23z" />
    <glyph glyph-name="colon" unicode=":" horiz-adv-x="237" 
d="M163 498h-90v100h90v-100zM163 90h-90v100h90v-100z" />
    <glyph glyph-name="semicolon" unicode=";" horiz-adv-x="238" 
d="M167 498h-90v100h90v-100zM168 195l-82 -246h-49l23 122q4 23 8 45t7.5 39.5t5.5 28.5l2 11h85z" />
    <glyph glyph-name="less" unicode="&#x3c;" horiz-adv-x="500" 
d="M364 20l-285 320l286 318l55 -48l-244 -270l244 -271z" />
    <glyph glyph-name="equal" unicode="=" horiz-adv-x="573" 
d="M79 505h415v-63h-415v63zM79 265h415v-63h-415v63z" />
    <glyph glyph-name="greater" unicode="&#x3e;" horiz-adv-x="500" 
d="M79 69l244 271l-244 270l55 48l286 -318l-285 -320z" />
    <glyph glyph-name="question" unicode="?" horiz-adv-x="519" 
d="M188 142v51q0 45 8 74t31 44l94 65q43 29 58 64t15 69q0 60 -42 96.5t-123 36.5q-48 0 -89.5 -7.5t-91.5 -20.5l-5 62q28 9 51.5 14.5t45.5 9t43 4.5t44 1q54 0 99.5 -13t78 -37.5t50.5 -61t18 -83.5q0 -60 -21.5 -101t-60.5 -68l-91 -64q-25 -17 -29 -37t-4 -51v-47h-79
zM272 -80h-90v114h90v-114z" />
    <glyph glyph-name="at" unicode="@" horiz-adv-x="917" 
d="M641 189q75 27 116.5 83t41.5 147q0 45 -17 94.5t-55.5 91t-100.5 68.5t-153 27q-89 0 -156 -28t-112 -76t-67.5 -113t-22.5 -139q0 -75 20 -137.5t63.5 -107.5t111.5 -70.5t164 -25.5q40 0 88 7.5t96 21.5l15 -42q4 -15 -7 -20q-46 -14 -100 -23t-108 -9
q-107 0 -186 30.5t-131.5 84.5t-78.5 129t-26 164q0 90 28 166.5t83.5 132t138 87t190.5 31.5q105 0 180 -32.5t123.5 -83t71.5 -111t23 -116.5q0 -81 -31 -141t-86.5 -100t-133 -60t-170.5 -21q-41 0 -75.5 11.5t-59 32.5t-38 49.5t-13.5 63.5v13q0 42 16.5 70.5t44 46
t64 24.5t77.5 7h93v20q0 39 -25 63t-73 24q-37 0 -69 -8t-73 -27l-25 57q47 22 86.5 31.5t84.5 9.5q91 0 132 -39t41 -111v-247zM454 161q29 0 56 1.5t52 5.5v184h-90q-28 0 -51 -4t-40 -14t-26.5 -27t-9.5 -43v-4q0 -42 30 -70.5t79 -28.5z" />
    <glyph glyph-name="A" unicode="A" horiz-adv-x="628" 
d="M456 194h-284l-70 -224h-82l243 746h99l246 -746h-80zM192 259h244l-123 388z" />
    <glyph glyph-name="B" unicode="B" horiz-adv-x="579" 
d="M137 324v-291h134q52 0 88.5 9.5t59 26.5t32.5 40t10 50v32q0 28 -13.5 52t-37 42t-55.5 28.5t-69 10.5h-149zM137 654v-267h150q38 0 65 11.5t44.5 29.5t25.5 39.5t8 41.5v29q0 23 -8 44t-26.5 37t-50 25.5t-78.5 9.5h-130zM266 716q64 0 110 -13.5t75 -36.5t42.5 -55
t13.5 -68v-41q0 -23 -7 -45.5t-20.5 -42t-33.5 -35t-47 -23.5q27 -5 52.5 -21t45 -38t31 -47.5t11.5 -50.5v-43q0 -96 -73.5 -141t-199.5 -45h-206v746h206z" />
    <glyph glyph-name="C" unicode="C" horiz-adv-x="581" 
d="M561 0q-17 -12 -36 -20.5t-42.5 -13.5t-53 -7.5t-66.5 -2.5q-69 0 -128 20.5t-102.5 65.5t-68 117t-24.5 175q0 110 26 185.5t68.5 122.5t98 67.5t115.5 20.5q33 0 60 -2.5t50 -7t44 -12t43 -16.5l-24 -57q-24 9 -44.5 15.5t-40 10t-41 5.5t-47.5 2q-39 0 -79.5 -16.5
t-74 -55t-55 -103t-21.5 -160.5q0 -88 22 -148t58 -97t81.5 -53t92.5 -16q45 0 84.5 7.5t77.5 30.5z" />
    <glyph glyph-name="D" unicode="D" horiz-adv-x="635" 
d="M595 344q0 -103 -23.5 -176.5t-65.5 -120.5t-99 -69t-124 -22q-57 0 -113 6t-110 22v717q54 13 112 21t115 8q70 0 126.5 -21.5t97 -68t62.5 -120t22 -176.5zM519 344q0 88 -18 149t-50 99t-76.5 55.5t-96.5 17.5q-34 0 -70 -2t-71 -12v-615q35 -11 69 -13t68 -2
q54 0 99 17.5t77.5 56t50.5 100t18 149.5z" />
    <glyph glyph-name="E" unicode="E" horiz-adv-x="504" 
d="M60 -30v746h412v-62h-334v-256h291v-62h-291v-303h346v-63h-424z" />
    <glyph glyph-name="F" unicode="F" horiz-adv-x="494" 
d="M138 321v-351h-78v746h414v-62h-336v-271h279v-62h-279z" />
    <glyph glyph-name="G" unicode="G" horiz-adv-x="637" 
d="M538 -8q-16 -8 -33 -14.5t-37.5 -11.5t-46.5 -7.5t-60 -2.5q-69 0 -127.5 20.5t-101.5 65.5t-67.5 117t-24.5 175q0 110 26 185.5t68.5 122.5t98 67.5t115.5 20.5q35 0 61 -1.5t48 -5t42.5 -10t44.5 -16.5l-22 -57q-26 9 -44.5 14.5t-36.5 8.5t-39.5 4t-53.5 1
q-41 0 -82 -16.5t-74 -55t-53.5 -103t-20.5 -160.5q0 -88 20.5 -148t55 -97t80 -53t96.5 -16q38 0 66 5.5t63 20.5v265h-187v63h265v-366z" />
    <glyph glyph-name="H" unicode="H" horiz-adv-x="632" 
d="M138 397h356v319h78v-746h-78v365h-356v-365h-78v746h78v-319z" />
    <glyph glyph-name="I" unicode="I" horiz-adv-x="259" 
d="M169 716v-746h-79v746h79z" />
    <glyph glyph-name="J" unicode="J" horiz-adv-x="394" 
d="M37 42q31 -13 56 -18t56 -5q51 0 73.5 33.5t22.5 105.5v558h79v-545q0 -50 -8 -89.5t-28 -67.5t-54 -43t-85 -15q-32 0 -67 5.5t-65 20.5z" />
    <glyph glyph-name="K" unicode="K" horiz-adv-x="604" 
d="M138 716v-410l328 410h88l-279 -352l309 -394h-95l-262 334l-89 -108v-226h-78v746h78z" />
    <glyph glyph-name="L" unicode="L" horiz-adv-x="516" 
d="M138 33h358v-63h-436v746h78v-683z" />
    <glyph glyph-name="M" unicode="M" horiz-adv-x="803" 
d="M743 -30h-78v617l-194 -356q-11 -20 -27.5 -34t-42.5 -14q-25 0 -42 15t-27 32l-194 357v-617h-78v746h86l233 -425q13 -23 22.5 -22.5t21.5 22.5l234 425h86v-746z" />
    <glyph glyph-name="N" unicode="N" horiz-adv-x="670" 
d="M143 716l389 -626v626h78v-746h-83l-389 625v-625h-78v746h83z" />
    <glyph glyph-name="O" unicode="O" horiz-adv-x="650" 
d="M532 360q0 60 -10 114.5t-34 96.5t-63.5 66.5t-99.5 24.5q-59 0 -99 -24.5t-64 -66t-34 -96.5t-10 -116v-32q0 -148 52 -225.5t155 -77.5t155 77.5t52 226.5v32zM325 730q72 0 126 -27t89 -75.5t52.5 -117t17.5 -151.5v-32q0 -83 -17.5 -151t-52.5 -117t-89 -76t-126 -27
t-126 27t-89 76t-52.5 117.5t-17.5 151.5v31q0 83 17.5 151.5t52.5 117t89 75.5t126 27z" />
    <glyph glyph-name="P" unicode="P" horiz-adv-x="567" 
d="M138 650v-327h145q85 0 125.5 38t40.5 111v30q0 69 -39 108.5t-127 39.5h-145zM138 257v-287h-78v746h223q55 0 100 -15t77 -43t49.5 -67.5t17.5 -88.5v-30q0 -17 -3.5 -40t-13 -46.5t-26.5 -46.5t-44.5 -41.5t-65.5 -29.5t-91 -11h-145z" />
    <glyph glyph-name="Q" unicode="Q" horiz-adv-x="648" 
d="M324 730q72 0 125.5 -27t89 -76t52.5 -117.5t17 -151.5v-29q0 -97 -24 -173.5t-73 -127.5l95 -143h-82l-68 102q-56 -31 -132 -31q-72 0 -125.5 27.5t-89 77t-52.5 118t-17 151.5v28q0 83 17 151.5t52.5 117.5t89 76t125.5 27zM390 214l80 -122q60 78 60 238v29
q0 60 -10 115t-33.5 96.5t-63 66.5t-99.5 25q-59 0 -98.5 -24.5t-63.5 -66.5t-34 -97t-10 -116v-29q0 -148 51.5 -226.5t154.5 -78.5q53 0 93 22l-110 168h83z" />
    <glyph glyph-name="R" unicode="R" horiz-adv-x="584" 
d="M138 287v-317h-78v746h223q55 0 100 -13.5t77 -39.5t49.5 -64t17.5 -87v-20q0 -20 -4.5 -45.5t-18 -51t-37 -49t-61.5 -38.5q20 -37 41.5 -81t42.5 -89t40 -88.5t34 -79.5h-81q-14 34 -31.5 74.5t-37 83t-39.5 84.5t-39 78q-26 -3 -53 -3h-145zM138 650v-297h145
q85 0 125.5 33t40.5 106v20q0 69 -39 103.5t-127 34.5h-145z" />
    <glyph glyph-name="S" unicode="S" horiz-adv-x="525" 
d="M248 -44q-33 0 -60 3.5t-51 10.5t-47 16.5t-47 21.5l29 64q57 -29 97.5 -40.5t74.5 -11.5q42 0 73 10.5t52 28.5t31.5 41.5t10.5 49.5q0 43 -29.5 81.5t-96.5 73.5l-124 61q-68 33 -97 82.5t-29 104.5q0 37 14.5 69t42.5 56t68.5 37.5t92.5 13.5q30 0 54 -2.5t47 -9
t46 -18t51 -30.5l-36 -53q-23 15 -41 25t-35.5 15.5t-37.5 7.5t-48 2q-24 0 -49 -5.5t-45 -18t-32.5 -34.5t-12.5 -55q0 -42 24.5 -72t75.5 -59l117 -59q43 -24 73.5 -47.5t49.5 -48.5t27.5 -53.5t8.5 -62.5q0 -52 -21.5 -89t-56 -60.5t-78 -34.5t-86.5 -11z" />
    <glyph glyph-name="T" unicode="T" horiz-adv-x="535" 
d="M228 654h-198v62h475v-62h-199v-684h-78v684z" />
    <glyph glyph-name="U" unicode="U" horiz-adv-x="631" 
d="M138 173q0 -38 14 -66.5t38 -48t55.5 -29.5t66.5 -10h9q35 0 66.5 10t55 29.5t37 48t13.5 66.5v543h78v-532q0 -57 -20 -100t-54 -71.5t-79.5 -42.5t-96.5 -14h-9q-51 0 -97 14t-80.5 42.5t-54.5 71.5t-20 100v532h78v-543z" />
    <glyph glyph-name="V" unicode="V" horiz-adv-x="627" 
d="M314 40l211 676h82l-241 -746h-103l-243 746h82z" />
    <glyph glyph-name="W" unicode="W" horiz-adv-x="881" 
d="M861 716l-172 -746h-98l-138 478q-4 14 -11.5 14t-11.5 -14l-138 -478h-99l-173 746h78l147 -664l139 482q5 14 18 27.5t38 13.5q24 0 38.5 -12t19.5 -27l139 -484l147 664h77z" />
    <glyph glyph-name="X" unicode="X" horiz-adv-x="628" 
d="M20 -30l250 375l-241 371h86l199 -307l200 307h88l-242 -371l248 -375h-88l-206 309l-204 -309h-90z" />
    <glyph glyph-name="Y" unicode="Y" horiz-adv-x="590" 
d="M330 -30h-78v298l-232 448h83l191 -369l191 369h85l-240 -449v-297z" />
    <glyph glyph-name="Z" unicode="Z" horiz-adv-x="539" 
d="M477 716v-70l-363 -613h390v-63h-469v75l360 609h-348v62h430z" />
    <glyph glyph-name="bracketleft" unicode="[" horiz-adv-x="426" 
d="M353 -76h-220v866h220v-63h-141v-740h141v-63z" />
    <glyph glyph-name="backslash" unicode="\" horiz-adv-x="501" 
d="M140 751l286 -803h-80l-286 803h80z" />
    <glyph glyph-name="bracketright" unicode="]" horiz-adv-x="426" 
d="M79 -13h140v740h-140v63h219v-866h-219v63z" />
    <glyph glyph-name="asciicircum" unicode="^" horiz-adv-x="585" 
d="M251 816h86l167 -237h-85l-125 178l-124 -178h-87z" />
    <glyph glyph-name="underscore" unicode="_" horiz-adv-x="599" 
d="M103 -57h397v-63h-397v63z" />
    <glyph glyph-name="grave" unicode="`" horiz-adv-x="813" 
d="M324 -18q-25 0 -42 23q-14 17 -16 29q-11 -8 -25 -13.5t-28 -5.5q-19 0 -35 6t-31 22l-26 27q-4 4 -12 4q-4 0 -14 -2q-5 -3 -10 -5.5t-10 -2.5t-11.5 3.5t-6.5 10.5q0 11 7 19.5t17 13.5q-7 13 -7 21q0 14 13 27q1 1 4 1l55 3q1 0 3 -3l3 -6q7 0 9 -1l-8 14h-6
q-11 0 -21 7q-14 9 -22 25.5t-8 34.5q0 32 26 56q-4 2 -7.5 5.5l-6.5 6.5q-33 30 -39 80q-3 21 -3 43q0 32 4.5 56.5t13.5 56.5q-1 17 0 40.5t4.5 47.5t11 46.5t18.5 36.5q13 18 34 18q20 0 38 -12t34 -26l22 -18l46 9q26 5 51.5 7t48.5 2h9q9 14 22 27t27 24q27 21 48 21
q11 0 22 -8q11 -10 20 -26.5t15 -42.5q2 -9 5.5 -26.5t8.5 -44.5q11 -13 19.5 -28t14.5 -29q2 4 4.5 8t7.5 6v5q0 35 32 49q18 9 38 9q43 0 76 -50q22 -35 22 -65q0 -17 -7 -32.5t-18 -26.5q-3 -4 -7 -7t-7 -6q-91 -169 -258 -241q2 -32 -4 -58q-2 -13 -5 -28.5t-8 -33.5
q-5 -17 -10 -32.5t-12 -27.5q-14 -26 -29 -44l-12 -16q-12 -19 -22 -41q-4 -11 -7.5 -20t-8.5 -16q-5 -6 -12 -12t-17 -6q-11 0 -18 8t-12 17q-6 13 -6 35q0 8 2.5 14.5t6.5 14.5q5 6 8.5 11.5t6.5 11.5h-3zM116 310q7 -7 16 -13q5 2 10.5 4t10.5 2q9 0 17.5 -4t15.5 -9h7
q18 0 28 -16q1 -2 2 -4.5t1 -4.5q27 -3 58 -3q19 0 39 1.5t40 5.5l16 2q90 12 152 48q87 46 87 123q0 6 -0.5 11t-1.5 10q-8 55 -25 94q-10 27 -30 50l-1 2q-5 27 -9 45.5t-6 26.5q-5 24 -14 39.5t-17 23.5q-5 5 -14 5q-15 2 -41 -18q-29 -23 -48 -51q-2 -2 -6 -2h-16
q7 -16 2 -43l-7 -23q-4 18 -11 34t-15 31l-22 -2t-22 -3q14 -36 20 -71q-5 4 -10.5 8.5t-10.5 11.5q-22 22 -32 45l-34 -6q-2 -1 -2.5 -0.5t-2.5 0.5l-23 20q-13 11 -30 23t-35 12q-15 0 -25 -13q-10 -12 -16.5 -33.5t-10 -45.5t-4.5 -47.5t0 -39.5q-8 -23 -13 -54t-5 -57
q0 -21 3 -42q5 -46 35 -73zM211 218q-7 -7 -16 -7q0 -23 -24 -36l-7 -5q9 -15 21 -24.5t26 -9.5q11 0 32 18l8 6q2 16 7 31.5t12 31.5q3 5 8 2q5 -2 2 -8q-9 -21 -14 -41.5t-5 -41.5q0 -30 11 -61l3 36q3 5 7 4q6 -2 5 -6l-4 -44q-1 -7 -1.5 -11.5t-2.5 -9.5q-1 0 -1 -2.5
v-3.5q0 -2 2.5 -8.5t9.5 -15.5q14 -14 24 -16q2 4 2 10q0 7 -3 10q-2 1 1 4q4 1 4 -1q3 -6 3 -13v-5.5t-2 -6.5q4 -1 9 0t7 2l2 10q0 7 -3 12q-2 1 1 4q3 1 3 -2q5 -8 5 -14q0 -5 -1 -6q8 5 11 13.5t3 17.5q0 8 -1 11q0 3 1 4q10 24 10 53q0 25 -11 43.5t-37 18.5
q-11 0 -21.5 -5.5t-21.5 -19.5q0 -3 -5 -5q-2 -1 -5 4t0 8q25 30 53 30q30 0 45 -22t15 -51q0 -16 -2.5 -29.5t-9.5 -26.5q1 -5 1.5 -8t0.5 -5q0 -13 -6 -26t-19 -18l-21 -34q-7 -10 -7 -24q0 -18 4 -29q2 -4 4.5 -8t6.5 -7q3 7 3 14v3q0 4 2 4q3 0 3 -4q0 -5 -0.5 -9.5
t-2.5 -9.5q5 -4 13 1q4 9 4 15q0 2 -0.5 2.5t-0.5 2.5q-1 1 2 4q3 1 3 -2q1 -8 0 -15l4 4q4 5 6.5 14t7.5 20q5 12 10.5 22.5t12.5 19.5l13 17q7 9 13.5 20t13.5 22q6 11 11.5 26t9.5 32l12 60q5 18 5 37.5t-2 37.5q-2 5 5 6q4 0 6 -5q1 -1 1 -6q154 67 240 219
q-3 -1 -11 -1q-14 0 -29 9t-35 31l-1 1h-2q-16 2 -26 14q2 -7 3 -13.5t2 -13.5q1 -5 1.5 -10.5t0.5 -11.5q0 -83 -92 -134q-33 -19 -72 -30.5t-85 -17.5l-16 -3q-21 -3 -41 -5t-40 -2h-12q-7 -17 -15.5 -24.5t-22.5 -11.5l5 -3q3 -5 0 -8q-4 -4 -8 0zM421 454q-3 -7 -10 -10
q-5 -25 -5 -42q0 -27 10 -54q3 -8 3 -15q0 -20 -14.5 -30t-34.5 -10q-38 0 -55 29q-17 36 -17 64q0 31 5 46q-4 2 -6.5 5t-4.5 6q-5 5 2 7q5 2 5 -2l2 -3q9 -12 34 -8q16 4 22 18q2 6 2 12q0 4 4 4q2 0 4 -2l7 -13q6 -9 20 -9t19 12q2 2 2 7t5 5q4 0 4 -4q0 -5 -1 -7.5
t-2 -5.5zM659 481l4 -4q3 5 5.5 9t6.5 9q9 12 20.5 21t24.5 12q4 0 4 -2q0 -3 -3 -4q-22 -6 -42 -32q-4 -5 -6.5 -9t-4.5 -9q22 -24 46 -24q17 0 36 19q10 11 16 24t6 27q0 25 -21 57q-29 47 -66 47q-16 0 -34 -9q-24 -11 -24 -38v-2q7 0 15 -3t14 -7q19 10 42 10q3 0 3 -4
q0 -3 -3 -3q-21 0 -37 -8q9 -6 17 -26q0 -3 1 -7t1 -7q0 -11 -4.5 -19.5t-11.5 -13.5zM185 221q9 13 9 23q0 7 -4 11q-9 4 -18 4q-8 0 -23 -5h-1q-2 0 -2 2q-2 1 1 4q11 4 25 4q5 0 9 -0.5t9 -1.5q0 5 -5 13q-5 5 -14 10.5t-18 5.5q-5 0 -11 -1.5t-12 -7.5l-4 -5
q-18 -18 -18 -43q0 -14 5 -27.5t19 -22.5q9 -6 17 -6q7 1 16 6q18 10 18 28v3q-3 0 -6 0.5t-6 0.5q-9 0 -24 -5q-2 -2 -3 0.5t1 3.5q14 8 26 8q4 0 7 -1t7 -1zM177 509q13 16 31 19q21 1 34 -9q16 -13 19 -30q1 -22 -10 -35q-11 -15 -29 -18t-35 8q-15 10 -18 31q-3 19 8 34
zM511 555q15 -13 16 -31q3 -19 -6 -34t-26 -18q-17 -2 -30 9q-13 13 -16 31q-3 20 6 35t26 18q17 2 30 -10zM370 302q16 0 24 5q-2 20 -7.5 33.5t-13.5 23.5q-9 9 -21.5 14.5t-29.5 5.5h-7t-8 -1q1 -13 4.5 -27.5t11.5 -29.5q12 -24 47 -24zM212 124q-16 0 -30 10
q-6 -22 -27 -29q2 -2 4.5 -4t4.5 -5q19 -24 44 -25q26 -3 48 16q-4 11 -4.5 23.5t-0.5 22.5v13q-9 -7 -18.5 -14.5t-20.5 -7.5zM138 103q-10 -10 -10 -23l1 -2q8 -5 14 -12.5t14 -15.5q13 -13 27.5 -18t28.5 -5q27 0 56 26q0 1 -1 3.5t-2 4.5l-6 14q-14 -9 -25 -13t-28 -3
q-32 3 -52 30l-8.5 8.5t-8.5 5.5zM669 518q0 1 -2 11q-5 13 -15.5 22.5t-24.5 9.5q-8 0 -11.5 -6t-3.5 -14q0 -16 15 -37q5 -9 10 -12t10 -3q9 0 15.5 10.5t6.5 18.5zM82 132q0 -9 6 -16q17 5 26 5q10 0 13 -1l5 -1q-3 9 -3 17q0 9 6 17l-44 -1q-9 -11 -9 -20zM130 107
q-6 3 -16 3t-19 -4q-1 -3 -1 -9q0 -5 0.5 -7.5t2.5 -6.5q10 2 12 2q8 0 10 -1q2 11 11 23zM223 224q9 2 17 6.5t13 13.5l4 7q-8 1 -16 1.5t-16 0.5q0 -16 -7 -26zM120 558q7 36 15 73t16 57q1 0 1.5 0.5t2.5 -0.5q-9 -28 -16.5 -60t-13.5 -61zM218 511q-2 -6 -2 -9
q2 -6 6 -7q1 -4 8 -2q4 0 7 5q3 3 2 9q0 4 -5 7t-8 2q-5 -2 -8 -5zM210 269q-2 3 -5.5 6t-8.5 4q3 -5 4.5 -9t1.5 -12q3 -6 3 -14q0 -5 -5 -20q8 5 10.5 15t2.5 17q0 8 -3 13zM141 588l24 101l4 -1l-23 -93zM461 536q5 -11 12 -11q10 0 8 13q-1 10 -11 10q-11 -2 -9 -12z
M116 604q3 17 7.5 35.5t11.5 37.5l5 5q-7 -22 -14.5 -51t-11.5 -55zM89 80q-1 2 -2 4.5t-2 5.5q0 2 -0.5 4t0.5 7q-5 -3 -12 -9.5t-5 -12.5q1 -4 7 -4q2 0 14 5zM135 136q0 -10 3 -19l1 -1q8 6 8 18q0 11 -4 19q-8 -8 -8 -17zM152 114q18 7 22 25l-2 2q-8 -2 -13 -7
q-2 -4 -4 -8.5t-3 -11.5zM161 610l17 76l4 -2l-17 -69zM489 723l-26 -53l-4 1l24 50zM516 714l-27 -56l-3 2l27 57zM500 724q2 1 2.5 0.5t1.5 -0.5l-28 -60l-3 2zM522 705q2 -2 2 -5l-23 -48l-3 2zM179 626l12 53l3 -3l-10 -45zM467 713l6 4l-20 -43l-4 2zM531 684l-20 -37
l-3 2l21 40zM507 460q1 0 2.5 0.5t2.5 0.5l-14 -36q-1 0 -2 0.5t-2 0.5zM180 425q1 1 5 1l-16 -36h-1h-3zM181 388l16 38q1 1 4 1l-17 -39h-3zM537 461q3 0 4 -1l-14 -35q-1 -1 -3 -1zM197 389l16 36h1h2l-15 -36h-4zM275 -178q-2 0 -2.5 0.5t-2.5 0.5l18 22q2 0 3 0.5
t3 0.5zM536 667l-15 -27l-3 2l16 30zM354 -179l20 25h5l-20 -25h-5zM317 -179h-5l21 25h5zM326 -179l21 25h5l-21 -25h-5zM340 -179l20 25h5l-20 -25h-5zM284 -178l19 24h5l-19 -24h-5zM298 -178l20 24h5l-20 -24h-5zM509 423l14 39h3l-14 -39h-3zM277 -155l-17 -22
q-2 0 -2.5 0.5t-2.5 0.5l17 21h5zM387 -177l18 21h5l-17 -21h-6zM371 -178l19 23h4l-18 -23h-5zM194 638l7 31l3 -4l-5 -22zM262 -156l-16 -19q-2 0 -3 0.5t-2 0.5l16 18h5zM404 -176l16 19q1 0 2 -0.5t2 -0.5l-14 -18h-6zM443 679q-2 2 -2 4l8 18l7 6zM420 -174l12 15
q4 0 5 -1l-12 -14h-5zM540 649l-10 -16l-3 2l12 19zM240 -159q1 0 2 0.5t3 0.5l-12 -15q-1 1 -4 1zM160 414l6 5l-10 -21q0 1 -1 1.5t-1 1.5zM550 454q2 -2 2 -3l-6 -17l-4 -3zM494 454l-8 -21q-2 2 -2 3l6 15zM217 395l8 22q2 -2 2 -4l-5 -12zM436 -172l8 11q1 -1 3 -1
q1 0 1 -1l-6 -7zM536 627l7 11l1 -5l-5 -9zM225 -161q5 0 6 1l-8 -10l-3 2zM155 145q0 -2 0.5 -3t0.5 -3l7 6h-8z" />
    <glyph glyph-name="a" unicode="a" horiz-adv-x="514" 
d="M454 -12q-49 -14 -99.5 -23t-113.5 -9q-43 0 -79 11.5t-62 32t-40.5 49.5t-14.5 64v34q0 42 17 71t46 47.5t66 26.5t78 8h123v34q0 39 -25 63t-73 24q-27 0 -46.5 -1.5t-36.5 -5.5t-35 -10t-43 -15l-25 59q45 18 88 27t102 9q91 0 132 -39t41 -111v-346zM242 19
q38 0 69.5 3t63.5 10v204h-120q-28 0 -52 -5t-42 -16t-28 -29t-10 -43v-11q0 -51 34 -82t85 -31z" />
    <glyph glyph-name="b" unicode="b" horiz-adv-x="525" 
d="M287 484q48 0 85 -12.5t62 -40.5t38 -73.5t13 -112.5v-48q0 -66 -12.5 -112t-37.5 -74.5t-62 -41.5t-86 -13q-75 0 -127 10.5t-100 28.5v721h79v-270q29 18 66 28t82 10zM406 245q0 97 -28 136.5t-91 39.5q-57 0 -96.5 -16.5t-51.5 -40.5v-326q22 -8 59.5 -13t88.5 -5
q31 0 54 8.5t37 29t21 54.5t7 85v48z" />
    <glyph glyph-name="c" unicode="c" horiz-adv-x="477" 
d="M271 19q38 0 71.5 4t79.5 15l15 -57q-53 -14 -90.5 -19.5t-76.5 -5.5q-67 0 -111 15.5t-70.5 45.5t-37.5 73t-11 99v59q0 55 11 99t37.5 74.5t70.5 46.5t111 16q32 0 69 -4t88 -13l-17 -64q-42 9 -75.5 13t-64.5 4q-45 0 -74 -11t-46 -33t-24 -55t-7 -76v-52
q0 -44 6.5 -76.5t24 -54t47 -32.5t74.5 -11z" />
    <glyph glyph-name="d" unicode="d" horiz-adv-x="525" 
d="M247 484q83 0 139 -36v268h79v-721q-43 -15 -94 -27t-124 -12q-100 0 -153.5 60t-53.5 181v48q0 123 55 181t152 58zM119 197q0 -91 32.5 -134t95.5 -43q49 0 84.5 5t54.5 13v324q-12 24 -48.5 41.5t-90.5 17.5q-128 0 -128 -176v-48z" />
    <glyph glyph-name="e" unicode="e" horiz-adv-x="506" 
d="M119 246h270v44q0 131 -138 131q-63 0 -97.5 -32.5t-34.5 -98.5v-44zM258 19q29 0 51 1.5t41.5 4.5t38 9t40.5 15l19 -58q-22 -10 -43 -17t-43.5 -11t-48 -5.5t-55.5 -1.5q-47 0 -86.5 14.5t-69 42t-46 68t-16.5 91.5v97q0 106 56 160.5t155 54.5q58 0 99 -16t67 -44
t37.5 -65t11.5 -79v-32q0 -32 -15.5 -48.5t-53.5 -16.5h-278v-20q0 -38 13.5 -65t33.5 -44.5t44.5 -26t47.5 -8.5z" />
    <glyph glyph-name="f" unicode="f" horiz-adv-x="371" 
d="M319 366h-156v-396h-79v396h-59v64h59v137q0 68 38.5 112t115.5 44q26 0 54 -5t49 -13l-22 -58q-20 8 -40.5 10.5t-40.5 2.5q-22 0 -36.5 -8.5t-23 -21.5t-12 -30t-3.5 -33v-137h156v-64z" />
    <glyph glyph-name="g" unicode="g" horiz-adv-x="525" 
d="M465 474v-511q0 -44 -12.5 -81t-39 -64t-68 -42t-98.5 -15q-47 0 -87 7t-86 30l22 57q38 -18 69.5 -25t72.5 -7q25 0 51 5.5t47.5 19.5t35.5 39.5t14 64.5v39q-27 -16 -60 -25.5t-68 -9.5q-109 0 -163.5 65t-54.5 191v18q0 254 218 254q38 0 70 -10t58 -26v26h79z
M119 212q0 -92 30 -142t109 -50q18 0 36.5 3.5t35.5 10t32 16t24 21.5v301q-24 25 -58.5 37t-69.5 12q-39 0 -66 -13.5t-43 -38t-23 -60t-7 -79.5v-18z" />
    <glyph glyph-name="h" unicode="h" horiz-adv-x="526" 
d="M387 -30v315q0 63 -26 99t-87 36q-36 0 -68.5 -13t-66.5 -33v-404h-79v746h79v-271q32 18 67 28.5t77 10.5q91 0 137 -50t46 -138v-326h-79z" />
    <glyph glyph-name="i" unicode="i" horiz-adv-x="213" 
d="M65 704h83v-121h-83v121zM146 474v-504h-79v504h79z" />
    <glyph glyph-name="j" unicode="j" horiz-adv-x="317" 
d="M172 474h78v-535q0 -85 -33 -131.5t-109 -46.5q-24 0 -43.5 3t-39.5 7l11 58q11 -2 18.5 -3t14.5 -2t14.5 -1h18.5q39 0 54.5 26.5t15.5 69.5v555zM170 704h82v-121h-82v121z" />
    <glyph glyph-name="k" unicode="k" horiz-adv-x="481" 
d="M60 716h78v-475q60 63 112.5 121t100.5 112h84q-42 -48 -86.5 -97t-89.5 -100q24 -35 50.5 -75.5l53 -81t50.5 -79.5t43 -71h-87q-38 63 -81 130t-79 121q-18 -20 -36 -38.5t-35 -38.5v-174h-78v746z" />
    <glyph glyph-name="l" unicode="l" horiz-adv-x="209" 
d="M144 716v-746h-79v746h79z" />
    <glyph glyph-name="m" unicode="m" horiz-adv-x="757" 
d="M343 -30v325q0 27 -3.5 50.5t-12.5 40t-24 26t-38 9.5q-36 0 -63.5 -12.5t-62.5 -38.5v-400h-79v504h79v-33q29 20 64 31.5t71 11.5q87 0 121 -58q32 26 72 42t82 16q78 0 113 -45t35 -133v-336h-79v325q0 27 -3.5 50.5t-12.5 40t-24 26t-38 9.5q-35 0 -62.5 -11.5
t-61.5 -37.5q6 -30 6 -66v-336h-79z" />
    <glyph glyph-name="n" unicode="n" horiz-adv-x="533" 
d="M394 -30v316q0 27 -6.5 51.5t-20 43t-35 29t-51.5 10.5q-35 0 -71 -13t-71 -35v-402h-79v504h79v-37q67 47 151 47q91 0 137 -49.5t46 -137.5v-327h-79z" />
    <glyph glyph-name="o" unicode="o" horiz-adv-x="529" 
d="M410 255q0 79 -33.5 125t-112.5 46t-112 -46t-33 -125v-63q0 -78 33 -125t112 -47t112.5 47t33.5 125v63zM264 489q109 0 167 -59.5t58 -174.5v-63q0 -115 -58 -175.5t-167 -60.5q-106 0 -165 60.5t-59 175.5v63q0 115 59 174.5t165 59.5z" />
    <glyph glyph-name="p" unicode="p" horiz-adv-x="525" 
d="M287 484q46 0 83 -13t62.5 -41.5t39 -74t13.5 -110.5v-48q0 -128 -52 -184.5t-146 -56.5q-45 0 -82 9.5t-66 26.5v-216h-79v673q54 16 107.5 25.5t119.5 9.5zM406 245q0 93 -31 134.5t-88 41.5q-83 0 -148 -17v-328q12 -24 51.5 -40t96.5 -16t88 40.5t31 136.5v48z" />
    <glyph glyph-name="q" unicode="q" horiz-adv-x="525" 
d="M243 484q60 0 115.5 -8t106.5 -22v-678h-79v215q-28 -16 -64 -25.5t-79 -9.5q-48 0 -85.5 13.5t-63.5 43t-40 75t-14 109.5v48q0 65 14.5 110.5t40.5 74t63.5 41.5t84.5 13zM119 197q0 -96 33.5 -136.5t90.5 -40.5t94 17t49 41v331q-60 12 -143 12q-57 0 -90.5 -41.5
t-33.5 -134.5v-48z" />
    <glyph glyph-name="r" unicode="r" horiz-adv-x="383" 
d="M335 413q-11 4 -26.5 5.5t-32.5 1.5q-27 0 -65.5 -11.5t-71.5 -45.5v-393h-79v504h79v-40q28 27 65.5 38.5t82.5 11.5q15 0 32 -2t29 -6z" />
    <glyph glyph-name="s" unicode="s" horiz-adv-x="440" 
d="M210 484q42 0 79.5 -4t79.5 -20l-24 -62q-21 7 -37.5 12t-31.5 7.5t-30.5 3t-35.5 -0.5q-52 -3 -74 -19t-22 -48q0 -28 14.5 -46.5t54.5 -30.5l92 -28q67 -20 98.5 -57t31.5 -88q0 -72 -51 -109.5t-136 -37.5q-48 0 -94 9t-88 29l21 63q44 -18 80 -27.5t80 -8.5
q48 1 80 22t32 60q0 62 -71 82l-92 27q-66 20 -98.5 52t-32.5 89q0 25 10 48.5t31.5 42t54.5 29.5t79 11z" />
    <glyph glyph-name="t" unicode="t" horiz-adv-x="382" 
d="M352 -23q-21 -8 -42 -14.5t-47 -6.5q-77 0 -108.5 32.5t-31.5 100.5v322h-93v64h93v220h79v-220h134v-64h-134v-322q0 -33 11.5 -51.5t49.5 -18.5q20 0 38 4t38 10z" />
    <glyph glyph-name="u" unicode="u" horiz-adv-x="534" 
d="M139 475v-321q0 -63 29.5 -98.5t90.5 -35.5q38 0 72.5 4.5t63.5 15.5v435h79v-480q-55 -21 -107 -30t-117 -9q-91 0 -140.5 45.5t-49.5 141.5v332h79z" />
    <glyph glyph-name="v" unicode="v" horiz-adv-x="509" 
d="M206 -30l-181 504h79l154 -440l152 440h74l-176 -504h-102z" />
    <glyph glyph-name="w" unicode="w" horiz-adv-x="723" 
d="M698 474l-140 -504h-83l-110 341l-115 -341h-82l-143 504h74l111 -416l114 342q4 13 15 19t23.5 5.5t23.5 -6.5t15 -18l114 -342l112 416h71z" />
    <glyph glyph-name="x" unicode="x" horiz-adv-x="503" 
d="M25 -30l182 254l-175 250h83l135 -197l136 197h85l-176 -250l183 -254h-84l-141 201l-143 -201h-85z" />
    <glyph glyph-name="y" unicode="y" horiz-adv-x="500" 
d="M207 -11l-182 485h83l136 -386l146 386h85l-270 -698h-78z" />
    <glyph glyph-name="z" unicode="z" horiz-adv-x="452" 
d="M407 34v-64h-362v71l268 369h-254v64h335v-70l-266 -370h279z" />
    <glyph glyph-name="braceleft" unicode="{" horiz-adv-x="427" 
d="M362 -73h-62q-113 0 -113 121v201q0 37 -25.5 55.5t-62.5 21.5v58q38 2 63 18.5t25 57.5v205q0 61 29 93.5t89 32.5h57v-57q-51 -2 -76 -16.5t-25 -53.5v-198q0 -42 -13 -68t-39 -43q52 -39 52 -112v-190q0 -42 23.5 -55t77.5 -14v-57z" />
    <glyph glyph-name="bar" unicode="|" horiz-adv-x="312" 
d="M197 767v-819h-69v819h69z" />
    <glyph glyph-name="braceright" unicode="}" horiz-adv-x="428" 
d="M75 -16q55 1 78.5 14t23.5 55v190q0 37 12 64.5t40 47.5q-27 17 -39.5 43t-12.5 68v198q0 39 -25.5 53.5t-76.5 16.5v57h57q60 0 89.5 -32.5t29.5 -93.5v-205q0 -41 25 -57.5t63 -18.5v-58q-38 -3 -63 -21.5t-25 -55.5v-201q0 -121 -114 -121h-62v57z" />
    <glyph glyph-name="asciitilde" unicode="~" horiz-adv-x="724" 
d="M672 414q0 -37 -9 -70.5t-28.5 -59t-50.5 -40.5t-76 -15q-55 0 -94 23.5t-71 63.5q-30 38 -55 54t-55 16q-46 0 -70 -33t-28 -87h-73q3 39 15 72.5t33 58t51.5 38.5t69.5 14q57 0 95 -25.5t76 -74.5q21 -27 46.5 -41.5t57.5 -14.5q45 0 69.5 29t25.5 92h71z" />
    <glyph glyph-name="uni00A0" unicode="&#xa0;" horiz-adv-x="300" 
 />
    <glyph glyph-name="exclamdown" unicode="&#xa1;" horiz-adv-x="300" 
d="M182 339l18 -539h-100l19 539h63zM106 585h91v-114h-91v114z" />
    <glyph glyph-name="currency" unicode="&#xa4;" horiz-adv-x="810" 
d="M148 595h71l53 -62q72 42 147 42q72 0 138 -31q7 8 20.5 22.5t27.5 28.5h75l-78 -86q71 -71 71 -171q0 -101 -57 -170l29 -35l34 -45h-68l-41 44q-70 -37 -150 -37q-45 0 -84 11t-77 35l-48 -53h-73l82 92q-51 67 -51 158q0 46 16.5 86t45.5 75zM237 339q0 -87 48 -140.5
t135 -53.5q91 0 138.5 50.5t47.5 141.5q0 42 -14.5 76t-39.5 59t-59.5 38.5t-74.5 13.5q-39 0 -72.5 -14t-57.5 -39t-37.5 -58.5t-13.5 -73.5z" />
    <glyph glyph-name="section" unicode="&#xa7;" horiz-adv-x="382" 
d="M264 361q0 20 -16.5 38.5t-39.5 31.5q-40 -8 -58.5 -29.5t-18.5 -42.5t16 -40t55 -37q28 8 45 29t17 50zM259 638q-30 11 -58 11q-37 0 -57.5 -10t-20.5 -37q0 -11 8.5 -23t21 -23.5t26.5 -21.5t26 -17q24 -17 48.5 -35t44 -37.5t31.5 -40t12 -42.5q0 -35 -17 -64
t-56 -58q48 -38 63.5 -65t15.5 -54t-9.5 -49.5t-30 -39.5t-53.5 -26.5t-80 -9.5q-30 0 -59.5 4.5t-53.5 17.5q9 17 17.5 30.5t17.5 30.5q22 -8 43.5 -12.5t34.5 -4.5q93 0 93 57q0 16 -10 31t-25 28.5t-32 24.5t-31 19q-18 10 -39 23.5t-38.5 30t-29 37t-11.5 45.5
q0 26 22.5 57t70.5 56q-45 31 -73.5 61t-28.5 67q0 54 43 84t121 30q25 0 48 -5t40 -12z" />
    <glyph glyph-name="dieresis" unicode="&#xa8;" horiz-adv-x="313" 
d="M114 595h-85v90h85v-90zM286 595h-84v90h84v-90z" />
    <glyph glyph-name="ordfeminine" unicode="&#xaa;" horiz-adv-x="460" 
d="M297 546q-37 -1 -63.5 -2.5t-43.5 -6.5q-26 -6 -42 -26t-16 -48q0 -25 18.5 -43.5t46.5 -18.5q26 0 51.5 11.5t48.5 31.5v102zM56 242v41h353v-41h-353zM297 358v50q-27 -26 -51.5 -40t-50.5 -14q-57 0 -85.5 31.5t-28.5 76.5q0 92 96 118q17 5 47.5 7t72.5 2v26
q0 32 -18 48.5t-61 16.5q-21 0 -46 -8.5t-43 -19.5l-25 37q23 17 54 28t61 11q66 0 100 -26t34 -89v-255h-56z" />
    <glyph glyph-name="uni00AD" unicode="&#xad;" horiz-adv-x="612" 
d="M90 315v51h438v-51h-438z" />
    <glyph glyph-name="registered" unicode="&#xae;" horiz-adv-x="900" 
d="M53 347q0 87 29.5 159t82 123.5t125.5 80.5t160 29t159.5 -29t125 -80.5t82 -123.5t29.5 -159t-29.5 -159.5t-82 -124t-125 -80.5t-159.5 -29t-160 29t-125.5 80.5t-82 124t-29.5 159.5zM113 347q0 -74 24.5 -135t68.5 -105t106 -68.5t137 -24.5q74 0 135.5 24.5
t105.5 68.5t68.5 105t24.5 135q0 73 -24 134t-68 104.5t-105.5 68t-136.5 24.5t-136.5 -24.5t-106 -68.5t-69 -104.5t-24.5 -133.5zM354 309v-222h-60v522h156q38 0 70.5 -9.5t56 -27.5t36.5 -45t13 -61v-14q0 -14 -4 -32t-14 -36t-27.5 -34t-44.5 -27q14 -26 29 -56.5
t29.5 -62t28 -62t23.5 -55.5h-60q-10 24 -22 52t-25.5 57.5t-27.5 58.5t-28 55q-8 -1 -16 -1h-17h-96zM354 560v-202h96q60 0 88 21.5t28 72.5v14q0 49 -27.5 71.5t-88.5 22.5h-96z" />
    <glyph glyph-name="degree" unicode="&#xb0;" horiz-adv-x="332" 
d="M73 711q0 40 27 65.5t67 25.5q39 0 66.5 -25.5t27.5 -65.5t-27.5 -65t-66.5 -25q-40 0 -67 25t-27 65zM109 711q0 -29 16 -42.5t42 -13.5q24 0 41.5 13.5t17.5 42.5t-17.5 43t-41.5 14q-26 0 -42 -14t-16 -43z" />
    <glyph glyph-name="plusminus" unicode="&#xb1;" horiz-adv-x="700" 
d="M117 83h467v-63h-467v63zM389 428h204v-63h-204v-199h-80v199h-202v63h202v195h80v-195z" />
    <glyph glyph-name="uni00B2" unicode="&#xb2;" horiz-adv-x="319" 
d="M43 300v33q0 23 9.5 48.5t21.5 40.5q18 23 44.5 46.5t59.5 54.5q29 27 39.5 48t10.5 45q0 31 -20.5 50.5t-54.5 19.5q-23 0 -41 -12.5t-35 -29.5l-32 37q19 19 47 33.5t62 14.5q26 0 49 -8.5t40 -24t27 -36.5t10 -45q0 -70 -60 -122q-30 -26 -52 -45.5t-46 -45.5
q-14 -14 -18.5 -26t-4.5 -20v-7h178v-49h-234z" />
    <glyph glyph-name="uni00B3" unicode="&#xb3;" horiz-adv-x="319" 
d="M137 729q26 0 49.5 -6.5t41 -20t28 -33t10.5 -46.5q0 -34 -17.5 -59.5t-42.5 -36.5q32 -12 52.5 -39.5t20.5 -63.5q0 -61 -38 -95.5t-104 -33.5q-22 0 -53 6t-53 19l14 39q27 -14 50 -17.5t42 -3.5q45 0 66.5 23.5t21.5 60.5t-26.5 60.5t-63.5 23.5h-54v39h54
q40 0 58.5 22.5t18.5 56.5q0 29 -19.5 47t-56.5 18q-24 0 -39.5 -5t-35.5 -16l-19 34q43 27 95 27z" />
    <glyph glyph-name="acute" unicode="&#xb4;" horiz-adv-x="267" 
d="M132 797h64l-83 -154h-31z" />
    <glyph glyph-name="paragraph" unicode="&#xb6;" horiz-adv-x="810" 
d="M592 741v-842h-51v779h-74v-779h-49v409q-47 3 -84.5 20.5t-63.5 47t-39.5 68t-13.5 83.5q0 42 14 80.5t40 68.5t64.5 47.5t86.5 17.5h170z" />
    <glyph glyph-name="periodcentered" unicode="&#xb7;" horiz-adv-x="315" 
d="M203 311h-91v100h91v-100z" />
    <glyph glyph-name="cedilla" unicode="&#xb8;" horiz-adv-x="354" 
d="M169 -31q18 -2 34 -8t28.5 -16t19.5 -25t6 -34q-1 -25 -13 -42t-31.5 -27t-44 -14.5t-49.5 -4.5h-27v50q48 1 75 11.5t27 33.5q0 24 -20.5 31t-46.5 7h-17.5t-16.5 -1q2 17 5.5 32.5t7.5 32.5l10 40l64 -8z" />
    <glyph glyph-name="uni00B9" unicode="&#xb9;" horiz-adv-x="315" 
d="M191 300h-51v374l-68 -27l-18 41l112 40q9 3 17 -2.5t8 -13.5v-412z" />
    <glyph glyph-name="ordmasculine" unicode="&#xba;" horiz-adv-x="460" 
d="M398 543q0 -44 -13.5 -78t-36 -58t-52.5 -36.5t-63 -12.5t-62 12.5t-51 36.5t-34.5 58t-12.5 78q0 43 12.5 77.5t34.5 58.5t51 36.5t62 12.5t63 -12.5t52.5 -36.5t36 -58.5t13.5 -77.5zM129 540q0 -60 28 -98.5t76 -38.5q52 0 80 39t28 99q0 63 -28.5 102t-79.5 39
q-48 0 -76 -39t-28 -103zM56 243v41h353v-41h-353z" />
    <glyph glyph-name="onequarter" unicode="&#xbc;" horiz-adv-x="802" 
d="M654 716l-449 -760h-57l449 760h57zM191 300h-51v374l-68 -27l-18 41l112 40q9 3 17 -2.5t8 -13.5v-412zM513 81h121v222zM685 36v-80h-51v80h-172v50l159 286h64v-291h48v-45h-48z" />
    <glyph glyph-name="onehalf" unicode="&#xbd;" horiz-adv-x="800" 
d="M616 716l-449 -760h-57l449 760h57zM191 300h-51v374l-68 -27l-18 41l112 40q9 3 17 -2.5t8 -13.5v-412zM505 -44v33q0 23 9.5 48.5t21.5 40.5q18 23 44.5 46.5t59.5 54.5q29 27 39.5 48t10.5 45q0 31 -20.5 50.5t-54.5 19.5q-23 0 -41 -12.5t-35 -29.5l-32 37
q19 19 47 33.5t62 14.5q26 0 49 -8.5t40 -24t27 -36.5t10 -45q0 -70 -60 -122q-30 -26 -52 -45.5t-46 -45.5q-14 -14 -18.5 -26t-4.5 -20v-7h178v-49h-234z" />
    <glyph glyph-name="threequarters" unicode="&#xbe;" horiz-adv-x="800" 
d="M137 729q26 0 49.5 -6.5t41 -20t28 -33t10.5 -46.5q0 -34 -17.5 -59.5t-42.5 -36.5q32 -12 52.5 -39.5t20.5 -63.5q0 -61 -38 -95.5t-104 -33.5q-22 0 -53 6t-53 19l14 39q27 -14 50 -17.5t42 -3.5q45 0 66.5 23.5t21.5 60.5t-26.5 60.5t-63.5 23.5h-54v39h54
q40 0 58.5 22.5t18.5 56.5q0 29 -19.5 47t-56.5 18q-24 0 -39.5 -5t-35.5 -16l-19 34q43 27 95 27zM654 716l-449 -760h-57l449 760h57zM513 81h121v222zM685 36v-80h-51v80h-172v50l159 286h64v-291h48v-45h-48z" />
    <glyph glyph-name="questiondown" unicode="&#xbf;" horiz-adv-x="528" 
d="M328 363v-51q0 -45 -8 -74t-31 -44l-94 -65q-43 -29 -58 -64t-15 -69q0 -60 42 -96.5t123 -36.5q48 0 89.5 7.5t91.5 20.5l5 -62q-28 -9 -51.5 -14.5t-45.5 -9t-43 -4.5t-44 -1q-54 0 -99.5 13t-78 37.5t-50.5 61t-18 83.5q0 60 21.5 101t60.5 68l91 64q25 17 29 37t4 51
v47h79zM244 585h90v-114h-90v114z" />
    <glyph glyph-name="AE" unicode="&#xc6;" horiz-adv-x="810" 
d="M806 -31h-394v224h-202l-118 -224h-76l393 748h376v-64h-296v-270h258v-65h-258v-285h317v-64zM412 254v335l-170 -335h170z" />
    <glyph glyph-name="Eth" unicode="&#xd0;" horiz-adv-x="762" 
d="M168 717h217q80 0 143.5 -30t107.5 -81t67.5 -119t23.5 -144q0 -75 -24 -142.5t-68 -119t-107.5 -82t-142.5 -30.5h-217v360h-132v58h132v330zM413 329h-169v-296h141q64 0 113.5 27t83.5 70.5t51 99t17 112.5q0 63 -17.5 119.5t-51 99t-83.5 67.5t-115 25h-139v-266h169
v-58z" />
    <glyph glyph-name="multiply" unicode="&#xd7;" horiz-adv-x="700" 
d="M143 185l158 159l-157 157l49 51l157 -158l158 157l48 -50l-157 -157l158 -157l-50 -50l-158 156l-157 -157z" />
    <glyph glyph-name="Oslash" unicode="&#xd8;" horiz-adv-x="805" 
d="M579 788l-43 -127q47 -19 86 -49.5t66.5 -70.5t43 -89t15.5 -104q0 -73 -26 -135t-72 -107t-107.5 -70.5t-133.5 -25.5q-23 0 -46 3.5t-49 9.5l-45 -129h-27l47 138q-48 18 -87.5 49t-68 71.5t-44.5 90t-16 105.5q0 75 26 136.5t71.5 106t106.5 68.5t132 24
q25 0 49.5 -3.5t51.5 -10.5q9 28 20.5 59.5t21.5 59.5h28zM150 348q0 -88 41.5 -155.5t116.5 -100.5l180 517q-39 10 -80 10q-59 0 -107 -20t-81.5 -56t-51.5 -85.5t-18 -109.5zM408 75q63 0 112 21.5t82 58.5t50 87t17 106q0 88 -41 154t-114 99l-180 -517q20 -4 38.5 -6.5
t35.5 -2.5z" />
    <glyph glyph-name="Thorn" unicode="&#xde;" horiz-adv-x="579" 
d="M100 -31v748h76v-139h127q50 0 92.5 -17t73.5 -47t48.5 -72t17.5 -92t-17.5 -91.5t-48.5 -71.5t-73.5 -47t-92.5 -17h-127v-154h-76zM303 185q33 0 61.5 13t50 35t33.5 52t12 65q0 34 -11.5 64.5t-32.5 53t-50 35.5t-63 13h-127v-331h127z" />
    <glyph glyph-name="germandbls" unicode="&#xdf;" horiz-adv-x="562" 
d="M74 -18v540q0 51 17.5 90t47 64.5t67.5 38.5t80 13q43 0 81.5 -13t67 -37.5t45 -59t16.5 -77.5q0 -49 -33 -96t-94 -76q84 -20 128 -69t44 -118q0 -50 -20 -87.5t-53.5 -62.5t-77.5 -37.5t-92 -12.5h-76v57h74q41 0 72.5 11t53 30.5t32.5 46t11 57.5t-11 58.5t-32.5 47.5
t-53 31.5t-72.5 11.5h-143v-351h-79zM153 391h127q34 0 60.5 12t44.5 32t27 46.5t9 55.5q0 26 -9 50t-26.5 42.5t-43 29.5t-58.5 11q-24 0 -47 -10t-42 -29t-30.5 -46.5t-11.5 -62.5v-131z" />
    <glyph glyph-name="ae" unicode="&#xe6;" horiz-adv-x="882" 
d="M790 9q-30 -19 -68.5 -29t-96.5 -10q-60 1 -109.5 25t-87.5 66q-36 -45 -87 -68t-126 -23q-69 0 -111.5 40.5t-42.5 112.5q0 66 34.5 109t98.5 60q33 8 78.5 12t102.5 5v38q0 51 -34.5 74.5t-95.5 23.5q-23 0 -52 -8.5t-56 -24.5l-34 50q35 22 66.5 34t75.5 12
q60 0 108.5 -18t81.5 -60q35 35 81.5 56.5t97.5 21.5q55 0 96 -18.5t68 -52.5t40 -81.5t13 -104.5q0 -7 -0.5 -18t-2.5 -22h-377q5 -39 19.5 -73t37 -59t52 -39t65.5 -14q38 0 73 7t63 21zM375 254q-107 0 -162 -18q-43 -14 -58.5 -43.5t-15.5 -67.5q0 -51 24 -73t69 -24
q25 -1 50.5 5t46 21t33.5 41t13 64v95zM753 266q-1 88 -36.5 135t-104.5 47q-31 0 -59 -12.5t-49.5 -36.5t-35 -57.5t-14.5 -75.5h299z" />
    <glyph glyph-name="eth" unicode="&#xf0;" horiz-adv-x="512" 
d="M350 717h76l-88 -92q32 -29 58.5 -69.5t45.5 -89t29.5 -103t10.5 -112.5q0 -129 -57 -204t-171 -75q-50 0 -89.5 15.5t-67.5 45t-43 70.5t-15 92q0 46 14.5 85.5t41.5 68.5t65 46t85 17q35 0 70 -10.5t84 -37.5q-8 26 -18.5 55.5t-23 59t-27.5 55.5t-33 46l-58 -61h-78
l92 96q-30 18 -62.5 32t-59.5 22q2 12 4.5 24t6.5 25q35 -7 74 -22t77 -38zM117 192q0 -75 33.5 -117.5t109.5 -42.5q39 0 66 14t44 40t24.5 63t7.5 83v19.5t-1 18.5q-35 45 -71 66t-78 21q-34 0 -59.5 -12.5t-42 -34.5t-25 -52t-8.5 -66z" />
    <glyph glyph-name="divide" unicode="&#xf7;" horiz-adv-x="700" 
d="M392 500h-90v100h90v-100zM392 122h-90v99h90v-99zM132 394h436v-64h-436v64z" />
    <glyph glyph-name="oslash" unicode="&#xf8;" horiz-adv-x="591" 
d="M43 231q0 58 16.5 108t48.5 87t80.5 58.5t113.5 21.5q35 0 77 -11l65 186h29l-67 -193q77 -32 114 -100.5t37 -156.5q0 -58 -15.5 -108t-47 -86.5t-79.5 -57.5t-112 -21q-40 0 -79 10l-65 -188h-27l66 195q-78 30 -116.5 98t-38.5 158zM121 231q0 -66 24.5 -116t75.5 -76
l136 393q-16 3 -30 5t-27 2q-88 0 -133.5 -57t-45.5 -151zM300 24q88 0 133.5 57t45.5 150q0 66 -24 115t-73 75l-136 -391q15 -4 28.5 -5t25.5 -1z" />
    <glyph glyph-name="thorn" unicode="&#xfe;" horiz-adv-x="591" 
d="M119 -255h-76v934h76v-239q38 31 83.5 48.5t99.5 17.5q65 0 113 -21.5t79.5 -58.5t47 -87.5t15.5 -107.5q0 -58 -15.5 -108t-47 -86.5t-79.5 -57.5t-112 -21q-54 0 -100 17t-84 48v-278zM121 231q0 -93 45.5 -150t133.5 -57t133.5 57t45.5 150q0 96 -45.5 152t-133.5 56
t-133.5 -57t-45.5 -151z" />
    <glyph glyph-name="dcroat" unicode="&#x111;" horiz-adv-x="627" 
d="M273 -51q-56 0 -99.5 20.5t-73.5 57t-45.5 87.5t-15.5 112t16 110.5t46 85t73.5 55t99.5 19.5q45 0 82 -15t70 -40v146h-135v53h135v94h77v-94h108v-53h-108v-618h-77v49q-37 -30 -77 -49.5t-76 -19.5zM426 375q-34 28 -66.5 42t-68.5 14q-82 0 -127.5 -54t-45.5 -156
q0 -105 45 -156.5t126 -51.5q37 0 72.5 20.5t64.5 51.5v290z" />
    <glyph glyph-name="Hbar" unicode="&#x126;" horiz-adv-x="742" 
d="M706 502h-70v-532h-78v350h-367v-350h-77v532h-71v57h71v158h77v-158h367v158h78v-158h70v-57zM558 385v117h-367v-117h367z" />
    <glyph glyph-name="hbar" unicode="&#x127;" horiz-adv-x="582" 
d="M40 587v53h106v94h78v-94h136v-53h-136v-151q38 32 81 51t75 19q37 0 68 -12t53.5 -34.5t35 -55t12.5 -74.5v-361h-77v359q0 31 -9.5 53t-25.5 36t-37 20.5t-43 6.5q-32 0 -68.5 -19t-64.5 -51v-405h-78v618h-106z" />
    <glyph glyph-name="dotlessi" unicode="&#x131;" horiz-adv-x="245" 
d="M87 -32v528h78v-528h-78z" />
    <glyph glyph-name="IJ" unicode="&#x132;" horiz-adv-x="622" 
d="M58 -32v748h77v-748h-77zM207 -187q50 25 80.5 53t46.5 59.5t21 67t5 76.5v583h-132v64h341v-64h-132v-610q0 -103 -60 -182q-26 -37 -69 -63.5t-101 -47.5v64z" />
    <glyph glyph-name="ij" unicode="&#x133;" horiz-adv-x="482" 
d="M86 -32v529h77v-529h-77zM178 701q0 -22 -16 -39t-39 -17q-22 0 -37.5 17t-15.5 39q0 21 15 38t38 17q25 0 40 -17t15 -38zM196 -171q45 25 71 52.5t39 58.5t16.5 65.5t3.5 73.5v418h78v-446q0 -51 -14 -96t-44 -87q-49 -66 -150 -106v67zM418 699q0 -22 -15.5 -39
t-38.5 -17q-22 0 -38 17t-16 39q0 21 15.5 38t38.5 17q24 0 39 -17t15 -38z" />
    <glyph glyph-name="kgreenlandic" unicode="&#x138;" horiz-adv-x="512" 
d="M174 240q12 18 27 38.5t28.5 40.5t25 38.5t17.5 31.5q11 25 22 47t24 38.5t29.5 26t39.5 9.5q17 0 40.5 -7.5t43.5 -20.5q-8 -13 -14.5 -25.5t-14.5 -24.5q-10 6 -22.5 10.5t-26.5 4.5q-19 0 -30.5 -18t-25.5 -49l-9 -20q-13 -29 -31 -55t-45 -56l246 -281h-87zM84 497
h81v-529h-80z" />
    <glyph glyph-name="Ldot" unicode="&#x13f;" horiz-adv-x="496" 
d="M426 379q0 -20 -15 -37.5t-39 -17.5q-25 0 -40.5 17.5t-15.5 37.5q0 21 15.5 38t40.5 17q24 0 39 -17t15 -38zM480 -31h-389v748h77v-684h312v-64z" />
    <glyph glyph-name="ldot" unicode="&#x140;" horiz-adv-x="432" 
d="M370 351q0 -20 -14.5 -37t-38.5 -17q-26 0 -41 17t-15 37q0 21 15 38.5t41 17.5q24 0 38.5 -17.5t14.5 -38.5zM81 -31v753h78v-753h-78z" />
    <glyph glyph-name="Lslash" unicode="&#x141;" horiz-adv-x="584" 
d="M572 -31h-388v266q-20 -22 -45 -51.5t-44 -51.5h-64l153 177v408h76v-318q29 32 63 72.5t63 73.5h64l-190 -221v-291h312v-64z" />
    <glyph glyph-name="lslash" unicode="&#x142;" horiz-adv-x="472" 
d="M218 -31v305q-14 -15 -29.5 -33t-31 -36.5t-31.5 -37t-29 -34.5h-65l186 218v371h77v-279l90 106h64l-154 -182v-398h-77z" />
    <glyph glyph-name="napostrophe" unicode="&#x149;" horiz-adv-x="692" 
d="M542 -31v350q0 31 -10.5 54t-28 38.5t-39.5 23t-46 7.5q-40 0 -75 -19t-65 -54v-400h-79v528h78v-61q51 38 88 55.5t72 16.5q30 -1 62 -10.5t58.5 -30t44 -52t17.5 -77.5v-369h-77zM120 599q-23 -2 -41 7t-18 31q0 26 13 39.5t33 13.5q23 0 37.5 -17.5t14.5 -47.5
q0 -43 -22.5 -85.5t-75.5 -68.5v18q25 13 42 36.5t17 46.5v27z" />
    <glyph glyph-name="Eng" unicode="&#x14a;" horiz-adv-x="722" 
d="M441 -187q72 36 105 80.5t43 97.5l-421 606v-629h-77v748h68l433 -625v625h78v-666q0 -52 -14 -101.5t-43 -88.5q-26 -36 -69 -63t-103 -48v64z" />
    <glyph glyph-name="eng" unicode="&#x14b;" horiz-adv-x="564" 
d="M296 -172q45 24 71 51.5t39.5 58.5t17.5 66t4 74v239q0 31 -10.5 54t-28 38.5t-40 23t-46.5 7.5q-78 0 -141 -72v-401h-78v528h77v-61q51 38 88 55.5t74 16.5q30 -1 62 -10.5t58.5 -30t44 -52t17.5 -77.5v-286q0 -54 -15 -97.5t-45 -85.5q-23 -32 -62 -59.5t-87 -46.5v67
z" />
    <glyph glyph-name="OE" unicode="&#x152;" horiz-adv-x="882" 
d="M513 44h307v-62h-349q-24 -10 -48.5 -15t-55.5 -5q-80 0 -140.5 30.5t-101.5 83.5t-61.5 124.5t-20.5 153.5q0 79 21 147.5t62 119t101.5 79t139.5 28.5q29 0 75 -11h357v-60h-286v-267h249v-63h-249v-283zM365 25q16 0 34.5 3.5t38.5 8.5v617q-42 14 -71 14
q-60 0 -106 -25.5t-77 -68.5t-47 -100t-16 -120q0 -69 15.5 -129t46 -104.5t76 -70t106.5 -25.5z" />
    <glyph glyph-name="oe" unicode="&#x153;" horiz-adv-x="882" 
d="M812 10q-27 -16 -65 -28t-92 -12q-69 1 -118.5 26.5t-86.5 71.5q-36 -49 -84 -73t-100 -24q-51 0 -92.5 18.5t-71 53t-45.5 85t-16 115.5q0 63 16 112t45.5 83t70.5 52t92 18q54 0 101.5 -23.5t85.5 -71.5q72 95 191 95q54 0 93 -17.5t63.5 -49.5t36.5 -77.5t12 -102.5
q0 -13 -0.5 -26.5t-3.5 -24.5h-353q6 -85 47.5 -134.5t116.5 -49.5q37 0 68 6.5t57 21.5zM118 245q0 -55 11 -95t30.5 -66.5t46 -39.5t57.5 -13q62 0 103.5 45t47.5 140v43q-2 46 -14.5 81.5t-33 59t-47 35.5t-56.5 12q-31 0 -57.5 -13.5t-46 -39t-30.5 -63.5t-11 -86z
M773 265q0 88 -31.5 135.5t-100.5 47.5q-31 0 -57.5 -12.5t-46.5 -36.5t-31.5 -58t-12.5 -76h280z" />
    <glyph glyph-name="Tbar" unicode="&#x166;" horiz-adv-x="498" 
d="M436 334h-146v-365h-78v365h-146v56h146v263h-195v64h468v-64h-195v-263h146v-56z" />
    <glyph glyph-name="tbar" unicode="&#x167;" horiz-adv-x="389" 
d="M33 230v62h83v128h-88v62h88v184h77v-184h153v-62h-153v-128h143v-62h-143v-161q0 -17 12.5 -28t33.5 -11q24 0 58.5 1t63.5 6v-55q-28 -8 -67.5 -12.5t-74.5 -4.5q-19 0 -37.5 3.5t-33 13t-23.5 25t-9 39.5v184h-83z" />
    <glyph glyph-name="caron" unicode="&#x2c7;" horiz-adv-x="339" 
d="M132 635l-96 151h57l79 -127l76 127h60l-99 -151h-77z" />
    <glyph glyph-name="uni02D0" unicode="&#x2d0;" horiz-adv-x="223" 
d="M204 611l-91 -164l-92 164h183zM21 72l91 165l92 -165h-183z" />
    <glyph glyph-name="breve" unicode="&#x2d8;" horiz-adv-x="341" 
d="M312 787q-3 -29 -16 -52.5t-32.5 -40.5t-44 -26.5t-49.5 -9.5q-57 0 -94 34t-46 94h60q8 -43 29 -60t51 -17q29 0 51 16.5t30 61.5h61z" />
    <glyph glyph-name="dotaccent" unicode="&#x2d9;" horiz-adv-x="182" 
d="M146 703q0 -21 -14 -37.5t-39 -16.5q-26 0 -40.5 16.5t-14.5 37.5q0 20 14.5 37.5t40.5 17.5q25 0 39 -17.5t14 -37.5z" />
    <glyph glyph-name="ring" unicode="&#x2da;" horiz-adv-x="262" 
d="M41 710q0 40 27.5 63.5t63.5 23.5q18 0 34.5 -6t29.5 -17.5t21 -27.5t8 -36t-8 -36t-21 -27t-29.5 -17t-34.5 -6q-36 0 -63.5 23t-27.5 63zM78 710q0 -23 14 -38.5t40 -15.5t40.5 15.5t14.5 38.5t-14.5 39t-40.5 16t-40 -16t-14 -39z" />
    <glyph glyph-name="ogonek" unicode="&#x2db;" horiz-adv-x="222" 
d="M170 -62v-50h-18q-24 0 -46 4t-39.5 14t-27.5 26.5t-10 42.5q0 27 20.5 55t58.5 51l30 -30q-17 -12 -30 -31.5t-13 -39.5q0 -23 16 -32.5t55 -9.5h4z" />
    <glyph glyph-name="hungarumlaut" unicode="&#x2dd;" horiz-adv-x="330" 
d="M98 797h64l-84 -154h-32zM221 797h63l-84 -154h-31z" />
    <glyph glyph-name="Alpha" unicode="&#x391;" horiz-adv-x="648" 
d="M10 -31q72 191 144 374t144 374h51l294 -748h-79l-86 226h-308l-82 -226h-78zM321 606l-128 -350h261z" />
    <glyph glyph-name="Beta" unicode="&#x392;" horiz-adv-x="585" 
d="M91 -31v748h207q45 0 83 -12.5t65.5 -36.5t42.5 -59.5t15 -81.5q0 -21 -8 -44t-23 -45t-35 -41.5t-44 -34.5q75 -21 114.5 -71.5t39.5 -114.5q0 -50 -19.5 -88.5t-52 -65t-75.5 -40t-91 -13.5h-219zM167 33h141q40 0 71 11.5t52 31.5t32 46t11 56t-10 55.5t-30 44.5
t-52 30t-75 11h-140v-286zM167 653v-270h127q33 0 58 12.5t42.5 32.5t26.5 45t9 51q0 25 -9 48.5t-26 41.5t-42 28.5t-57 10.5h-129z" />
    <glyph glyph-name="Gamma" unicode="&#x393;" horiz-adv-x="496" 
d="M480 654h-312v-684h-77v747h389v-63z" />
    <glyph glyph-name="uni0394" unicode="&#x394;" horiz-adv-x="657" 
d="M11 -30l288 747h51l293 -747h-632zM321 610l-211 -578h429z" />
    <glyph glyph-name="Epsilon" unicode="&#x395;" horiz-adv-x="525" 
d="M485 653h-318v-286h259v-65h-259v-267h297v-65h-373v747h394v-64z" />
    <glyph glyph-name="Zeta" unicode="&#x396;" horiz-adv-x="576" 
d="M536 717v-41l-410 -642h423v-65h-522v37l412 647h-396v64h493z" />
    <glyph glyph-name="Eta" unicode="&#x397;" horiz-adv-x="697" 
d="M614 717v-748h-78v351h-367v-351h-78v748h78v-331h367v331h78z" />
    <glyph glyph-name="Theta" unicode="&#x398;" horiz-adv-x="805" 
d="M575 322h-319v57h319v-57zM48 344q0 79 27.5 148.5t75.5 122t114 83t143 30.5q81 0 147.5 -31t114.5 -83.5t74.5 -122t26.5 -147.5q0 -77 -27 -147t-75.5 -123.5t-115 -85t-145.5 -31.5q-77 0 -143 31.5t-114 84.5t-75.5 123.5t-27.5 147.5zM125 344q0 -62 21 -120
t59 -103t89.5 -72.5t113.5 -27.5q66 0 118.5 28.5t90 74t57.5 103.5t20 117q0 63 -21.5 121.5t-59.5 102.5t-90.5 70.5t-114.5 26.5q-61 0 -112.5 -26.5t-89.5 -70.5t-59.5 -102.5t-21.5 -121.5z" />
    <glyph glyph-name="Iota" unicode="&#x399;" horiz-adv-x="272" 
d="M100 -31v748h77v-748h-77z" />
    <glyph glyph-name="Kappa" unicode="&#x39a;" horiz-adv-x="647" 
d="M169 -31h-78v748h78v-748zM515 717h85l-310 -349q88 -99 176 -199l176 -200h-95l-348 395z" />
    <glyph glyph-name="Lambda" unicode="&#x39b;" horiz-adv-x="627" 
d="M605 -30h-75l-213 658q-25 -78 -51.5 -161t-53.5 -167t-53.5 -167.5t-51.5 -162.5h-79q64 190 127.5 373.5t126.5 373.5h67z" />
    <glyph glyph-name="Mu" unicode="&#x39c;" horiz-adv-x="825" 
d="M666 -31v617q-58 -79 -121 -166.5t-121 -168.5h-14l-242 338v-620h-77v748h68l258 -363l258 363h68v-748h-77z" />
    <glyph glyph-name="Nu" unicode="&#x39d;" horiz-adv-x="754" 
d="M91 -31v748h68l433 -620v620h78v-748h-70l-432 615v-615h-77z" />
    <glyph glyph-name="Xi" unicode="&#x39e;" horiz-adv-x="522" 
d="M443 327h-360v54h360v-54zM477 663h-428v53h428v-53zM477 -25h-428v53h428v-53z" />
    <glyph glyph-name="Omicron" unicode="&#x39f;" horiz-adv-x="811" 
d="M48 344q0 79 27.5 148.5t75.5 122t114 83t143 30.5q81 0 147.5 -31t114.5 -83.5t74.5 -122t26.5 -147.5q0 -77 -27 -147t-75.5 -123.5t-115 -85t-145.5 -31.5q-77 0 -143 31.5t-114 84.5t-75.5 123.5t-27.5 147.5zM125 344q0 -62 21 -120t59 -103t89.5 -72.5t113.5 -27.5
q66 0 118.5 28.5t90 74t57.5 103.5t20 117q0 63 -21.5 121.5t-59.5 102.5t-90.5 70.5t-114.5 26.5q-61 0 -112.5 -26.5t-89.5 -70.5t-59.5 -102.5t-21.5 -121.5z" />
    <glyph glyph-name="Pi" unicode="&#x3a0;" horiz-adv-x="653" 
d="M570 -31h-76v692h-328v-692h-75v748h479v-748z" />
    <glyph glyph-name="Rho" unicode="&#x3a1;" horiz-adv-x="500" 
d="M75 -31v748h187q109 0 168.5 -58.5t59.5 -161.5q0 -48 -16 -88t-45.5 -69t-72 -45t-96.5 -16h-108v-310h-77zM152 344h107q73 0 113.5 41.5t40.5 111.5q0 75 -39.5 115.5t-112.5 40.5h-109v-309z" />
    <glyph glyph-name="Sigma" unicode="&#x3a3;" horiz-adv-x="552" 
d="M79 717h422v-60h-339l222 -299v-21l-226 -294h343v-60h-426v60l225 305l-221 300v69z" />
    <glyph glyph-name="Tau" unicode="&#x3a4;" horiz-adv-x="498" 
d="M212 -31v684h-195v64h468v-64h-195v-684h-78z" />
    <glyph glyph-name="Upsilon" unicode="&#x3a5;" horiz-adv-x="608" 
d="M265 -31v353l-250 395h86l205 -338q49 82 103 169.5t103 168.5h84l-252 -395v-353h-79z" />
    <glyph glyph-name="Phi" unicode="&#x3a6;" horiz-adv-x="591" 
d="M260 -30v140q-48 7 -88 27t-68.5 50.5t-44 70.5t-15.5 88t15.5 88t44 70.5t68 50t88.5 26.5v136h78v-135q49 -6 89 -26t68 -50.5t43.5 -71t15.5 -88.5q0 -49 -15.5 -90t-43.5 -71.5t-68 -50t-89 -25.5v-139h-78zM476 346q0 66 -34.5 111t-103.5 58v-339q69 14 103.5 58.5
t34.5 111.5zM121 346q0 -67 35 -111.5t104 -58.5v338q-69 -13 -104 -57.5t-35 -110.5z" />
    <glyph glyph-name="Chi" unicode="&#x3a7;" horiz-adv-x="656" 
d="M15 -31l267 382q-61 91 -123.5 183t-125.5 183h89l209 -320l205 320h89l-246 -366q66 -94 132.5 -190t130.5 -192h-87l-224 328l-228 -328h-88z" />
    <glyph glyph-name="Psi" unicode="&#x3a8;" horiz-adv-x="675" 
d="M385 -30h-74v205q-118 14 -172 84t-54 191v267h78v-267q0 -96 35 -147.5t113 -67.5v482h74v-481q70 20 104.5 72t34.5 140v269h77v-268q0 -115 -51 -185.5t-165 -86.5v-207z" />
    <glyph glyph-name="uni03A9" unicode="&#x3a9;" horiz-adv-x="632" 
d="M197 145q-38 17 -67.5 45t-50.5 63.5t-32 77t-11 86.5q0 72 22.5 129.5t61 97t90 61t110.5 21.5q60 0 111.5 -21.5t90 -61.5t60.5 -97t22 -129q0 -45 -12 -86.5t-33.5 -77t-52.5 -63.5t-68 -45v-122h143v-53h-216v213q78 27 120 85t42 149q0 56 -15 102t-42.5 78.5
t-65.5 50.5t-84 18q-44 0 -82 -17.5t-66 -49.5t-44 -78.5t-16 -103.5q0 -94 44 -154t114 -79v-214h-213v53h140v122z" />
    <glyph glyph-name="alpha" unicode="&#x3b1;" horiz-adv-x="575" 
d="M129 235q1 -47 9 -85.5t23.5 -66t39.5 -42.5t57 -15q37 0 63 15t41.5 42.5t22.5 66t7 85.5q0 106 -36.5 157t-97.5 53q-35 1 -59.5 -15t-40.5 -45t-23 -67.5t-6 -82.5zM517 497q-25 -46 -40.5 -113.5t-15.5 -151.5q0 -70 24 -120t51 -74l-49 -60q-17 13 -36.5 32.5
t-36.5 41.5q-33 -45 -69.5 -65.5t-95.5 -20.5q-44 0 -81 20.5t-64 56.5t-42.5 85t-15.5 107q0 62 16 112t44 85t64.5 54t78.5 19q51 0 87 -21t69 -52q6 17 14 35.5t16 29.5h82z" />
    <glyph glyph-name="beta" unicode="&#x3b2;" horiz-adv-x="497" 
d="M151 -240h-79v792q0 39 9.5 72.5t30 58t52.5 39t77 14.5q85 0 133.5 -47.5t48.5 -125.5q0 -23 -8 -46t-21.5 -44t-31 -39t-36.5 -31q30 -14 57 -36.5t47.5 -50.5t32.5 -61t12 -67q0 -51 -16.5 -92t-46 -69.5t-70 -43.5t-87.5 -15q-22 0 -47 5t-57 17v-230zM215 371v52h6
q25 0 47.5 10t39.5 28t27 44t10 58q0 54 -27.5 84.5t-76.5 30.5q-48 0 -69 -34.5t-21 -88.5v-501q28 -13 54.5 -20t52.5 -7q34 0 60 12.5t44 34t27 51t9 63.5q0 43 -14.5 77t-39 57.5t-56.5 36t-67 12.5h-6z" />
    <glyph glyph-name="gamma" unicode="&#x3b3;" horiz-adv-x="528" 
d="M268 -138q1 16 -6.5 54.5t-17.5 83.5q-24 -42 -41.5 -77t-17.5 -61q0 -19 9 -32t26 -13q16 0 31.5 11t16.5 34zM300 64q17 -72 27 -124.5t10 -78.5q0 -18 -7 -35.5t-21.5 -31t-36 -22t-50.5 -8.5t-48.5 8.5t-32 22.5t-18 32t-5.5 37q0 43 20 81.5t46 75.5q12 17 19.5 27
t16.5 28q-15 81 -32.5 165.5t-33.5 165.5q-6 26 -18.5 42t-28.5 16q-14 0 -25 -8t-19 -17q-14 8 -25.5 16.5t-24.5 17.5q20 28 46.5 40.5t52.5 12.5q18 0 35 -5t32 -15t26 -26t16 -38l53 -290l188 354q16 -9 26.5 -14.5t17 -8.5t10 -5t7.5 -4z" />
    <glyph glyph-name="delta" unicode="&#x3b4;" horiz-adv-x="591" 
d="M43 232q0 85 35.5 151t107.5 102q-27 13 -46 29t-31 32t-17.5 30.5t-5.5 25.5q0 63 44 100t141 37q51 0 95 -17.5t76 -43.5l-45 -49q-32 24 -65.5 37.5t-63.5 13.5q-48 0 -73 -15.5t-25 -52.5q0 -12 7 -27.5t21 -30.5t35.5 -27.5t50.5 -19.5h18q65 0 113 -21.5
t79.5 -58.5t47 -87t15.5 -108t-15.5 -107.5t-47 -86t-79.5 -57.5t-112 -21q-65 0 -113.5 21t-81 57.5t-49 86t-16.5 107.5zM121 232q0 -93 45.5 -149.5t133.5 -56.5t133.5 56.5t45.5 149.5q0 96 -45.5 152t-133.5 56t-133.5 -57t-45.5 -151z" />
    <glyph glyph-name="epsilon" unicode="&#x3b5;" horiz-adv-x="470" 
d="M289 219h-86q-45 0 -66 -31t-19 -85q3 -48 38 -69.5t92 -21.5q45 0 78.5 16.5t59.5 45.5l47 -39q-39 -43 -82 -60t-103 -17q-100 0 -154 38.5t-54 105.5q0 27 7.5 50t20 41.5t28.5 32.5t33 25q-35 20 -56.5 52.5t-19.5 62.5q3 67 46.5 106t134.5 39q60 0 108.5 -23.5
t79.5 -59.5q-14 -10 -25 -18.5t-24 -16.5q-24 26 -60.5 44.5t-78.5 18.5q-55 0 -79 -23.5t-24 -65.5q0 -38 18 -66t54 -28h86v-54z" />
    <glyph glyph-name="zeta" unicode="&#x3b6;" horiz-adv-x="557" 
d="M62 712q45 -9 92 -13.5t95 -4.5q39 0 78.5 3t77.5 11q0 -15 0.5 -28t0.5 -27q-27 -7 -58 -9.5t-57 -4.5q-40 -12 -70.5 -40.5t-51.5 -69t-32 -91t-11 -107.5q0 -158 59 -239.5t186 -81.5q78 0 120.5 -35.5t37.5 -92.5q-2 -64 -56.5 -94.5t-169.5 -32.5v54q43 1 71.5 8
t45.5 18t24 26t7 32q0 27 -17.5 46.5t-62.5 19.5q-74 0 -133.5 22t-102.5 67.5t-66 115t-23 164.5q0 85 31 166.5t94 147.5q-46 1 -69 6.5t-40 10.5v53z" />
    <glyph glyph-name="eta" unicode="&#x3b7;" horiz-adv-x="579" 
d="M428 -254v571q0 31 -10.5 54t-28 38.5t-40 23t-46.5 7.5q-78 0 -141 -72v-400h-78v527h77v-61q51 38 88 55.5t74 16.5q30 -1 62 -10.5t58.5 -30t44 -52t17.5 -77.5v-590h-77z" />
    <glyph glyph-name="theta" unicode="&#x3b8;" horiz-adv-x="612" 
d="M40 346q0 88 19 159t54.5 121t85 77.5t111.5 27.5q66 0 117 -27t85.5 -77t52.5 -121.5t18 -159.5q0 -87 -18 -158t-52.5 -122t-85.5 -79t-117 -28q-62 0 -111.5 28t-85 79t-54.5 122t-19 158zM310 670q-45 0 -79.5 -21.5t-58 -60.5t-36.5 -93.5t-16 -120.5h381
q-3 66 -17 120.5t-38 93.5t-58.5 60.5t-77.5 21.5zM310 21q45 0 79 22.5t58 62.5t37.5 94.5t16.5 119.5h-381q3 -65 16.5 -120t37.5 -95t58 -62t78 -22z" />
    <glyph glyph-name="iota" unicode="&#x3b9;" horiz-adv-x="245" 
d="M87 -31v527h78v-527h-78z" />
    <glyph glyph-name="kappa" unicode="&#x3ba;" horiz-adv-x="512" 
d="M169 246q15 16 30 35t28 38t24 37t18 33q11 25 22.5 47t25 38.5t30.5 26t40 9.5q17 0 41 -8.5t44 -20.5q-8 -14 -14.5 -24.5t-14.5 -23.5q-23 14 -50 14q-21 0 -34.5 -21.5t-28.5 -51.5q-19 -38 -38 -65.5t-45 -56.5q61 -70 124.5 -141.5t126.5 -141.5h-87zM84 497h81
v-528h-80z" />
    <glyph glyph-name="lambda" unicode="&#x3bb;" horiz-adv-x="593" 
d="M73 730q36 -5 65.5 -27t53.5 -55.5t43.5 -74.5t34.5 -83l145 -422q9 -27 27 -42t32 -15q24 0 40.5 9t29.5 24q10 -11 17.5 -20.5t17.5 -19.5q-18 -22 -44 -37.5t-71 -15.5q-43 0 -74 24.5t-47 69.5l-114 335q-14 -48 -29 -99.5t-30 -104.5t-30.5 -105.5t-29.5 -100.5h-75
l154 517q-23 78 -57 123.5t-79 67.5z" />
    <glyph glyph-name="uni03BC" unicode="&#x3bc;" horiz-adv-x="562" 
d="M160 -254h-76v749h78v-359q0 -35 11 -56.5t28 -34t37.5 -17t39.5 -4.5q36 0 76 18.5t74 61.5v391h77v-527h-77v66q-88 -76 -161 -76q-26 0 -53.5 5.5t-53.5 16.5v-234z" />
    <glyph glyph-name="nu" unicode="&#x3bd;" horiz-adv-x="479" 
d="M441 496q4 -21 7 -49.5t3 -51.5q0 -43 -12 -94.5t-34.5 -107t-55 -113t-72.5 -111.5h-62l-201 527h80l161 -460q51 87 87 174t36 173q0 26 -3 57t-8 56h74z" />
    <glyph glyph-name="xi" unicode="&#x3be;" horiz-adv-x="590" 
d="M314 -192q34 1 63.5 7t51 18t33.5 30.5t12 45.5t-16 45.5t-62 18.5h-56q-72 0 -123.5 22.5t-84.5 58t-49 79.5t-17 88q-1 35 7.5 68.5t24 62.5t38.5 53t50 40q-27 27 -43.5 61.5t-16.5 63.5q0 20 8 46.5t28 55.5q-29 3 -49.5 5.5t-36.5 5.5q0 14 0.5 27t0.5 26
q42 -7 90 -12t96 -5q36 0 80 4.5t80 11.5q0 -15 0.5 -26t0.5 -25q-32 -7 -73 -12t-76 -5q-18 0 -32 -9.5t-24 -24t-15.5 -31t-5.5 -30.5q0 -13 3.5 -30t12.5 -32t24.5 -25.5t40.5 -10.5h117v-55h-63q-41 0 -76 -15.5t-60.5 -41.5t-39 -61t-12.5 -75q1 -41 14 -77.5t38 -63.5
t60.5 -42.5t82.5 -15.5h54q82 0 120.5 -31.5t38.5 -95.5q0 -28 -12.5 -54t-40.5 -46t-73.5 -32.5t-112.5 -13.5v54z" />
    <glyph glyph-name="omicron" unicode="&#x3bf;" horiz-adv-x="591" 
d="M43 231q0 58 16.5 108t48.5 87t80.5 58.5t113.5 21.5t113 -21.5t79.5 -58.5t47 -87.5t15.5 -107.5q0 -58 -15.5 -108t-47 -86.5t-79.5 -57.5t-112 -21q-65 0 -113.5 21t-81 57.5t-49 86.5t-16.5 108zM121 231q0 -93 45.5 -150t133.5 -57t133.5 57t45.5 150
q0 96 -45.5 152t-133.5 56t-133.5 -57t-45.5 -151z" />
    <glyph glyph-name="pi" unicode="&#x3c0;" horiz-adv-x="602" 
d="M576 440h-126v-345q0 -39 17 -57t50 -18t60 10v-53q-27 -18 -68 -18q-72 0 -105.5 35t-33.5 96v350h-157v-343q0 -54 -30 -96.5t-72 -64.5l-42 52q65 35 65 107v345h-101v56h543v-56z" />
    <glyph glyph-name="rho" unicode="&#x3c1;" horiz-adv-x="591" 
d="M43 230q0 58 16.5 108t48.5 87t80.5 58.5t113.5 21.5t113 -21.5t79.5 -58.5t47 -87.5t15.5 -107.5q0 -58 -15.5 -108t-47 -86.5t-79.5 -57.5t-112 -21q-54 0 -100 18t-84 47v-269h-76v477zM121 230q0 -93 45.5 -150t133.5 -57t133.5 57t45.5 150q0 96 -45.5 152
t-133.5 56t-133.5 -57t-45.5 -151z" />
    <glyph glyph-name="sigma" unicode="&#x3c3;" horiz-adv-x="607" 
d="M43 231q0 58 16 108t48.5 87t81 58.5t113.5 21.5h292v-61h-117q42 -45 61.5 -99.5t19.5 -114.5q0 -58 -15.5 -108t-47 -86.5t-79.5 -57.5t-113 -21t-113.5 21t-81 57.5t-49 86.5t-16.5 108zM121 231q0 -93 45.5 -150t133.5 -57t133.5 57t45.5 150q0 96 -45.5 152
t-133.5 56t-133.5 -57t-45.5 -151z" />
    <glyph glyph-name="tau" unicode="&#x3c4;" horiz-adv-x="430" 
d="M26 481h379v-62h-153v-349q0 -18 12 -29t33 -11q25 0 55 1t58 6v-55q-28 -9 -64.5 -13t-68.5 -4q-5 0 -14 0.5t-16 1.5q-29 3 -50.5 23t-21.5 56v373h-149v62z" />
    <glyph glyph-name="upsilon" unicode="&#x3c5;" horiz-adv-x="575" 
d="M84 496h82v-344q0 -63 30.5 -98.5t90.5 -35.5q27 0 51 16t43 49t30 83.5t11 119.5q0 49 -13 94.5t-38 77.5q17 12 27.5 19t17.5 11.5t10 6.5t5 4q32 -37 53 -93t21 -120q0 -68 -10.5 -119t-28 -87t-40.5 -59.5t-48 -37t-51 -19t-49 -5.5q-38 0 -73 11.5t-62 35t-43 60
t-16 86.5v344z" />
    <glyph glyph-name="phi" unicode="&#x3c6;" horiz-adv-x="607" 
d="M348 -254h-81v221q-59 3 -103.5 27.5t-75 63t-46 87t-15.5 99.5q0 96 33 159t84 105q11 -14 21 -28l20 -28q-42 -36 -62 -87t-19 -121q0 -43 11.5 -80t32.5 -65.5t51 -47.5t68 -25v410q0 18 7.5 33.5t20.5 27t29.5 17.5t34.5 6q53 0 96.5 -21t74 -58t47 -89t16.5 -113
q0 -56 -18 -104.5t-50 -85t-77 -58.5t-100 -25v-220zM348 25q39 4 69.5 22.5t51.5 47.5t32 66t11 78q0 33 -6 71.5t-21 72t-40 55.5t-62 22q-6 0 -12 -0.5t-11.5 -4.5t-8.5 -11.5t-3 -22.5v-396z" />
    <glyph glyph-name="chi" unicode="&#x3c7;" horiz-adv-x="662" 
d="M14 -254l272 385l-254 367h93l211 -321q51 78 103 160.5t103 160.5h93l-251 -367q66 -96 134 -192t134 -193h-91l-225 330l-231 -330h-91z" />
    <glyph glyph-name="psi" unicode="&#x3c8;" horiz-adv-x="675" 
d="M387 -254h-75v196q-119 14 -173 85t-54 192v276h78v-276q0 -96 35 -148t114 -69v493h75v-492q70 21 105 73.5t35 140.5v278h78v-277q0 -116 -52 -186.5t-166 -86.5v-199z" />
    <glyph glyph-name="omega" unicode="&#x3c9;" horiz-adv-x="659" 
d="M213 452q-27 -8 -46 -33.5t-31 -60t-17.5 -75t-5.5 -77.5q0 -30 4.5 -63t16 -60t31.5 -45t51 -18q27 0 43 13t24.5 33t11 45.5t2.5 50.5v114h80v-116q0 -27 2.5 -52.5t10.5 -45t23.5 -31t41.5 -11.5q31 0 51.5 17.5t32.5 45t17 60.5t5 63q0 33 -5 71.5t-17 74t-32 63
t-49 37.5v54q48 -5 81.5 -34t54 -71.5t30 -94t9.5 -100.5q0 -47 -11 -91.5t-33.5 -79.5t-55.5 -56t-78 -21q-71 0 -117 60q-50 -60 -122 -60q-44 0 -76.5 21t-54.5 56t-33 79.5t-11 91.5q0 52 9 103.5t29.5 94t53 70.5t80.5 33v-55z" />
    <glyph glyph-name="afii10023" unicode="&#x401;" horiz-adv-x="513" 
d="M214 754q0 -18 -12 -32.5t-32 -14.5q-22 0 -34.5 14.5t-12.5 32.5q0 17 12.5 32t34.5 15q20 0 32 -15t12 -32zM485 -29h-394v665h373v-64h-297v-228h259v-65h-259v-244h318v-64zM431 754q0 -18 -12.5 -32.5t-32.5 -14.5q-22 0 -34.5 14.5t-12.5 32.5q0 17 12.5 32
t34.5 15q20 0 32.5 -15t12.5 -32z" />
    <glyph glyph-name="afii10017" unicode="&#x410;" horiz-adv-x="648" 
d="M10 -31q72 191 144 374t144 374h51l294 -748h-79l-86 226h-308l-82 -226h-78zM321 606l-128 -350h261z" />
    <glyph glyph-name="afii10018" unicode="&#x411;" horiz-adv-x="562" 
d="M85 717h356v-59h-278v-282h106q73 0 123 -18t80 -46.5t43 -65t13 -73.5q0 -49 -19.5 -87t-53 -63.5t-77 -39t-91.5 -13.5h-202v747zM163 28h122q40 0 71.5 11.5t53 31.5t32.5 47t11 57q0 63 -43.5 103.5t-124.5 40.5h-122v-291z" />
    <glyph glyph-name="afii10019" unicode="&#x412;" horiz-adv-x="585" 
d="M91 -31v748h207q45 0 83 -12.5t65.5 -36.5t42.5 -59.5t15 -81.5q0 -21 -8 -44t-23 -45t-35 -41.5t-44 -34.5q75 -21 114.5 -71.5t39.5 -114.5q0 -50 -19.5 -88.5t-52 -65t-75.5 -40t-91 -13.5h-219zM167 33h141q40 0 71 11.5t52 31.5t32 46t11 56t-10 55.5t-30 44.5
t-52 30t-75 11h-140v-286zM167 653v-270h127q33 0 58 12.5t42.5 32.5t26.5 45t9 51q0 25 -9 48.5t-26 41.5t-42 28.5t-57 10.5h-129z" />
    <glyph glyph-name="afii10020" unicode="&#x413;" horiz-adv-x="496" 
d="M480 654h-312v-684h-77v747h389v-63z" />
    <glyph glyph-name="afii10021" unicode="&#x414;" horiz-adv-x="647" 
d="M608 -165h-79v147h-420v-147h-78v203h33q41 0 73 32q20 22 22.5 53t2.5 68v526h390v-679h56v-203zM473 660h-232v-485q0 -34 -7.5 -67.5t-38.5 -69.5h278v622z" />
    <glyph glyph-name="afii10022" unicode="&#x415;" horiz-adv-x="525" 
d="M485 654h-318v-285h259v-65h-259v-269h297v-65h-373v747h394v-63z" />
    <glyph glyph-name="afii10024" unicode="&#x416;" horiz-adv-x="900" 
d="M502 -30h-78v747h78v-747zM768 717h89l-251 -348l284 -399h-99l-261 395zM396 365l-261 -395h-99l284 398l-252 349h91z" />
    <glyph glyph-name="afii10025" unicode="&#x417;" horiz-adv-x="532" 
d="M81 698q45 16 83.5 23t80.5 7q51 0 92 -13.5t70 -37.5t44.5 -58t15.5 -76q0 -63 -36 -109t-93 -66q72 -30 108 -75.5t36 -121.5q0 -45 -16 -82.5t-48.5 -64.5t-80.5 -42t-112 -15q-42 0 -85 7.5t-81 21.5q4 17 7.5 31t7.5 31q77 -29 150 -29q91 0 138.5 42t47.5 109
q0 75 -53.5 113t-159.5 38q-11 0 -21 -0.5t-21 -0.5v61h14q115 0 170.5 39.5t55.5 108.5q0 27 -12 50.5t-33 41t-51 27t-66 9.5q-32 0 -65 -6.5t-75 -23.5z" />
    <glyph glyph-name="afii10026" unicode="&#x418;" horiz-adv-x="754" 
d="M594 -31v615l-433 -615h-70v748h79v-620q106 151 216 309.5t216 310.5h68v-748h-76z" />
    <glyph glyph-name="afii10027" unicode="&#x419;" horiz-adv-x="754" 
d="M515 797q-3 -29 -16 -51.5t-33 -38t-44.5 -24t-50.5 -8.5q-57 0 -93 32t-44 89h59q19 -70 78 -70q29 0 51.5 18t30.5 53h62zM594 -30v591q-106 -144 -216 -295t-216 -296h-71v717h79v-591q106 145 215.5 295.5t215.5 295.5h69v-717h-76z" />
    <glyph glyph-name="afii10028" unicode="&#x41a;" horiz-adv-x="647" 
d="M169 -31h-78v748h78v-748zM515 717h85l-310 -349q88 -99 176 -199l176 -200h-95l-348 395z" />
    <glyph glyph-name="afii10029" unicode="&#x41b;" horiz-adv-x="696" 
d="M166 717h447v-747h-77v684h-293v-399q0 -51 -13.5 -98t-45.5 -86q-26 -36 -60 -60t-90 -41v67q40 18 65.5 42.5t40.5 53t20.5 60t5.5 64.5v460z" />
    <glyph glyph-name="afii10030" unicode="&#x41c;" horiz-adv-x="825" 
d="M666 -31v617q-58 -79 -121 -166.5t-121 -168.5h-14l-242 338v-620h-77v748h68l258 -363l258 363h68v-748h-77z" />
    <glyph glyph-name="afii10031" unicode="&#x41d;" horiz-adv-x="697" 
d="M614 717v-748h-78v351h-367v-351h-78v748h78v-331h367v331h78z" />
    <glyph glyph-name="afii10032" unicode="&#x41e;" horiz-adv-x="811" 
d="M48 344q0 79 27.5 148.5t75.5 122t114 83t143 30.5q81 0 147.5 -31t114.5 -83.5t74.5 -122t26.5 -147.5q0 -77 -27 -147t-75.5 -123.5t-115 -85t-145.5 -31.5q-77 0 -143 31.5t-114 84.5t-75.5 123.5t-27.5 147.5zM125 344q0 -62 21 -120t59 -103t89.5 -72.5t113.5 -27.5
q66 0 118.5 28.5t90 74t57.5 103.5t20 117q0 63 -21.5 121.5t-59.5 102.5t-90.5 70.5t-114.5 26.5q-61 0 -112.5 -26.5t-89.5 -70.5t-59.5 -102.5t-21.5 -121.5z" />
    <glyph glyph-name="afii10033" unicode="&#x41f;" horiz-adv-x="697" 
d="M614 717v-747h-78v684h-367v-684h-78v747h523z" />
    <glyph glyph-name="afii10034" unicode="&#x420;" horiz-adv-x="500" 
d="M75 -31v748h187q109 0 168.5 -58.5t59.5 -161.5q0 -48 -16 -88t-45.5 -69t-72 -45t-96.5 -16h-108v-310h-77zM152 344h107q73 0 113.5 41.5t40.5 111.5q0 75 -39.5 115.5t-112.5 40.5h-109v-309z" />
    <glyph glyph-name="afii10035" unicode="&#x421;" horiz-adv-x="691" 
d="M420 -39q-80 0 -148.5 32t-118.5 86t-78.5 124.5t-28.5 147.5q0 75 28.5 143t78.5 120.5t118.5 83.5t148.5 31q75 0 137 -18.5t111 -53.5l-37 -55q-45 31 -99.5 46t-111.5 15q-62 0 -116 -24.5t-94 -67t-63 -99.5t-23 -121q0 -66 23.5 -124.5t64 -101.5t94 -68t112.5 -25
q73 0 131 16.5t95 43.5q9 -16 17.5 -28t16.5 -26q-49 -38 -115.5 -57.5t-142.5 -19.5z" />
    <glyph glyph-name="afii10036" unicode="&#x422;" horiz-adv-x="498" 
d="M212 -31v684h-195v64h468v-64h-195v-684h-78z" />
    <glyph glyph-name="afii10037" unicode="&#x423;" horiz-adv-x="491" 
d="M8 717h83l150 -357l163 357h82q-91 -191 -179.5 -374t-179.5 -373h-80l155 310z" />
    <glyph glyph-name="afii10038" unicode="&#x424;" horiz-adv-x="671" 
d="M301 -30v160q-52 5 -98.5 21t-82 43t-56 65t-20.5 87q0 48 20.5 86t56 65.5t82 44t98.5 21.5v154h77v-155q52 -5 98.5 -21t82 -43t56 -65t20.5 -87q0 -50 -20.5 -88.5t-56 -65.5t-82 -42.5t-98.5 -20.5v-159h-77zM558 346q0 34 -14 59.5t-38.5 44t-57.5 30t-70 16.5v-301
q37 4 70 15.5t57.5 30.5t38.5 45t14 60zM121 346q0 -34 14 -60t38.5 -45t57 -30.5t70.5 -15.5v301q-38 -5 -70.5 -16.5t-57 -30t-38.5 -44t-14 -59.5z" />
    <glyph glyph-name="afii10039" unicode="&#x425;" horiz-adv-x="656" 
d="M15 -31l267 382q-61 91 -123.5 183t-125.5 183h89l209 -320l205 320h89l-246 -366q66 -94 132.5 -190t130.5 -192h-87l-224 328l-228 -328h-88z" />
    <glyph glyph-name="afii10040" unicode="&#x426;" horiz-adv-x="632" 
d="M513 716v-671h69v-210h-78v147h-419v734h79v-671h270v671h79z" />
    <glyph glyph-name="afii10041" unicode="&#x427;" horiz-adv-x="562" 
d="M408 -30v295q-38 -32 -81 -50t-75 -18q-36 0 -67 11.5t-53 33.5t-34.5 54.5t-12.5 74.5v357h76v-355q0 -30 9.5 -52t25.5 -36t36.5 -20.5t43.5 -6.5q32 0 67.5 18.5t64.5 50.5v401h78v-758h-78z" />
    <glyph glyph-name="afii10042" unicode="&#x428;" horiz-adv-x="747" 
d="M91 -30v747h78v-683h169v683h78v-683h171v683h77v-747h-573z" />
    <glyph glyph-name="afii10043" unicode="&#x429;" horiz-adv-x="782" 
d="M664 717v-672h70v-210h-78v147h-571v735h78v-672h176v672h77v-672h169v672h79z" />
    <glyph glyph-name="afii10044" unicode="&#x42a;" horiz-adv-x="696" 
d="M216 -30v688h-194v59h272v-341h107q73 0 122.5 -18t80 -46.5t43.5 -65t13 -73.5q0 -49 -20 -87t-53 -63.5t-77 -39t-92 -13.5h-202zM294 28h122q40 0 71.5 11.5t53 31.5t32.5 47t11 57q0 63 -43.5 103.5t-124.5 40.5h-122v-291z" />
    <glyph glyph-name="afii10045" unicode="&#x42b;" horiz-adv-x="816" 
d="M169 716v-338h106q73 0 123 -18.5t80 -47.5t43 -66t13 -74q0 -49 -19.5 -87t-53 -63.5t-77 -39t-91.5 -13.5h-202v747h78zM169 30h122q40 0 71.5 11t53 30.5t32.5 46t11 56.5q0 63 -43.5 103.5t-124.5 40.5h-122v-288zM658 -31v748h76v-748h-76z" />
    <glyph glyph-name="afii10046" unicode="&#x42c;" horiz-adv-x="572" 
d="M169 716v-338h106q73 0 123 -18.5t80 -47.5t43 -66t13 -74q0 -49 -19.5 -87t-53 -63.5t-77 -39t-91.5 -13.5h-202v747h78zM169 29h122q40 0 71.5 11.5t53 31t32.5 46t11 56.5q0 63 -43.5 103.5t-124.5 40.5h-122v-289z" />
    <glyph glyph-name="afii10047" unicode="&#x42d;" horiz-adv-x="691" 
d="M292 -39q-78 0 -143.5 18.5t-114.5 58.5l18 27t16 27q37 -27 95 -43.5t131 -16.5q56 0 106.5 22.5t90 62t65 93.5t31.5 116h-506v62h505q-8 58 -33.5 108.5t-64.5 87.5t-89 58t-107 21q-58 0 -112 -14.5t-99 -46.5l-37 55q49 35 111 53.5t137 18.5q81 0 149.5 -31
t118.5 -83.5t78 -120.5t28 -143q0 -77 -28 -147.5t-78 -124.5t-118.5 -86t-149.5 -32z" />
    <glyph glyph-name="afii10048" unicode="&#x42e;" horiz-adv-x="813" 
d="M791 344q0 -93 -18 -165.5t-50.5 -122t-78 -75.5t-100.5 -26q-53 0 -97.5 24.5t-76.5 71t-51 114.5t-22 156h-129v-351h-76v747h76v-335h130q4 84 23.5 149.5t51.5 110.5t75.5 68.5t95.5 23.5q55 0 100.5 -26t78 -75.5t50.5 -122.5t18 -166zM719 344q0 72 -12 132
t-35 104t-55.5 68.5t-72.5 24.5q-41 0 -73 -24.5t-55 -68.5t-35 -104t-12 -132t12 -132.5t35 -104t55 -67.5t73 -24q40 0 72.5 24t55.5 67.5t35 104t12 132.5z" />
    <glyph glyph-name="afii10049" unicode="&#x42f;" horiz-adv-x="597" 
d="M455 -31v336h-94q-19 0 -36.5 -6t-36 -21.5t-38 -42.5t-42.5 -69l-100 -197h-80l107 214q26 48 53 80.5t63 53.5q-29 11 -56.5 29.5t-48.5 44t-34 56.5t-13 67q0 91 56 147t172 56h206v-748h-78zM455 653h-127q-75 0 -113.5 -38.5t-38.5 -101.5t40 -103t115 -40h124v283z
" />
    <glyph glyph-name="afii10065" unicode="&#x430;" horiz-adv-x="520" 
d="M397 -32v57q-50 -38 -101.5 -52t-86.5 -13q-32 1 -62.5 14t-53.5 34.5t-37 51.5t-14 65q0 33 12 61.5t32.5 50t47.5 37t57 23.5q25 7 67 9t82 2h46v44q0 40 -30 68t-91 28q-15 0 -33.5 -3.5t-38 -9.5t-38.5 -13.5t-35 -15.5l-24 48q32 23 77.5 39.5t91.5 17.5
q40 1 75.5 -7.5t62.5 -27.5t42.5 -48.5t15.5 -69.5v-390h-64zM386 249h-32q-20 0 -41 -0.5t-41 -1t-37 -2.5t-27 -5q-38 -13 -64.5 -40.5t-26.5 -72.5q0 -22 9 -41t24.5 -33.5t35.5 -22.5t41 -8q12 0 34 2t46 8t46 17.5t33 29.5v170z" />
    <glyph glyph-name="afii10066" unicode="&#x431;" horiz-adv-x="591" 
d="M43 229v20.5t2 19.5q3 123 28.5 208.5t66 138.5t93 76.5t108.5 23.5h25v-67h-22q-32 0 -64 -14.5t-59 -40t-46 -60t-25 -73.5q35 18 72.5 28t79.5 10q65 0 113 -20.5t79.5 -56.5t47 -85.5t15.5 -107.5t-15.5 -107t-47 -85t-79.5 -56.5t-112 -20.5q-65 0 -113.5 20.5
t-81 56.5t-49 85t-16.5 107zM121 229q0 -94 45.5 -148.5t133.5 -54.5t133.5 54.5t45.5 148.5q0 96 -45.5 150t-133.5 54t-133.5 -55t-45.5 -149z" />
    <glyph glyph-name="afii10067" unicode="&#x432;" horiz-adv-x="512" 
d="M91 -31v539h160q88 0 134 -38t46 -102q0 -30 -20.5 -59.5t-62.5 -52.5q57 -18 92.5 -51.5t35.5 -81.5q0 -75 -52.5 -114.5t-149.5 -39.5h-183zM170 27h102q57 0 92.5 24.5t35.5 73.5q0 24 -10.5 41.5t-28 28.5t-41 16.5t-48.5 5.5h-102v-190zM170 274h76q20 0 39.5 5
t35.5 16t25.5 28t9.5 42q0 16 -6 31t-19 27t-33.5 19.5t-48.5 7.5h-79v-176z" />
    <glyph glyph-name="afii10068" unicode="&#x433;" horiz-adv-x="436" 
d="M421 433h-253v-464h-77v527h330v-63z" />
    <glyph glyph-name="afii10069" unicode="&#x434;" horiz-adv-x="557" 
d="M510 -168h-76v148h-319v-148h-77v208h30q23 0 40 9t31 24q19 22 25 52t6 66v305h289v-456h51v-208zM383 439h-137v-263q0 -36 -15.5 -73.5t-47.5 -62.5h200v399z" />
    <glyph glyph-name="afii10070" unicode="&#x435;" horiz-adv-x="535" 
d="M473 11q-79 -53 -187 -53q-124 0 -183.5 69.5t-59.5 197.5q0 138 60 209.5t172 71.5q55 0 96.5 -18.5t69.5 -53t42 -83t14 -108.5v-21.5t-2 -22.5h-377q7 -93 50 -134t118 -41q38 0 80.5 8t77.5 32zM421 261q-2 87 -36.5 133t-111.5 46q-69 0 -110.5 -45.5t-43.5 -133.5
h302z" />
    <glyph glyph-name="afii10072" unicode="&#x436;" horiz-adv-x="631" 
d="M279 496h80v-248q25 8 40 17t24.5 21.5t15 29t11.5 38.5l8 27q5 16 10.5 33t13 32t17 27t21.5 18q11 7 29.5 12.5t53.5 5.5q0 -17 -0.5 -32.5t-0.5 -32.5q-25 -2 -43.5 -14.5t-27.5 -29.5q-8 -16 -15.5 -36.5t-15.5 -41.5q-8 -25 -17.5 -46.5t-19.5 -39.5l164 -267h-70
l-143 233q-17 -5 -29.5 -7.5t-23.5 -4.5q0 -54 -1 -110.5t-1 -110.5h-80v221q-11 2 -20.5 3t-32.5 7l-140 -231h-72l162 265q-13 20 -23.5 45.5t-18.5 47.5q-5 14 -13 37.5t-16 38.5q-10 16 -29 26.5t-40 12.5v65q29 -1 47 -5.5t30 -11.5q22 -16 37 -48t26 -61l12 -38
q5 -17 11 -31t15.5 -26t25 -21.5t39.5 -16.5v248z" />
    <glyph glyph-name="afii10073" unicode="&#x437;" horiz-adv-x="386" 
d="M68 50q45 -31 114 -29q30 0 52 8.5t37 22.5t22 32.5t7 38.5q1 42 -18 70.5t-53 39.5q-17 7 -42 9t-46 1v50q19 0 42 1.5t32 4.5q32 11 49 37t17 58q0 46 -25.5 66t-77.5 20q-22 0 -44.5 -5.5t-41.5 -16.5l-23 45q24 14 53 22.5t56 8.5q81 0 126 -38t45 -95
q-1 -40 -27 -73.5t-71 -56.5q57 -24 87 -62.5t30 -84.5q0 -30 -11.5 -58.5t-34 -51t-57.5 -36t-81 -13.5q-38 -1 -73.5 8.5t-67.5 32.5z" />
    <glyph glyph-name="afii10074" unicode="&#x438;" horiz-adv-x="604" 
d="M84 496h75v-428l288 428h83v-528h-75v413l-284 -413h-87v528z" />
    <glyph glyph-name="afii10075" unicode="&#x439;" horiz-adv-x="604" 
d="M445 705q-3 -29 -16.5 -51.5t-33.5 -38t-45 -24t-51 -8.5q-57 0 -93 32t-45 89h60q19 -70 78 -70q29 0 52 18t31 53h63zM84 497h75v-428l288 428h83v-528h-75v413l-284 -413h-87v528z" />
    <glyph glyph-name="afii10076" unicode="&#x43a;" horiz-adv-x="518" 
d="M171 245q55 60 115 125.5t114 125.5h85l-223 -246q60 -69 120.5 -140.5t120.5 -140.5h-93zM161 496v-527h-77v527h77z" />
    <glyph glyph-name="afii10077" unicode="&#x43b;" horiz-adv-x="562" 
d="M32 31q39 11 63 25.5t37.5 34.5t18.5 45.5t5 58.5v301h339v-527h-77v464h-185v-239q0 -51 -12.5 -88.5t-39.5 -64.5q-16 -16 -30.5 -26.5t-32 -19t-38 -15t-48.5 -13.5v64z" />
    <glyph glyph-name="afii10078" unicode="&#x43c;" horiz-adv-x="663" 
d="M90 496h66l179 -265q45 63 92 132t92 133h63v-527h-74v403q-19 -26 -40 -55.5t-42.5 -60t-43 -60t-40.5 -55.5h-15l-162 233v-405h-75v527z" />
    <glyph glyph-name="afii10079" unicode="&#x43d;" horiz-adv-x="603" 
d="M529 496v-527h-76v241h-293v-241h-76v527h76v-222h293v222h76z" />
    <glyph glyph-name="afii10080" unicode="&#x43e;" horiz-adv-x="591" 
d="M43 231q0 58 16.5 108t48.5 87t80.5 58.5t113.5 21.5t113 -21.5t79.5 -58.5t47 -87.5t15.5 -107.5q0 -58 -15.5 -107.5t-47 -86t-79.5 -57.5t-112 -21q-65 0 -113.5 21t-81 57.5t-49 86t-16.5 107.5zM121 231q0 -93 45.5 -149.5t133.5 -56.5t133.5 56.5t45.5 149.5
q0 96 -45.5 152t-133.5 56t-133.5 -57t-45.5 -151z" />
    <glyph glyph-name="afii10081" unicode="&#x43f;" horiz-adv-x="603" 
d="M529 496v-527h-76v464h-293v-464h-76v527h445z" />
    <glyph glyph-name="afii10082" unicode="&#x440;" horiz-adv-x="500" 
d="M74 -254v748h189q54 0 96.5 -19.5t72.5 -54t45.5 -83.5t15.5 -107q0 -56 -16 -104t-46 -83t-73 -55t-97 -20h-109v-222h-78zM152 33h108q75 0 115 51.5t40 145.5q0 100 -39 150t-114 50h-110v-397z" />
    <glyph glyph-name="afii10083" unicode="&#x441;" horiz-adv-x="508" 
d="M489 3q-17 -12 -38 -20.5t-43.5 -14t-44 -8t-39.5 -2.5q-61 0 -109.5 20t-82.5 56.5t-52 87t-18 110.5q0 61 18.5 111.5t52 86.5t80.5 56t104 20q40 0 82.5 -9t80.5 -38q-8 -14 -15 -26.5t-16 -25.5q-25 17 -54.5 25t-77.5 8q-43 0 -76 -16t-55.5 -44t-34.5 -66t-12 -81
q0 -97 46.5 -153t137.5 -56q46 0 79 8.5t58 25.5z" />
    <glyph glyph-name="afii10084" unicode="&#x442;" horiz-adv-x="422" 
d="M23 444v53h381v-53h-152v-476h-77v476h-152z" />
    <glyph glyph-name="afii10085" unicode="&#x443;" horiz-adv-x="491" 
d="M7 495h84l151 -352l164 352h83q-91 -189 -178.5 -371.5t-178.5 -372.5h-81l151 312z" />
    <glyph glyph-name="afii10086" unicode="&#x444;" horiz-adv-x="842" 
d="M467 -253h-80v298q-29 -34 -65.5 -58t-68.5 -24q-50 0 -89.5 20.5t-67.5 56.5t-43 86.5t-15 110.5q0 57 15 106t43 85.5t67.5 57.5t88.5 21q35 0 70 -24t65 -63v300h80v-300q30 39 65.5 63t70.5 24q49 0 88 -21t66.5 -57.5t42.5 -85.5t15 -106q0 -60 -15 -110.5
t-42.5 -86.5t-67 -56.5t-88.5 -20.5q-32 0 -68 23.5t-67 60.5v-300zM115 239q0 -43 8 -82t24.5 -69t42 -47.5t60.5 -17.5q33 0 59 15.5t44 43.5t27.5 67t9.5 87q0 45 -9.5 83t-27.5 66.5t-44 44.5t-59 16q-34 0 -59 -16.5t-42 -44.5t-25.5 -66t-8.5 -80zM738 239
q0 42 -8.5 80t-25 66t-41.5 44.5t-58 16.5t-59.5 -16t-44.5 -44.5t-27.5 -66.5t-9.5 -83q0 -48 9.5 -87t27.5 -67t44.5 -43.5t59.5 -15.5q35 0 60.5 17.5t41.5 47.5t23.5 69t7.5 82z" />
    <glyph glyph-name="afii10087" unicode="&#x445;" horiz-adv-x="493" 
d="M7 -32l195 268l-180 260h86l140 -209l136 209h88l-180 -262l183 -266h-87l-140 212l-150 -212h-91z" />
    <glyph glyph-name="afii10088" unicode="&#x446;" horiz-adv-x="609" 
d="M464 495v-463h71v-200h-79v136h-372v527h79v-463h222v463h79z" />
    <glyph glyph-name="afii10089" unicode="&#x447;" horiz-adv-x="543" 
d="M391 -31v195q-39 -32 -77.5 -50.5t-70.5 -18.5q-73 0 -115.5 45.5t-42.5 130.5v225h77v-223q0 -63 29.5 -89.5t74.5 -26.5q34 0 65 18.5t60 51.5v269h78v-527h-78z" />
    <glyph glyph-name="afii10090" unicode="&#x448;" horiz-adv-x="687" 
d="M91 -31v527h74v-463h146v463h75v-463h147v463h74v-527h-516z" />
    <glyph glyph-name="afii10091" unicode="&#x449;" horiz-adv-x="722" 
d="M607 496v-452h70v-212h-75v148h-518v516h75v-452h152v452h74v-452h147v452h75z" />
    <glyph glyph-name="afii10092" unicode="&#x44a;" horiz-adv-x="581" 
d="M176 -31v468h-154v59h229v-200h67q66 0 110 -14t70.5 -37t37 -52t10.5 -60q0 -84 -57.5 -124t-154.5 -40h-158zM251 27h82q41 0 67.5 7.5t42 22t21.5 34.5t6 44q0 21 -6 40t-21.5 33.5t-42 22.5t-67.5 8h-82v-212z" />
    <glyph glyph-name="afii10093" unicode="&#x44b;" horiz-adv-x="704" 
d="M91 -31v527h75v-199h65q66 0 109.5 -14t69 -37t36 -52.5t10.5 -60.5q0 -84 -56 -124t-151 -40h-158zM166 27h81q42 0 68 7.5t40.5 22t19 34.5t4.5 44q0 21 -6.5 40t-21.5 33.5t-40.5 22.5t-63.5 8h-81v-212zM551 -31v527h73v-527h-73z" />
    <glyph glyph-name="afii10094" unicode="&#x44c;" horiz-adv-x="492" 
d="M91 -31v527h75v-199h66q66 0 109.5 -14t69 -37t35.5 -52.5t10 -60.5q0 -84 -55.5 -124t-151.5 -40h-158zM166 27h81q42 0 68.5 7.5t40.5 22t19 34.5t5 44q0 21 -6.5 40t-22 33.5t-41 22.5t-63.5 8h-81v-212z" />
    <glyph glyph-name="afii10095" unicode="&#x44d;" horiz-adv-x="521" 
d="M83 58q26 -17 57 -25.5t79 -8.5q85 0 130.5 49t53.5 137h-317v57h315q-5 37 -19 69t-36.5 55t-52.5 36t-67 13q-47 0 -77 -8t-56 -25q-9 14 -16 26t-15 26q39 29 80.5 38t83.5 9q57 0 104 -20t80.5 -56t51.5 -86.5t18 -111.5q0 -60 -18 -110.5t-51.5 -87t-82.5 -56.5
t-110 -20q-18 0 -39.5 2.5t-44 8t-43.5 14t-37 20.5z" />
    <glyph glyph-name="afii10096" unicode="&#x44e;" horiz-adv-x="671" 
d="M91 -31v527h72v-234h96q8 114 55.5 177.5t137.5 63.5q97 0 148.5 -69t51.5 -197q0 -132 -47.5 -201t-152.5 -69q-91 0 -137 60t-55 178h-97v-236h-72zM332 237q0 -46 7.5 -84.5t22.5 -66.5t37.5 -43.5t52.5 -15.5q31 0 54.5 15t39.5 42.5t24 66.5t8 86q0 45 -9 82.5
t-25.5 64.5t-40 42.5t-51.5 15.5q-29 0 -51 -16t-37.5 -44t-23.5 -65.5t-8 -79.5z" />
    <glyph glyph-name="afii10097" unicode="&#x44f;" horiz-adv-x="485" 
d="M348 -31v216h-34q-38 0 -71 -23t-57 -62l-80 -131h-78q24 40 45.5 73.5t45.5 72.5q13 20 39 43t64 38q-63 20 -102.5 58t-39.5 89q0 69 49 111t152 42h141v-527h-74zM348 432h-68q-60 0 -92.5 -20.5t-32.5 -69.5t30 -71t99 -22h64v183z" />
    <glyph glyph-name="afii10071" unicode="&#x451;" horiz-adv-x="522" 
d="M206 636q0 -18 -12.5 -32.5t-32.5 -14.5q-22 0 -35 14.5t-13 32.5t13 32.5t35 14.5q20 0 32.5 -14.5t12.5 -32.5zM423 636q0 -18 -12 -32.5t-32 -14.5q-22 0 -35.5 14.5t-13.5 32.5t13.5 32.5t35.5 14.5q20 0 32 -14.5t12 -32.5zM473 12q-40 -28 -86.5 -40.5
t-100.5 -12.5q-123 0 -183 70t-60 197q0 138 60 209.5t172 71.5q55 0 96.5 -18.5t69.5 -53t42 -83t14 -108.5v-21.5t-2 -22.5h-377q7 -93 50 -134t118 -41q36 0 79.5 9t78.5 30zM421 262q-2 86 -36.5 132.5t-111.5 46.5q-69 0 -110.5 -45.5t-43.5 -133.5h302z" />
    <glyph glyph-name="afii00208" unicode="&#x2015;" horiz-adv-x="810" 
d="M37 366h744v-51h-744v51z" />
    <glyph glyph-name="quoteleft" unicode="&#x2018;" horiz-adv-x="323" 
d="M158 671h51v-114h-104v119q0 51 21 82t60 50l22 -29q-25 -16 -37.5 -36t-12.5 -47v-25z" />
    <glyph glyph-name="quoteright" unicode="&#x2019;" horiz-adv-x="323" 
d="M156 684h-51v114h104v-119q0 -51 -21 -82t-60 -50l-22 29q25 16 37.5 36t12.5 47v25z" />
    <glyph glyph-name="quotedblleft" unicode="&#x201c;" horiz-adv-x="490" 
d="M158 671h51v-114h-104v119q0 51 21 82t60 50l22 -29q-25 -16 -37.5 -36t-12.5 -47v-25zM340 671h51v-114h-104v119q0 51 21 82t60 50l22 -29q-25 -16 -37.5 -36t-12.5 -47v-25z" />
    <glyph glyph-name="quotedblright" unicode="&#x201d;" horiz-adv-x="490" 
d="M338 681h-51v114h104v-119q0 -51 -21 -82t-60 -50l-22 29q25 16 37.5 36t12.5 47v25zM156 681h-51v114h104v-119q0 -51 -21 -82t-60 -50l-22 29q25 16 37.5 36t12.5 47v25z" />
    <glyph glyph-name="dagger" unicode="&#x2020;" horiz-adv-x="810" 
d="M358 -34v519h-123v69h123v159h87v-159h129v-69h-129v-519h-87z" />
    <glyph glyph-name="daggerdbl" unicode="&#x2021;" horiz-adv-x="810" 
d="M358 -34v330h-123v70h123v119h-123v69h123v159h87v-159h129v-69h-129v-119h129v-70h-129v-330h-87z" />
    <glyph glyph-name="twodotenleader" unicode="&#x2025;" horiz-adv-x="392" 
d="M150 20v-100h-91v100h91zM332 20v-100h-91v100h91z" />
    <glyph glyph-name="ellipsis" unicode="&#x2026;" horiz-adv-x="565" 
d="M513 20v-100h-91v100h91zM150 20v-100h-91v100h91zM332 20v-100h-91v100h91z" />
    <glyph glyph-name="perthousand" unicode="&#x2030;" horiz-adv-x="920" 
d="M611 109q0 66 37 106.5t109 40.5q69 0 107 -40.5t38 -106.5q0 -76 -38 -111t-107 -35q-72 0 -109 38.5t-37 107.5zM687 109q0 -17 3 -32t10.5 -27t21.5 -19t35 -7q39 0 52.5 21.5t13.5 63.5q0 16 -2.5 31t-10 26.5t-20.5 18.5t-33 7q-21 0 -35 -7t-21.5 -18.5
t-10.5 -26.5t-3 -31zM301 109q0 66 37 106.5t109 40.5q69 0 107 -40.5t38 -106.5t-38 -106t-107 -40q-72 0 -109 38.5t-37 107.5zM377 109q0 -17 3 -32t10.5 -27t21.5 -19t35 -7q39 0 52.5 21.5t13.5 63.5q0 16 -2.5 31t-10 26.5t-20.5 18.5t-33 7q-21 0 -35 -7t-21.5 -18.5
t-10.5 -26.5t-3 -31zM459 716h82l-376 -746h-81zM21 539q0 66 37 106.5t109 40.5q69 0 107 -40.5t38 -106.5t-38 -106t-107 -40q-72 0 -109 38.5t-37 107.5zM97 539q0 -17 3 -32t10.5 -27t21.5 -19t35 -7q39 0 52.5 26t13.5 59q0 16 -2.5 31t-10 26.5t-20.5 18.5t-33 7
q-21 0 -35 -7t-21.5 -18.5t-10.5 -26.5t-3 -31z" />
    <glyph glyph-name="minute" unicode="&#x2032;" horiz-adv-x="264" 
d="M130 736h77q-24 -57 -47.5 -107t-46.5 -107h-42z" />
    <glyph glyph-name="second" unicode="&#x2033;" horiz-adv-x="406" 
d="M273 736h78q-24 -57 -47.5 -107t-47.5 -107h-42zM132 736h75l-94 -214h-44z" />
    <glyph glyph-name="uni203B" unicode="&#x203b;" horiz-adv-x="920" 
d="M727 61l-49 -48l-230 231l-230 -231l-49 48l231 230l-231 231l49 48l230 -231l230 231l49 -48l-231 -231zM448 140q26 0 43.5 -17t17.5 -42q0 -26 -17.5 -43t-43.5 -17q-25 0 -42.5 17t-17.5 42t17 42.5t43 17.5zM448 562q26 0 43.5 -17t17.5 -42q0 -26 -17.5 -43
t-43.5 -17q-25 0 -42.5 17t-17.5 42t17 42.5t43 17.5zM238 351q25 0 42 -17t17 -43q0 -25 -16.5 -42.5t-42.5 -17.5t-43.5 17.5t-17.5 42.5t17.5 42.5t43.5 17.5zM658 351q26 0 43.5 -17t17.5 -43q0 -25 -17.5 -42.5t-43.5 -17.5q-24 0 -41.5 17.5t-17.5 42.5t17 42.5
t42 17.5z" />
    <glyph glyph-name="uni2074" unicode="&#x2074;" horiz-adv-x="320" 
d="M78 425h121v222zM250 380v-80h-51v80h-172v50l159 286h64v-291h48v-45h-48z" />
    <glyph glyph-name="uni207F" unicode="&#x207f;" horiz-adv-x="320" 
d="M258 300v275q0 42 -21 71.5t-67 29.5q-27 0 -54.5 -11t-54.5 -28v-337h-56v416h56v-29q25 17 54.5 27t61.5 10q69 0 103 -37.5t34 -103.5v-283h-56z" />
    <glyph glyph-name="uni2081" unicode="&#x2081;" horiz-adv-x="320" 
d="M211 -144h-51v374l-68 -27l-18 41l112 40q9 3 17 -2.5t8 -13.5v-412z" />
    <glyph glyph-name="uni2082" unicode="&#x2082;" horiz-adv-x="320" 
d="M43 -144v33q0 23 9.5 48.5t21.5 40.5q18 23 44.5 46.5t59.5 54.5q29 27 39.5 48t10.5 45q0 31 -20.5 50.5t-54.5 19.5q-23 0 -41 -12.5t-35 -29.5l-32 37q19 19 47 33.5t62 14.5q26 0 49 -8.5t40 -24t27 -36.5t10 -45q0 -70 -60 -122q-30 -26 -52 -45.5t-46 -45.5
q-14 -14 -18.5 -26t-4.5 -20v-7h178v-49h-234z" />
    <glyph glyph-name="uni2083" unicode="&#x2083;" horiz-adv-x="320" 
d="M137 285q26 0 49.5 -6.5t41 -20t28 -33t10.5 -46.5q0 -34 -17.5 -59.5t-42.5 -36.5q32 -12 52.5 -39.5t20.5 -63.5q0 -61 -38 -95.5t-104 -33.5q-22 0 -53 6t-53 19l14 39q27 -14 50 -17.5t42 -3.5q45 0 66.5 23.5t21.5 60.5t-26.5 60.5t-63.5 23.5h-54v39h54
q40 0 58.5 22.5t18.5 56.5q0 29 -19.5 47t-56.5 18q-24 0 -39.5 -5t-35.5 -16l-19 34q43 27 95 27z" />
    <glyph glyph-name="uni2084" unicode="&#x2084;" horiz-adv-x="320" 
d="M75 -19h121v222zM247 -64v-80h-51v80h-172v50l159 286h64v-291h48v-45h-48z" />
    <glyph glyph-name="Euro" unicode="&#x20ac;" horiz-adv-x="898" 
d="M149 453h72q13 76 42.5 128.5t69.5 85.5t88 48t99 15q33 0 60 -2.5t50 -7t44 -12t43 -16.5l-24 -57q-24 9 -44.5 15.5t-40 10t-41 5.5t-47.5 2q-32 0 -65.5 -11t-63.5 -36t-54 -66.5t-36 -101.5h277v-64h-286q-2 -14 -2 -27.5v-28.5q0 -21 1 -40t4 -36h283v-64h-269
q15 -48 40 -81t56.5 -53.5t67 -30t71.5 -9.5q45 0 84.5 7.5t77.5 30.5l27 -57q-17 -12 -36 -20.5t-42.5 -13.5t-53 -7.5t-66.5 -2.5q-55 0 -104.5 13t-89.5 41.5t-69.5 73.5t-44.5 109h-78v64h67q-2 18 -3 37t-1 40q0 14 0.5 27.5t1.5 27.5h-65v64z" />
    <glyph glyph-name="uni2103" unicode="&#x2103;" horiz-adv-x="800" 
d="M74 683q0 -28 17.5 -47t49.5 -19t50.5 19t18.5 47q0 30 -18.5 48.5t-50.5 18.5t-49.5 -18.5t-17.5 -48.5zM22 683q0 54 33 85.5t87 31.5t87.5 -31.5t33.5 -85.5t-33.5 -85.5t-87.5 -31.5t-87 31.5t-33 85.5zM777 0q-17 -12 -36 -20.5t-42.5 -13.5t-53 -7.5t-66.5 -2.5
q-69 0 -128 20.5t-102.5 65.5t-68 117t-24.5 175q0 110 26 185.5t68.5 122.5t98 67.5t115.5 20.5q33 0 60 -2.5t50 -7t44 -12t43 -16.5l-24 -57q-24 9 -44.5 15.5t-40 10t-41 5.5t-47.5 2q-39 0 -79.5 -16.5t-74 -55t-55 -103t-21.5 -160.5q0 -88 22 -148t58 -97t81.5 -53
t92.5 -16q45 0 84.5 7.5t77.5 30.5z" />
    <glyph glyph-name="uni2109" unicode="&#x2109;" horiz-adv-x="920" 
d="M449 336v-366h-78v746h464v-62h-386v-256h352v-62h-352zM117 668q0 -25 17.5 -45.5t52.5 -20.5t53 17.5t19 48.5q0 30 -18.5 51t-53.5 21t-52.5 -22t-17.5 -50zM63 668q0 26 9.5 48.5t26 39t39.5 25.5t50 9q58 0 92 -34t34 -88t-34.5 -85.5t-91.5 -31.5q-29 0 -52 9.5
t-39 25t-25 37t-9 45.5z" />
    <glyph glyph-name="afii61289" unicode="&#x2113;" horiz-adv-x="478" 
d="M68 51q13 3 35.5 10.5t42.5 14.5q-13 30 -24 68t-18.5 78t-11.5 78.5t-4 69.5q0 66 9.5 130t31.5 114.5t56 81.5t84 31q37 0 62 -20.5t39.5 -53t20.5 -73.5t6 -83q0 -53 -10 -113.5t-29 -119.5t-48 -113t-66 -94q11 -16 27 -28.5t27 -12.5q20 0 43.5 14.5t40.5 43.5
l49 -31q-24 -38 -56.5 -62.5t-75.5 -24.5q-39 0 -68 19t-49 45q-21 -8 -47.5 -14.5t-46.5 -10.5zM270 665q-29 0 -50 -24.5t-35 -64.5t-21 -91t-7 -103q0 -28 3 -62.5t9 -71t15.5 -73t23.5 -69.5q30 37 52.5 86.5t37.5 102t22.5 102.5t7.5 89q0 30 -2 62t-8 58t-17.5 42.5
t-30.5 16.5z" />
    <glyph glyph-name="afii61352" unicode="&#x2116;" horiz-adv-x="900" 
d="M469 -30v64h399v-64h-399zM112 716l251 -594v594h66v-746h-73l-251 593v-593h-66v746h73zM782 364q0 38 -5.5 69t-19 53t-36.5 34t-59 12t-59 -12t-36.5 -34t-18.5 -53t-5 -69v-53q0 -38 5 -69t18.5 -53.5t36.5 -34.5t59 -12t59 12t36.5 34.5t19 53.5t5.5 69v53zM662 593
q102 0 148.5 -58.5t46.5 -170.5v-53q0 -114 -46 -172.5t-149 -58.5q-100 0 -147 58.5t-47 172.5v53q0 112 47 170.5t147 58.5z" />
    <glyph glyph-name="uni2121" unicode="&#x2121;" horiz-adv-x="900" 
d="M218 658h-200v58h475v-58h-201v-688h-74v688zM433 246h230v44q0 66 -27.5 101t-90.5 35q-58 0 -85 -35t-27 -101v-44zM552 14q27 0 46 2t35 5.5t31.5 10t33.5 15.5l24 -56q-22 -10 -41 -17t-38.5 -11t-41.5 -5.5t-49 -1.5q-44 0 -80.5 14.5t-62.5 42t-40.5 68t-14.5 91.5
v97q0 106 49 160.5t142 54.5q56 0 93.5 -16t60 -44t32 -65t9.5 -79v-27q0 -32 -15.5 -48.5t-53.5 -16.5h-238v-25q0 -38 11.5 -66t28.5 -46.5t38 -27.5t41 -9zM868 716v-746h-75v746h75z" />
    <glyph glyph-name="trademark" unicode="&#x2122;" horiz-adv-x="900" 
d="M166 664h-133v52h335v-52h-134v-364h-68v364zM779 300h-65v292l-52 -130q-20 -50 -70 -50t-69 49l-52 132v-293h-65v416h76l88 -215q10 -24 22 -23.5t22 23.5l89 215h76v-416z" />
    <glyph glyph-name="Omega" unicode="&#x2126;" horiz-adv-x="622" 
d="M365 146q30 12 55.5 33t44 50.5t29 66.5t10.5 81q0 103 -46.5 160t-137.5 57t-137 -57t-46 -160q0 -42 11 -78.5t30 -66t44 -51t53 -34.5v-174h-185v55h112v86q-31 19 -57 47t-45 62t-29.5 73t-10.5 81q1 68 21.5 120t55.5 87t82 53t101 18q55 0 102 -18t81.5 -53t55 -87
t21.5 -120q0 -41 -10.5 -80t-29.5 -73t-45 -62t-57 -47v-87h111v-55h-184v173z" />
    <glyph glyph-name="uni212B" unicode="&#x212b;" horiz-adv-x="700" 
d="M226 683q0 54 33 85.5t87 31.5t87.5 -31.5t33.5 -85.5q0 -35 -14.5 -61t-40.5 -40l253 -612h-80l-68 164h-334l-67 -164h-82l248 610q-26 14 -41 40.5t-15 62.5zM492 199l-143 360l-142 -360h285zM278 683q0 -28 17.5 -47t49.5 -19t50.5 19t18.5 47q0 30 -18.5 48.5
t-50.5 18.5t-49.5 -18.5t-17.5 -48.5z" />
    <glyph glyph-name="onethird" unicode="&#x2153;" horiz-adv-x="800" 
d="M624 716l-449 -760h-57l449 760h57zM191 300h-51v374l-68 -27l-18 41l112 40q9 3 17 -2.5t8 -13.5v-412zM600 390q26 0 49.5 -6.5t41 -20t28 -33t10.5 -46.5q0 -34 -17.5 -59.5t-42.5 -36.5q32 -12 52.5 -39.5t20.5 -63.5q0 -61 -38 -95.5t-104 -33.5q-22 0 -53 6t-53 19
l14 39q27 -14 50 -17.5t42 -3.5q45 0 66.5 23.5t21.5 60.5t-26.5 60.5t-63.5 23.5h-54v39h54q40 0 58.5 22.5t18.5 56.5q0 29 -19.5 47t-56.5 18q-24 0 -39.5 -5t-35.5 -16l-19 34q43 27 95 27z" />
    <glyph glyph-name="twothirds" unicode="&#x2154;" horiz-adv-x="800" 
d="M664 716l-449 -760h-57l449 760h57zM600 390q26 0 49.5 -6.5t41 -20t28 -33t10.5 -46.5q0 -34 -17.5 -59.5t-42.5 -36.5q32 -12 52.5 -39.5t20.5 -63.5q0 -61 -38 -95.5t-104 -33.5q-22 0 -53 6t-53 19l14 39q27 -14 50 -17.5t42 -3.5q45 0 66.5 23.5t21.5 60.5
t-26.5 60.5t-63.5 23.5h-54v39h54q40 0 58.5 22.5t18.5 56.5q0 29 -19.5 47t-56.5 18q-24 0 -39.5 -5t-35.5 -16l-19 34q43 27 95 27zM52 300v33q0 23 9.5 48.5t21.5 40.5q18 23 44.5 46.5t59.5 54.5q29 27 39.5 48t10.5 45q0 31 -20.5 50.5t-54.5 19.5q-23 0 -41 -12.5
t-35 -29.5l-32 37q19 19 47 33.5t62 14.5q26 0 49 -8.5t40 -24t27 -36.5t10 -45q0 -70 -60 -122q-30 -26 -52 -45.5t-46 -45.5q-14 -14 -18.5 -26t-4.5 -20v-7h178v-49h-234z" />
    <glyph glyph-name="oneeighth" unicode="&#x215b;" horiz-adv-x="800" 
d="M634 716l-449 -760h-57l449 760h57zM191 300h-51v374l-68 -27l-18 41l112 40q9 3 17 -2.5t8 -13.5v-412zM607 -44q-58 0 -97.5 29.5t-39.5 87.5q0 83 61 114q-28 14 -37 39.5t-9 51.5q0 30 9.5 51t25.5 34.5t38 20t47 6.5q51 0 87 -27t36 -85q0 -26 -11.5 -53.5
t-38.5 -38.5q35 -14 49.5 -43t14.5 -67q0 -54 -33 -87t-102 -33zM605 164q-42 0 -62 -23.5t-20 -61.5t22.5 -60t61.5 -22q22 0 38 7.5t25.5 19t14 25.5t4.5 28q0 40 -19.5 63.5t-64.5 23.5zM605 207q69 0 69 71q0 38 -19.5 54.5t-48.5 16.5q-32 0 -50 -18t-18 -53
q0 -34 17 -52.5t50 -18.5z" />
    <glyph glyph-name="threeeighths" unicode="&#x215c;" horiz-adv-x="800" 
d="M634 716l-449 -760h-57l449 760h57zM607 -44q-58 0 -97.5 29.5t-39.5 87.5q0 83 61 114q-28 14 -37 39.5t-9 51.5q0 30 9.5 51t25.5 34.5t38 20t47 6.5q51 0 87 -27t36 -85q0 -26 -11.5 -53.5t-38.5 -38.5q35 -14 49.5 -43t14.5 -67q0 -54 -33 -87t-102 -33zM605 164
q-42 0 -62 -23.5t-20 -61.5t22.5 -60t61.5 -22q22 0 38 7.5t25.5 19t14 25.5t4.5 28q0 40 -19.5 63.5t-64.5 23.5zM605 207q69 0 69 71q0 38 -19.5 54.5t-48.5 16.5q-32 0 -50 -18t-18 -53q0 -34 17 -52.5t50 -18.5zM157 729q26 0 49.5 -6.5t41 -20t28 -33t10.5 -46.5
q0 -34 -17.5 -59.5t-42.5 -36.5q32 -12 52.5 -39.5t20.5 -63.5q0 -61 -38 -95.5t-104 -33.5q-22 0 -53 6t-53 19l14 39q27 -14 50 -17.5t42 -3.5q45 0 66.5 23.5t21.5 60.5t-26.5 60.5t-63.5 23.5h-54v39h54q40 0 58.5 22.5t18.5 56.5q0 29 -19.5 47t-56.5 18
q-24 0 -39.5 -5t-35.5 -16l-19 34q43 27 95 27z" />
    <glyph glyph-name="fiveeighths" unicode="&#x215d;" horiz-adv-x="800" 
d="M634 716l-449 -760h-57l449 760h57zM607 -44q-58 0 -97.5 29.5t-39.5 87.5q0 83 61 114q-28 14 -37 39.5t-9 51.5q0 30 9.5 51t25.5 34.5t38 20t47 6.5q51 0 87 -27t36 -85q0 -26 -11.5 -53.5t-38.5 -38.5q35 -14 49.5 -43t14.5 -67q0 -54 -33 -87t-102 -33zM605 167
q-42 0 -62 -25t-20 -63t22.5 -60t61.5 -22q22 0 38 7.5t25.5 19t14 25.5t4.5 28q0 40 -19.5 65t-64.5 25zM605 204q35 0 52 19.5t17 54.5q0 38 -19.5 54.5t-48.5 16.5q-32 0 -50 -18t-18 -53q0 -34 17 -54t50 -20zM155 515q-19 0 -35.5 -3.5t-34.5 -9.5q-7 -2 -14 1.5
t-6 12.5l14 200h196v-40h-154l-10 -127q19 7 44 7q70 0 107 -34.5t37 -94.5q0 -58 -37 -95t-106 -37q-29 0 -56 5.5t-48 19.5l14 38q39 -21 90 -21q46 0 68 25.5t22 64.5q0 42 -21.5 65t-69.5 23z" />
    <glyph glyph-name="seveneighths" unicode="&#x215e;" horiz-adv-x="800" 
d="M634 716l-449 -760h-57l449 760h57zM607 -44q-58 0 -97.5 29.5t-39.5 87.5q0 83 61 114q-28 14 -37 39.5t-9 51.5q0 30 9.5 51t25.5 34.5t38 20t47 6.5q51 0 87 -27t36 -85q0 -26 -11.5 -53.5t-38.5 -38.5q35 -14 49.5 -43t14.5 -67q0 -54 -33 -87t-102 -33zM605 164
q-42 0 -62 -23.5t-20 -61.5t22.5 -60t61.5 -22q22 0 38 7.5t25.5 19t14 25.5t4.5 28q0 40 -19.5 63.5t-64.5 23.5zM605 207q69 0 69 71q0 38 -19.5 54.5t-48.5 16.5q-32 0 -50 -18t-18 -53q0 -34 17 -52.5t50 -18.5zM291 689q0 -8 -2 -15.5t-4 -14.5l-129 -359h-52l135 370
h-183v46h235v-27z" />
    <glyph glyph-name="uni2160" unicode="&#x2160;" horiz-adv-x="810" 
d="M370 -38v747h78v-747h-78z" />
    <glyph glyph-name="uni2161" unicode="&#x2161;" horiz-adv-x="810" 
d="M260 -38v747h77v-747h-77zM480 -38v747h77v-747h-77z" />
    <glyph glyph-name="uni2162" unicode="&#x2162;" horiz-adv-x="810" 
d="M160 -38v747h77v-747h-77zM370 -38v747h78v-747h-78zM581 -38v747h77v-747h-77z" />
    <glyph glyph-name="uni2163" unicode="&#x2163;" horiz-adv-x="810" 
d="M511 -38h-65q-60 190 -117.5 373.5t-117.5 373.5h77l191 -653l195 653h74zM67 -38v747h78v-747h-78z" />
    <glyph glyph-name="uni2164" unicode="&#x2164;" horiz-adv-x="810" 
d="M441 -38h-67q-63 190 -126.5 373.5t-127.5 373.5h79l210 -658q25 79 52 162t54 167t54 167t53 162h75z" />
    <glyph glyph-name="uni2165" unicode="&#x2165;" horiz-adv-x="810" 
d="M674 -38v747h78v-747h-78zM369 -38h-65q-60 190 -117.5 373.5t-117.5 373.5h78l192 -653l96 326l98 327h73z" />
    <glyph glyph-name="uni2166" unicode="&#x2166;" horiz-adv-x="810" 
d="M563 -38v747h72v-747h-72zM708 -38v747h72v-747h-72zM304 -38h-62l-202 747h74l162 -633l160 633h72z" />
    <glyph glyph-name="uni2167" unicode="&#x2167;" horiz-adv-x="810" 
d="M465 -38v747h62v-747h-62zM587 -38v747h61v-747h-61zM708 -38v747h61v-747h-61zM258 -38h-61l-171 747h69l132 -643l138 643h69z" />
    <glyph glyph-name="uni2168" unicode="&#x2168;" horiz-adv-x="810" 
d="M198 -38l230 382l-212 365h90l172 -322l170 322h88l-208 -367l227 -380h-89l-188 333q-48 -81 -96 -166.5t-96 -166.5h-88zM58 -38v747h77v-747h-77z" />
    <glyph glyph-name="uni2169" unicode="&#x2169;" horiz-adv-x="810" 
d="M92 -38l270 382l-252 365h92l209 -319l205 319h92l-249 -365q66 -94 133 -190t133 -192h-91l-223 328l-228 -328h-91z" />
    <glyph glyph-name="uni2170" unicode="&#x2170;" horiz-adv-x="830" 
d="M377 -31v518h78v-518h-78zM468 688q0 -21 -15 -38t-38 -17t-38 17t-15 38t14.5 38.5t38.5 17.5t38.5 -17.5t14.5 -38.5z" />
    <glyph glyph-name="uni2171" unicode="&#x2171;" horiz-adv-x="830" 
d="M262 -31v518h76v-518h-76zM353 688q0 -21 -15.5 -38t-38.5 -17t-38 17t-15 38t15 38.5t38 17.5q24 0 39 -17.5t15 -38.5zM494 -31v518h76v-518h-76zM584 688q0 -21 -15 -38t-38 -17q-22 0 -38 17t-16 38t15.5 38.5t38.5 17.5q24 0 38.5 -17.5t14.5 -38.5z" />
    <glyph glyph-name="uni2172" unicode="&#x2172;" horiz-adv-x="830" 
d="M150 -31v518h76v-518h-76zM241 688q0 -21 -15.5 -38t-38.5 -17q-22 0 -37.5 17t-15.5 38t15 38.5t38 17.5q24 0 39 -17.5t15 -38.5zM381 -31v518h78v-518h-78zM472 688q0 -21 -15 -38t-38 -17q-22 0 -37.5 17t-15.5 38t15 38.5t38 17.5q25 0 39 -17.5t14 -38.5zM614 -31
v518h76v-518h-76zM705 688q0 -21 -15.5 -38t-37.5 -17q-23 0 -38.5 17t-15.5 38t15 38.5t39 17.5q23 0 38 -17.5t15 -38.5z" />
    <glyph glyph-name="uni2173" unicode="&#x2173;" horiz-adv-x="830" 
d="M143 -31v518h76v-518h-76zM233 688q0 -21 -15 -38t-38 -17q-22 0 -38 17t-16 38t15.5 38.5t38.5 17.5q24 0 38.5 -17.5t14.5 -38.5zM512 72l157 415h76q-51 -129 -104 -254.5t-107 -263.5h-47q-49 127 -103.5 253.5t-109.5 264.5h79z" />
    <glyph glyph-name="uni2174" unicode="&#x2174;" horiz-adv-x="830" 
d="M421 70l156 414h78q-51 -123 -103.5 -249t-108.5 -267h-48l-212 516h79z" />
    <glyph glyph-name="uni2175" unicode="&#x2175;" horiz-adv-x="830" 
d="M620 -31v518h77v-518h-77zM711 688q0 -21 -15.5 -38t-38.5 -17q-22 0 -37.5 17t-15.5 38t15 38.5t38 17.5q25 0 39.5 -17.5t14.5 -38.5zM332 72l156 415h76l-34 -84t-40.5 -100t-56 -137.5t-80.5 -196.5h-48q-50 123 -102 249t-110 269h78z" />
    <glyph glyph-name="uni2176" unicode="&#x2176;" horiz-adv-x="830" 
d="M533 -31v518h77v-518h-77zM624 688q0 -21 -15 -38t-38 -17q-22 0 -38 17t-16 38t15 38.5t39 17.5t38.5 -17.5t14.5 -38.5zM265 61l138 426h75l-192 -518h-47q-49 133 -97 259t-96 259h76zM706 -31v518h76v-518h-76zM796 688q0 -21 -15 -38t-38 -17q-22 0 -38 17t-16 38
t15.5 38.5t38.5 17.5q24 0 38.5 -17.5t14.5 -38.5z" />
    <glyph glyph-name="uni2177" unicode="&#x2177;" horiz-adv-x="830" 
d="M442 -31v518h66v-518h-66zM515 697q0 -18 -13 -32t-33 -14q-17 0 -30.5 14t-13.5 32q0 17 12.5 32t31.5 15q21 0 33.5 -15t12.5 -32zM583 -31v518h68v-518h-68zM658 697q0 -18 -13 -32t-33 -14q-19 0 -31.5 14t-12.5 32q0 17 12 32t32 15t33 -15t13 -32zM721 -31v518h66
v-518h-66zM795 697q0 -18 -13 -32t-32 -14t-32 14t-13 32q0 17 12.5 32t32.5 15t32.5 -15t12.5 -32zM213 43l107 444h66l-154 -518h-43l-153 518h67z" />
    <glyph glyph-name="uni2178" unicode="&#x2178;" horiz-adv-x="830" 
d="M116 -31v518h77v-518h-77zM207 688q0 -21 -15 -38t-38 -17t-38.5 17t-15.5 38t15 38.5t39 17.5t38.5 -17.5t14.5 -38.5zM263 -31l194 263l-179 255h84l140 -203q32 48 67 101t67 102h87l-177 -258q43 -64 88 -126t93 -134h-86l-138 205q-38 -53 -63 -87t-41.5 -56.5
t-26.5 -36t-18 -25.5h-91z" />
    <glyph glyph-name="uni2179" unicode="&#x2179;" horiz-adv-x="830" 
d="M187 -32l193 263l-178 253h85l139 -202l135 202h87l-179 -256l183 -260h-87l-139 206q-9 -13 -20.5 -29.5t-28.5 -40.5t-41 -57t-58 -79h-91z" />
    <glyph glyph-name="arrowleft" unicode="&#x2190;" horiz-adv-x="920" 
d="M915 319v-58h-737l48 -130l-216 159l218 156l-51 -127h738z" />
    <glyph glyph-name="arrowup" unicode="&#x2191;" horiz-adv-x="920" 
d="M481 618v-807h-63v807l-126 -49l155 217l163 -217z" />
    <glyph glyph-name="arrowright" unicode="&#x2192;" horiz-adv-x="920" 
d="M748 261h-738v58h738l-51 127l218 -156l-217 -160z" />
    <glyph glyph-name="arrowdown" unicode="&#x2193;" horiz-adv-x="920" 
d="M418 784h63v-808l127 51l-161 -218l-155 218l126 -51v808z" />
    <glyph glyph-name="arrowboth" unicode="&#x2194;" horiz-adv-x="920" 
d="M230 446l-51 -127h569l-50 127l217 -156l-215 -159l48 130h-568l48 -130l-216 159z" />
    <glyph glyph-name="arrowupdn" unicode="&#x2195;" horiz-adv-x="920" 
d="M474 -41l114 47l-137 -194l-136 194l111 -46v678l-111 -48l136 197l137 -197l-114 49v-680z" />
    <glyph glyph-name="uni2196" unicode="&#x2196;" horiz-adv-x="920" 
d="M878 -109l-36 -37l-713 723l-56 -123l-39 255l253 -42l-120 -52z" />
    <glyph glyph-name="uni2197" unicode="&#x2197;" horiz-adv-x="920" 
d="M775 577l-713 -723l-37 37l712 724l-120 52l252 42l-38 -255z" />
    <glyph glyph-name="uni2198" unicode="&#x2198;" horiz-adv-x="920" 
d="M28 684l37 38l713 -723l55 123l39 -255l-253 42l121 52z" />
    <glyph glyph-name="uni2199" unicode="&#x2199;" horiz-adv-x="920" 
d="M848 719l38 -37l-724 -713l123 -56l-254 -39l41 253l52 -120z" />
    <glyph glyph-name="arrowdblright" unicode="&#x21d2;" horiz-adv-x="810" 
d="M520 132q-8 9 -14 15.5t-14 14.5l136 132h-600v39h635l66 68l-69 69h-632v39h593l-131 133q10 6 16.5 11.5t14.5 10.5l265 -266z" />
    <glyph glyph-name="arrowdblboth" unicode="&#x21d4;" horiz-adv-x="810" 
d="M537 127q-10 8 -16.5 14.5t-14.5 13.5l135 134h-462l133 -130q-9 -8 -16 -14t-15 -14l-267 265l266 265l31 -25l-131 -132h458l-131 129l29 26l267 -266zM676 465h-534l-70 -68l73 -70h531l70 69z" />
    <glyph glyph-name="universal" unicode="&#x2200;" horiz-adv-x="609" 
d="M92 716l70 -224h284l72 224h80l-246 -746h-99l-243 746h82zM426 427h-244l121 -388z" />
    <glyph glyph-name="partialdiff" unicode="&#x2202;" horiz-adv-x="810" 
d="M274 567q35 29 75.5 45t80.5 16q52 0 91 -19.5t65.5 -52.5t39.5 -76.5t13 -91.5q0 -41 -7 -87.5t-21 -92t-35.5 -88t-50.5 -74.5t-65.5 -51.5t-80.5 -19.5t-80.5 13t-63 37t-41 58t-14.5 75q0 49 18 86t49 61t70.5 36t83.5 12q39 0 78.5 -5t84.5 -14q6 34 6 64
q0 35 -7.5 66.5t-24.5 55t-45 37.5t-68 14q-25 0 -52.5 -10t-50.5 -30zM251 153q0 -51 31 -84.5t86 -33.5q47 0 79 21.5t53 56t34 79t22 90.5q-48 7 -85 11.5t-69 4.5q-75 0 -113 -34.5t-38 -110.5z" />
    <glyph glyph-name="existential" unicode="&#x2203;" horiz-adv-x="542" 
d="M483 716v-746h-412v62h334v256h-291v62h291v303h-346v63h424z" />
    <glyph glyph-name="gradient" unicode="&#x2207;" horiz-adv-x="810" 
d="M405 7l-350 584h706zM180 559l251 -452l265 452h-516z" />
    <glyph glyph-name="element" unicode="&#x2208;" horiz-adv-x="810" 
d="M173 325q5 -34 18.5 -63.5t35 -51t51 -34t67.5 -12.5h370v-57h-367q-57 0 -102.5 18t-77.5 50.5t-48.5 77t-15.5 98.5q1 53 19 98t49.5 77.5t75 50.5t96.5 18h368v-56h-364q-73 0 -117.5 -45t-56.5 -117h540v-52h-541z" />
    <glyph glyph-name="suchthat" unicode="&#x220b;" horiz-adv-x="810" 
d="M104 325v52h541q-8 35 -23 64.5t-37 51.5t-51 34t-64 12h-364v56h367q53 0 97 -18t75.5 -50.5t49.5 -77.5t19 -98q1 -54 -15.5 -98.5t-48.5 -77t-77.5 -50.5t-102.5 -18h-367v57h369q37 0 65.5 13t50 34.5t36 51t22.5 62.5h-542z" />
    <glyph glyph-name="product" unicode="&#x220f;" horiz-adv-x="810" 
d="M593 603v-592h-66v592h-236v-592h-66v592h-108v53h583v-53h-107z" />
    <glyph glyph-name="summation" unicode="&#x2211;" horiz-adv-x="810" 
d="M137 -24v20l305 305l-304 311v44h533v-41h-433l291 -290l-281 -279h433v-70h-544z" />
    <glyph glyph-name="radical" unicode="&#x221a;" horiz-adv-x="810" 
d="M352 -65h-70l-145 320h-109v48h180l125 -291l398 779h55z" />
    <glyph glyph-name="proportional" unicode="&#x221d;" horiz-adv-x="810" 
d="M734 214q-29 -16 -53 -18.5t-50 -2.5q-113 0 -180 122q-42 -57 -90 -89.5t-108 -32.5q-79 0 -125 46t-46 131q0 88 48 133t130 45q60 0 104.5 -32t86.5 -89q34 54 82 87t99 33q22 0 48 -3.5t52 -14.5l-18 -50q-25 12 -44 14t-39 2q-54 0 -90 -32t-55 -92q20 -58 57 -92.5
t92 -34.5q17 0 35.5 2.5t45.5 18.5zM249 244q61 0 97 32t66 94q-14 26 -29 49t-33 40t-41.5 27t-53.5 10q-61 0 -88.5 -36t-27.5 -90q0 -24 6.5 -46.5t20 -40.5t34 -28.5t49.5 -10.5z" />
    <glyph glyph-name="infinity" unicode="&#x221e;" horiz-adv-x="810" 
d="M780 353q0 -38 -14.5 -71t-40 -58t-59.5 -39.5t-74 -14.5q-57 0 -101.5 31.5t-79.5 85.5q-36 -54 -79 -85.5t-107 -31.5q-39 0 -73.5 14t-59.5 38.5t-39.5 58t-14.5 72.5q0 37 14 70t39 58t59 39.5t75 14.5q60 0 104 -29t79 -86q35 52 81 83.5t103 31.5q38 0 72.5 -14
t60 -38.5t40.5 -58t15 -71.5zM727 353q0 28 -10 53t-27.5 44t-42 29.5t-53.5 10.5q-63 0 -97.5 -36.5t-52.5 -99.5q6 -27 20.5 -52.5t34.5 -45.5t44.5 -32t50.5 -12q27 0 51.5 10.5t42.5 29.5t28.5 45t10.5 56zM222 212q30 0 55.5 11.5t45 30.5t32 44.5t17.5 54.5
q-13 61 -51.5 99t-98.5 38q-27 0 -51 -10t-41 -28.5t-27 -43.5t-10 -55t9.5 -55.5t27 -44.5t41 -30t51.5 -11z" />
    <glyph glyph-name="angle" unicode="&#x2220;" horiz-adv-x="810" 
d="M233 79h504v-52h-646l548 550l45 -44z" />
    <glyph glyph-name="uni2225" unicode="&#x2225;" horiz-adv-x="810" 
d="M288 745h62v-857h-62v857zM467 745h63v-857h-63v857z" />
    <glyph glyph-name="logicaland" unicode="&#x2227;" horiz-adv-x="810" 
d="M410 636l274 -540l-59 -30l-216 442l-217 -447l-59 33z" />
    <glyph glyph-name="logicalor" unicode="&#x2228;" horiz-adv-x="810" 
d="M191 629l218 -458q52 112 107 227t109 227q18 -8 30 -15t29 -15q-69 -141 -136.5 -276t-136.5 -275l-278 551z" />
    <glyph glyph-name="intersection" unicode="&#x2229;" horiz-adv-x="810" 
d="M406 613q-42 0 -74.5 -14.5t-54.5 -39.5t-33.5 -59.5t-11.5 -73.5v-380h-68v381q0 51 15.5 95t46.5 76.5t76 51.5t105 19q58 0 103.5 -19t77 -51.5t48.5 -77t17 -95.5v-376h-69v376q0 39 -11.5 73.5t-34 59.5t-56 39.5t-76.5 14.5z" />
    <glyph glyph-name="union" unicode="&#x222a;" horiz-adv-x="810" 
d="M406 84q40 0 73 13t56.5 37t36 58.5t12.5 77.5v376h69v-377q0 -52 -17.5 -96t-50 -76t-78 -50t-100.5 -18q-60 0 -105 18.5t-76 51t-46.5 76t-15.5 93.5v383h68v-381q0 -39 11.5 -73t33.5 -59t54.5 -39.5t74.5 -14.5z" />
    <glyph glyph-name="integral" unicode="&#x222b;" horiz-adv-x="810" 
d="M401 97q-3 -20 -8 -41.5t-19 -40.5t-40.5 -32t-71.5 -16l7 53q36 7 48 24t17 40q16 118 34 242t35 242q5 23 15 47.5t27.5 44t44 32t64.5 11.5l-8 -53q-37 -2 -55 -22.5t-24 -58.5z" />
    <glyph glyph-name="uni222C" unicode="&#x222c;" horiz-adv-x="810" 
d="M283 97q-3 -21 -7.5 -43t-18 -41t-40 -31.5t-73.5 -14.5l8 53q35 6 47 23.5t16 40.5l70 484q5 23 15 47.5t27.5 44.5t44 32t65.5 11q-2 -17 -5 -27.5t-5 -25.5q-36 -2 -53.5 -23t-23.5 -58zM519 97q-3 -21 -7.5 -42.5t-18.5 -40t-40.5 -31.5t-73.5 -16l9 53q36 6 48 23.5
t16 40.5q16 118 34 242t35 242q5 23 14.5 47.5t27 44.5t44 32t65.5 11q-2 -17 -4.5 -27.5t-4.5 -25.5q-36 -2 -53.5 -22.5t-24.5 -58.5z" />
    <glyph glyph-name="uni222E" unicode="&#x222e;" horiz-adv-x="810" 
d="M592 314q0 -40 -14.5 -69.5t-38.5 -49.5t-55 -31t-63 -14l-11 -83q-3 -20 -7.5 -41.5t-18 -39.5t-39.5 -30.5t-71 -14.5v51q36 5 48.5 21.5t17.5 39.5l14 103q-26 6 -49.5 19t-41 33t-27.5 46.5t-10 59.5q0 40 14.5 69.5t38.5 50t55 31t64 12.5l7 51q3 25 12 49.5
t26.5 43t45.5 29.5t70 10v-53q-71 -5 -85 -79q-2 -13 -4 -28.5t-4 -29.5q26 -8 49 -21t40 -32.5t27 -45t10 -57.5zM283 312q0 -42 22.5 -69t54.5 -41l31 231q-21 -4 -40.5 -13t-34.5 -24t-24 -36t-9 -48zM428 194q45 9 76.5 38.5t31.5 80.5q0 42 -21.5 69t-54.5 42z" />
    <glyph glyph-name="therefore" unicode="&#x2234;" horiz-adv-x="810" 
d="M463 560q0 -21 -14 -38t-39 -17q-26 0 -40.5 17t-14.5 38q0 20 14.5 37t40.5 17q25 0 39 -17t14 -37zM226 172q0 -20 -14.5 -37.5t-39.5 -17.5q-24 0 -39.5 17.5t-15.5 37.5q0 21 15.5 37.5t39.5 16.5q25 0 39.5 -16.5t14.5 -37.5zM700 172q0 -20 -15 -37.5t-38 -17.5
q-26 0 -41 17.5t-15 37.5q0 21 15 37.5t41 16.5q23 0 38 -16.5t15 -37.5z" />
    <glyph glyph-name="uni2235" unicode="&#x2235;" horiz-adv-x="810" 
d="M463 171q0 -20 -14 -37t-39 -17q-26 0 -40.5 17t-14.5 37q0 21 14.5 38t40.5 17q25 0 39 -17t14 -38zM226 559q0 -21 -14.5 -37.5t-39.5 -16.5q-24 0 -39.5 16.5t-15.5 37.5q0 20 15.5 37.5t39.5 17.5q25 0 39.5 -17.5t14.5 -37.5zM700 559q0 -21 -15 -37.5t-38 -16.5
q-26 0 -41 16.5t-15 37.5q0 20 15 37.5t41 17.5q23 0 38 -17.5t15 -37.5z" />
    <glyph glyph-name="similar" unicode="&#x223c;" horiz-adv-x="920" 
d="M83 230q3 43 21.5 83t48.5 70t70 46.5t85 12.5q24 -2 46 -10.5t42 -20.5t37.5 -26.5t32.5 -29.5q12 -12 25 -26t27.5 -26.5t31.5 -21.5t37 -12q32 -4 55 6.5t39 30.5t25 45.5t14 51.5h96q-6 -42 -24 -82.5t-48 -71t-72 -47t-95 -10.5q-27 3 -48.5 11.5t-40 21.5t-36.5 30
t-38 37q-27 26 -54.5 48.5t-55.5 24.5q-30 3 -52.5 -7t-37.5 -29t-23.5 -45t-11.5 -54h-96z" />
    <glyph glyph-name="uni223D" unicode="&#x223d;" horiz-adv-x="810" 
d="M391 387q28 27 59.5 47.5t78.5 20.5q27 0 49.5 -10t41 -26t33 -37t24.5 -43q-13 -7 -24.5 -12t-25.5 -10q-20 37 -42.5 61t-57.5 24q-25 0 -49.5 -18t-56.5 -44q-26 -23 -57 -35t-69 -12q-24 1 -47.5 11t-43.5 27.5t-36.5 42.5t-25.5 55q14 3 23.5 7t23.5 7q7 -18 17 -35
t23 -30.5t29.5 -22t36.5 -8.5q31 0 54.5 11t42.5 29h-1z" />
    <glyph glyph-name="uni2252" unicode="&#x2252;" horiz-adv-x="810" 
d="M128 394h562v-49h-562v49zM128 249h562v-49h-562v49zM256 539q0 -21 -14 -38.5t-39 -17.5q-26 0 -40.5 17.5t-14.5 38.5q0 20 14.5 37.5t40.5 17.5q25 0 39 -17.5t14 -37.5zM670 49q0 -21 -14 -37.5t-39 -16.5q-26 0 -40.5 16.5t-14.5 37.5q0 20 14.5 38t40.5 18
q25 0 39 -18t14 -38z" />
    <glyph glyph-name="notequal" unicode="&#x2260;" horiz-adv-x="800" 
d="M692 225v-65h-300l-59 -164l-74 14l56 150h-208v65h232l44 132h-276v65h299l57 168l69 -15l-50 -153h210v-65h-233l-45 -132h278z" />
    <glyph glyph-name="equivalence" unicode="&#x2261;" horiz-adv-x="810" 
d="M122 351h574v-52h-574v52zM122 482h574v-51h-574v51zM122 219h574v-51h-574v51z" />
    <glyph glyph-name="lessequal" unicode="&#x2264;" horiz-adv-x="810" 
d="M157 419q121 54 236 104t236 104l22 -52l-359 -156l362 -159l-24 -49zM128 145h563v-50h-563v50z" />
    <glyph glyph-name="greaterequal" unicode="&#x2265;" horiz-adv-x="810" 
d="M186 211l-23 49l362 159l-360 156l22 52l471 -208zM128 145h563v-50h-563v50z" />
    <glyph glyph-name="uni226A" unicode="&#x226a;" horiz-adv-x="810" 
d="M485 580l-324 -205q79 -51 161 -105t163 -105v-64q-99 64 -190 125t-190 125v44l380 247v-62zM713 580l-323 -205l323 -210v-64q-99 64 -190 125t-189 125v44l379 247v-62z" />
    <glyph glyph-name="uni226B" unicode="&#x226b;" horiz-adv-x="810" 
d="M334 642q97 -63 189 -124t190 -123v-44l-379 -250v64l323 210l-323 205v62zM105 642q98 -63 190 -124t190 -123v-44l-380 -250v64l323 210l-323 205v62z" />
    <glyph glyph-name="propersubset" unicode="&#x2282;" horiz-adv-x="810" 
d="M170 351q0 -41 11 -76.5t32.5 -62t54 -42t74.5 -15.5h377v-56h-373q-54 0 -99.5 18.5t-78 51.5t-51 79t-18.5 102q0 58 21 103.5t56 77t81 47.5t97 16h362v-56h-360q-39 0 -72.5 -14t-59 -38.5t-40 -59t-14.5 -75.5z" />
    <glyph glyph-name="propersuperset" unicode="&#x2283;" horiz-adv-x="810" 
d="M646 351q0 40 -13.5 74.5t-37.5 59.5t-58 39t-75 14h-359v56h361q50 0 96 -16t81 -47.5t56 -77t21 -103.5q0 -55 -17 -101t-49 -79.5t-78 -52t-103 -18.5h-371v56h375q39 0 71 15.5t54 42t34 62t12 76.5z" />
    <glyph glyph-name="reflexsubset" unicode="&#x2286;" horiz-adv-x="810" 
d="M354 593q-36 0 -67.5 -9t-55.5 -27.5t-38 -48t-14 -70.5q0 -81 47 -121.5t125 -40.5h348v-55h-355q-47 0 -89.5 14.5t-74.5 42t-51 66.5t-19 89q0 49 18 88.5t49.5 67.5t74 43t92.5 15h355v-54h-345zM139 116h568v-51h-568v51z" />
    <glyph glyph-name="reflexsuperset" unicode="&#x2287;" horiz-adv-x="810" 
d="M117 593v54h355q49 0 92 -15t74.5 -43t49.5 -67.5t18 -88.5q0 -50 -19 -89t-51 -66.5t-74.5 -42t-89.5 -14.5h-355v55h348q77 0 125 41t48 121q0 41 -14 70.5t-38 48t-56 27.5t-68 9h-345zM678 65h-566v51h566v-51z" />
    <glyph glyph-name="uni2299" unicode="&#x2299;" horiz-adv-x="1026" 
d="M448 341q0 27 18.5 47t45.5 20t46 -20t19 -47q0 -29 -19 -47.5t-46 -18.5t-45.5 18.5t-18.5 47.5zM961 335q0 -93 -35.5 -175t-96 -143t-142 -96.5t-174.5 -35.5t-174.5 35.5t-142.5 96.5t-96.5 143t-35.5 175t35.5 174.5t96.5 143t142.5 97t174.5 35.5t174.5 -35.5
t142 -97t96 -143t35.5 -174.5zM121 335q0 -81 31 -152.5t84.5 -125t124.5 -85t152 -31.5t152.5 31.5t125 85t84.5 125t31 152.5q0 80 -31 151.5t-84.5 125t-125 85t-152.5 31.5t-152 -31.5t-124.5 -85t-84.5 -125t-31 -151.5z" />
    <glyph glyph-name="perpendicular" unicode="&#x22a5;" horiz-adv-x="810" 
d="M103 79h272v520h68v-520h272v-52h-612v52z" />
    <glyph glyph-name="uni2312" unicode="&#x2312;" horiz-adv-x="810" 
d="M101 -37q14 61 40.5 112t64.5 87.5t88.5 57t112.5 20.5q66 0 117.5 -21.5t89.5 -59t63.5 -88t38.5 -108.5h-68q-13 52 -32.5 93t-48.5 69.5t-68.5 43.5t-91.5 15q-50 0 -89.5 -16.5t-69 -45.5t-49 -69.5t-30.5 -89.5h-68z" />
    <glyph glyph-name="uni2460" unicode="&#x2460;" horiz-adv-x="900" 
d="M494 65h-59v509l-104 -34l-15 44l144 49q11 4 22.5 -3.5t11.5 -18.5v-546zM450 768q88 0 165.5 -33.5t135 -91t91 -135t33.5 -165.5t-33.5 -165.5t-91 -135t-135 -91t-165.5 -33.5t-165.5 33.5t-135 91t-91 135t-33.5 165.5t33.5 165.5t91 135t135 91t165.5 33.5z
M450 719q-77 0 -145 -29.5t-118.5 -80.5t-80 -119.5t-29.5 -146.5t29.5 -146.5t80 -119.5t118.5 -80.5t145 -29.5t145 29.5t118.5 80.5t80 119.5t29.5 146.5t-29.5 146.5t-80 119.5t-118.5 80.5t-145 29.5z" />
    <glyph glyph-name="uni2461" unicode="&#x2461;" horiz-adv-x="900" 
d="M295 65v40q0 32 12.5 56.5t30.5 45.5q28 33 66 68.5t86 80.5q22 19 34.5 35.5t19.5 31.5t9 30.5t2 33.5q0 45 -31 73t-79 28q-32 0 -60.5 -15.5t-54.5 -36.5l-32 37q28 25 64.5 43.5t84.5 18.5q37 0 68 -10.5t53 -30t34 -47t12 -61.5q0 -50 -20.5 -88.5t-67.5 -80.5
q-42 -37 -76.5 -70t-65.5 -70q-15 -17 -21 -31.5t-6 -22.5v-11h258v-47h-320zM450 768q88 0 165.5 -33.5t135 -91t91 -135t33.5 -165.5t-33.5 -165.5t-91 -135t-135 -91t-165.5 -33.5t-165.5 33.5t-135 91t-91 135t-33.5 165.5t33.5 165.5t91 135t135 91t165.5 33.5z
M450 719q-77 0 -145 -29.5t-118.5 -80.5t-80 -119.5t-29.5 -146.5t29.5 -146.5t80 -119.5t118.5 -80.5t145 -29.5t145 29.5t118.5 80.5t80 119.5t29.5 146.5t-29.5 146.5t-80 119.5t-118.5 80.5t-145 29.5z" />
    <glyph glyph-name="uni2462" unicode="&#x2462;" horiz-adv-x="900" 
d="M442 633q78 0 125.5 -33.5t47.5 -109.5q0 -48 -24 -80.5t-62 -46.5q51 -14 77.5 -53t26.5 -84q0 -88 -48.5 -132t-142.5 -42q-14 0 -33 2t-39 6.5t-39 10.5t-34 15l19 47q37 -20 68.5 -26t57.5 -6q64 0 98 30.5t34 90.5q0 62 -37 88.5t-98 26.5h-74v47h74q61 0 89 27
t28 81q0 48 -27.5 71t-87.5 23q-33 0 -55 -8t-48 -22l-25 40q28 17 60.5 27t68.5 10zM450 768q88 0 165.5 -33.5t135 -91t91 -135t33.5 -165.5t-33.5 -165.5t-91 -135t-135 -91t-165.5 -33.5t-165.5 33.5t-135 91t-91 135t-33.5 165.5t33.5 165.5t91 135t135 91t165.5 33.5z
M450 719q-77 0 -145 -29.5t-118.5 -80.5t-80 -119.5t-29.5 -146.5t29.5 -146.5t80 -119.5t118.5 -80.5t145 -29.5t145 29.5t118.5 80.5t80 119.5t29.5 146.5t-29.5 146.5t-80 119.5t-118.5 80.5t-145 29.5z" />
    <glyph glyph-name="uni2463" unicode="&#x2463;" horiz-adv-x="900" 
d="M292 221h190v356zM538 175v-112h-56v112h-247v54l217 394h86v-402h66v-46h-66zM450 768q88 0 165.5 -33.5t135 -91t91 -135t33.5 -165.5t-33.5 -165.5t-91 -135t-135 -91t-165.5 -33.5t-165.5 33.5t-135 91t-91 135t-33.5 165.5t33.5 165.5t91 135t135 91t165.5 33.5z
M450 719q-77 0 -145 -29.5t-118.5 -80.5t-80 -119.5t-29.5 -146.5t29.5 -146.5t80 -119.5t118.5 -80.5t145 -29.5t145 29.5t118.5 80.5t80 119.5t29.5 146.5t-29.5 146.5t-80 119.5t-118.5 80.5t-145 29.5z" />
    <glyph glyph-name="uni2464" unicode="&#x2464;" horiz-adv-x="900" 
d="M438 351q-26 0 -48.5 -5.5t-46.5 -12.5q-10 -3 -18.5 2t-8.5 17l19 269h267v-47h-214l-17 -185q16 5 34 7t33 2q97 0 143.5 -45t46.5 -123q0 -39 -12 -71.5t-36 -56.5t-59 -37.5t-81 -13.5q-42 0 -77.5 8t-64.5 26l19 45q16 -8 30 -14t28 -10t29.5 -6t35.5 -2
q31 0 55.5 11t40.5 29t24.5 42t8.5 50q0 57 -32.5 89t-98.5 32zM450 768q88 0 165.5 -33.5t135 -91t91 -135t33.5 -165.5t-33.5 -165.5t-91 -135t-135 -91t-165.5 -33.5t-165.5 33.5t-135 91t-91 135t-33.5 165.5t33.5 165.5t91 135t135 91t165.5 33.5zM450 719
q-77 0 -145 -29.5t-118.5 -80.5t-80 -119.5t-29.5 -146.5t29.5 -146.5t80 -119.5t118.5 -80.5t145 -29.5t145 29.5t118.5 80.5t80 119.5t29.5 146.5t-29.5 146.5t-80 119.5t-118.5 80.5t-145 29.5z" />
    <glyph glyph-name="uni2465" unicode="&#x2465;" horiz-adv-x="900" 
d="M450 768q88 0 165.5 -33.5t135 -91t91 -135t33.5 -165.5t-33.5 -165.5t-91 -135t-135 -91t-165.5 -33.5t-165.5 33.5t-135 91t-91 135t-33.5 165.5t33.5 165.5t91 135t135 91t165.5 33.5zM450 719q-77 0 -145 -29.5t-118.5 -80.5t-80 -119.5t-29.5 -146.5t29.5 -146.5
t80 -119.5t118.5 -80.5t145 -29.5t145 29.5t118.5 80.5t80 119.5t29.5 146.5t-29.5 146.5t-80 119.5t-118.5 80.5t-145 29.5zM460 410q72 0 115 -41t43 -131v-13q0 -88 -41.5 -130.5t-116.5 -42.5q-96 0 -140.5 41.5t-44.5 106.5v232q0 40 11.5 75t34 61.5t56 41.5t77.5 15
q39 0 69.5 -7.5t62.5 -24.5l-25 -39q-26 13 -52 18t-55 5t-51.5 -11.5t-38.5 -31.5t-24.5 -47t-8.5 -57v-60q24 18 57 29t72 11zM559 238q0 63 -25.5 94t-73.5 31q-54 0 -85 -21.5t-41 -45.5v-86q0 -26 6 -46t20.5 -34.5t38.5 -22t61 -7.5q48 0 73.5 29.5t25.5 95.5v13z" />
    <glyph glyph-name="uni2466" unicode="&#x2466;" horiz-adv-x="900" 
d="M619 577q0 -11 -2.5 -21t-6.5 -19l-176 -482h-59l187 512h-264v48h321v-38zM450 768q88 0 165.5 -33.5t135 -91t91 -135t33.5 -165.5t-33.5 -165.5t-91 -135t-135 -91t-165.5 -33.5t-165.5 33.5t-135 91t-91 135t-33.5 165.5t33.5 165.5t91 135t135 91t165.5 33.5z
M450 719q-77 0 -145 -29.5t-118.5 -80.5t-80 -119.5t-29.5 -146.5t29.5 -146.5t80 -119.5t118.5 -80.5t145 -29.5t145 29.5t118.5 80.5t80 119.5t29.5 146.5t-29.5 146.5t-80 119.5t-118.5 80.5t-145 29.5z" />
    <glyph glyph-name="uni2467" unicode="&#x2467;" horiz-adv-x="900" 
d="M450 768q88 0 165.5 -33.5t135 -91t91 -135t33.5 -165.5t-33.5 -165.5t-91 -135t-135 -91t-165.5 -33.5t-165.5 33.5t-135 91t-91 135t-33.5 165.5t33.5 165.5t91 135t135 91t165.5 33.5zM450 719q-77 0 -145 -29.5t-118.5 -80.5t-80 -119.5t-29.5 -146.5t29.5 -146.5
t80 -119.5t118.5 -80.5t145 -29.5t145 29.5t118.5 80.5t80 119.5t29.5 146.5t-29.5 146.5t-80 119.5t-118.5 80.5t-145 29.5zM452 53q-39 0 -73.5 9.5t-59.5 29t-39.5 48.5t-14.5 69q0 60 21.5 95.5t64.5 57.5q-39 18 -52 52t-13 69q0 40 12.5 68.5t35 46.5t52 26.5
t64.5 8.5q34 0 64.5 -8.5t53.5 -26.5t36 -46.5t13 -67.5q0 -36 -16 -72t-54 -51q48 -20 69 -58t21 -89q0 -72 -45.5 -116.5t-139.5 -44.5zM450 338q-64 0 -95 -31.5t-31 -89.5q0 -57 33.5 -86.5t94.5 -29.5q34 0 58 10t39 26t22 36.5t7 41.5q0 60 -29.5 91.5t-98.5 31.5z
M449 381q54 0 81 24.5t27 78.5q0 56 -29 78.5t-77 22.5q-51 0 -79 -23.5t-28 -77.5q0 -103 105 -103z" />
    <glyph glyph-name="uni2468" unicode="&#x2468;" horiz-adv-x="900" 
d="M450 768q88 0 165.5 -33.5t135 -91t91 -135t33.5 -165.5t-33.5 -165.5t-91 -135t-135 -91t-165.5 -33.5t-165.5 33.5t-135 91t-91 135t-33.5 165.5t33.5 165.5t91 135t135 91t165.5 33.5zM450 719q-77 0 -145 -29.5t-118.5 -80.5t-80 -119.5t-29.5 -146.5t29.5 -146.5
t80 -119.5t118.5 -80.5t145 -29.5t145 29.5t118.5 80.5t80 119.5t29.5 146.5t-29.5 146.5t-80 119.5t-118.5 80.5t-145 29.5zM450 274q-73 0 -119.5 41.5t-46.5 130.5v17q0 88 45.5 128.5t120.5 40.5q48 0 81.5 -11t55 -31.5t31 -49.5t9.5 -64v-231q0 -42 -9.5 -77
t-30.5 -60.5t-55.5 -40t-84.5 -14.5q-16 0 -34.5 2.5t-37 6.5t-35.5 9.5t-31 11.5l16 46q27 -13 60 -20.5t62 -7.5q66 0 95 40.5t29 105.5v65q-23 -18 -53 -28t-68 -10zM343 446q0 -63 29.5 -93.5t77.5 -30.5t80.5 17.5t37.5 46.5v81q0 28 -5 50t-18 37t-36 22.5t-59 7.5
q-47 0 -77 -28t-30 -93v-17z" />
    <glyph glyph-name="uni2469" unicode="&#x2469;" horiz-adv-x="900" 
d="M450 768q88 0 165.5 -33.5t135 -91t91 -135t33.5 -165.5t-33.5 -165.5t-91 -135t-135 -91t-165.5 -33.5t-165.5 33.5t-135 91t-91 135t-33.5 165.5t33.5 165.5t91 135t135 91t165.5 33.5zM450 719q-77 0 -145 -29.5t-118.5 -80.5t-80 -119.5t-29.5 -146.5t29.5 -146.5
t80 -119.5t118.5 -80.5t145 -29.5t145 29.5t118.5 80.5t80 119.5t29.5 146.5t-29.5 146.5t-80 119.5t-118.5 80.5t-145 29.5zM553 604q46 0 76 -16.5t47 -49t23.5 -81t6.5 -112.5q0 -70 -8 -120t-26.5 -81.5t-47.5 -46.5t-71 -15q-44 0 -73 16.5t-46.5 49t-24.5 82t-7 115.5
q0 62 6.5 110.5t23.5 81.5t46.5 50t74.5 17zM553 125q34 0 54 15.5t30 44t13 69.5t3 91q0 49 -2.5 88.5t-13 68t-30.5 44t-54 15.5q-33 0 -52.5 -15.5t-30 -44t-13.5 -68t-3 -88.5q0 -50 3 -91t13.5 -69.5t30 -44t52.5 -15.5zM332 93h-48v457l-70 -27l-16 39l104 42
q10 4 20 -2.5t10 -17.5v-491z" />
    <glyph glyph-name="uni246A" unicode="&#x246a;" horiz-adv-x="900" 
d="M450 768q88 0 165.5 -33.5t135 -91t91 -135t33.5 -165.5t-33.5 -165.5t-91 -135t-135 -91t-165.5 -33.5t-165.5 33.5t-135 91t-91 135t-33.5 165.5t33.5 165.5t91 135t135 91t165.5 33.5zM450 719q-77 0 -145 -29.5t-118.5 -80.5t-80 -119.5t-29.5 -146.5t29.5 -146.5
t80 -119.5t118.5 -80.5t145 -29.5t145 29.5t118.5 80.5t80 119.5t29.5 146.5t-29.5 146.5t-80 119.5t-118.5 80.5t-145 29.5zM360 93h-48v457l-70 -27l-16 39l104 42q10 4 20 -2.5t10 -17.5v-491zM605 93h-48v457l-70 -27l-16 39l104 42q10 4 20 -2.5t10 -17.5v-491z" />
    <glyph glyph-name="uni246B" unicode="&#x246b;" horiz-adv-x="900" 
d="M450 768q88 0 165.5 -33.5t135 -91t91 -135t33.5 -165.5t-33.5 -165.5t-91 -135t-135 -91t-165.5 -33.5t-165.5 33.5t-135 91t-91 135t-33.5 165.5t33.5 165.5t91 135t135 91t165.5 33.5zM450 719q-77 0 -145 -29.5t-118.5 -80.5t-80 -119.5t-29.5 -146.5t29.5 -146.5
t80 -119.5t118.5 -80.5t145 -29.5t145 29.5t118.5 80.5t80 119.5t29.5 146.5t-29.5 146.5t-80 119.5t-118.5 80.5t-145 29.5zM411 93v32q0 30 16.5 62t41 62.5t52.5 56.5t51 44q27 22 40 50t13 73q0 42 -25.5 66.5t-63.5 24.5q-27 0 -49 -12t-45 -35l-28 34q25 22 54.5 38.5
t69.5 16.5q63 0 101.5 -36.5t38.5 -97.5q0 -48 -22 -88t-60 -71q-22 -18 -45 -39t-41.5 -42.5t-30.5 -43.5t-12 -42v-10h212v-43h-268zM340 93h-48v457l-70 -27l-16 39l104 42q10 4 20 -2.5t10 -17.5v-491z" />
    <glyph glyph-name="uni246C" unicode="&#x246c;" horiz-adv-x="900" 
d="M450 768q88 0 165.5 -33.5t135 -91t91 -135t33.5 -165.5t-33.5 -165.5t-91 -135t-135 -91t-165.5 -33.5t-165.5 33.5t-135 91t-91 135t-33.5 165.5t33.5 165.5t91 135t135 91t165.5 33.5zM450 719q-77 0 -145 -29.5t-118.5 -80.5t-80 -119.5t-29.5 -146.5t29.5 -146.5
t80 -119.5t118.5 -80.5t145 -29.5t145 29.5t118.5 80.5t80 119.5t29.5 146.5t-29.5 146.5t-80 119.5t-118.5 80.5t-145 29.5zM526 604q67 0 106.5 -30t39.5 -99q0 -43 -21.5 -72t-55.5 -42q45 -13 69 -47t24 -76q0 -79 -40.5 -119t-121.5 -38q-24 1 -57.5 6t-60.5 21l17 42
q33 -18 56.5 -21.5t44.5 -3.5q109 0 109 109q0 56 -30.5 79.5t-80.5 23.5h-55v43h55q51 0 73 24.5t22 72.5q0 42 -21.5 63.5t-72.5 21.5q-25 0 -41 -4.5t-39 -17.5l-23 36q25 15 49.5 21.5t54.5 6.5zM344 93h-48v457l-70 -27l-16 39l104 42q10 4 20 -2.5t10 -17.5v-491z" />
    <glyph glyph-name="uni246D" unicode="&#x246d;" horiz-adv-x="900" 
d="M450 768q88 0 165.5 -33.5t135 -91t91 -135t33.5 -165.5t-33.5 -165.5t-91 -135t-135 -91t-165.5 -33.5t-165.5 33.5t-135 91t-91 135t-33.5 165.5t33.5 165.5t91 135t135 91t165.5 33.5zM450 719q-77 0 -145 -29.5t-118.5 -80.5t-80 -119.5t-29.5 -146.5t29.5 -146.5
t80 -119.5t118.5 -80.5t145 -29.5t145 29.5t118.5 80.5t80 119.5t29.5 146.5t-29.5 146.5t-80 119.5t-118.5 80.5t-145 29.5zM433 233h156v313zM639 192v-101h-50v101h-208v48l181 355h77v-362h55v-41h-55zM336 93h-48v457l-70 -27l-16 39l104 42q10 4 20 -2.5t10 -17.5
v-491z" />
    <glyph glyph-name="uni246E" unicode="&#x246e;" horiz-adv-x="900" 
d="M450 768q88 0 165.5 -33.5t135 -91t91 -135t33.5 -165.5t-33.5 -165.5t-91 -135t-135 -91t-165.5 -33.5t-165.5 33.5t-135 91t-91 135t-33.5 165.5t33.5 165.5t91 135t135 91t165.5 33.5zM450 719q-77 0 -145 -29.5t-118.5 -80.5t-80 -119.5t-29.5 -146.5t29.5 -146.5
t80 -119.5t118.5 -80.5t145 -29.5t145 29.5t118.5 80.5t80 119.5t29.5 146.5t-29.5 146.5t-80 119.5t-118.5 80.5t-145 29.5zM340 93h-48v457l-70 -27l-16 39l104 42q10 4 20 -2.5t10 -17.5v-491zM518 349q-20 0 -36.5 -5t-38.5 -11q-9 -2 -16.5 2t-7.5 15l17 242h220v-42
h-173l-15 -166q14 4 26 6t24 2q84 0 122.5 -40.5t38.5 -110.5q0 -35 -10 -64.5t-29.5 -51.5t-49.5 -34t-70 -12q-35 0 -63.5 7t-54.5 24l18 41q26 -16 47 -22.5t53 -6.5q27 0 47 9.5t33 26t19.5 38t6.5 45.5q0 51 -25.5 79.5t-82.5 28.5z" />
    <glyph glyph-name="uni2474" unicode="&#x2474;" horiz-adv-x="900" 
d="M494 65h-59v509l-104 -34l-15 44l144 49q11 4 22.5 -3.5t11.5 -18.5v-546zM88 227q4 -29 15 -62.5t28 -65.5t38.5 -59.5t45.5 -43.5l-25 -37q-30 19 -56.5 50.5t-47.5 69t-35 78t-18 78.5q-2 18 -3 31.5t-2 26t-1 26.5v34q0 38 0.5 65.5t5.5 62.5q11 78 49.5 146
t108.5 116l25 -36q-24 -17 -45.5 -41.5t-38.5 -53t-28.5 -60.5t-15.5 -63q-5 -34 -6 -66t-1 -70v-36.5t0.5 -29.5t2 -28t4.5 -32zM811 227q3 18 4.5 32t2 28t0.5 29.5v36.5q0 38 -1 70t-6 66q-5 32 -16.5 63.5t-28 60t-37.5 52.5t-46 42l25 36q70 -48 108.5 -116t49.5 -146
q5 -35 5.5 -62.5t0.5 -65.5v-34t-1 -26.5t-2 -26t-3 -31.5q-5 -38 -18.5 -78.5t-34 -78t-47 -69t-57.5 -50.5l-25 37q25 17 46 44t37.5 59t27.5 65.5t16 62.5z" />
    <glyph glyph-name="uni2475" unicode="&#x2475;" horiz-adv-x="900" 
d="M295 65v40q0 32 12.5 56.5t30.5 45.5q28 33 66 68.5t86 80.5q22 19 34.5 35.5t19.5 31.5t9 30.5t2 33.5q0 45 -31 73t-79 28q-32 0 -60.5 -15.5t-54.5 -36.5l-32 37q28 25 64.5 43.5t84.5 18.5q37 0 68 -10.5t53 -30t34 -47t12 -61.5q0 -50 -20.5 -88.5t-67.5 -80.5
q-42 -37 -76.5 -70t-65.5 -70q-15 -17 -21 -31.5t-6 -22.5v-11h258v-47h-320zM88 227q4 -29 15 -62.5t28 -65.5t38.5 -59.5t45.5 -43.5l-25 -37q-30 19 -56.5 50.5t-47.5 69t-35 78t-18 78.5q-2 18 -3 31.5t-2 26t-1 26.5v34q0 38 0.5 65.5t5.5 62.5q11 78 49.5 146
t108.5 116l25 -36q-24 -17 -45.5 -41.5t-38.5 -53t-28.5 -60.5t-15.5 -63q-5 -34 -6 -66t-1 -70v-36.5t0.5 -29.5t2 -28t4.5 -32zM811 227q3 18 4.5 32t2 28t0.5 29.5v36.5q0 38 -1 70t-6 66q-5 32 -16.5 63.5t-28 60t-37.5 52.5t-46 42l25 36q70 -48 108.5 -116t49.5 -146
q5 -35 5.5 -62.5t0.5 -65.5v-34t-1 -26.5t-2 -26t-3 -31.5q-5 -38 -18.5 -78.5t-34 -78t-47 -69t-57.5 -50.5l-25 37q25 17 46 44t37.5 59t27.5 65.5t16 62.5z" />
    <glyph glyph-name="uni2476" unicode="&#x2476;" horiz-adv-x="900" 
d="M442 633q78 0 125.5 -33.5t47.5 -109.5q0 -48 -24 -80.5t-62 -46.5q51 -14 77.5 -53t26.5 -84q0 -88 -48.5 -132t-142.5 -42q-14 0 -33 2t-39 6.5t-39 10.5t-34 15l19 47q37 -20 68.5 -26t57.5 -6q64 0 98 30.5t34 90.5q0 62 -37 88.5t-98 26.5h-74v47h74q61 0 89 27
t28 81q0 48 -27.5 71t-87.5 23q-33 0 -55 -8t-48 -22l-25 40q28 17 60.5 27t68.5 10zM88 227q4 -29 15 -62.5t28 -65.5t38.5 -59.5t45.5 -43.5l-25 -37q-30 19 -56.5 50.5t-47.5 69t-35 78t-18 78.5q-2 18 -3 31.5t-2 26t-1 26.5v34q0 38 0.5 65.5t5.5 62.5q11 78 49.5 146
t108.5 116l25 -36q-24 -17 -45.5 -41.5t-38.5 -53t-28.5 -60.5t-15.5 -63q-5 -34 -6 -66t-1 -70v-36.5t0.5 -29.5t2 -28t4.5 -32zM811 227q3 18 4.5 32t2 28t0.5 29.5v36.5q0 38 -1 70t-6 66q-5 32 -16.5 63.5t-28 60t-37.5 52.5t-46 42l25 36q70 -48 108.5 -116t49.5 -146
q5 -35 5.5 -62.5t0.5 -65.5v-34t-1 -26.5t-2 -26t-3 -31.5q-5 -38 -18.5 -78.5t-34 -78t-47 -69t-57.5 -50.5l-25 37q25 17 46 44t37.5 59t27.5 65.5t16 62.5z" />
    <glyph glyph-name="uni2477" unicode="&#x2477;" horiz-adv-x="900" 
d="M292 221h190v356zM538 175v-112h-56v112h-247v54l217 394h86v-402h66v-46h-66zM88 227q4 -29 15 -62.5t28 -65.5t38.5 -59.5t45.5 -43.5l-25 -37q-30 19 -56.5 50.5t-47.5 69t-35 78t-18 78.5q-2 18 -3 31.5t-2 26t-1 26.5v34q0 38 0.5 65.5t5.5 62.5q11 78 49.5 146
t108.5 116l25 -36q-24 -17 -45.5 -41.5t-38.5 -53t-28.5 -60.5t-15.5 -63q-5 -34 -6 -66t-1 -70v-36.5t0.5 -29.5t2 -28t4.5 -32zM811 227q3 18 4.5 32t2 28t0.5 29.5v36.5q0 38 -1 70t-6 66q-5 32 -16.5 63.5t-28 60t-37.5 52.5t-46 42l25 36q70 -48 108.5 -116t49.5 -146
q5 -35 5.5 -62.5t0.5 -65.5v-34t-1 -26.5t-2 -26t-3 -31.5q-5 -38 -18.5 -78.5t-34 -78t-47 -69t-57.5 -50.5l-25 37q25 17 46 44t37.5 59t27.5 65.5t16 62.5z" />
    <glyph glyph-name="uni2478" unicode="&#x2478;" horiz-adv-x="900" 
d="M438 351q-26 0 -48.5 -5.5t-46.5 -12.5q-10 -3 -18.5 2t-8.5 17l19 269h267v-47h-214l-17 -185q16 5 34 7t33 2q97 0 143.5 -45t46.5 -123q0 -39 -12 -71.5t-36 -56.5t-59 -37.5t-81 -13.5q-42 0 -77.5 8t-64.5 26l19 45q16 -8 30 -14t28 -10t29.5 -6t35.5 -2
q31 0 55.5 11t40.5 29t24.5 42t8.5 50q0 57 -32.5 89t-98.5 32zM88 227q4 -29 15 -62.5t28 -65.5t38.5 -59.5t45.5 -43.5l-25 -37q-30 19 -56.5 50.5t-47.5 69t-35 78t-18 78.5q-2 18 -3 31.5t-2 26t-1 26.5v34q0 38 0.5 65.5t5.5 62.5q11 78 49.5 146t108.5 116l25 -36
q-24 -17 -45.5 -41.5t-38.5 -53t-28.5 -60.5t-15.5 -63q-5 -34 -6 -66t-1 -70v-36.5t0.5 -29.5t2 -28t4.5 -32zM811 227q3 18 4.5 32t2 28t0.5 29.5v36.5q0 38 -1 70t-6 66q-5 32 -16.5 63.5t-28 60t-37.5 52.5t-46 42l25 36q70 -48 108.5 -116t49.5 -146q5 -35 5.5 -62.5
t0.5 -65.5v-34t-1 -26.5t-2 -26t-3 -31.5q-5 -38 -18.5 -78.5t-34 -78t-47 -69t-57.5 -50.5l-25 37q25 17 46 44t37.5 59t27.5 65.5t16 62.5z" />
    <glyph glyph-name="uni2479" unicode="&#x2479;" horiz-adv-x="900" 
d="M460 410q72 0 115 -41t43 -131v-13q0 -88 -41.5 -130.5t-116.5 -42.5q-96 0 -140.5 41.5t-44.5 106.5v232q0 40 11.5 75t34 61.5t56 41.5t77.5 15q39 0 69.5 -7.5t62.5 -24.5l-25 -39q-26 13 -52 18t-55 5t-51.5 -11.5t-38.5 -31.5t-24.5 -47t-8.5 -57v-60q24 18 57 29
t72 11zM559 238q0 63 -25.5 94t-73.5 31q-54 0 -85 -21.5t-41 -45.5v-86q0 -26 6 -46t20.5 -34.5t38.5 -22t61 -7.5q48 0 73.5 29.5t25.5 95.5v13zM88 227q4 -29 15 -62.5t28 -65.5t38.5 -59.5t45.5 -43.5l-25 -37q-30 19 -56.5 50.5t-47.5 69t-35 78t-18 78.5
q-2 18 -3 31.5t-2 26t-1 26.5v34q0 38 0.5 65.5t5.5 62.5q11 78 49.5 146t108.5 116l25 -36q-24 -17 -45.5 -41.5t-38.5 -53t-28.5 -60.5t-15.5 -63q-5 -34 -6 -66t-1 -70v-36.5t0.5 -29.5t2 -28t4.5 -32zM811 227q3 18 4.5 32t2 28t0.5 29.5v36.5q0 38 -1 70t-6 66
q-5 32 -16.5 63.5t-28 60t-37.5 52.5t-46 42l25 36q70 -48 108.5 -116t49.5 -146q5 -35 5.5 -62.5t0.5 -65.5v-34t-1 -26.5t-2 -26t-3 -31.5q-5 -38 -18.5 -78.5t-34 -78t-47 -69t-57.5 -50.5l-25 37q25 17 46 44t37.5 59t27.5 65.5t16 62.5z" />
    <glyph glyph-name="uni247A" unicode="&#x247a;" horiz-adv-x="900" 
d="M619 577q0 -11 -2.5 -21t-6.5 -19l-176 -482h-59l187 512h-264v48h321v-38zM88 227q4 -29 15 -62.5t28 -65.5t38.5 -59.5t45.5 -43.5l-25 -37q-30 19 -56.5 50.5t-47.5 69t-35 78t-18 78.5q-2 18 -3 31.5t-2 26t-1 26.5v34q0 38 0.5 65.5t5.5 62.5q11 78 49.5 146
t108.5 116l25 -36q-24 -17 -45.5 -41.5t-38.5 -53t-28.5 -60.5t-15.5 -63q-5 -34 -6 -66t-1 -70v-36.5t0.5 -29.5t2 -28t4.5 -32zM811 227q3 18 4.5 32t2 28t0.5 29.5v36.5q0 38 -1 70t-6 66q-5 32 -16.5 63.5t-28 60t-37.5 52.5t-46 42l25 36q70 -48 108.5 -116t49.5 -146
q5 -35 5.5 -62.5t0.5 -65.5v-34t-1 -26.5t-2 -26t-3 -31.5q-5 -38 -18.5 -78.5t-34 -78t-47 -69t-57.5 -50.5l-25 37q25 17 46 44t37.5 59t27.5 65.5t16 62.5z" />
    <glyph glyph-name="uni247B" unicode="&#x247b;" horiz-adv-x="900" 
d="M452 53q-39 0 -73.5 9.5t-59.5 29t-39.5 48.5t-14.5 69q0 60 21.5 95.5t64.5 57.5q-39 18 -52 52t-13 69q0 40 12.5 68.5t35 46.5t52 26.5t64.5 8.5q34 0 64.5 -8.5t53.5 -26.5t36 -46.5t13 -67.5q0 -36 -16 -72t-54 -51q48 -20 69 -58t21 -89q0 -72 -45.5 -116.5
t-139.5 -44.5zM450 338q-64 0 -95 -31.5t-31 -89.5q0 -57 33.5 -86.5t94.5 -29.5q34 0 58 10t39 26t22 36.5t7 41.5q0 60 -29.5 91.5t-98.5 31.5zM449 381q54 0 81 24.5t27 78.5q0 56 -29 78.5t-77 22.5q-51 0 -79 -23.5t-28 -77.5q0 -103 105 -103zM88 227q4 -29 15 -62.5
t28 -65.5t38.5 -59.5t45.5 -43.5l-25 -37q-30 19 -56.5 50.5t-47.5 69t-35 78t-18 78.5q-2 18 -3 31.5t-2 26t-1 26.5v34q0 38 0.5 65.5t5.5 62.5q11 78 49.5 146t108.5 116l25 -36q-24 -17 -45.5 -41.5t-38.5 -53t-28.5 -60.5t-15.5 -63q-5 -34 -6 -66t-1 -70v-36.5
t0.5 -29.5t2 -28t4.5 -32zM811 227q3 18 4.5 32t2 28t0.5 29.5v36.5q0 38 -1 70t-6 66q-5 32 -16.5 63.5t-28 60t-37.5 52.5t-46 42l25 36q70 -48 108.5 -116t49.5 -146q5 -35 5.5 -62.5t0.5 -65.5v-34t-1 -26.5t-2 -26t-3 -31.5q-5 -38 -18.5 -78.5t-34 -78t-47 -69
t-57.5 -50.5l-25 37q25 17 46 44t37.5 59t27.5 65.5t16 62.5z" />
    <glyph glyph-name="uni247C" unicode="&#x247c;" horiz-adv-x="900" 
d="M627 245q0 -42 -9.5 -77t-30.5 -60.5t-55.5 -40t-84.5 -14.5q-16 0 -34.5 2.5t-37 6.5t-35.5 9.5t-31 11.5l16 46q27 -13 60 -20.5t62 -7.5q66 0 95 40.5t29 105.5v65q-23 -18 -53 -28t-68 -10q-73 0 -119.5 41.5t-46.5 130.5v17q0 88 45.5 128.5t120.5 40.5
q48 0 81.5 -11t55 -31.5t31 -49.5t9.5 -64v-231zM343 446q0 -63 29.5 -93.5t77.5 -30.5t80.5 17.5t37.5 46.5v81q0 28 -5 50t-18 37t-36 22.5t-59 7.5q-47 0 -77 -28t-30 -93v-17zM88 227q4 -29 15 -62.5t28 -65.5t38.5 -59.5t45.5 -43.5l-25 -37q-30 19 -56.5 50.5
t-47.5 69t-35 78t-18 78.5q-2 18 -3 31.5t-2 26t-1 26.5v34q0 38 0.5 65.5t5.5 62.5q11 78 49.5 146t108.5 116l25 -36q-24 -17 -45.5 -41.5t-38.5 -53t-28.5 -60.5t-15.5 -63q-5 -34 -6 -66t-1 -70v-36.5t0.5 -29.5t2 -28t4.5 -32zM811 227q3 18 4.5 32t2 28t0.5 29.5v36.5
q0 38 -1 70t-6 66q-5 32 -16.5 63.5t-28 60t-37.5 52.5t-46 42l25 36q70 -48 108.5 -116t49.5 -146q5 -35 5.5 -62.5t0.5 -65.5v-34t-1 -26.5t-2 -26t-3 -31.5q-5 -38 -18.5 -78.5t-34 -78t-47 -69t-57.5 -50.5l-25 37q25 17 46 44t37.5 59t27.5 65.5t16 62.5z" />
    <glyph glyph-name="uni247D" unicode="&#x247d;" horiz-adv-x="900" 
d="M553 604q46 0 76 -16.5t47 -49t23.5 -81t6.5 -112.5q0 -70 -8 -120t-26.5 -81.5t-47.5 -46.5t-71 -15q-44 0 -73 16.5t-46.5 49t-24.5 82t-7 115.5q0 62 6.5 110.5t23.5 81.5t46.5 50t74.5 17zM553 125q34 0 54 15.5t30 44t13 69.5t3 91q0 49 -2.5 88.5t-13 68t-30.5 44
t-54 15.5q-33 0 -52.5 -15.5t-30 -44t-13.5 -68t-3 -88.5q0 -50 3 -91t13.5 -69.5t30 -44t52.5 -15.5zM332 93h-48v457l-70 -27l-16 39l104 42q10 4 20 -2.5t10 -17.5v-491zM88 227q4 -29 15 -62.5t28 -65.5t38.5 -59.5t45.5 -43.5l-25 -37q-30 19 -56.5 50.5t-47.5 69
t-35 78t-18 78.5q-2 18 -3 31.5t-2 26t-1 26.5v34q0 38 0.5 65.5t5.5 62.5q11 78 49.5 146t108.5 116l25 -36q-24 -17 -45.5 -41.5t-38.5 -53t-28.5 -60.5t-15.5 -63q-5 -34 -6 -66t-1 -70v-36.5t0.5 -29.5t2 -28t4.5 -32zM811 227q3 18 4.5 32t2 28t0.5 29.5v36.5
q0 38 -1 70t-6 66q-5 32 -16.5 63.5t-28 60t-37.5 52.5t-46 42l25 36q70 -48 108.5 -116t49.5 -146q5 -35 5.5 -62.5t0.5 -65.5v-34t-1 -26.5t-2 -26t-3 -31.5q-5 -38 -18.5 -78.5t-34 -78t-47 -69t-57.5 -50.5l-25 37q25 17 46 44t37.5 59t27.5 65.5t16 62.5z" />
    <glyph glyph-name="uni247E" unicode="&#x247e;" horiz-adv-x="900" 
d="M360 93h-48v457l-70 -27l-16 39l104 42q10 4 20 -2.5t10 -17.5v-491zM605 93h-48v457l-70 -27l-16 39l104 42q10 4 20 -2.5t10 -17.5v-491zM88 227q4 -29 15 -62.5t28 -65.5t38.5 -59.5t45.5 -43.5l-25 -37q-30 19 -56.5 50.5t-47.5 69t-35 78t-18 78.5q-2 18 -3 31.5
t-2 26t-1 26.5v34q0 38 0.5 65.5t5.5 62.5q11 78 49.5 146t108.5 116l25 -36q-24 -17 -45.5 -41.5t-38.5 -53t-28.5 -60.5t-15.5 -63q-5 -34 -6 -66t-1 -70v-36.5t0.5 -29.5t2 -28t4.5 -32zM811 227q3 18 4.5 32t2 28t0.5 29.5v36.5q0 38 -1 70t-6 66q-5 32 -16.5 63.5
t-28 60t-37.5 52.5t-46 42l25 36q70 -48 108.5 -116t49.5 -146q5 -35 5.5 -62.5t0.5 -65.5v-34t-1 -26.5t-2 -26t-3 -31.5q-5 -38 -18.5 -78.5t-34 -78t-47 -69t-57.5 -50.5l-25 37q25 17 46 44t37.5 59t27.5 65.5t16 62.5z" />
    <glyph glyph-name="uni247F" unicode="&#x247f;" horiz-adv-x="900" 
d="M411 93v32q0 30 16.5 62t41 62.5t52.5 56.5t51 44q27 22 40 50t13 73q0 42 -25.5 66.5t-63.5 24.5q-27 0 -49 -12t-45 -35l-28 34q25 22 54.5 38.5t69.5 16.5q63 0 101.5 -36.5t38.5 -97.5q0 -48 -22 -88t-60 -71q-22 -18 -45 -39t-41.5 -42.5t-30.5 -43.5t-12 -42v-10
h212v-43h-268zM340 93h-48v457l-70 -27l-16 39l104 42q10 4 20 -2.5t10 -17.5v-491zM88 227q4 -29 15 -62.5t28 -65.5t38.5 -59.5t45.5 -43.5l-25 -37q-30 19 -56.5 50.5t-47.5 69t-35 78t-18 78.5q-2 18 -3 31.5t-2 26t-1 26.5v34q0 38 0.5 65.5t5.5 62.5q11 78 49.5 146
t108.5 116l25 -36q-24 -17 -45.5 -41.5t-38.5 -53t-28.5 -60.5t-15.5 -63q-5 -34 -6 -66t-1 -70v-36.5t0.5 -29.5t2 -28t4.5 -32zM811 227q3 18 4.5 32t2 28t0.5 29.5v36.5q0 38 -1 70t-6 66q-5 32 -16.5 63.5t-28 60t-37.5 52.5t-46 42l25 36q70 -48 108.5 -116t49.5 -146
q5 -35 5.5 -62.5t0.5 -65.5v-34t-1 -26.5t-2 -26t-3 -31.5q-5 -38 -18.5 -78.5t-34 -78t-47 -69t-57.5 -50.5l-25 37q25 17 46 44t37.5 59t27.5 65.5t16 62.5z" />
    <glyph glyph-name="uni2480" unicode="&#x2480;" horiz-adv-x="900" 
d="M526 604q67 0 106.5 -30t39.5 -99q0 -43 -21.5 -72t-55.5 -42q45 -13 69 -47t24 -76q0 -79 -40.5 -119t-121.5 -38q-24 1 -57.5 6t-60.5 21l17 42q33 -18 56.5 -21.5t44.5 -3.5q109 0 109 109q0 56 -30.5 79.5t-80.5 23.5h-55v43h55q51 0 73 24.5t22 72.5
q0 42 -21.5 63.5t-72.5 21.5q-25 0 -41 -4.5t-39 -17.5l-23 36q25 15 49.5 21.5t54.5 6.5zM344 93h-48v457l-70 -27l-16 39l104 42q10 4 20 -2.5t10 -17.5v-491zM88 227q4 -29 15 -62.5t28 -65.5t38.5 -59.5t45.5 -43.5l-25 -37q-30 19 -56.5 50.5t-47.5 69t-35 78t-18 78.5
q-2 18 -3 31.5t-2 26t-1 26.5v34q0 38 0.5 65.5t5.5 62.5q11 78 49.5 146t108.5 116l25 -36q-24 -17 -45.5 -41.5t-38.5 -53t-28.5 -60.5t-15.5 -63q-5 -34 -6 -66t-1 -70v-36.5t0.5 -29.5t2 -28t4.5 -32zM811 227q3 18 4.5 32t2 28t0.5 29.5v36.5q0 38 -1 70t-6 66
q-5 32 -16.5 63.5t-28 60t-37.5 52.5t-46 42l25 36q70 -48 108.5 -116t49.5 -146q5 -35 5.5 -62.5t0.5 -65.5v-34t-1 -26.5t-2 -26t-3 -31.5q-5 -38 -18.5 -78.5t-34 -78t-47 -69t-57.5 -50.5l-25 37q25 17 46 44t37.5 59t27.5 65.5t16 62.5z" />
    <glyph glyph-name="uni2481" unicode="&#x2481;" horiz-adv-x="900" 
d="M433 233h156v313zM639 192v-101h-50v101h-208v48l181 355h77v-362h55v-41h-55zM336 93h-48v457l-70 -27l-16 39l104 42q10 4 20 -2.5t10 -17.5v-491zM88 227q4 -29 15 -62.5t28 -65.5t38.5 -59.5t45.5 -43.5l-25 -37q-30 19 -56.5 50.5t-47.5 69t-35 78t-18 78.5
q-2 18 -3 31.5t-2 26t-1 26.5v34q0 38 0.5 65.5t5.5 62.5q11 78 49.5 146t108.5 116l25 -36q-24 -17 -45.5 -41.5t-38.5 -53t-28.5 -60.5t-15.5 -63q-5 -34 -6 -66t-1 -70v-36.5t0.5 -29.5t2 -28t4.5 -32zM811 227q3 18 4.5 32t2 28t0.5 29.5v36.5q0 38 -1 70t-6 66
q-5 32 -16.5 63.5t-28 60t-37.5 52.5t-46 42l25 36q70 -48 108.5 -116t49.5 -146q5 -35 5.5 -62.5t0.5 -65.5v-34t-1 -26.5t-2 -26t-3 -31.5q-5 -38 -18.5 -78.5t-34 -78t-47 -69t-57.5 -50.5l-25 37q25 17 46 44t37.5 59t27.5 65.5t16 62.5z" />
    <glyph glyph-name="uni2482" unicode="&#x2482;" horiz-adv-x="900" 
d="M340 93h-48v457l-70 -27l-16 39l104 42q10 4 20 -2.5t10 -17.5v-491zM518 349q-20 0 -36.5 -5t-38.5 -11q-9 -2 -16.5 2t-7.5 15l17 242h220v-42h-173l-15 -166q14 4 26 6t24 2q84 0 122.5 -40.5t38.5 -110.5q0 -35 -10 -64.5t-29.5 -51.5t-49.5 -34t-70 -12
q-35 0 -63.5 7t-54.5 24l18 41q26 -16 47 -22.5t53 -6.5q27 0 47 9.5t33 26t19.5 38t6.5 45.5q0 51 -25.5 79.5t-82.5 28.5zM88 227q4 -29 15 -62.5t28 -65.5t38.5 -59.5t45.5 -43.5l-25 -37q-30 19 -56.5 50.5t-47.5 69t-35 78t-18 78.5q-2 18 -3 31.5t-2 26t-1 26.5v34
q0 38 0.5 65.5t5.5 62.5q11 78 49.5 146t108.5 116l25 -36q-24 -17 -45.5 -41.5t-38.5 -53t-28.5 -60.5t-15.5 -63q-5 -34 -6 -66t-1 -70v-36.5t0.5 -29.5t2 -28t4.5 -32zM811 227q3 18 4.5 32t2 28t0.5 29.5v36.5q0 38 -1 70t-6 66q-5 32 -16.5 63.5t-28 60t-37.5 52.5
t-46 42l25 36q70 -48 108.5 -116t49.5 -146q5 -35 5.5 -62.5t0.5 -65.5v-34t-1 -26.5t-2 -26t-3 -31.5q-5 -38 -18.5 -78.5t-34 -78t-47 -69t-57.5 -50.5l-25 37q25 17 46 44t37.5 59t27.5 65.5t16 62.5z" />
    <glyph glyph-name="uni249C" unicode="&#x249c;" horiz-adv-x="920" 
d="M88 227q4 -29 15 -62.5t28 -65.5t38.5 -59.5t45.5 -43.5l-25 -37q-30 19 -56.5 50.5t-47.5 69t-35 78t-18 78.5q-2 18 -3 31.5t-2 26t-1 26.5v34q0 38 0.5 65.5t5.5 62.5q11 78 49.5 146t108.5 116l25 -36q-24 -17 -45.5 -41.5t-38.5 -53t-28.5 -60.5t-15.5 -63
q-5 -34 -6 -66t-1 -70v-36.5t0.5 -29.5t2 -28t4.5 -32zM811 227q3 18 4.5 32t2 28t0.5 29.5v36.5q0 38 -1 70t-6 66q-5 32 -16.5 63.5t-28 60t-37.5 52.5t-46 42l25 36q70 -48 108.5 -116t49.5 -146q5 -35 5.5 -62.5t0.5 -65.5v-34t-1 -26.5t-2 -26t-3 -31.5
q-5 -38 -18.5 -78.5t-34 -78t-47 -69t-57.5 -50.5l-25 37q25 17 46 44t37.5 59t27.5 65.5t16 62.5zM587 170q-37 -11 -74.5 -17.5t-85.5 -6.5q-66 0 -106.5 32t-40.5 86v25q0 31 13 53t34.5 36t49.5 20t58 6h93v25q0 29 -19 47.5t-55 18.5q-20 0 -34.5 -1t-27.5 -4
t-26.5 -7.5t-32.5 -11.5l-18 44q33 14 65 20.5t77 6.5q69 0 99.5 -29.5t30.5 -83.5v-259zM428 193q29 0 52.5 2t47.5 8v153h-90q-42 0 -70.5 -16t-28.5 -54v-8q0 -38 25.5 -61.5t63.5 -23.5z" />
    <glyph glyph-name="uni249D" unicode="&#x249d;" horiz-adv-x="900" 
d="M88 227q4 -29 15 -62.5t28 -65.5t38.5 -59.5t45.5 -43.5l-25 -37q-30 19 -56.5 50.5t-47.5 69t-35 78t-18 78.5q-2 18 -3 31.5t-2 26t-1 26.5v34q0 38 0.5 65.5t5.5 62.5q11 78 49.5 146t108.5 116l25 -36q-24 -17 -45.5 -41.5t-38.5 -53t-28.5 -60.5t-15.5 -63
q-5 -34 -6 -66t-1 -70v-36.5t0.5 -29.5t2 -28t4.5 -32zM811 227q3 18 4.5 32t2 28t0.5 29.5v36.5q0 38 -1 70t-6 66q-5 32 -16.5 63.5t-28 60t-37.5 52.5t-46 42l25 36q70 -48 108.5 -116t49.5 -146q5 -35 5.5 -62.5t0.5 -65.5v-34t-1 -26.5t-2 -26t-3 -31.5
q-5 -38 -18.5 -78.5t-34 -78t-47 -69t-57.5 -50.5l-25 37q25 17 46 44t37.5 59t27.5 65.5t16 62.5zM482 452q73 0 111 -40t38 -139v-36q0 -99 -37.5 -140t-111.5 -41q-56 0 -95 8t-75 21v541h59v-203q43 29 111 29zM572 273q0 73 -21 102.5t-69 29.5q-43 0 -73 -13t-38 -31
v-244q33 -13 111 -13q48 0 69 28.5t21 104.5v36z" />
    <glyph glyph-name="uni249E" unicode="&#x249e;" horiz-adv-x="900" 
d="M88 227q4 -29 15 -62.5t28 -65.5t38.5 -59.5t45.5 -43.5l-25 -37q-30 19 -56.5 50.5t-47.5 69t-35 78t-18 78.5q-2 18 -3 31.5t-2 26t-1 26.5v34q0 38 0.5 65.5t5.5 62.5q11 78 49.5 146t108.5 116l25 -36q-24 -17 -45.5 -41.5t-38.5 -53t-28.5 -60.5t-15.5 -63
q-5 -34 -6 -66t-1 -70v-36.5t0.5 -29.5t2 -28t4.5 -32zM811 227q3 18 4.5 32t2 28t0.5 29.5v36.5q0 38 -1 70t-6 66q-5 32 -16.5 63.5t-28 60t-37.5 52.5t-46 42l25 36q70 -48 108.5 -116t49.5 -146q5 -35 5.5 -62.5t0.5 -65.5v-34t-1 -26.5t-2 -26t-3 -31.5
q-5 -38 -18.5 -78.5t-34 -78t-47 -69t-57.5 -50.5l-25 37q25 17 46 44t37.5 59t27.5 65.5t16 62.5zM450 200q29 0 53.5 3t59.5 11l11 -42q-39 -11 -67.5 -15t-57.5 -4q-50 0 -83 11.5t-53 34t-28 55t-8 74.5v44q0 41 8 74t28 56t53 35t83 12q24 0 52 -3t66 -10l-13 -48
q-56 13 -105 13q-33 0 -55 -8.5t-35 -25t-18 -41t-5 -56.5v-39q0 -33 5 -57.5t18 -41t35 -24.5t56 -8z" />
    <glyph glyph-name="uni249F" unicode="&#x249f;" horiz-adv-x="900" 
d="M88 227q4 -29 15 -62.5t28 -65.5t38.5 -59.5t45.5 -43.5l-25 -37q-30 19 -56.5 50.5t-47.5 69t-35 78t-18 78.5q-2 18 -3 31.5t-2 26t-1 26.5v34q0 38 0.5 65.5t5.5 62.5q11 78 49.5 146t108.5 116l25 -36q-24 -17 -45.5 -41.5t-38.5 -53t-28.5 -60.5t-15.5 -63
q-5 -34 -6 -66t-1 -70v-36.5t0.5 -29.5t2 -28t4.5 -32zM811 227q3 18 4.5 32t2 28t0.5 29.5v36.5q0 38 -1 70t-6 66q-5 32 -16.5 63.5t-28 60t-37.5 52.5t-46 42l25 36q70 -48 108.5 -116t49.5 -146q5 -35 5.5 -62.5t0.5 -65.5v-34t-1 -26.5t-2 -26t-3 -31.5
q-5 -38 -18.5 -78.5t-34 -78t-47 -69t-57.5 -50.5l-25 37q25 17 46 44t37.5 59t27.5 65.5t16 62.5zM407 457q64 0 105 -28v202h59v-541q-32 -11 -70.5 -20t-93.5 -9q-75 0 -115 45t-40 136v36q0 94 41.5 136.5t113.5 42.5zM311 242q0 -69 24 -101t72 -32q38 0 64.5 4t40.5 9
v241q-8 19 -35.5 33t-69.5 14q-96 0 -96 -132v-36z" />
    <glyph glyph-name="uni24A0" unicode="&#x24a0;" horiz-adv-x="900" 
d="M88 227q4 -29 15 -62.5t28 -65.5t38.5 -59.5t45.5 -43.5l-25 -37q-30 19 -56.5 50.5t-47.5 69t-35 78t-18 78.5q-2 18 -3 31.5t-2 26t-1 26.5v34q0 38 0.5 65.5t5.5 62.5q11 78 49.5 146t108.5 116l25 -36q-24 -17 -45.5 -41.5t-38.5 -53t-28.5 -60.5t-15.5 -63
q-5 -34 -6 -66t-1 -70v-36.5t0.5 -29.5t2 -28t4.5 -32zM811 227q3 18 4.5 32t2 28t0.5 29.5v36.5q0 38 -1 70t-6 66q-5 32 -16.5 63.5t-28 60t-37.5 52.5t-46 42l25 36q70 -48 108.5 -116t49.5 -146q5 -35 5.5 -62.5t0.5 -65.5v-34t-1 -26.5t-2 -26t-3 -31.5
q-5 -38 -18.5 -78.5t-34 -78t-47 -69t-57.5 -50.5l-25 37q25 17 46 44t37.5 59t27.5 65.5t16 62.5zM343 361h203v33q0 99 -104 99q-48 0 -73.5 -24t-25.5 -75v-33zM448 191q22 0 38.5 1t30.5 3.5t28 7t31 11.5l14 -44q-32 -15 -64.5 -20.5t-77.5 -5.5q-35 0 -65 11t-52 31.5
t-34.5 50.5t-12.5 69v73q0 79 42.5 120t115.5 41q43 0 74 -12t50.5 -33t28.5 -49t9 -59v-24q0 -24 -11.5 -36.5t-40.5 -12.5h-209v-15q0 -29 10 -49t25.5 -33.5t34 -19.5t35.5 -6z" />
    <glyph glyph-name="uni24A1" unicode="&#x24a1;" horiz-adv-x="900" 
d="M88 227q4 -29 15 -62.5t28 -65.5t38.5 -59.5t45.5 -43.5l-25 -37q-30 19 -56.5 50.5t-47.5 69t-35 78t-18 78.5q-2 18 -3 31.5t-2 26t-1 26.5v34q0 38 0.5 65.5t5.5 62.5q11 78 49.5 146t108.5 116l25 -36q-24 -17 -45.5 -41.5t-38.5 -53t-28.5 -60.5t-15.5 -63
q-5 -34 -6 -66t-1 -70v-36.5t0.5 -29.5t2 -28t4.5 -32zM811 227q3 18 4.5 32t2 28t0.5 29.5v36.5q0 38 -1 70t-6 66q-5 32 -16.5 63.5t-28 60t-37.5 52.5t-46 42l25 36q70 -48 108.5 -116t49.5 -146q5 -35 5.5 -62.5t0.5 -65.5v-34t-1 -26.5t-2 -26t-3 -31.5
q-5 -38 -18.5 -78.5t-34 -78t-47 -69t-57.5 -50.5l-25 37q25 17 46 44t37.5 59t27.5 65.5t16 62.5zM556 361h-117v-297h-59v297h-45v48h45v103q0 51 28.5 84t86.5 33q20 0 40.5 -3.5t36.5 -10.5l-16 -43q-27 10 -61 10q-17 0 -27.5 -6.5t-17 -16.5t-9 -22.5t-2.5 -24.5v-103
h117v-48z" />
    <glyph glyph-name="uni24A2" unicode="&#x24a2;" horiz-adv-x="900" 
d="M88 227q4 -29 15 -62.5t28 -65.5t38.5 -59.5t45.5 -43.5l-25 -37q-30 19 -56.5 50.5t-47.5 69t-35 78t-18 78.5q-2 18 -3 31.5t-2 26t-1 26.5v34q0 38 0.5 65.5t5.5 62.5q11 78 49.5 146t108.5 116l25 -36q-24 -17 -45.5 -41.5t-38.5 -53t-28.5 -60.5t-15.5 -63
q-5 -34 -6 -66t-1 -70v-36.5t0.5 -29.5t2 -28t4.5 -32zM811 227q3 18 4.5 32t2 28t0.5 29.5v36.5q0 38 -1 70t-6 66q-5 32 -16.5 63.5t-28 60t-37.5 52.5t-46 42l25 36q70 -48 108.5 -116t49.5 -146q5 -35 5.5 -62.5t0.5 -65.5v-34t-1 -26.5t-2 -26t-3 -31.5
q-5 -38 -18.5 -78.5t-34 -78t-47 -69t-57.5 -50.5l-25 37q25 17 46 44t37.5 59t27.5 65.5t16 62.5zM597 599v-383q0 -66 -39 -109t-125 -43q-35 0 -65 5.5t-64 22.5l16 43q29 -14 52.5 -19t54.5 -5q18 0 38 4t36 15t26.5 29.5t10.5 48.5v29q-20 -12 -45 -19t-51 -7
q-82 0 -123 49t-41 143v13q0 191 164 191q29 0 52.5 -8t43.5 -20v20h59zM337 403q0 -70 23 -107t82 -37q26 0 54 9.5t42 29.5v224q-18 19 -44 28t-52 9q-59 0 -82 -38.5t-23 -104.5v-13z" />
    <glyph glyph-name="uni24A3" unicode="&#x24a3;" horiz-adv-x="900" 
d="M88 227q4 -29 15 -62.5t28 -65.5t38.5 -59.5t45.5 -43.5l-25 -37q-30 19 -56.5 50.5t-47.5 69t-35 78t-18 78.5q-2 18 -3 31.5t-2 26t-1 26.5v34q0 38 0.5 65.5t5.5 62.5q11 78 49.5 146t108.5 116l25 -36q-24 -17 -45.5 -41.5t-38.5 -53t-28.5 -60.5t-15.5 -63
q-5 -34 -6 -66t-1 -70v-36.5t0.5 -29.5t2 -28t4.5 -32zM811 227q3 18 4.5 32t2 28t0.5 29.5v36.5q0 38 -1 70t-6 66q-5 32 -16.5 63.5t-28 60t-37.5 52.5t-46 42l25 36q70 -48 108.5 -116t49.5 -146q5 -35 5.5 -62.5t0.5 -65.5v-34t-1 -26.5t-2 -26t-3 -31.5
q-5 -38 -18.5 -78.5t-34 -78t-47 -69t-57.5 -50.5l-25 37q25 17 46 44t37.5 59t27.5 65.5t16 62.5zM561 73v236q0 48 -19.5 75t-65.5 27q-27 0 -51 -10t-50 -24v-304h-59v560h59v-203q24 14 50 21.5t58 7.5q69 0 103 -37.5t34 -103.5v-245h-59z" />
    <glyph glyph-name="uni24A4" unicode="&#x24a4;" horiz-adv-x="900" 
d="M88 227q4 -29 15 -62.5t28 -65.5t38.5 -59.5t45.5 -43.5l-25 -37q-30 19 -56.5 50.5t-47.5 69t-35 78t-18 78.5q-2 18 -3 31.5t-2 26t-1 26.5v34q0 38 0.5 65.5t5.5 62.5q11 78 49.5 146t108.5 116l25 -36q-24 -17 -45.5 -41.5t-38.5 -53t-28.5 -60.5t-15.5 -63
q-5 -34 -6 -66t-1 -70v-36.5t0.5 -29.5t2 -28t4.5 -32zM811 227q3 18 4.5 32t2 28t0.5 29.5v36.5q0 38 -1 70t-6 66q-5 32 -16.5 63.5t-28 60t-37.5 52.5t-46 42l25 36q70 -48 108.5 -116t49.5 -146q5 -35 5.5 -62.5t0.5 -65.5v-34t-1 -26.5t-2 -26t-3 -31.5
q-5 -38 -18.5 -78.5t-34 -78t-47 -69t-57.5 -50.5l-25 37q25 17 46 44t37.5 59t27.5 65.5t16 62.5zM418 618h63v-91h-63v91zM479 446v-378h-59v378h59z" />
    <glyph glyph-name="uni24A5" unicode="&#x24a5;" horiz-adv-x="900" 
d="M88 227q4 -29 15 -62.5t28 -65.5t38.5 -59.5t45.5 -43.5l-25 -37q-30 19 -56.5 50.5t-47.5 69t-35 78t-18 78.5q-2 18 -3 31.5t-2 26t-1 26.5v34q0 38 0.5 65.5t5.5 62.5q11 78 49.5 146t108.5 116l25 -36q-24 -17 -45.5 -41.5t-38.5 -53t-28.5 -60.5t-15.5 -63
q-5 -34 -6 -66t-1 -70v-36.5t0.5 -29.5t2 -28t4.5 -32zM811 227q3 18 4.5 32t2 28t0.5 29.5v36.5q0 38 -1 70t-6 66q-5 32 -16.5 63.5t-28 60t-37.5 52.5t-46 42l25 36q70 -48 108.5 -116t49.5 -146q5 -35 5.5 -62.5t0.5 -65.5v-34t-1 -26.5t-2 -26t-3 -31.5
q-5 -38 -18.5 -78.5t-34 -78t-47 -69t-57.5 -50.5l-25 37q25 17 46 44t37.5 59t27.5 65.5t16 62.5zM444 494h58v-339q0 -63 -24.5 -98t-81.5 -35q-18 0 -33 2.5t-30 4.5l9 44q17 -2 24.5 -3.5t24.5 -1.5q29 0 41 20t12 52v354zM442 666h62v-91h-62v91z" />
    <glyph glyph-name="uni24A6" unicode="&#x24a6;" horiz-adv-x="900" 
d="M88 227q4 -29 15 -62.5t28 -65.5t38.5 -59.5t45.5 -43.5l-25 -37q-30 19 -56.5 50.5t-47.5 69t-35 78t-18 78.5q-2 18 -3 31.5t-2 26t-1 26.5v34q0 38 0.5 65.5t5.5 62.5q11 78 49.5 146t108.5 116l25 -36q-24 -17 -45.5 -41.5t-38.5 -53t-28.5 -60.5t-15.5 -63
q-5 -34 -6 -66t-1 -70v-36.5t0.5 -29.5t2 -28t4.5 -32zM811 227q3 18 4.5 32t2 28t0.5 29.5v36.5q0 38 -1 70t-6 66q-5 32 -16.5 63.5t-28 60t-37.5 52.5t-46 42l25 36q70 -48 108.5 -116t49.5 -146q5 -35 5.5 -62.5t0.5 -65.5v-34t-1 -26.5t-2 -26t-3 -31.5
q-5 -38 -18.5 -78.5t-34 -78t-47 -69t-57.5 -50.5l-25 37q25 17 46 44t37.5 59t27.5 65.5t16 62.5zM332 643h59v-356q45 48 85 91.5t75 82.5h63l-132 -148q17 -26 37 -56.5l40 -61t38 -59.5t32 -53h-65q-29 48 -61 98t-59 90l-53 -58v-130h-59v560z" />
    <glyph glyph-name="uni24A7" unicode="&#x24a7;" horiz-adv-x="900" 
d="M88 227q4 -29 15 -62.5t28 -65.5t38.5 -59.5t45.5 -43.5l-25 -37q-30 19 -56.5 50.5t-47.5 69t-35 78t-18 78.5q-2 18 -3 31.5t-2 26t-1 26.5v34q0 38 0.5 65.5t5.5 62.5q11 78 49.5 146t108.5 116l25 -36q-24 -17 -45.5 -41.5t-38.5 -53t-28.5 -60.5t-15.5 -63
q-5 -34 -6 -66t-1 -70v-36.5t0.5 -29.5t2 -28t4.5 -32zM811 227q3 18 4.5 32t2 28t0.5 29.5v36.5q0 38 -1 70t-6 66q-5 32 -16.5 63.5t-28 60t-37.5 52.5t-46 42l25 36q70 -48 108.5 -116t49.5 -146q5 -35 5.5 -62.5t0.5 -65.5v-34t-1 -26.5t-2 -26t-3 -31.5
q-5 -38 -18.5 -78.5t-34 -78t-47 -69t-57.5 -50.5l-25 37q25 17 46 44t37.5 59t27.5 65.5t16 62.5zM479 623v-560h-59v560h59z" />
    <glyph glyph-name="uni24A8" unicode="&#x24a8;" horiz-adv-x="900" 
d="M88 227q4 -29 15 -62.5t28 -65.5t38.5 -59.5t45.5 -43.5l-25 -37q-30 19 -56.5 50.5t-47.5 69t-35 78t-18 78.5q-2 18 -3 31.5t-2 26t-1 26.5v34q0 38 0.5 65.5t5.5 62.5q11 78 49.5 146t108.5 116l25 -36q-24 -17 -45.5 -41.5t-38.5 -53t-28.5 -60.5t-15.5 -63
q-5 -34 -6 -66t-1 -70v-36.5t0.5 -29.5t2 -28t4.5 -32zM811 227q3 18 4.5 32t2 28t0.5 29.5v36.5q0 38 -1 70t-6 66q-5 32 -16.5 63.5t-28 60t-37.5 52.5t-46 42l25 36q70 -48 108.5 -116t49.5 -146q5 -35 5.5 -62.5t0.5 -65.5v-34t-1 -26.5t-2 -26t-3 -31.5
q-5 -38 -18.5 -78.5t-34 -78t-47 -69t-57.5 -50.5l-25 37q25 17 46 44t37.5 59t27.5 65.5t16 62.5zM431 154v244q0 42 -12 68t-47 26q-27 0 -47.5 -9t-46.5 -29v-300h-59v378h59v-25q23 15 48.5 24t52.5 9q64 0 91 -44q24 20 53.5 32t61.5 12q60 0 85.5 -34t25.5 -100v-252
h-59v244q0 42 -12 68t-46 26q-27 0 -47.5 -8.5t-46.5 -28.5q5 -25 5 -49v-252h-59z" />
    <glyph glyph-name="uni24A9" unicode="&#x24a9;" horiz-adv-x="900" 
d="M88 227q4 -29 15 -62.5t28 -65.5t38.5 -59.5t45.5 -43.5l-25 -37q-30 19 -56.5 50.5t-47.5 69t-35 78t-18 78.5q-2 18 -3 31.5t-2 26t-1 26.5v34q0 38 0.5 65.5t5.5 62.5q11 78 49.5 146t108.5 116l25 -36q-24 -17 -45.5 -41.5t-38.5 -53t-28.5 -60.5t-15.5 -63
q-5 -34 -6 -66t-1 -70v-36.5t0.5 -29.5t2 -28t4.5 -32zM811 227q3 18 4.5 32t2 28t0.5 29.5v36.5q0 38 -1 70t-6 66q-5 32 -16.5 63.5t-28 60t-37.5 52.5t-46 42l25 36q70 -48 108.5 -116t49.5 -146q5 -35 5.5 -62.5t0.5 -65.5v-34t-1 -26.5t-2 -26t-3 -31.5
q-5 -38 -18.5 -78.5t-34 -78t-47 -69t-57.5 -50.5l-25 37q25 17 46 44t37.5 59t27.5 65.5t16 62.5zM553 160v237q0 41 -19.5 71t-65.5 30q-26 0 -53 -10t-53 -27v-301h-59v378h59v-27q50 35 113 35q69 0 103 -37.5t34 -103.5v-245h-59z" />
    <glyph glyph-name="uni24AA" unicode="&#x24aa;" horiz-adv-x="900" 
d="M88 227q4 -29 15 -62.5t28 -65.5t38.5 -59.5t45.5 -43.5l-25 -37q-30 19 -56.5 50.5t-47.5 69t-35 78t-18 78.5q-2 18 -3 31.5t-2 26t-1 26.5v34q0 38 0.5 65.5t5.5 62.5q11 78 49.5 146t108.5 116l25 -36q-24 -17 -45.5 -41.5t-38.5 -53t-28.5 -60.5t-15.5 -63
q-5 -34 -6 -66t-1 -70v-36.5t0.5 -29.5t2 -28t4.5 -32zM811 227q3 18 4.5 32t2 28t0.5 29.5v36.5q0 38 -1 70t-6 66q-5 32 -16.5 63.5t-28 60t-37.5 52.5t-46 42l25 36q70 -48 108.5 -116t49.5 -146q5 -35 5.5 -62.5t0.5 -65.5v-34t-1 -26.5t-2 -26t-3 -31.5
q-5 -38 -18.5 -78.5t-34 -78t-47 -69t-57.5 -50.5l-25 37q25 17 46 44t37.5 59t27.5 65.5t16 62.5zM559 372q0 60 -25 94t-85 34t-84.5 -34t-24.5 -94v-47q0 -59 25 -94t84 -35q60 0 85 34.5t25 94.5v47zM449 547q81 0 125 -45t44 -130v-47q0 -88 -43.5 -132.5t-125.5 -44.5
q-81 0 -124.5 44.5t-43.5 132.5v47q0 85 44.5 130t123.5 45z" />
    <glyph glyph-name="uni24AB" unicode="&#x24ab;" horiz-adv-x="900" 
d="M88 227q4 -29 15 -62.5t28 -65.5t38.5 -59.5t45.5 -43.5l-25 -37q-30 19 -56.5 50.5t-47.5 69t-35 78t-18 78.5q-2 18 -3 31.5t-2 26t-1 26.5v34q0 38 0.5 65.5t5.5 62.5q11 78 49.5 146t108.5 116l25 -36q-24 -17 -45.5 -41.5t-38.5 -53t-28.5 -60.5t-15.5 -63
q-5 -34 -6 -66t-1 -70v-36.5t0.5 -29.5t2 -28t4.5 -32zM811 227q3 18 4.5 32t2 28t0.5 29.5v36.5q0 38 -1 70t-6 66q-5 32 -16.5 63.5t-28 60t-37.5 52.5t-46 42l25 36q70 -48 108.5 -116t49.5 -146q5 -35 5.5 -62.5t0.5 -65.5v-34t-1 -26.5t-2 -26t-3 -31.5
q-5 -38 -18.5 -78.5t-34 -78t-47 -69t-57.5 -50.5l-25 37q25 17 46 44t37.5 59t27.5 65.5t16 62.5zM486 606q70 0 109.5 -41t39.5 -138v-36q0 -96 -39 -138.5t-110 -42.5q-34 0 -62 7.5t-49 19.5v-162h-59v505q42 12 80.5 19t89.5 7zM576 427q0 69 -23.5 100.5t-66.5 31.5
q-66 0 -111 -12v-245q8 -19 38 -31.5t73 -12.5t66.5 30.5t23.5 102.5v36z" />
    <glyph glyph-name="uni24AC" unicode="&#x24ac;" horiz-adv-x="900" 
d="M88 227q4 -29 15 -62.5t28 -65.5t38.5 -59.5t45.5 -43.5l-25 -37q-30 19 -56.5 50.5t-47.5 69t-35 78t-18 78.5q-2 18 -3 31.5t-2 26t-1 26.5v34q0 38 0.5 65.5t5.5 62.5q11 78 49.5 146t108.5 116l25 -36q-24 -17 -45.5 -41.5t-38.5 -53t-28.5 -60.5t-15.5 -63
q-5 -34 -6 -66t-1 -70v-36.5t0.5 -29.5t2 -28t4.5 -32zM811 227q3 18 4.5 32t2 28t0.5 29.5v36.5q0 38 -1 70t-6 66q-5 32 -16.5 63.5t-28 60t-37.5 52.5t-46 42l25 36q70 -48 108.5 -116t49.5 -146q5 -35 5.5 -62.5t0.5 -65.5v-34t-1 -26.5t-2 -26t-3 -31.5
q-5 -38 -18.5 -78.5t-34 -78t-47 -69t-57.5 -50.5l-25 37q25 17 46 44t37.5 59t27.5 65.5t16 62.5zM410 601q92 0 167 -22v-509h-59v162q-21 -12 -48.5 -19.5t-59.5 -7.5q-71 0 -111.5 42.5t-40.5 138.5v36q0 97 41 138t111 41zM317 386q0 -72 25 -102.5t68 -30.5t71.5 13.5
t36.5 32.5v245q-41 10 -108 10q-43 0 -68 -31.5t-25 -100.5v-36z" />
    <glyph glyph-name="uni24AD" unicode="&#x24ad;" horiz-adv-x="900" 
d="M88 227q4 -29 15 -62.5t28 -65.5t38.5 -59.5t45.5 -43.5l-25 -37q-30 19 -56.5 50.5t-47.5 69t-35 78t-18 78.5q-2 18 -3 31.5t-2 26t-1 26.5v34q0 38 0.5 65.5t5.5 62.5q11 78 49.5 146t108.5 116l25 -36q-24 -17 -45.5 -41.5t-38.5 -53t-28.5 -60.5t-15.5 -63
q-5 -34 -6 -66t-1 -70v-36.5t0.5 -29.5t2 -28t4.5 -32zM811 227q3 18 4.5 32t2 28t0.5 29.5v36.5q0 38 -1 70t-6 66q-5 32 -16.5 63.5t-28 60t-37.5 52.5t-46 42l25 36q70 -48 108.5 -116t49.5 -146q5 -35 5.5 -62.5t0.5 -65.5v-34t-1 -26.5t-2 -26t-3 -31.5
q-5 -38 -18.5 -78.5t-34 -78t-47 -69t-57.5 -50.5l-25 37q25 17 46 44t37.5 59t27.5 65.5t16 62.5zM578 489q-8 3 -20 4.5t-24 1.5q-20 0 -49 -8.5t-54 -35.5v-294h-59v378h59v-30q21 20 49.5 29t61.5 9q11 0 24 -2t22 -4z" />
    <glyph glyph-name="uni24AE" unicode="&#x24ae;" horiz-adv-x="900" 
d="M88 227q4 -29 15 -62.5t28 -65.5t38.5 -59.5t45.5 -43.5l-25 -37q-30 19 -56.5 50.5t-47.5 69t-35 78t-18 78.5q-2 18 -3 31.5t-2 26t-1 26.5v34q0 38 0.5 65.5t5.5 62.5q11 78 49.5 146t108.5 116l25 -36q-24 -17 -45.5 -41.5t-38.5 -53t-28.5 -60.5t-15.5 -63
q-5 -34 -6 -66t-1 -70v-36.5t0.5 -29.5t2 -28t4.5 -32zM811 227q3 18 4.5 32t2 28t0.5 29.5v36.5q0 38 -1 70t-6 66q-5 32 -16.5 63.5t-28 60t-37.5 52.5t-46 42l25 36q70 -48 108.5 -116t49.5 -146q5 -35 5.5 -62.5t0.5 -65.5v-34t-1 -26.5t-2 -26t-3 -31.5
q-5 -38 -18.5 -78.5t-34 -78t-47 -69t-57.5 -50.5l-25 37q25 17 46 44t37.5 59t27.5 65.5t16 62.5zM442 545q32 0 60 -3t60 -15l-18 -47q-31 12 -51.5 15.5t-50.5 1.5q-38 -2 -55 -14t-17 -36q0 -21 11 -35t41 -23l69 -21q51 -15 74.5 -43t23.5 -66q0 -54 -38.5 -82
t-102.5 -28q-35 0 -70.5 7t-65.5 21l16 48q32 -14 59.5 -21t60.5 -6q36 0 60 16t24 45q0 45 -54 62l-69 20q-51 14 -74.5 38.5t-23.5 67.5q0 18 7.5 36t23.5 31.5t40.5 22t59.5 8.5z" />
    <glyph glyph-name="uni24AF" unicode="&#x24af;" horiz-adv-x="900" 
d="M88 227q4 -29 15 -62.5t28 -65.5t38.5 -59.5t45.5 -43.5l-25 -37q-30 19 -56.5 50.5t-47.5 69t-35 78t-18 78.5q-2 18 -3 31.5t-2 26t-1 26.5v34q0 38 0.5 65.5t5.5 62.5q11 78 49.5 146t108.5 116l25 -36q-24 -17 -45.5 -41.5t-38.5 -53t-28.5 -60.5t-15.5 -63
q-5 -34 -6 -66t-1 -70v-36.5t0.5 -29.5t2 -28t4.5 -32zM811 227q3 18 4.5 32t2 28t0.5 29.5v36.5q0 38 -1 70t-6 66q-5 32 -16.5 63.5t-28 60t-37.5 52.5t-46 42l25 36q70 -48 108.5 -116t49.5 -146q5 -35 5.5 -62.5t0.5 -65.5v-34t-1 -26.5t-2 -26t-3 -31.5
q-5 -38 -18.5 -78.5t-34 -78t-47 -69t-57.5 -50.5l-25 37q25 17 46 44t37.5 59t27.5 65.5t16 62.5zM569 82q-16 -6 -31.5 -11t-35.5 -5q-58 0 -81.5 24.5t-23.5 75.5v242h-70v48h70v165h59v-165h101v-48h-101v-242q0 -25 8.5 -38.5t37.5 -13.5q28 0 57 10z" />
    <glyph glyph-name="uni24B0" unicode="&#x24b0;" horiz-adv-x="900" 
d="M88 227q4 -29 15 -62.5t28 -65.5t38.5 -59.5t45.5 -43.5l-25 -37q-30 19 -56.5 50.5t-47.5 69t-35 78t-18 78.5q-2 18 -3 31.5t-2 26t-1 26.5v34q0 38 0.5 65.5t5.5 62.5q11 78 49.5 146t108.5 116l25 -36q-24 -17 -45.5 -41.5t-38.5 -53t-28.5 -60.5t-15.5 -63
q-5 -34 -6 -66t-1 -70v-36.5t0.5 -29.5t2 -28t4.5 -32zM811 227q3 18 4.5 32t2 28t0.5 29.5v36.5q0 38 -1 70t-6 66q-5 32 -16.5 63.5t-28 60t-37.5 52.5t-46 42l25 36q70 -48 108.5 -116t49.5 -146q5 -35 5.5 -62.5t0.5 -65.5v-34t-1 -26.5t-2 -26t-3 -31.5
q-5 -38 -18.5 -78.5t-34 -78t-47 -69t-57.5 -50.5l-25 37q25 17 46 44t37.5 59t27.5 65.5t16 62.5zM349 518v-241q0 -48 22 -74t68 -26q29 0 54.5 3t47.5 12v326h59v-360q-42 -16 -80.5 -22.5t-87.5 -6.5q-69 0 -105.5 34t-36.5 106v249h59z" />
    <glyph glyph-name="uni24B1" unicode="&#x24b1;" horiz-adv-x="900" 
d="M88 227q4 -29 15 -62.5t28 -65.5t38.5 -59.5t45.5 -43.5l-25 -37q-30 19 -56.5 50.5t-47.5 69t-35 78t-18 78.5q-2 18 -3 31.5t-2 26t-1 26.5v34q0 38 0.5 65.5t5.5 62.5q11 78 49.5 146t108.5 116l25 -36q-24 -17 -45.5 -41.5t-38.5 -53t-28.5 -60.5t-15.5 -63
q-5 -34 -6 -66t-1 -70v-36.5t0.5 -29.5t2 -28t4.5 -32zM811 227q3 18 4.5 32t2 28t0.5 29.5v36.5q0 38 -1 70t-6 66q-5 32 -16.5 63.5t-28 60t-37.5 52.5t-46 42l25 36q70 -48 108.5 -116t49.5 -146q5 -35 5.5 -62.5t0.5 -65.5v-34t-1 -26.5t-2 -26t-3 -31.5
q-5 -38 -18.5 -78.5t-34 -78t-47 -69t-57.5 -50.5l-25 37q25 17 46 44t37.5 59t27.5 65.5t16 62.5zM413 137l-136 378h60l115 -330l114 330h56l-132 -378h-77z" />
    <glyph glyph-name="uni24B2" unicode="&#x24b2;" horiz-adv-x="900" 
d="M88 227q4 -29 15 -62.5t28 -65.5t38.5 -59.5t45.5 -43.5l-25 -37q-30 19 -56.5 50.5t-47.5 69t-35 78t-18 78.5q-2 18 -3 31.5t-2 26t-1 26.5v34q0 38 0.5 65.5t5.5 62.5q11 78 49.5 146t108.5 116l25 -36q-24 -17 -45.5 -41.5t-38.5 -53t-28.5 -60.5t-15.5 -63
q-5 -34 -6 -66t-1 -70v-36.5t0.5 -29.5t2 -28t4.5 -32zM811 227q3 18 4.5 32t2 28t0.5 29.5v36.5q0 38 -1 70t-6 66q-5 32 -16.5 63.5t-28 60t-37.5 52.5t-46 42l25 36q70 -48 108.5 -116t49.5 -146q5 -35 5.5 -62.5t0.5 -65.5v-34t-1 -26.5t-2 -26t-3 -31.5
q-5 -38 -18.5 -78.5t-34 -78t-47 -69t-57.5 -50.5l-25 37q25 17 46 44t37.5 59t27.5 65.5t16 62.5zM702 500l-105 -378h-62l-83 256l-86 -256h-62l-107 378h56l83 -312l85 256q3 10 11.5 14.5t17.5 4t17.5 -5t11.5 -13.5l86 -256l84 312h53z" />
    <glyph glyph-name="uni24B3" unicode="&#x24b3;" horiz-adv-x="900" 
d="M88 227q4 -29 15 -62.5t28 -65.5t38.5 -59.5t45.5 -43.5l-25 -37q-30 19 -56.5 50.5t-47.5 69t-35 78t-18 78.5q-2 18 -3 31.5t-2 26t-1 26.5v34q0 38 0.5 65.5t5.5 62.5q11 78 49.5 146t108.5 116l25 -36q-24 -17 -45.5 -41.5t-38.5 -53t-28.5 -60.5t-15.5 -63
q-5 -34 -6 -66t-1 -70v-36.5t0.5 -29.5t2 -28t4.5 -32zM811 227q3 18 4.5 32t2 28t0.5 29.5v36.5q0 38 -1 70t-6 66q-5 32 -16.5 63.5t-28 60t-37.5 52.5t-46 42l25 36q70 -48 108.5 -116t49.5 -146q5 -35 5.5 -62.5t0.5 -65.5v-34t-1 -26.5t-2 -26t-3 -31.5
q-5 -38 -18.5 -78.5t-34 -78t-47 -69t-57.5 -50.5l-25 37q25 17 46 44t37.5 59t27.5 65.5t16 62.5zM280 153l136 190l-131 188h62l101 -148l102 148h64l-132 -188l137 -190h-63l-105 151l-108 -151h-63z" />
    <glyph glyph-name="uni24B4" unicode="&#x24b4;" horiz-adv-x="900" 
d="M88 227q4 -29 15 -62.5t28 -65.5t38.5 -59.5t45.5 -43.5l-25 -37q-30 19 -56.5 50.5t-47.5 69t-35 78t-18 78.5q-2 18 -3 31.5t-2 26t-1 26.5v34q0 38 0.5 65.5t5.5 62.5q11 78 49.5 146t108.5 116l25 -36q-24 -17 -45.5 -41.5t-38.5 -53t-28.5 -60.5t-15.5 -63
q-5 -34 -6 -66t-1 -70v-36.5t0.5 -29.5t2 -28t4.5 -32zM811 227q3 18 4.5 32t2 28t0.5 29.5v36.5q0 38 -1 70t-6 66q-5 32 -16.5 63.5t-28 60t-37.5 52.5t-46 42l25 36q70 -48 108.5 -116t49.5 -146q5 -35 5.5 -62.5t0.5 -65.5v-34t-1 -26.5t-2 -26t-3 -31.5
q-5 -38 -18.5 -78.5t-34 -78t-47 -69t-57.5 -50.5l-25 37q25 17 46 44t37.5 59t27.5 65.5t16 62.5zM422 202l-136 365h62l103 -290l109 290h64l-203 -524h-58z" />
    <glyph glyph-name="uni24B5" unicode="&#x24b5;" horiz-adv-x="900" 
d="M88 227q4 -29 15 -62.5t28 -65.5t38.5 -59.5t45.5 -43.5l-25 -37q-30 19 -56.5 50.5t-47.5 69t-35 78t-18 78.5q-2 18 -3 31.5t-2 26t-1 26.5v34q0 38 0.5 65.5t5.5 62.5q11 78 49.5 146t108.5 116l25 -36q-24 -17 -45.5 -41.5t-38.5 -53t-28.5 -60.5t-15.5 -63
q-5 -34 -6 -66t-1 -70v-36.5t0.5 -29.5t2 -28t4.5 -32zM811 227q3 18 4.5 32t2 28t0.5 29.5v36.5q0 38 -1 70t-6 66q-5 32 -16.5 63.5t-28 60t-37.5 52.5t-46 42l25 36q70 -48 108.5 -116t49.5 -146q5 -35 5.5 -62.5t0.5 -65.5v-34t-1 -26.5t-2 -26t-3 -31.5
q-5 -38 -18.5 -78.5t-34 -78t-47 -69t-57.5 -50.5l-25 37q25 17 46 44t37.5 59t27.5 65.5t16 62.5zM586 211v-48h-272v53l201 277h-190v48h251v-53l-200 -277h210z" />
    <glyph glyph-name="uni24D0" unicode="&#x24d0;" horiz-adv-x="920" 
d="M450 768q88 0 165.5 -33.5t135 -91t91 -135t33.5 -165.5t-33.5 -165.5t-91 -135t-135 -91t-165.5 -33.5t-165.5 33.5t-135 91t-91 135t-33.5 165.5t33.5 165.5t91 135t135 91t165.5 33.5zM450 719q-77 0 -145 -29.5t-118.5 -80.5t-80 -119.5t-29.5 -146.5t29.5 -146.5
t80 -119.5t118.5 -80.5t145 -29.5t145 29.5t118.5 80.5t80 119.5t29.5 146.5t-29.5 146.5t-80 119.5t-118.5 80.5t-145 29.5zM587 170q-37 -11 -74.5 -17.5t-85.5 -6.5q-66 0 -106.5 32t-40.5 86v25q0 31 13 53t34.5 36t49.5 20t58 6h93v25q0 29 -19 47.5t-55 18.5
q-20 0 -34.5 -1t-27.5 -4t-26.5 -7.5t-32.5 -11.5l-18 44q33 14 65 20.5t77 6.5q69 0 99.5 -29.5t30.5 -83.5v-259zM428 193q29 0 52.5 2t47.5 8v153h-90q-42 0 -70.5 -16t-28.5 -54v-8q0 -38 25.5 -61.5t63.5 -23.5z" />
    <glyph glyph-name="uni24D1" unicode="&#x24d1;" horiz-adv-x="900" 
d="M450 768q88 0 165.5 -33.5t135 -91t91 -135t33.5 -165.5t-33.5 -165.5t-91 -135t-135 -91t-165.5 -33.5t-165.5 33.5t-135 91t-91 135t-33.5 165.5t33.5 165.5t91 135t135 91t165.5 33.5zM450 719q-77 0 -145 -29.5t-118.5 -80.5t-80 -119.5t-29.5 -146.5t29.5 -146.5
t80 -119.5t118.5 -80.5t145 -29.5t145 29.5t118.5 80.5t80 119.5t29.5 146.5t-29.5 146.5t-80 119.5t-118.5 80.5t-145 29.5zM482 452q73 0 111 -40t38 -139v-36q0 -99 -37.5 -140t-111.5 -41q-56 0 -95 8t-75 21v541h59v-203q43 29 111 29zM572 273q0 73 -21 102.5
t-69 29.5q-43 0 -73 -13t-38 -31v-244q33 -13 111 -13q48 0 69 28.5t21 104.5v36z" />
    <glyph glyph-name="uni24D2" unicode="&#x24d2;" horiz-adv-x="900" 
d="M450 200q29 0 53.5 3t59.5 11l11 -42q-39 -11 -67.5 -15t-57.5 -4q-50 0 -83 11.5t-53 34t-28 55t-8 74.5v44q0 41 8 74t28 56t53 35t83 12q24 0 52 -3t66 -10l-13 -48q-56 13 -105 13q-33 0 -55 -8.5t-35 -25t-18 -41t-5 -56.5v-39q0 -33 5 -57.5t18 -41t35 -24.5t56 -8
zM450 768q88 0 165.5 -33.5t135 -91t91 -135t33.5 -165.5t-33.5 -165.5t-91 -135t-135 -91t-165.5 -33.5t-165.5 33.5t-135 91t-91 135t-33.5 165.5t33.5 165.5t91 135t135 91t165.5 33.5zM450 719q-77 0 -145 -29.5t-118.5 -80.5t-80 -119.5t-29.5 -146.5t29.5 -146.5
t80 -119.5t118.5 -80.5t145 -29.5t145 29.5t118.5 80.5t80 119.5t29.5 146.5t-29.5 146.5t-80 119.5t-118.5 80.5t-145 29.5z" />
    <glyph glyph-name="uni24D3" unicode="&#x24d3;" horiz-adv-x="900" 
d="M450 768q88 0 165.5 -33.5t135 -91t91 -135t33.5 -165.5t-33.5 -165.5t-91 -135t-135 -91t-165.5 -33.5t-165.5 33.5t-135 91t-91 135t-33.5 165.5t33.5 165.5t91 135t135 91t165.5 33.5zM450 719q-77 0 -145 -29.5t-118.5 -80.5t-80 -119.5t-29.5 -146.5t29.5 -146.5
t80 -119.5t118.5 -80.5t145 -29.5t145 29.5t118.5 80.5t80 119.5t29.5 146.5t-29.5 146.5t-80 119.5t-118.5 80.5t-145 29.5zM407 457q64 0 105 -28v202h59v-541q-32 -11 -70.5 -20t-93.5 -9q-75 0 -115 45t-40 136v36q0 94 41.5 136.5t113.5 42.5zM311 242q0 -69 24 -101
t72 -32q38 0 64.5 4t40.5 9v241q-8 19 -35.5 33t-69.5 14q-96 0 -96 -132v-36z" />
    <glyph glyph-name="uni24D4" unicode="&#x24d4;" horiz-adv-x="900" 
d="M343 361h203v33q0 99 -104 99q-48 0 -73.5 -24t-25.5 -75v-33zM448 191q22 0 38.5 1t30.5 3.5t28 7t31 11.5l14 -44q-32 -15 -64.5 -20.5t-77.5 -5.5q-35 0 -65 11t-52 31.5t-34.5 50.5t-12.5 69v73q0 79 42.5 120t115.5 41q43 0 74 -12t50.5 -33t28.5 -49t9 -59v-24
q0 -24 -11.5 -36.5t-40.5 -12.5h-209v-15q0 -29 10 -49t25.5 -33.5t34 -19.5t35.5 -6zM450 768q88 0 165.5 -33.5t135 -91t91 -135t33.5 -165.5t-33.5 -165.5t-91 -135t-135 -91t-165.5 -33.5t-165.5 33.5t-135 91t-91 135t-33.5 165.5t33.5 165.5t91 135t135 91t165.5 33.5
zM450 719q-77 0 -145 -29.5t-118.5 -80.5t-80 -119.5t-29.5 -146.5t29.5 -146.5t80 -119.5t118.5 -80.5t145 -29.5t145 29.5t118.5 80.5t80 119.5t29.5 146.5t-29.5 146.5t-80 119.5t-118.5 80.5t-145 29.5z" />
    <glyph glyph-name="uni24D5" unicode="&#x24d5;" horiz-adv-x="900" 
d="M556 361h-117v-297h-59v297h-45v48h45v103q0 51 28.5 84t86.5 33q20 0 40.5 -3.5t36.5 -10.5l-16 -43q-27 10 -61 10q-17 0 -27.5 -6.5t-17 -16.5t-9 -22.5t-2.5 -24.5v-103h117v-48zM450 768q88 0 165.5 -33.5t135 -91t91 -135t33.5 -165.5t-33.5 -165.5t-91 -135
t-135 -91t-165.5 -33.5t-165.5 33.5t-135 91t-91 135t-33.5 165.5t33.5 165.5t91 135t135 91t165.5 33.5zM450 719q-77 0 -145 -29.5t-118.5 -80.5t-80 -119.5t-29.5 -146.5t29.5 -146.5t80 -119.5t118.5 -80.5t145 -29.5t145 29.5t118.5 80.5t80 119.5t29.5 146.5
t-29.5 146.5t-80 119.5t-118.5 80.5t-145 29.5z" />
    <glyph glyph-name="uni24D6" unicode="&#x24d6;" horiz-adv-x="900" 
d="M450 768q88 0 165.5 -33.5t135 -91t91 -135t33.5 -165.5t-33.5 -165.5t-91 -135t-135 -91t-165.5 -33.5t-165.5 33.5t-135 91t-91 135t-33.5 165.5t33.5 165.5t91 135t135 91t165.5 33.5zM450 719q-77 0 -145 -29.5t-118.5 -80.5t-80 -119.5t-29.5 -146.5t29.5 -146.5
t80 -119.5t118.5 -80.5t145 -29.5t145 29.5t118.5 80.5t80 119.5t29.5 146.5t-29.5 146.5t-80 119.5t-118.5 80.5t-145 29.5zM597 599v-383q0 -66 -39 -109t-125 -43q-35 0 -65 5.5t-64 22.5l16 43q29 -14 52.5 -19t54.5 -5q18 0 38 4t36 15t26.5 29.5t10.5 48.5v29
q-20 -12 -45 -19t-51 -7q-82 0 -123 49t-41 143v13q0 191 164 191q29 0 52.5 -8t43.5 -20v20h59zM337 403q0 -70 23 -107t82 -37q26 0 54 9.5t42 29.5v224q-18 19 -44 28t-52 9q-59 0 -82 -38.5t-23 -104.5v-13z" />
    <glyph glyph-name="uni24D7" unicode="&#x24d7;" horiz-adv-x="900" 
d="M450 768q88 0 165.5 -33.5t135 -91t91 -135t33.5 -165.5t-33.5 -165.5t-91 -135t-135 -91t-165.5 -33.5t-165.5 33.5t-135 91t-91 135t-33.5 165.5t33.5 165.5t91 135t135 91t165.5 33.5zM450 719q-77 0 -145 -29.5t-118.5 -80.5t-80 -119.5t-29.5 -146.5t29.5 -146.5
t80 -119.5t118.5 -80.5t145 -29.5t145 29.5t118.5 80.5t80 119.5t29.5 146.5t-29.5 146.5t-80 119.5t-118.5 80.5t-145 29.5zM561 73v236q0 48 -19.5 75t-65.5 27q-27 0 -51 -10t-50 -24v-304h-59v560h59v-203q24 14 50 21.5t58 7.5q69 0 103 -37.5t34 -103.5v-245h-59z" />
    <glyph glyph-name="uni24D8" unicode="&#x24d8;" horiz-adv-x="900" 
d="M418 618h63v-91h-63v91zM479 446v-378h-59v378h59zM450 768q88 0 165.5 -33.5t135 -91t91 -135t33.5 -165.5t-33.5 -165.5t-91 -135t-135 -91t-165.5 -33.5t-165.5 33.5t-135 91t-91 135t-33.5 165.5t33.5 165.5t91 135t135 91t165.5 33.5zM450 719q-77 0 -145 -29.5
t-118.5 -80.5t-80 -119.5t-29.5 -146.5t29.5 -146.5t80 -119.5t118.5 -80.5t145 -29.5t145 29.5t118.5 80.5t80 119.5t29.5 146.5t-29.5 146.5t-80 119.5t-118.5 80.5t-145 29.5z" />
    <glyph glyph-name="uni24D9" unicode="&#x24d9;" horiz-adv-x="900" 
d="M444 494h58v-339q0 -63 -24.5 -98t-81.5 -35q-18 0 -33 2.5t-30 4.5l9 44q17 -2 24.5 -3.5t24.5 -1.5q29 0 41 20t12 52v354zM442 666h62v-91h-62v91zM450 768q88 0 165.5 -33.5t135 -91t91 -135t33.5 -165.5t-33.5 -165.5t-91 -135t-135 -91t-165.5 -33.5t-165.5 33.5
t-135 91t-91 135t-33.5 165.5t33.5 165.5t91 135t135 91t165.5 33.5zM450 719q-77 0 -145 -29.5t-118.5 -80.5t-80 -119.5t-29.5 -146.5t29.5 -146.5t80 -119.5t118.5 -80.5t145 -29.5t145 29.5t118.5 80.5t80 119.5t29.5 146.5t-29.5 146.5t-80 119.5t-118.5 80.5
t-145 29.5z" />
    <glyph glyph-name="uni24DA" unicode="&#x24da;" horiz-adv-x="900" 
d="M450 768q88 0 165.5 -33.5t135 -91t91 -135t33.5 -165.5t-33.5 -165.5t-91 -135t-135 -91t-165.5 -33.5t-165.5 33.5t-135 91t-91 135t-33.5 165.5t33.5 165.5t91 135t135 91t165.5 33.5zM450 719q-77 0 -145 -29.5t-118.5 -80.5t-80 -119.5t-29.5 -146.5t29.5 -146.5
t80 -119.5t118.5 -80.5t145 -29.5t145 29.5t118.5 80.5t80 119.5t29.5 146.5t-29.5 146.5t-80 119.5t-118.5 80.5t-145 29.5zM332 643h59v-356q45 48 85 91.5t75 82.5h63l-132 -148q17 -26 37 -56.5l40 -61t38 -59.5t32 -53h-65q-29 48 -61 98t-59 90l-53 -58v-130h-59v560z
" />
    <glyph glyph-name="uni24DB" unicode="&#x24db;" horiz-adv-x="900" 
d="M479 623v-560h-59v560h59zM450 768q88 0 165.5 -33.5t135 -91t91 -135t33.5 -165.5t-33.5 -165.5t-91 -135t-135 -91t-165.5 -33.5t-165.5 33.5t-135 91t-91 135t-33.5 165.5t33.5 165.5t91 135t135 91t165.5 33.5zM450 719q-77 0 -145 -29.5t-118.5 -80.5t-80 -119.5
t-29.5 -146.5t29.5 -146.5t80 -119.5t118.5 -80.5t145 -29.5t145 29.5t118.5 80.5t80 119.5t29.5 146.5t-29.5 146.5t-80 119.5t-118.5 80.5t-145 29.5z" />
    <glyph glyph-name="uni24DC" unicode="&#x24dc;" horiz-adv-x="900" 
d="M450 768q88 0 165.5 -33.5t135 -91t91 -135t33.5 -165.5t-33.5 -165.5t-91 -135t-135 -91t-165.5 -33.5t-165.5 33.5t-135 91t-91 135t-33.5 165.5t33.5 165.5t91 135t135 91t165.5 33.5zM450 719q-77 0 -145 -29.5t-118.5 -80.5t-80 -119.5t-29.5 -146.5t29.5 -146.5
t80 -119.5t118.5 -80.5t145 -29.5t145 29.5t118.5 80.5t80 119.5t29.5 146.5t-29.5 146.5t-80 119.5t-118.5 80.5t-145 29.5zM431 154v244q0 42 -12 68t-47 26q-27 0 -47.5 -9t-46.5 -29v-300h-59v378h59v-25q23 15 48.5 24t52.5 9q64 0 91 -44q24 20 53.5 32t61.5 12
q60 0 85.5 -34t25.5 -100v-252h-59v244q0 42 -12 68t-46 26q-27 0 -47.5 -8.5t-46.5 -28.5q5 -25 5 -49v-252h-59z" />
    <glyph glyph-name="uni24DD" unicode="&#x24dd;" horiz-adv-x="900" 
d="M450 768q88 0 165.5 -33.5t135 -91t91 -135t33.5 -165.5t-33.5 -165.5t-91 -135t-135 -91t-165.5 -33.5t-165.5 33.5t-135 91t-91 135t-33.5 165.5t33.5 165.5t91 135t135 91t165.5 33.5zM450 719q-77 0 -145 -29.5t-118.5 -80.5t-80 -119.5t-29.5 -146.5t29.5 -146.5
t80 -119.5t118.5 -80.5t145 -29.5t145 29.5t118.5 80.5t80 119.5t29.5 146.5t-29.5 146.5t-80 119.5t-118.5 80.5t-145 29.5zM553 160v237q0 41 -19.5 71t-65.5 30q-26 0 -53 -10t-53 -27v-301h-59v378h59v-27q50 35 113 35q69 0 103 -37.5t34 -103.5v-245h-59z" />
    <glyph glyph-name="uni24DE" unicode="&#x24de;" horiz-adv-x="900" 
d="M559 372q0 60 -25 94t-85 34t-84.5 -34t-24.5 -94v-47q0 -59 25 -94t84 -35q60 0 85 34.5t25 94.5v47zM449 547q81 0 125 -45t44 -130v-47q0 -88 -43.5 -132.5t-125.5 -44.5q-81 0 -124.5 44.5t-43.5 132.5v47q0 85 44.5 130t123.5 45zM450 768q88 0 165.5 -33.5t135 -91
t91 -135t33.5 -165.5t-33.5 -165.5t-91 -135t-135 -91t-165.5 -33.5t-165.5 33.5t-135 91t-91 135t-33.5 165.5t33.5 165.5t91 135t135 91t165.5 33.5zM450 719q-77 0 -145 -29.5t-118.5 -80.5t-80 -119.5t-29.5 -146.5t29.5 -146.5t80 -119.5t118.5 -80.5t145 -29.5
t145 29.5t118.5 80.5t80 119.5t29.5 146.5t-29.5 146.5t-80 119.5t-118.5 80.5t-145 29.5z" />
    <glyph glyph-name="uni24DF" unicode="&#x24df;" horiz-adv-x="900" 
d="M450 768q88 0 165.5 -33.5t135 -91t91 -135t33.5 -165.5t-33.5 -165.5t-91 -135t-135 -91t-165.5 -33.5t-165.5 33.5t-135 91t-91 135t-33.5 165.5t33.5 165.5t91 135t135 91t165.5 33.5zM450 719q-77 0 -145 -29.5t-118.5 -80.5t-80 -119.5t-29.5 -146.5t29.5 -146.5
t80 -119.5t118.5 -80.5t145 -29.5t145 29.5t118.5 80.5t80 119.5t29.5 146.5t-29.5 146.5t-80 119.5t-118.5 80.5t-145 29.5zM486 606q70 0 109.5 -41t39.5 -138v-36q0 -96 -39 -138.5t-110 -42.5q-34 0 -62 7.5t-49 19.5v-162h-59v505q42 12 80.5 19t89.5 7zM576 427
q0 69 -23.5 100.5t-66.5 31.5q-66 0 -111 -12v-245q8 -19 38 -31.5t73 -12.5t66.5 30.5t23.5 102.5v36z" />
    <glyph glyph-name="uni24E0" unicode="&#x24e0;" horiz-adv-x="900" 
d="M450 768q88 0 165.5 -33.5t135 -91t91 -135t33.5 -165.5t-33.5 -165.5t-91 -135t-135 -91t-165.5 -33.5t-165.5 33.5t-135 91t-91 135t-33.5 165.5t33.5 165.5t91 135t135 91t165.5 33.5zM450 719q-77 0 -145 -29.5t-118.5 -80.5t-80 -119.5t-29.5 -146.5t29.5 -146.5
t80 -119.5t118.5 -80.5t145 -29.5t145 29.5t118.5 80.5t80 119.5t29.5 146.5t-29.5 146.5t-80 119.5t-118.5 80.5t-145 29.5zM410 601q92 0 167 -22v-509h-59v162q-21 -12 -48.5 -19.5t-59.5 -7.5q-71 0 -111.5 42.5t-40.5 138.5v36q0 97 41 138t111 41zM317 386
q0 -72 25 -102.5t68 -30.5t71.5 13.5t36.5 32.5v245q-41 10 -108 10q-43 0 -68 -31.5t-25 -100.5v-36z" />
    <glyph glyph-name="uni24E1" unicode="&#x24e1;" horiz-adv-x="900" 
d="M450 768q88 0 165.5 -33.5t135 -91t91 -135t33.5 -165.5t-33.5 -165.5t-91 -135t-135 -91t-165.5 -33.5t-165.5 33.5t-135 91t-91 135t-33.5 165.5t33.5 165.5t91 135t135 91t165.5 33.5zM450 719q-77 0 -145 -29.5t-118.5 -80.5t-80 -119.5t-29.5 -146.5t29.5 -146.5
t80 -119.5t118.5 -80.5t145 -29.5t145 29.5t118.5 80.5t80 119.5t29.5 146.5t-29.5 146.5t-80 119.5t-118.5 80.5t-145 29.5zM578 489q-8 3 -20 4.5t-24 1.5q-20 0 -49 -8.5t-54 -35.5v-294h-59v378h59v-30q21 20 49.5 29t61.5 9q11 0 24 -2t22 -4z" />
    <glyph glyph-name="uni24E2" unicode="&#x24e2;" horiz-adv-x="900" 
d="M442 545q32 0 60 -3t60 -15l-18 -47q-31 12 -51.5 15.5t-50.5 1.5q-38 -2 -55 -14t-17 -36q0 -21 11 -35t41 -23l69 -21q51 -15 74.5 -43t23.5 -66q0 -54 -38.5 -82t-102.5 -28q-35 0 -70.5 7t-65.5 21l16 48q32 -14 59.5 -21t60.5 -6q36 0 60 16t24 45q0 45 -54 62
l-69 20q-51 14 -74.5 38.5t-23.5 67.5q0 18 7.5 36t23.5 31.5t40.5 22t59.5 8.5zM450 768q88 0 165.5 -33.5t135 -91t91 -135t33.5 -165.5t-33.5 -165.5t-91 -135t-135 -91t-165.5 -33.5t-165.5 33.5t-135 91t-91 135t-33.5 165.5t33.5 165.5t91 135t135 91t165.5 33.5z
M450 719q-77 0 -145 -29.5t-118.5 -80.5t-80 -119.5t-29.5 -146.5t29.5 -146.5t80 -119.5t118.5 -80.5t145 -29.5t145 29.5t118.5 80.5t80 119.5t29.5 146.5t-29.5 146.5t-80 119.5t-118.5 80.5t-145 29.5z" />
    <glyph glyph-name="uni24E3" unicode="&#x24e3;" horiz-adv-x="900" 
d="M569 82q-16 -6 -31.5 -11t-35.5 -5q-58 0 -81.5 24.5t-23.5 75.5v242h-70v48h70v165h59v-165h101v-48h-101v-242q0 -25 8.5 -38.5t37.5 -13.5q28 0 57 10zM450 768q88 0 165.5 -33.5t135 -91t91 -135t33.5 -165.5t-33.5 -165.5t-91 -135t-135 -91t-165.5 -33.5
t-165.5 33.5t-135 91t-91 135t-33.5 165.5t33.5 165.5t91 135t135 91t165.5 33.5zM450 719q-77 0 -145 -29.5t-118.5 -80.5t-80 -119.5t-29.5 -146.5t29.5 -146.5t80 -119.5t118.5 -80.5t145 -29.5t145 29.5t118.5 80.5t80 119.5t29.5 146.5t-29.5 146.5t-80 119.5
t-118.5 80.5t-145 29.5z" />
    <glyph glyph-name="uni24E4" unicode="&#x24e4;" horiz-adv-x="900" 
d="M450 768q88 0 165.5 -33.5t135 -91t91 -135t33.5 -165.5t-33.5 -165.5t-91 -135t-135 -91t-165.5 -33.5t-165.5 33.5t-135 91t-91 135t-33.5 165.5t33.5 165.5t91 135t135 91t165.5 33.5zM450 719q-77 0 -145 -29.5t-118.5 -80.5t-80 -119.5t-29.5 -146.5t29.5 -146.5
t80 -119.5t118.5 -80.5t145 -29.5t145 29.5t118.5 80.5t80 119.5t29.5 146.5t-29.5 146.5t-80 119.5t-118.5 80.5t-145 29.5zM349 518v-241q0 -48 22 -74t68 -26q29 0 54.5 3t47.5 12v326h59v-360q-42 -16 -80.5 -22.5t-87.5 -6.5q-69 0 -105.5 34t-36.5 106v249h59z" />
    <glyph glyph-name="uni24E5" unicode="&#x24e5;" horiz-adv-x="900" 
d="M413 137l-136 378h60l115 -330l114 330h56l-132 -378h-77zM450 768q88 0 165.5 -33.5t135 -91t91 -135t33.5 -165.5t-33.5 -165.5t-91 -135t-135 -91t-165.5 -33.5t-165.5 33.5t-135 91t-91 135t-33.5 165.5t33.5 165.5t91 135t135 91t165.5 33.5zM450 719
q-77 0 -145 -29.5t-118.5 -80.5t-80 -119.5t-29.5 -146.5t29.5 -146.5t80 -119.5t118.5 -80.5t145 -29.5t145 29.5t118.5 80.5t80 119.5t29.5 146.5t-29.5 146.5t-80 119.5t-118.5 80.5t-145 29.5z" />
    <glyph glyph-name="uni24E6" unicode="&#x24e6;" horiz-adv-x="900" 
d="M702 500l-105 -378h-62l-83 256l-86 -256h-62l-107 378h56l83 -312l85 256q3 10 11.5 14.5t17.5 4t17.5 -5t11.5 -13.5l86 -256l84 312h53zM450 768q88 0 165.5 -33.5t135 -91t91 -135t33.5 -165.5t-33.5 -165.5t-91 -135t-135 -91t-165.5 -33.5t-165.5 33.5t-135 91
t-91 135t-33.5 165.5t33.5 165.5t91 135t135 91t165.5 33.5zM450 719q-77 0 -145 -29.5t-118.5 -80.5t-80 -119.5t-29.5 -146.5t29.5 -146.5t80 -119.5t118.5 -80.5t145 -29.5t145 29.5t118.5 80.5t80 119.5t29.5 146.5t-29.5 146.5t-80 119.5t-118.5 80.5t-145 29.5z" />
    <glyph glyph-name="uni24E7" unicode="&#x24e7;" horiz-adv-x="900" 
d="M280 153l136 190l-131 188h62l101 -148l102 148h64l-132 -188l137 -190h-63l-105 151l-108 -151h-63zM450 768q88 0 165.5 -33.5t135 -91t91 -135t33.5 -165.5t-33.5 -165.5t-91 -135t-135 -91t-165.5 -33.5t-165.5 33.5t-135 91t-91 135t-33.5 165.5t33.5 165.5t91 135
t135 91t165.5 33.5zM450 719q-77 0 -145 -29.5t-118.5 -80.5t-80 -119.5t-29.5 -146.5t29.5 -146.5t80 -119.5t118.5 -80.5t145 -29.5t145 29.5t118.5 80.5t80 119.5t29.5 146.5t-29.5 146.5t-80 119.5t-118.5 80.5t-145 29.5z" />
    <glyph glyph-name="uni24E8" unicode="&#x24e8;" horiz-adv-x="900" 
d="M450 768q88 0 165.5 -33.5t135 -91t91 -135t33.5 -165.5t-33.5 -165.5t-91 -135t-135 -91t-165.5 -33.5t-165.5 33.5t-135 91t-91 135t-33.5 165.5t33.5 165.5t91 135t135 91t165.5 33.5zM450 719q-77 0 -145 -29.5t-118.5 -80.5t-80 -119.5t-29.5 -146.5t29.5 -146.5
t80 -119.5t118.5 -80.5t145 -29.5t145 29.5t118.5 80.5t80 119.5t29.5 146.5t-29.5 146.5t-80 119.5t-118.5 80.5t-145 29.5zM422 202l-136 365h62l103 -290l109 290h64l-203 -524h-58z" />
    <glyph glyph-name="uni24E9" unicode="&#x24e9;" horiz-adv-x="900" 
d="M586 211v-48h-272v53l201 277h-190v48h251v-53l-200 -277h210zM450 768q88 0 165.5 -33.5t135 -91t91 -135t33.5 -165.5t-33.5 -165.5t-91 -135t-135 -91t-165.5 -33.5t-165.5 33.5t-135 91t-91 135t-33.5 165.5t33.5 165.5t91 135t135 91t165.5 33.5zM450 719
q-77 0 -145 -29.5t-118.5 -80.5t-80 -119.5t-29.5 -146.5t29.5 -146.5t80 -119.5t118.5 -80.5t145 -29.5t145 29.5t118.5 80.5t80 119.5t29.5 146.5t-29.5 146.5t-80 119.5t-118.5 80.5t-145 29.5z" />
    <glyph glyph-name="SF100000" unicode="&#x2500;" horiz-adv-x="920" 
d="M0 284v36h920v-36h-920z" />
    <glyph glyph-name="uni2501" unicode="&#x2501;" horiz-adv-x="920" 
d="M0 265v72h920v-72h-920z" />
    <glyph glyph-name="SF110000" unicode="&#x2502;" horiz-adv-x="920" 
d="M431 -200v1000h38v-1000h-38z" />
    <glyph glyph-name="uni2503" unicode="&#x2503;" horiz-adv-x="920" 
d="M412 -200v1000h76v-1000h-76z" />
    <glyph glyph-name="SF010000" unicode="&#x250c;" horiz-adv-x="920" 
d="M920 284h-441v-484h-38v520h479v-36z" />
    <glyph glyph-name="uni250D" unicode="&#x250d;" horiz-adv-x="920" 
d="M920 265h-441v-465h-38v537h479v-72z" />
    <glyph glyph-name="uni250E" unicode="&#x250e;" horiz-adv-x="920" 
d="M920 284h-422v-484h-76v520h498v-36z" />
    <glyph glyph-name="uni250F" unicode="&#x250f;" horiz-adv-x="920" 
d="M422 -200v537h498v-72h-422v-465h-76z" />
    <glyph glyph-name="SF030000" unicode="&#x2510;" horiz-adv-x="920" 
d="M441 -200v484h-441v36h479v-520h-38z" />
    <glyph glyph-name="uni2511" unicode="&#x2511;" horiz-adv-x="920" 
d="M441 -200v465h-441v72h479v-537h-38z" />
    <glyph glyph-name="uni2512" unicode="&#x2512;" horiz-adv-x="920" 
d="M422 -200v484h-422v36h498v-520h-76z" />
    <glyph glyph-name="uni2513" unicode="&#x2513;" horiz-adv-x="920" 
d="M0 337h498v-537h-76v465h-422v72z" />
    <glyph glyph-name="SF020000" unicode="&#x2514;" horiz-adv-x="920" 
d="M479 800v-480h441v-36h-479v516h38z" />
    <glyph glyph-name="uni2515" unicode="&#x2515;" horiz-adv-x="920" 
d="M479 800v-463h441v-72h-479v535h38z" />
    <glyph glyph-name="uni2516" unicode="&#x2516;" horiz-adv-x="920" 
d="M498 800v-480h422v-36h-498v516h76z" />
    <glyph glyph-name="uni2517" unicode="&#x2517;" horiz-adv-x="920" 
d="M920 265h-498v535h76v-463h422v-72z" />
    <glyph glyph-name="SF040000" unicode="&#x2518;" horiz-adv-x="920" 
d="M0 320h441v480h38v-516h-479v36z" />
    <glyph glyph-name="uni2519" unicode="&#x2519;" horiz-adv-x="920" 
d="M0 337h441v463h38v-535h-479v72z" />
    <glyph glyph-name="uni251A" unicode="&#x251a;" horiz-adv-x="920" 
d="M0 320h422v480h76v-516h-498v36z" />
    <glyph glyph-name="uni251B" unicode="&#x251b;" horiz-adv-x="920" 
d="M498 800v-535h-498v72h422v463h76z" />
    <glyph glyph-name="SF080000" unicode="&#x251c;" horiz-adv-x="920" 
d="M479 801v-481h441v-36h-441v-484h-38v1001h38z" />
    <glyph glyph-name="uni251D" unicode="&#x251d;" horiz-adv-x="920" 
d="M479 800v-463h441v-72h-441v-465h-38v1000h38z" />
    <glyph glyph-name="uni251E" unicode="&#x251e;" horiz-adv-x="920" 
d="M498 800v-480h422v-36h-441v-484h-38v500h-19v500h76z" />
    <glyph glyph-name="uni251F" unicode="&#x251f;" horiz-adv-x="920" 
d="M479 800v-480h441v-36h-422v-443h-76v461h19v498h38z" />
    <glyph glyph-name="uni2520" unicode="&#x2520;" horiz-adv-x="920" 
d="M498 -200h-76v1000h76v-480h422v-36h-422v-484z" />
    <glyph glyph-name="uni2521" unicode="&#x2521;" horiz-adv-x="920" 
d="M498 800v-463h422v-72h-441v-465h-38v501h-19v499h76z" />
    <glyph glyph-name="uni2522" unicode="&#x2522;" horiz-adv-x="920" 
d="M479 800v-463h441v-72h-422v-465h-76v501h19v499h38z" />
    <glyph glyph-name="uni2523" unicode="&#x2523;" horiz-adv-x="920" 
d="M498 -200h-76v1000h76v-463h422v-72h-422v-465z" />
    <glyph glyph-name="SF090000" unicode="&#x2524;" horiz-adv-x="920" 
d="M441 -200v484h-441v36h441v480h38v-1000h-38z" />
    <glyph glyph-name="uni2525" unicode="&#x2525;" horiz-adv-x="920" 
d="M441 -200v465h-441v72h441v463h38v-1000h-38z" />
    <glyph glyph-name="uni2526" unicode="&#x2526;" horiz-adv-x="920" 
d="M441 -200v484h-441v36h422v480h76v-498h-19v-502h-38z" />
    <glyph glyph-name="uni2527" unicode="&#x2527;" horiz-adv-x="920" 
d="M422 -200v484h-422v36h441v480h38v-498h19v-502h-76z" />
    <glyph glyph-name="uni2528" unicode="&#x2528;" horiz-adv-x="920" 
d="M498 800v-1000h-76v484h-422v36h422v480h76z" />
    <glyph glyph-name="uni2529" unicode="&#x2529;" horiz-adv-x="920" 
d="M441 -200v465h-441v72h422v463h76v-499h-19v-501h-38z" />
    <glyph glyph-name="uni252A" unicode="&#x252a;" horiz-adv-x="920" 
d="M422 -200v465h-422v72h441v463h38v-499h19v-501h-76z" />
    <glyph glyph-name="uni252B" unicode="&#x252b;" horiz-adv-x="920" 
d="M498 800v-1000h-76v465h-422v72h422v463h76z" />
    <glyph glyph-name="SF060000" unicode="&#x252c;" horiz-adv-x="920" 
d="M920 284h-441v-484h-38v484h-441v36h920v-36z" />
    <glyph glyph-name="uni252D" unicode="&#x252d;" horiz-adv-x="920" 
d="M920 284h-441v-484h-38v465h-441v72h460v-17h460v-36z" />
    <glyph glyph-name="uni252E" unicode="&#x252e;" horiz-adv-x="920" 
d="M920 265h-441v-465h-38v484h-441v36h460v17h460v-72z" />
    <glyph glyph-name="uni252F" unicode="&#x252f;" horiz-adv-x="920" 
d="M479 -200h-38v465h-441v72h920v-72h-441v-465z" />
    <glyph glyph-name="uni2530" unicode="&#x2530;" horiz-adv-x="920" 
d="M920 284h-422v-484h-76v484h-422v36h920v-36z" />
    <glyph glyph-name="uni2531" unicode="&#x2531;" horiz-adv-x="920" 
d="M920 284h-422v-484h-76v465h-422v72h460v-17h460v-36z" />
    <glyph glyph-name="uni2532" unicode="&#x2532;" horiz-adv-x="920" 
d="M422 -200v484h-422v36h460v17h460v-72h-422v-465h-76z" />
    <glyph glyph-name="uni2533" unicode="&#x2533;" horiz-adv-x="920" 
d="M498 -200h-76v465h-422v72h920v-72h-422v-465z" />
    <glyph glyph-name="SF070000" unicode="&#x2534;" horiz-adv-x="920" 
d="M0 320h441v480h38v-480h441v-36h-920v36z" />
    <glyph glyph-name="uni2535" unicode="&#x2535;" horiz-adv-x="920" 
d="M0 337h441v463h38v-480h441v-36h-460v-19h-460v72z" />
    <glyph glyph-name="uni2536" unicode="&#x2536;" horiz-adv-x="920" 
d="M479 800v-463h441v-72h-460v19h-460v36h441v480h38z" />
    <glyph glyph-name="uni2537" unicode="&#x2537;" horiz-adv-x="920" 
d="M441 337v463h38v-463h441v-72h-920v72h441z" />
    <glyph glyph-name="uni2538" unicode="&#x2538;" horiz-adv-x="920" 
d="M0 320h422v480h76v-480h422v-36h-920v36z" />
    <glyph glyph-name="uni2539" unicode="&#x2539;" horiz-adv-x="920" 
d="M0 337h422v463h76v-480h422v-36h-460v-19h-460v72z" />
    <glyph glyph-name="uni253A" unicode="&#x253a;" horiz-adv-x="920" 
d="M498 800v-463h422v-72h-460v19h-460v36h422v480h76z" />
    <glyph glyph-name="uni253B" unicode="&#x253b;" horiz-adv-x="920" 
d="M422 337v463h76v-463h422v-72h-920v72h422z" />
    <glyph glyph-name="SF050000" unicode="&#x253c;" horiz-adv-x="920" 
d="M441 -200v484h-441v36h441v480h38v-480h441v-36h-441v-484h-38z" />
    <glyph glyph-name="uni253D" unicode="&#x253d;" horiz-adv-x="920" 
d="M441 -200v465h-441v72h441v463h38v-480h441v-36h-441v-484h-38z" />
    <glyph glyph-name="uni253E" unicode="&#x253e;" horiz-adv-x="920" 
d="M441 -200v484h-441v36h441v480h38v-463h441v-72h-441v-465h-38z" />
    <glyph glyph-name="uni253F" unicode="&#x253f;" horiz-adv-x="920" 
d="M441 337v463h38v-463h441v-72h-441v-465h-38v465h-441v72h441z" />
    <glyph glyph-name="uni2540" unicode="&#x2540;" horiz-adv-x="920" 
d="M441 -200v484h-441v36h422v480h76v-480h422v-36h-441v-484h-38z" />
    <glyph glyph-name="uni2541" unicode="&#x2541;" horiz-adv-x="920" 
d="M0 320h441v480h38v-480h441v-36h-422v-484h-76v484h-422v36z" />
    <glyph glyph-name="uni2542" unicode="&#x2542;" horiz-adv-x="920" 
d="M422 -200v484h-422v36h422v480h76v-480h422v-36h-422v-484h-76z" />
    <glyph glyph-name="uni2543" unicode="&#x2543;" horiz-adv-x="920" 
d="M920 284h-441v-484h-38v465h-441v72h422v463h76v-480h422v-36z" />
    <glyph glyph-name="uni2544" unicode="&#x2544;" horiz-adv-x="920" 
d="M441 -200v484h-441v36h422v480h76v-463h422v-72h-441v-465h-38z" />
    <glyph glyph-name="uni2545" unicode="&#x2545;" horiz-adv-x="920" 
d="M479 800v-480h441v-36h-422v-484h-76v465h-422v72h441v463h38z" />
    <glyph glyph-name="uni2546" unicode="&#x2546;" horiz-adv-x="920" 
d="M0 320h441v480h38v-463h441v-72h-422v-465h-76v484h-422v36z" />
    <glyph glyph-name="uni2547" unicode="&#x2547;" horiz-adv-x="920" 
d="M441 -200v465h-441v72h422v463h76v-463h422v-72h-441v-465h-38z" />
    <glyph glyph-name="uni2548" unicode="&#x2548;" horiz-adv-x="920" 
d="M0 337h441v463h38v-463h441v-72h-422v-465h-76v465h-422v72z" />
    <glyph glyph-name="uni2549" unicode="&#x2549;" horiz-adv-x="920" 
d="M920 284h-422v-484h-76v465h-422v72h422v463h76v-480h422v-36z" />
    <glyph glyph-name="uni254A" unicode="&#x254a;" horiz-adv-x="920" 
d="M422 -200v484h-422v36h422v480h76v-463h422v-72h-422v-465h-76z" />
    <glyph glyph-name="uni254B" unicode="&#x254b;" horiz-adv-x="920" 
d="M422 337v463h76v-463h422v-72h-422v-465h-76v465h-422v72h422z" />
    <glyph glyph-name="shade" unicode="&#x2592;" horiz-adv-x="810" 
d="M370 -10v73h69v-73h-69zM581 63h69v-73h-69v73zM544 -10h-69v73h69v-73zM230 -10h-69v73h69v-73zM123 -10h-69v73h69v-73zM332 -10h-66v73h66v-73zM686 63h69v-73h-69v73zM370 95v72h69v-72h-69zM581 167h69v-72h-69v72zM544 95h-69v72h69v-72zM230 95h-69v72h69v-72z
M123 95h-69v72h69v-72zM332 95h-66v72h66v-72zM686 167h69v-72h-69v72zM370 199v70h69v-70h-69zM581 269h69v-70h-69v70zM544 199h-69v70h69v-70zM230 199h-69v70h69v-70zM123 199h-69v70h69v-70zM332 199h-66v70h66v-70zM686 269h69v-70h-69v70zM370 303v74h69v-74h-69z
M581 377h69v-74h-69v74zM544 303h-69v74h69v-74zM230 303h-69v74h69v-74zM123 303h-69v74h69v-74zM332 303h-66v74h66v-74zM686 377h69v-74h-69v74zM370 411v69h69v-69h-69zM581 480h69v-69h-69v69zM544 411h-69v69h69v-69zM230 411h-69v69h69v-69zM123 411h-69v69h69v-69z
M332 411h-66v69h66v-69zM686 480h69v-69h-69v69zM370 513v73h69v-73h-69zM581 586h69v-73h-69v73zM544 513h-69v73h69v-73zM230 513h-69v73h69v-73zM123 513h-69v73h69v-73zM332 513h-66v73h66v-73zM686 586h69v-73h-69v73zM370 618v76h69v-76h-69zM581 694h69v-76h-69v76z
M544 618h-69v76h69v-76zM230 618h-69v76h69v-76zM123 618h-69v76h69v-76zM332 618h-66v76h66v-76zM686 694h69v-76h-69v76z" />
    <glyph glyph-name="filledbox" unicode="&#x25a0;" horiz-adv-x="810" 
d="M54 -12v707h701v-707h-701z" />
    <glyph glyph-name="H22073" unicode="&#x25a1;" horiz-adv-x="810" 
d="M54 -13v708h701v-708h-701zM718 654h-625v-625h625v625z" />
    <glyph glyph-name="uni25A3" unicode="&#x25a3;" horiz-adv-x="810" 
d="M226 159v361h355v-361h-355zM54 -13v708h701v-708h-701zM718 654h-625v-625h625v625z" />
    <glyph glyph-name="uni25A4" unicode="&#x25a4;" horiz-adv-x="810" 
d="M755 695v-706h-701v706h701zM87 28h635v130h-635v-130zM87 194h635v131h-635v-131zM87 362h635v129h-635v-129zM87 529h635v130h-635v-130z" />
    <glyph glyph-name="uni25A5" unicode="&#x25a5;" horiz-adv-x="810" 
d="M54 695h701v-706h-701v706zM722 24v635h-135v-635h135zM554 24v635h-133v-635h133zM386 24v635h-131v-635h131zM221 24v635h-134v-635h134z" />
    <glyph glyph-name="uni25A6" unicode="&#x25a6;" horiz-adv-x="810" 
d="M755 695v-706h-701v706h701zM421 194h133v131h-133v-131zM421 362h133v129h-133v-129zM255 194h131v131h-131v-131zM255 362h131v129h-131v-129zM421 24h133v134h-133v-134zM588 194h134v131h-134v-131zM255 24h131v134h-131v-134zM588 362h134v129h-134v-129zM87 194
h133v131h-133v-131zM554 659h-133v-130h133v130zM588 24h134v134h-134v-134zM87 362h133v129h-133v-129zM386 659h-131v-130h131v130zM87 24h133v134h-133v-134zM722 659h-134v-130h134v130zM87 529h133v130h-133v-130z" />
    <glyph glyph-name="uni25A7" unicode="&#x25a7;" horiz-adv-x="810" 
d="M54 -11v706h701v-706h-701zM722 659h-103l103 -105v105zM722 506l-151 153h-200l351 -351v198zM722 255l-404 404h-200l604 -610v206zM87 637v-209l401 -404h206zM87 378v-201l148 -153h200zM87 129v-105h103z" />
    <glyph glyph-name="uni25A8" unicode="&#x25a8;" horiz-adv-x="810" 
d="M755 695v-706h-701v706h701zM722 130l-103 -106h103v106zM722 377l-351 -353h200l151 154v199zM722 635l-604 -611h200l404 405v206zM694 660h-206l-401 -403v-210zM435 660h-200l-148 -153v-200zM190 660h-103v-106z" />
    <glyph glyph-name="uni25A9" unicode="&#x25a9;" horiz-adv-x="810" 
d="M54 -11v706h701v-706h-701zM277 238l103 104l-103 104l-104 -104zM402 109l104 105l-101 102l-103 -106zM402 574l-100 -100l103 -106l101 102zM532 240l102 102l-102 101l-100 -101zM150 575l-63 -67v-80l61 -61l103 107zM87 176l63 -67l101 101l-103 106l-61 -59v-81z
M487 24h84l61 63l-100 101l-103 -103zM722 506l-64 65l-100 -99l102 -104l62 61v77zM377 85l-100 101l-102 -101l58 -61h86zM128 88l-41 42v-83zM722 633l-41 -38l41 -40v78zM722 129l-41 -41l41 -37v78zM619 24h73l-36 41zM156 62l-38 -38h69zM189 659h-71l38 -38zM122 342
l-35 35v-66zM722 309v68l-36 -36zM400 625l34 34h-61zM434 24l-34 35l-27 -35h61zM659 111l63 66v78l-62 60l-102 -103zM695 659h-79l40 -37zM487 659l-58 -59l103 -104l100 101l-61 62h-84zM277 499l100 102l-59 58h-84l-59 -59zM87 554l41 42l-41 41v-83z" />
    <glyph glyph-name="triagup" unicode="&#x25b2;" horiz-adv-x="810" 
d="M42 105l366 558l360 -558h-726z" />
    <glyph glyph-name="uni25B3" unicode="&#x25b3;" horiz-adv-x="810" 
d="M768 104h-726l368 559zM687 149l-276 433l-289 -433h565z" />
    <glyph glyph-name="uni25B6" unicode="&#x25b6;" horiz-adv-x="810" 
d="M155 -15v725l560 -371z" />
    <glyph glyph-name="uni25B7" unicode="&#x25b7;" horiz-adv-x="810" 
d="M155 -16v726l560 -371zM197 67l433 274l-433 290v-564z" />
    <glyph glyph-name="triagdn" unicode="&#x25bc;" horiz-adv-x="810" 
d="M403 27l-361 560h726z" />
    <glyph glyph-name="uni25BD" unicode="&#x25bd;" horiz-adv-x="810" 
d="M410 27l-368 559h726zM122 542l289 -435l276 435h-565z" />
    <glyph glyph-name="uni25C0" unicode="&#x25c0;" horiz-adv-x="810" 
d="M95 339l560 371v-726z" />
    <glyph glyph-name="uni25C1" unicode="&#x25c1;" horiz-adv-x="810" 
d="M95 339l560 371v-726zM613 631l-433 -290l433 -274v564z" />
    <glyph glyph-name="uni25C6" unicode="&#x25c6;" horiz-adv-x="810" 
d="M404 -54l-391 394l390 396l393 -395z" />
    <glyph glyph-name="uni25C7" unicode="&#x25c7;" horiz-adv-x="810" 
d="M404 -54l-391 394l390 396l393 -395zM404 6l332 338l-333 339l-332 -339z" />
    <glyph glyph-name="uni25C8" unicode="&#x25c8;" horiz-adv-x="810" 
d="M400 144l-199 200l199 200l200 -200zM404 -54l-391 394l390 396l393 -395zM404 6l332 338l-333 339l-332 -339z" />
    <glyph glyph-name="circle" unicode="&#x25cb;" horiz-adv-x="810" 
d="M91 341q0 -64 25 -121t68 -100.5t100 -69t121 -25.5t121.5 25.5t100.5 69t68 100.5t25 121t-25 121.5t-68 100.5t-100.5 68.5t-121.5 25.5t-121 -25.5t-100 -68.5t-68 -100.5t-25 -121.5zM760 341q0 -73 -28 -138t-76.5 -114t-113 -77.5t-137.5 -28.5q-72 0 -136.5 28.5
t-113 77.5t-77 114t-28.5 138t28.5 138t77 114t113 77t136.5 28q73 0 137.5 -28t113 -77t76.5 -114t28 -138z" />
    <glyph glyph-name="uni25CE" unicode="&#x25ce;" horiz-adv-x="810" 
d="M91 341q0 -64 25 -121t68 -100.5t100 -69t121 -25.5t121.5 25.5t100.5 69t68 100.5t25 121t-25 121.5t-68 100.5t-100.5 68.5t-121.5 25.5t-121 -25.5t-100 -68.5t-68 -100.5t-25 -121.5zM760 341q0 -73 -28 -138t-76.5 -114t-113 -77.5t-137.5 -28.5q-72 0 -136.5 28.5
t-113 77.5t-77 114t-28.5 138t28.5 138t77 114t113 77t136.5 28q73 0 137.5 -28t113 -77t76.5 -114t28 -138zM227 341q0 -37 14 -69.5t38 -57t56.5 -39t69.5 -14.5t70 14.5t57.5 39t38.5 57t14 69.5t-14 69.5t-38.5 57t-57.5 39t-70 14.5t-69.5 -14.5t-56.5 -39t-38 -57
t-14 -69.5zM621 341q0 -45 -17 -84.5t-46.5 -69.5t-68.5 -47.5t-84 -17.5q-44 0 -83.5 17.5t-69 47.5t-47 69.5t-17.5 84.5t17.5 84.5t47 69.5t69 47t83.5 17q45 0 84 -17t68.5 -47t46.5 -69.5t17 -84.5z" />
    <glyph glyph-name="H18533" unicode="&#x25cf;" horiz-adv-x="810" 
d="M760 341q0 -73 -28 -138t-76.5 -114t-113 -77.5t-137.5 -28.5q-72 0 -136.5 28.5t-113 77.5t-77 114t-28.5 138t28.5 138t77 114t113 77t136.5 28q73 0 137.5 -28t113 -77t76.5 -114t28 -138z" />
    <glyph glyph-name="uni25D0" unicode="&#x25d0;" horiz-adv-x="810" 
d="M400 25q66 1 124 27t101.5 69.5t69 100t25.5 119.5t-25.5 120t-69 100t-101.5 69t-124 27v-632zM760 341q0 -73 -28 -138t-76.5 -114t-113 -77.5t-137.5 -28.5q-72 0 -136.5 28.5t-113 77.5t-77 114t-28.5 138t28.5 138t77 114t113 77t136.5 28q73 0 137.5 -28t113 -77
t76.5 -114t28 -138z" />
    <glyph glyph-name="uni25D1" unicode="&#x25d1;" horiz-adv-x="810" 
d="M409 657q-65 -1 -123 -27t-101.5 -69t-69 -100t-25.5 -120t25.5 -119.5t69 -100t101.5 -69.5t123 -27v632zM50 341q0 73 28 138t76 114t112.5 77t137.5 28t138 -28t113.5 -77t76.5 -114t28 -138t-28 -138t-76.5 -114t-113.5 -77.5t-138 -28.5t-137.5 28.5t-112.5 77.5
t-76 114t-28 138z" />
    <glyph glyph-name="uni2605" unicode="&#x2605;" horiz-adv-x="810" 
d="M764 449l-224 -167l91 -265l-232 172l-224 -166l85 264l-215 162h270l85 252l87 -252h277z" />
    <glyph glyph-name="uni2606" unicode="&#x2606;" horiz-adv-x="810" 
d="M657 412h-199l-57 184l-56 -184h-199l161 -118l-68 -184l159 120l167 -125l-71 189zM764 449l-224 -167l91 -265l-232 172l-224 -166l85 264l-215 162h270l85 252l87 -252h277z" />
    <glyph glyph-name="uni260E" unicode="&#x260e;" horiz-adv-x="810" 
d="M567 253q0 36 -13.5 65t-36 48.5t-52.5 30t-62 10.5q-33 0 -62.5 -11t-51.5 -31.5t-35 -49t-13 -62.5q0 -36 13.5 -64.5t36 -49t51.5 -31t61 -10.5q34 0 64 11.5t52.5 32t35 49t12.5 62.5zM501 564q-29 -5 -51.5 -5.5t-39.5 -0.5q-29 0 -53 3.5t-49 7.5v-74
q0 -12 5 -19.5t12.5 -11.5t16.5 -5t18 -1h87q9 0 18.5 0.5t17.5 4.5t13 11.5t5 21.5v68zM405 641q194 0 295 -64q37 -27 58.5 -63.5t25.5 -78.5q2 -27 -10 -45.5t-31 -16.5q-33 2 -60.5 11t-46.5 17q-41 20 -41 47q0 17 8 32t8 30q0 18 -19.5 29t-41.5 11l-2 -54
q-2 -32 5 -62.5t21 -54.5q13 -22 27.5 -39t29.5 -34q18 -20 33.5 -40.5t26.5 -44.5q6 -15 12.5 -33t11 -37t7.5 -37.5t3 -33.5q0 -12 -4 -21.5t-15 -9.5h-593q-23 0 -26 21t3 48q4 17 10 45.5t20 57.5q11 25 26.5 46.5t33.5 41.5q15 17 28.5 33.5t25.5 37.5q31 53 28 116
l-3 54q-25 1 -40.5 -9.5t-18.5 -28.5q-2 -10 -0.5 -15.5t3.5 -10.5q6 -17 8.5 -25t2.5 -13q1 -28 -40 -47q-18 -8 -46.5 -17t-60.5 -11q-19 -2 -31.5 17t-10.5 46q4 40 26 77.5t59 63.5q49 34 123.5 49t171.5 15z" />
    <glyph glyph-name="uni260F" unicode="&#x260f;" horiz-adv-x="810" 
d="M483 547q-23 -5 -42 -4.5t-32 0.5q-14 0 -36 1.5t-49 6.5v-54q0 -12 6.5 -18.5t26.5 -6.5h90q23 0 29.5 7t6.5 25v43zM676 67q12 0 17.5 4t7 10t1 14t-0.5 16q-2 25 -10.5 59.5t-24.5 63.5q-11 20 -26.5 38.5t-29.5 32.5q-13 14 -25.5 29t-22.5 31q-14 22 -23 47.5
t-9 52.5q0 25 1 52t2 38q0 5 4.5 9t9.5 3q42 -3 62 -24.5t18 -43.5q-1 -5 -3 -9.5t-4 -9.5q-4 -8 -5 -14t-1 -12q0 -13 9.5 -21t20.5 -14q15 -8 38.5 -14.5t53.5 -9.5q15 -1 25.5 9t6.5 33q-9 57 -46 93t-91 58q-48 17 -109 26t-118 9q-60 0 -119 -5.5t-107 -25.5
q-54 -23 -91 -60.5t-47 -94.5q-4 -23 6.5 -33t25.5 -9q29 3 53 11t39 16q12 6 22 13.5t10 15.5q0 7 -2.5 15.5t-5.5 14.5q-5 6 -6 18q-2 22 17.5 43t62.5 25q12 2 14 -12q1 -9 2 -35.5t1 -54.5q0 -26 -9 -51.5t-23 -48.5q-9 -14 -23 -30.5t-25 -29.5q-14 -14 -30.5 -35
t-26.5 -42q-14 -29 -23 -61.5t-12 -63.5q-2 -17 2 -26.5t25 -9.5h542zM404 112q-28 0 -54 9.5t-46.5 28t-33 44.5t-12.5 59q0 31 11.5 57t31.5 45t46.5 29t56.5 10t56.5 -10t46.5 -29t31.5 -45t11.5 -57q0 -33 -12.5 -59t-32.5 -44.5t-46.5 -28t-54.5 -9.5zM404 378
q-26 0 -49.5 -9t-41 -25t-27.5 -39.5t-10 -51.5q0 -27 10 -49.5t27.5 -39.5t40.5 -26.5t50 -9.5t50.5 9.5t40.5 26.5t27 39.5t10 49.5q0 28 -10 51.5t-27.5 39.5t-41 25t-49.5 9zM405 641q194 0 295 -64q37 -27 58.5 -63.5t25.5 -78.5q2 -27 -10 -45.5t-31 -16.5
q-33 2 -60.5 11t-46.5 17q-41 20 -41 47q0 17 8 32t8 30q0 18 -19.5 29t-41.5 11l-2 -54q-2 -32 5 -62.5t21 -54.5q13 -22 27.5 -39t29.5 -34q18 -20 33.5 -40.5t26.5 -44.5q6 -15 12.5 -33t11 -37t7.5 -37.5t3 -33.5q0 -12 -4 -21.5t-15 -9.5h-593q-23 0 -26 21t3 48
q4 17 10 45.5t20 57.5q11 25 26.5 46.5t33.5 41.5q15 17 28.5 33.5t25.5 37.5q31 53 28 116l-3 54q-25 1 -40.5 -9.5t-18.5 -28.5q-2 -10 -0.5 -15.5t3.5 -10.5q6 -17 8.5 -25t2.5 -13q1 -28 -40 -47q-18 -8 -46.5 -17t-60.5 -11q-19 -2 -31.5 17t-10.5 46q4 40 26 77.5
t59 63.5q49 34 123.5 49t171.5 15zM501 496q0 -14 -5 -21.5t-13 -11.5t-17.5 -4.5t-18.5 -0.5h-87q-9 0 -18 1t-16.5 5t-12.5 11.5t-5 19.5v74q25 -4 49 -7.5t53 -3.5q17 0 39.5 0.5t51.5 5.5v-68z" />
    <glyph glyph-name="uni261C" unicode="&#x261c;" horiz-adv-x="810" 
d="M141 387q-17 1 -36 2t-35 4.5t-26 11t-10 21.5q0 15 13.5 23t31.5 12t36.5 5t28.5 1q17 0 33 0.5t33 0.5h192h57.5t54.5 -2t49.5 -12t49.5 -24l13 -7q9 -5 17 -9t22 -4h24v29h86v-222h-87v21h-25q-21 -17 -51.5 -28t-65.5 -17.5t-71.5 -9t-68.5 -2.5q-26 0 -48.5 1.5
t-39.5 3.5q-36 6 -41 25.5t10 36.5q-18 6 -24 24t2 33q-13 5 -21.5 12t-8.5 18q0 24 29 35q5 3 12 5t15 4l-97 5zM665 395q-14 0 -26.5 5t-25.5 13q-9 6 -22.5 13t-27.5 13.5t-27.5 10.5t-23.5 4q-5 0 -11 0.5t-11 0.5q-12 1 -24 1.5t-22 0.5q-9 0 -18.5 -0.5t-19.5 -1.5
q-20 -9 -32.5 -17t-21 -16.5t-15.5 -19t-15 -24.5q18 -3 29 -2t18 4t11 7.5t9 9.5q10 10 20 10q1 -1 1 -3t-0.5 -4.5t-3.5 -6.5q23 -5 36.5 -4t28.5 11q7 4 10 2q-1 -15 -9 -29q3 -6 10.5 -12t17 -11.5t19.5 -9.5t18 -6q11 -3 21 -4t21 -3q13 -2 23.5 -5t10.5 -6
q0 -4 -9 -4.5t-21.5 1t-26.5 4t-23 5.5q-23 6 -47.5 21t-36.5 36q-8 -2 -13 -3.5t-11 -2t-14 -0.5t-21 1q22 -6 30.5 -15.5t8.5 -22.5q0 -6 -3 -13.5t-6 -12.5q26 -8 26 -30q0 -10 -12 -20q29 -9 29 -29q0 -13 -5 -21t-11 -13q31 0 63 4t61 11.5t53 18t39 24.5h26v140h-24z
M317 395q4 9 19 27t33 33q-12 0 -35 -0.5t-36 -0.5q-38 -1 -78 -1t-75 -2q-45 -2 -69 -6.5t-24 -16.5q0 -14 19.5 -17.5t72.5 -6.5l52 -3q29 -2 58 -3.5t63 -2.5zM743 424h-40v-191h40v191zM386 358q-14 2 -31 4.5t-35 2.5q-20 0 -37.5 -3t-26.5 -11q-12 -9 -3.5 -19
t22.5 -12q9 -2 30 -3t43 -1q17 0 33.5 1t24.5 6q8 6 7 12t-5.5 10.5t-11 8t-10.5 4.5zM448 227q0 4 -1 7.5t-6.5 6.5t-18 4t-35.5 0l-75 -1q-9 0 -14 -5t-5.5 -11t3 -12.5t12.5 -9.5q7 -2 23.5 -4.5t36.5 -2.5q31 0 55.5 5t24.5 23zM431 283q0 11 -14 14.5t-28 3.5h-94
q-8 0 -13 -4.5t-6 -10.5t2.5 -12.5t11.5 -10.5q11 -3 31 -3.5t43 -0.5h16q4 0 13 1.5t17 4.5t14.5 7.5t6.5 10.5z" />
    <glyph glyph-name="uni261E" unicode="&#x261e;" horiz-adv-x="810" 
d="M615 384l-100 -5l30 -9q29 -11 29 -35q0 -11 -8.5 -18t-21.5 -12q8 -15 2 -33t-24 -24q15 -17 10 -36.5t-41 -25.5q-17 -2 -39.5 -3.5t-48.5 -1.5q-32 0 -68.5 2.5t-71.5 9t-65.5 17.5t-51.5 28h-25v-21h-87v222h86v-29h24q14 0 22 4t17 9l13 7q26 14 49.5 24t49.5 12
t54.5 2h57.5h192q17 0 33 -0.5t33 -0.5q10 0 28.5 -1t36.5 -5t31.5 -12t13.5 -23q0 -14 -10.5 -21.5t-26 -11t-34.5 -4.5t-36 -2zM120 395v-140h26q15 -14 39 -24.5t53 -18t61 -11.5t63 -4q-6 5 -11 13t-5 21q0 20 29 29q-12 10 -12 20q0 22 26 30q-3 5 -6 12.5t-3 13.5
q0 13 8 22.5t30 15.5q-26 -2 -35 -0.5t-23 5.5q-12 -21 -36.5 -36t-47.5 -21q-9 -3 -23 -5.5t-26.5 -4t-21.5 -1t-9 4.5q0 3 10.5 6t23.5 5q11 2 21 3t21 4q8 2 18 6t19.5 9.5t17 11.5t10.5 12q-8 14 -9 29q2 2 10 -2q15 -10 28.5 -11t36.5 4q-7 10 -4 13q2 2 8.5 -1
t12.5 -8q5 -4 9.5 -8.5t11.5 -8t17.5 -4.5t28.5 2q-8 14 -15 24.5t-16 19t-21.5 16.5t-31.5 17q-10 1 -19.5 1.5t-18.5 0.5q-10 0 -22 -0.5t-24 -1.5q-5 0 -11 -0.5t-11 -0.5q-10 0 -23.5 -4t-28 -10.5t-27.5 -13.5t-22 -13q-13 -8 -25.5 -13t-26.5 -5h-24zM492 395
q34 1 63 2.5t58 3.5l52 3q53 3 72.5 6.5t19.5 17.5q0 12 -24 16.5t-69 6.5q-35 2 -75 2t-78 1q-13 0 -36 0.5t-35 0.5q18 -15 33 -33t19 -27zM66 233h40v191h-40v-191zM423 358q-4 -1 -10.5 -4.5t-11 -8t-5.5 -10.5t7 -12q8 -5 24.5 -6t33.5 -1q22 0 43 1t30 3q14 2 22.5 12
t-3.5 19q-9 8 -26.5 11t-37.5 3q-18 0 -35 -2.5t-31 -4.5zM361 227q0 -18 24.5 -23t55.5 -5q20 0 36.5 2.5t23.5 4.5q9 3 12.5 9.5t3 12.5t-5.5 11t-14 5l-75 1q-23 1 -35.5 0t-18 -4t-6.5 -6.5t-1 -7.5zM378 283q0 -6 6.5 -10.5t14.5 -7.5t16.5 -4.5t13.5 -1.5h16
q23 0 43 0.5t31 3.5q8 4 11.5 10.5t2.5 12.5t-6 10.5t-13 4.5h-94q-14 0 -28 -3.5t-14 -14.5z" />
    <glyph glyph-name="female" unicode="&#x2640;" horiz-adv-x="600" 
d="M260 200h-205v81h205v81q-30 4 -56.5 20t-46.5 40.5t-31.5 55.5t-11.5 65q0 39 14.5 73t39 59t58.5 39.5t73 14.5t72.5 -14.5t59 -40t40 -59t14.5 -72.5q0 -34 -12 -65t-32 -55.5t-46.5 -40.5t-56.5 -20v-81h206v-81h-206v-230h-78v230zM410 543q0 25 -8.5 46t-23 36.5
t-35 24t-44.5 8.5t-44.5 -8.5t-35 -24t-23 -36.5t-8.5 -46q0 -52 31.5 -83t79.5 -31t79.5 31t31.5 83z" />
    <glyph glyph-name="male" unicode="&#x2642;" horiz-adv-x="600" 
d="M410 143q0 51 -31.5 82.5t-79.5 31.5t-79.5 -31.5t-31.5 -82.5q0 -25 8.5 -46t23 -36.5t35 -24t44.5 -8.5t44.5 8.5t35 24t23 36.5t8.5 46zM260 597l-162 -159l-49 48l250 244l251 -244l-48 -48l-164 159v-273q30 -4 56.5 -20t46.5 -40.5t32 -55.5t12 -65
q0 -39 -14.5 -72.5t-40 -59t-59 -40t-72.5 -14.5t-73 14.5t-58.5 39.5t-39 59t-14.5 73q0 34 11.5 65t31.5 55.5t46.5 40.5t56.5 20v273z" />
    <glyph glyph-name="spade" unicode="&#x2660;" horiz-adv-x="810" 
d="M280 -89q17 54 28 96t18 87q-23 -17 -55 -27t-59 -10q-33 0 -59 14t-43.5 36.5t-26.5 52t-9 61.5q0 43 12.5 80.5t33.5 72.5t49 69.5t59 70.5t57 66t47.5 56.5t39 51t33.5 51.5q33 -52 74.5 -104t101.5 -121q31 -36 59 -70.5t49 -69.5t33.5 -72.5t12.5 -80.5
q0 -32 -9 -61.5t-26.5 -52t-43.5 -36.5t-59 -14q-31 0 -60.5 11.5t-53.5 26.5q5 -42 16.5 -86t29.5 -98h-249z" />
    <glyph glyph-name="uni2661" unicode="&#x2661;" horiz-adv-x="810" 
d="M677 479q0 27 -7.5 51.5t-22 43t-37 29.5t-52.5 11q-29 0 -51.5 -12t-41 -30.5t-33.5 -42t-29 -46.5q-11 19 -26 42t-33.5 42.5t-40 33t-45.5 13.5q-26 0 -48.5 -8t-40 -24t-27.5 -41.5t-10 -59.5q0 -53 21 -107t53 -105.5t71.5 -100t75.5 -90.5l53 -63q41 45 88.5 101.5
t88 118t67.5 124.5t27 120zM739 480q0 -47 -17.5 -97.5t-46 -101t-64.5 -99.5t-73 -92.5t-72 -80.5t-61 -63q-51 54 -109.5 120t-109 137.5t-83.5 144t-33 139.5q0 42 13.5 74.5t37.5 54.5t57 33.5t72 11.5q27 0 50 -8t42 -21t34.5 -29.5t27.5 -32.5q29 38 65.5 64.5
t88.5 26.5q88 0 134.5 -47t46.5 -134z" />
    <glyph glyph-name="club" unicode="&#x2663;" horiz-adv-x="810" 
d="M283 -84q9 24 16.5 46t13 45.5t9.5 49.5t6 58l-34 -35q-50 -47 -119 -47q-37 0 -66.5 13.5t-50.5 37t-32 55.5t-11 69q0 33 11 63.5t31.5 54t50 37.5t66.5 14q31 0 66.5 -9t73.5 -22q-14 13 -31 36t-31 49.5t-23.5 53.5t-9.5 48q0 37 15.5 66t41 48.5t59 29.5t69.5 10
q40 0 74 -11t59 -31t39.5 -48.5t14.5 -63.5q0 -26 -8.5 -52t-21.5 -50.5t-28.5 -45.5t-30.5 -36q36 11 68 19.5t64 8.5q39 0 69 -14t50.5 -37.5t31 -54t10.5 -63.5q0 -37 -11.5 -69t-32.5 -55.5t-51 -37t-67 -13.5t-65 12t-52 35l-35 35q7 -59 17 -104t28 -95h-243z" />
    <glyph glyph-name="uni2664" unicode="&#x2664;" horiz-adv-x="810" 
d="M460 -45q-7 26 -11.5 46.5t-7 38t-3.5 34t-1 34.5q0 26 4 36.5t19 10.5q6 0 14.5 -4t19.5 -10q24 -14 48 -24.5t55 -10.5q24 0 39 11.5t23.5 29.5t12 39t3.5 40q0 35 -11.5 67.5t-30.5 64t-43 62.5t-49 61q-37 43 -72 88t-65 88q-31 -45 -66.5 -90t-70.5 -87
q-25 -30 -49 -60.5t-42.5 -62t-30 -64.5t-11.5 -67q0 -19 3 -40t12 -39t24 -29.5t39 -11.5q25 0 48.5 9.5t52.5 26.5q20 13 36 13q15 0 19 -10.5t4 -36.5q0 -17 -1 -33t-4 -33.5t-7.5 -38.5t-11.5 -48h112zM280 -89q17 54 28 96t18 87q-23 -17 -55 -27t-59 -10q-33 0 -59 14
t-43.5 36.5t-26.5 52t-9 61.5q0 43 12.5 80.5t33.5 72.5t49 69.5t59 70.5t57 66t47.5 56.5t39 51t33.5 51.5q33 -52 74.5 -104t101.5 -121q31 -36 59 -70.5t49 -69.5t33.5 -72.5t12.5 -80.5q0 -32 -9 -61.5t-26.5 -52t-43.5 -36.5t-59 -14q-31 0 -60.5 11.5t-53.5 26.5
q5 -42 16.5 -86t29.5 -98h-249z" />
    </font>
</defs>
</svg>
