<?xml version="1.0" standalone="no"?>
<!DOCTYPE svg PUBLIC "-//W3C//DTD SVG 1.1//EN" "http://www.w3.org/Graphics/SVG/1.1/DTD/svg11.dtd" >
<svg xmlns="http://www.w3.org/2000/svg" xmlns:xlink="http://www.w3.org/1999/xlink" version="1.1">
<metadata>
Created by FontForge 20170731 at Wed Aug  1 16:48:48 2018
 By Aleksey,,,
Copyright (c) 2018 by Goyang. All rights reserved.
</metadata>
<defs>
<font id="GoyangIlsan_L" horiz-adv-x="0" vert-adv-y="1000" >
  <font-face 
    font-family="GoyangIlsan L"
    font-weight="400"
    font-stretch="normal"
    units-per-em="1000"
    panose-1="2 2 6 3 2 1 1 2 1 1"
    ascent="800"
    descent="-200"
    x-height="444"
    cap-height="688"
    bbox="0 -277 955 800"
    underline-thickness="25"
    underline-position="-236"
    unicode-range="U+000D-FFE6"
  />
<missing-glyph horiz-adv-x="1000" 
d="M100 -100v800h800v-800h-800zM150 -50h700v700h-700v-700z" />
    <glyph glyph-name=".notdef" horiz-adv-x="1000" 
d="M100 -100v800h800v-800h-800zM150 -50h700v700h-700v-700z" />
    <glyph glyph-name="glyph1" vert-adv-y="0" 
 />
    <glyph glyph-name="glyph2" horiz-adv-x="1000" 
 />
    <glyph glyph-name="glyph3" 
 />
    <glyph glyph-name="glyph3" 
 />
    <glyph glyph-name="uni000D" unicode="&#xd;" horiz-adv-x="280" 
 />
    <glyph glyph-name="space" unicode=" " horiz-adv-x="280" 
 />
    <glyph glyph-name="exclam" unicode="!" horiz-adv-x="278" 
d="M121 106l-16 570h68l-17 -570h-35zM169 -91h-63v96h63v-96z" />
    <glyph glyph-name="quotedbl" unicode="&#x22;" horiz-adv-x="375" 
d="M280 722l-18 -253h-34l-7 253h59zM141 722l-11 -253h-34l-14 253h59z" />
    <glyph glyph-name="numbersign" unicode="#" horiz-adv-x="678" 
d="M33 219h127l38 230h-110v42h117l34 209h48l-36 -209h228l34 209h48l-36 -209h118v-42h-125l-37 -230h107v-42h-114q-8 -53 -19 -115.5t-19 -115.5h-46l36 231h-226q-8 -53 -19 -115.5t-19 -115.5h-46l36 231h-119v42zM207 219h227l38 230h-228z" />
    <glyph glyph-name="dollar" unicode="$" horiz-adv-x="502" 
d="M227 -11q-51 3 -96 15t-81 29l19 43q38 -18 78 -28.5t80 -15.5v298l-56 27q-58 28 -89 69.5t-31 89.5q0 54 44.5 95t131.5 51v68h47v-66q47 -3 86 -13.5t78 -33.5l-21 -33q-29 17 -63 26t-80 11v-258q8 -3 18.5 -8.5t36.5 -18.5q79 -41 114.5 -83t35.5 -100
q0 -39 -17 -68t-45 -49q-29 -21 -66 -32.5t-77 -14.5v-72h-47v72zM430 152q0 43 -36.5 78t-119.5 76v-273q38 5 67.5 17t49.5 29q19 16 29 35t10 38zM100 516q0 -38 32 -67t95 -61v232q-25 -5 -48 -13t-40 -20q-18 -13 -28.5 -30.5t-10.5 -40.5z" />
    <glyph glyph-name="percent" unicode="%" horiz-adv-x="835" 
d="M45 518q0 73 37 115t108 42q68 0 106 -42t38 -115q0 -72 -37.5 -114t-106.5 -42q-71 0 -108 40t-37 116zM93 518q0 -24 3.5 -44.5t14.5 -35.5q10 -16 29 -25t50 -9q30 0 48.5 9t29.5 25q10 15 13.5 35.5t3.5 44.5t-3.5 44.5t-13.5 36.5q-11 15 -29.5 24t-48.5 9
q-31 0 -50 -9t-29 -24q-11 -16 -14.5 -36.5t-3.5 -44.5zM608 686l-336 -726h-51l337 726h50zM496 124q0 74 37 115.5t108 41.5q69 0 107 -41.5t38 -115.5t-37.5 -115t-107.5 -41q-71 0 -108 40t-37 116zM544 124q0 -24 4 -44.5t15 -35.5q11 -16 29.5 -25t48.5 -9t49 9t30 25
q10 15 13.5 35.5t3.5 44.5t-3.5 44.5t-13.5 36.5q-11 16 -30 25t-49 9t-48.5 -9t-29.5 -25t-15 -36.5t-4 -44.5z" />
    <glyph glyph-name="ampersand" unicode="&#x26;" horiz-adv-x="663" 
d="M582 -40l-71 79q-45 -46 -103 -69.5t-133 -23.5q-63 0 -107.5 15.5t-71.5 41.5q-28 25 -41 57.5t-13 66.5q0 32 9.5 58.5t24.5 47.5t33 37t35 28l86 59l-60 71q-23 28 -42 57.5t-19 70.5q0 30 11 56t34 46q22 19 56 30.5t81 11.5q38 0 71 -10.5t58 -29.5q24 -19 38 -46.5
t14 -60.5q0 -48 -19.5 -81t-51.5 -56l-103 -74l211 -231q21 38 32.5 83.5t13.5 77.5l41 -6q-3 -52 -19 -101t-41 -87l103 -118h-57zM258 321l-88 -61q-43 -30 -61 -63t-18 -71q0 -32 14 -57.5t39 -42.5q24 -18 58 -27t73 -9q59 0 116 19.5t92 63.5zM362 443q30 21 45.5 46
t15.5 64q0 50 -35 76.5t-97 26.5q-130 0 -134 -99q-1 -29 12.5 -53t26.5 -39l71 -87z" />
    <glyph glyph-name="quotesingle" unicode="'" horiz-adv-x="254" 
d="M157 721l-13 -251h-32l-13 251h58z" />
    <glyph glyph-name="parenleft" unicode="(" horiz-adv-x="311" 
d="M146 203q4 -28 14 -61t25 -65q15 -33 34.5 -62.5t42.5 -49.5l-23 -29q-26 20 -49.5 52t-41.5 69q-19 37 -31.5 76t-16.5 73q-2 18 -4 32t-3 29q-2 14 -2.5 29.5t-0.5 36.5q0 40 2.5 72t7.5 65q5 35 16.5 71t29.5 70q17 33 40.5 62.5t52.5 52.5l24 -26
q-24 -19 -43.5 -45.5t-34.5 -56.5t-25 -62.5t-14 -62.5q-5 -34 -7.5 -65.5t-2.5 -74.5q0 -25 0.5 -43t2.5 -32q1 -14 3 -27t4 -28z" />
    <glyph glyph-name="parenright" unicode=")" horiz-adv-x="311" 
d="M186 203q2 15 4 28t4 27q1 14 1.5 32t0.5 43q0 43 -2.5 74.5t-7.5 65.5q-4 30 -14 62.5t-25 62.5t-34.5 56.5t-43.5 45.5l24 26q29 -23 52.5 -52.5t41.5 -62.5q17 -34 28.5 -70t16.5 -71q5 -33 7.5 -65t2.5 -72q0 -21 -0.5 -36.5t-1.5 -29.5q-2 -15 -4 -29t-4 -32
q-5 -34 -17 -73t-30 -76q-19 -37 -42.5 -69t-49.5 -52l-23 29q23 20 42.5 49.5t34.5 62.5q15 32 25 65t14 61z" />
    <glyph glyph-name="asterisk" unicode="*" horiz-adv-x="534" 
d="M287 470l16 -185h-58l15 185l-158 -98l-34 53l183 75l-182 89l31 51l160 -112l-16 193h57l-14 -193l157 107l31 -54l-177 -81l174 -83l-28 -47z" />
    <glyph glyph-name="plus" unicode="+" horiz-adv-x="575" 
d="M312 347h204v-43h-204v-210h-50v210h-202v43h202v205h50v-205z" />
    <glyph glyph-name="comma" unicode="," horiz-adv-x="213" 
d="M56 -90v94h85v-93q0 -48 -14 -80.5t-47 -52.5l-14 15q25 20 34 45.5t9 71.5h-53z" />
    <glyph glyph-name="hyphen" unicode="-" horiz-adv-x="526" 
d="M71 347h385v-44h-385v44z" />
    <glyph glyph-name="period" unicode="." horiz-adv-x="224" 
d="M145 -90h-67v94h67v-94z" />
    <glyph glyph-name="slash" unicode="/" horiz-adv-x="446" 
d="M391 721l-280 -783h-49l279 783h50z" />
    <glyph glyph-name="zero" unicode="0" horiz-adv-x="530" 
d="M264 700q66 0 110 -24t70 -71q25 -47 35.5 -117t10.5 -162q0 -101 -13 -173t-40 -118t-70 -67.5t-103 -21.5q-62 0 -105 23.5t-69 71.5q-27 47 -38.5 118.5t-11.5 166.5q0 89 11 158.5t37 117.5q25 48 68 73t108 25zM264 -10q57 0 92 23.5t54 67.5t25 106t6 139
q0 74 -6 135t-25 105q-19 43 -53.5 66.5t-92.5 23.5q-55 0 -89 -23.5t-53 -66.5q-20 -44 -27 -105t-7 -135q0 -77 7 -139t27 -106q19 -44 53 -67.5t89 -23.5z" />
    <glyph glyph-name="one" unicode="1" horiz-adv-x="350" 
d="M236 -40h-49v684l-143 -47l-14 40l179 60q9 3 18 -4t9 -15v-718z" />
    <glyph glyph-name="two" unicode="2" horiz-adv-x="500" 
d="M55 -40v53q0 38 16 66t38 54q15 18 33 37.5t42 42.5t55 52t71 65q31 28 49 50.5t28 43.5q9 21 12 42.5t3 46.5q0 32 -12.5 58.5t-33.5 45.5q-22 18 -52 28.5t-64 10.5q-44 0 -80 -17.5t-70 -42.5l-27 32q35 28 80.5 50t98.5 22q46 0 84.5 -13.5t66.5 -37.5
q27 -25 42 -59.5t15 -77.5q0 -64 -26.5 -115t-85.5 -103q-57 -50 -105 -96t-87 -91q-21 -23 -31 -45.5t-10 -35.5v-21h346v-45h-396z" />
    <glyph glyph-name="three" unicode="3" horiz-adv-x="508" 
d="M222 700q49 0 88.5 -10t68.5 -31q28 -22 43.5 -56.5t15.5 -82.5q0 -61 -32.5 -108.5t-90.5 -62.5q36 -7 63.5 -25.5t46.5 -43.5q18 -25 27.5 -54.5t9.5 -57.5q0 -111 -61.5 -167.5t-178.5 -54.5q-17 0 -39 2.5t-46 7.5q-25 5 -49 12t-43 16l18 42q46 -23 85.5 -29
t74.5 -6q93 0 142 43t49 128q0 45 -14 75.5t-39 50.5q-26 19 -62 27.5t-80 8.5h-84v45h84q89 0 130 38t41 115q0 68 -40.5 100.5t-128.5 32.5q-41 0 -70.5 -9t-59.5 -25l-23 37q35 19 73.5 30.5t80.5 11.5z" />
    <glyph glyph-name="four" unicode="4" horiz-adv-x="514" 
d="M86 153h275v490zM408 109v-149h-47v149h-337v33l312 544h72v-533h85v-44h-85z" />
    <glyph glyph-name="five" unicode="5" horiz-adv-x="500" 
d="M217 343q-35 0 -63 -7t-58 -14q-13 -3 -21.5 2.5t-7.5 13.5l31 348h329v-44h-286l-24 -269q30 8 55.5 12t44.5 4q120 0 179 -57.5t59 -156.5q0 -49 -15 -91t-45 -72q-30 -31 -74 -48.5t-102 -17.5q-47 0 -92 11.5t-81 31.5l17 39q38 -18 72.5 -27t83.5 -9q46 0 81 14.5
t59 39.5q23 25 35 58.5t12 70.5q0 168 -189 168z" />
    <glyph glyph-name="six" unicode="6" horiz-adv-x="500" 
d="M276 404q89 0 142.5 -53t53.5 -166v-18q0 -112 -52.5 -166.5t-143.5 -54.5q-60 0 -103.5 14t-71.5 39q-29 25 -42.5 59.5t-13.5 75.5v309q0 51 14.5 96.5t42.5 79.5q28 33 69.5 52.5t96.5 19.5q45 0 82.5 -8.5t74.5 -27.5l-23 -38q-31 16 -63.5 23t-70.5 7q-41 0 -73 -15
t-55 -41t-35 -62.5t-12 -79.5v-117q35 37 77.5 54.5t105.5 17.5zM423 185q0 88 -38 131.5t-109 43.5q-38 0 -68 -9.5t-53 -23.5t-38.5 -31.5t-23.5 -33.5v-115q0 -37 8.5 -66t29.5 -49q21 -21 56.5 -31.5t88.5 -10.5q71 0 109 42t38 135v18z" />
    <glyph glyph-name="seven" unicode="7" horiz-adv-x="485" 
d="M442 671q0 -8 -0.5 -15t-3.5 -15l-239 -681h-49l243 681h-348v45h397v-15z" />
    <glyph glyph-name="eight" unicode="8" horiz-adv-x="546" 
d="M274 -54q-49 0 -92 12t-74 37q-32 25 -50 62t-18 88q0 75 29 123.5t91 80.5q-27 13 -45 31.5t-28 39.5q-11 21 -15 44t-4 46q0 51 16 87.5t44 59.5q27 22 64 32.5t80 10.5t80.5 -11t65.5 -34t44.5 -58.5t16.5 -85.5q0 -23 -5.5 -47t-17.5 -46t-31 -40.5t-46 -30.5
q71 -29 99 -79.5t28 -116.5q0 -46 -14.5 -83.5t-43.5 -64.5t-72.5 -42t-101.5 -15zM272 324q-93 0 -138.5 -47t-45.5 -122q0 -80 49 -122.5t137 -42.5q50 0 85 14t57 37q22 22 32 51.5t10 60.5q0 76 -44 123.5t-142 47.5zM271 367q79 0 119.5 33.5t40.5 110.5
q0 40 -11.5 67.5t-32.5 45.5q-21 17 -50 24.5t-64 7.5q-76 0 -116.5 -35t-40.5 -110q0 -74 38.5 -109t116.5 -35z" />
    <glyph glyph-name="nine" unicode="9" horiz-adv-x="513" 
d="M469 192q0 -53 -11.5 -98t-37.5 -78q-27 -33 -70 -51.5t-106 -18.5q-38 0 -84 10.5t-83 24.5l15 43q35 -15 76 -24.5t76 -9.5q49 0 83 14t55 40q21 25 30.5 61t9.5 81v123q-33 -38 -80.5 -53t-93.5 -15q-45 0 -83 13t-65 40t-42.5 68t-15.5 98v23q0 56 15 96.5t42 67.5
q27 26 65 39t84 13q60 0 102 -14t69 -40q26 -26 38 -62.5t12 -81.5v-309zM91 460q0 -88 43.5 -131.5t113.5 -43.5q39 0 68 8.5t50 21.5t34 29t21 31v113q0 40 -7 71.5t-26 52.5t-52.5 32t-87.5 11q-70 0 -113.5 -40t-43.5 -132v-23z" />
    <glyph glyph-name="colon" unicode=":" horiz-adv-x="222" 
d="M143 478h-65v80h65v-80zM143 89h-65v80h65v-80z" />
    <glyph glyph-name="semicolon" unicode=";" horiz-adv-x="222" 
d="M146 478h-65v80h65v-80zM147 175l-78 -226h-27l44 226h61z" />
    <glyph glyph-name="less" unicode="&#x3c;" horiz-adv-x="475" 
d="M353 18l-269 302l270 300l36 -30l-243 -270l243 -271z" />
    <glyph glyph-name="equal" unicode="=" horiz-adv-x="553" 
d="M84 475h385v-43h-385v43zM84 235h385v-43h-385v43z" />
    <glyph glyph-name="greater" unicode="&#x3e;" horiz-adv-x="475" 
d="M84 50l243 270l-243 269l36 31l270 -300l-269 -302z" />
    <glyph glyph-name="question" unicode="?" horiz-adv-x="499" 
d="M193 107v76q0 42 8 63.5t27 35.5l92 64q22 16 37.5 31t24.5 32t13 36.5t4 43.5q0 65 -46 104t-134 39q-45 0 -83.5 -7.5t-82.5 -18.5l-5 43q26 8 47.5 13t41.5 8t39.5 4t40.5 1q51 0 93.5 -12.5t73.5 -35.5q30 -24 47 -58.5t17 -78.5q0 -56 -20.5 -96t-55.5 -65l-91 -64
q-14 -10 -21.5 -18t-11.5 -17t-5 -20.5t-1 -27.5v-75h-49zM247 -90h-60v94h60v-94z" />
    <glyph glyph-name="at" unicode="@" horiz-adv-x="897" 
d="M616 153q90 32 139 92.5t49 153.5q0 46 -17.5 97.5t-57.5 94.5q-41 43 -106 71t-160 28q-93 0 -162.5 -27t-116.5 -76t-70.5 -116t-23.5 -147q0 -81 21 -145.5t66 -110.5t116 -70.5t171 -24.5q36 0 83.5 6.5t90.5 18.5l11 -38q-45 -15 -99 -23.5t-102 -8.5
q-103 0 -179.5 29.5t-126.5 82.5q-51 53 -76 126t-25 160q0 88 27 162.5t81 129.5q53 54 132.5 84.5t184.5 30.5q100 0 172.5 -31.5t119.5 -80.5t69 -108t22 -113q0 -78 -30 -136.5t-83 -96.5q-54 -39 -128.5 -58.5t-164.5 -20.5q-38 0 -69.5 11t-53.5 31q-23 19 -35.5 46
t-12.5 59v13q0 39 15 65.5t41 42.5t59.5 23t71.5 7h109v30q0 44 -29 70.5t-85 26.5q-35 0 -66.5 -7t-66.5 -22l-17 37q43 18 78.5 26.5t75.5 8.5q82 0 120 -36.5t38 -103.5v-263zM444 131q30 0 61 2t63 8v202h-106q-27 0 -53 -4t-45 -14q-20 -11 -32 -29t-12 -47v-15
q0 -45 34 -74t90 -29z" />
    <glyph glyph-name="A" unicode="A" horiz-adv-x="602" 
d="M451 182h-301l-73 -222h-52l249 726h50l253 -726h-50zM165 227h270l-137 403z" />
    <glyph glyph-name="B" unicode="B" horiz-adv-x="559" 
d="M112 314v-311h149q60 0 100 10t63 28t32.5 43t9.5 55v32q0 30 -13 56.5t-38 45.5t-60 30t-79 11h-164zM112 644v-287h165q42 0 72 10t49 27q19 16 28 38.5t9 47.5v46q0 25 -8.5 46.5t-28.5 37.5q-21 16 -55 25t-86 9h-145zM266 686q60 0 101 -12.5t67 -34.5
q25 -22 36.5 -52t11.5 -64v-41q0 -21 -5 -43t-17 -41q-12 -20 -32 -35.5t-50 -23.5q31 -8 56 -23t43 -36t27.5 -46t9.5 -52v-46q0 -91 -64.5 -133.5t-183.5 -42.5h-201v726h201z" />
    <glyph glyph-name="C" unicode="C" horiz-adv-x="559" 
d="M534 -17q-31 -19 -73.5 -28t-107.5 -9t-121.5 20t-97.5 64q-42 44 -65.5 114t-23.5 170q0 107 24.5 180.5t65.5 119.5t93.5 66t109.5 20q60 0 101 -8t79 -23l-16 -40q-22 8 -41 13.5t-38 8.5t-39.5 4.5t-45.5 1.5q-41 0 -84.5 -16.5t-78.5 -56.5q-36 -40 -59 -106
t-23 -165q0 -91 23.5 -152.5t61.5 -99.5t86 -54.5t98 -16.5q44 0 82 6.5t73 23.5z" />
    <glyph glyph-name="D" unicode="D" horiz-adv-x="615" 
d="M570 324q0 -101 -22.5 -172.5t-62.5 -116.5q-40 -46 -94.5 -67.5t-117.5 -21.5q-50 0 -103.5 6t-104.5 19v703q53 12 106.5 19t105.5 7q66 0 120.5 -21t92.5 -66q38 -46 59 -117.5t21 -171.5zM524 324q0 91 -19 154t-53 103q-34 39 -81 57t-103 18q-35 0 -74.5 -4
t-81.5 -15v-628q42 -13 79 -16t73 -3q57 0 105 18t83 58q34 40 53 103.5t19 154.5z" />
    <glyph glyph-name="E" unicode="E" horiz-adv-x="484" 
d="M65 -40v726h382v-44h-334v-273h291v-44h-291v-321h346v-44h-394z" />
    <glyph glyph-name="F" unicode="F" horiz-adv-x="474" 
d="M113 312v-352h-48v726h384v-44h-336v-286h279v-44h-279z" />
    <glyph glyph-name="G" unicode="G" horiz-adv-x="617" 
d="M522 -20q-16 -6 -32.5 -12.5t-35.5 -11.5q-20 -4 -45 -7t-58 -3q-65 0 -121 20t-97 64t-64.5 114t-23.5 170q0 107 24.5 180.5t65.5 119.5t93.5 66t109.5 20q31 0 56 -1.5t46 -4.5q21 -4 39.5 -9.5t38.5 -12.5l-17 -42q-20 7 -36.5 11.5t-34.5 7.5q-19 3 -41 4.5t-51 1.5
q-43 0 -86.5 -16.5t-78.5 -55.5q-36 -39 -58 -105t-22 -165q0 -91 21.5 -152.5t58.5 -98.5q36 -38 84.5 -54.5t102.5 -16.5q41 0 72.5 6.5t71.5 23.5v279h-187v43h235v-351z" />
    <glyph glyph-name="H" unicode="H" horiz-adv-x="612" 
d="M113 369h386v317h48v-726h-48v365h-386v-365h-48v726h48v-317z" />
    <glyph glyph-name="I" unicode="I" horiz-adv-x="227" 
d="M137 686v-726h-47v726h47z" />
    <glyph glyph-name="J" unicode="J" horiz-adv-x="373" 
d="M36 9q49 -18 102 -18q58 0 84.5 34.5t26.5 110.5v550h49v-541q0 -47 -8 -84t-26 -62q-19 -26 -49.5 -39.5t-76.5 -13.5q-28 0 -59 5t-57 16z" />
    <glyph glyph-name="K" unicode="K" horiz-adv-x="573" 
d="M245 349l303 -389h-59l-275 350l-101 -125v-225h-48v726h48v-429l347 429h58z" />
    <glyph glyph-name="L" unicode="L" horiz-adv-x="496" 
d="M114 4h357v-44h-406v726h49v-682z" />
    <glyph glyph-name="M" unicode="M" horiz-adv-x="783" 
d="M718 -40h-48v640l-216 -382q-23 -40 -63 -40q-17 0 -34.5 9.5t-28.5 29.5l-215 383v-640h-48v726h50l253 -449q5 -8 11 -11t12 -3q14 0 22 14l255 449h50v-726z" />
    <glyph glyph-name="N" unicode="N" horiz-adv-x="650" 
d="M117 686l420 -651v651h48v-726h-52l-420 646v-646h-48v726h52z" />
    <glyph glyph-name="O" unicode="O" horiz-adv-x="630" 
d="M536 340q0 63 -11 119.5t-36 100.5q-26 43 -68.5 68.5t-105.5 25.5t-105 -25.5t-68 -68.5q-26 -44 -37 -101t-11 -120v-32q0 -63 11 -120t37 -100q26 -44 68 -69.5t105 -25.5t105 25.5t68 69.5q26 43 37 100.5t11 120.5v32zM315 700q69 0 119.5 -26t84.5 -73
q33 -48 49.5 -114.5t16.5 -147.5v-32q0 -80 -16.5 -146.5t-49.5 -113.5q-34 -48 -84.5 -74.5t-119.5 -26.5t-119.5 26.5t-83.5 74.5q-34 47 -50.5 113.5t-16.5 147.5v31q0 81 16.5 147.5t50.5 114.5q33 47 83.5 73t119.5 26z" />
    <glyph glyph-name="P" unicode="P" horiz-adv-x="547" 
d="M113 641v-349h160q88 0 134.5 41t46.5 119v30q0 75 -46.5 117t-134.5 42h-160zM113 247v-287h-48v726h208q51 0 93.5 -14.5t72.5 -40.5q30 -27 46.5 -65t16.5 -84v-30q0 -25 -8 -60t-32 -67q-25 -33 -70 -55.5t-119 -22.5h-160z" />
    <glyph glyph-name="Q" unicode="Q" horiz-adv-x="628" 
d="M314 700q68 0 118.5 -26.5t84.5 -73.5q33 -48 49.5 -114.5t16.5 -147.5v-29q0 -95 -24.5 -172t-75.5 -129l90 -133h-48l-73 109q-33 -18 -67 -28t-71 -10q-68 0 -118.5 26.5t-83.5 74.5q-34 48 -50.5 115t-16.5 148v28q0 81 16.5 147.5t50.5 114.5q33 47 83.5 73.5
t118.5 26.5zM370 184l88 -135q39 51 57.5 112.5t18.5 148.5v29q0 62 -10.5 119t-35.5 101q-25 43 -67.5 69t-106.5 26t-106 -26t-67 -69q-26 -44 -36.5 -101t-10.5 -120v-29q0 -152 54.5 -234.5t165.5 -82.5q30 0 57.5 8t53.5 22l-105 162h50z" />
    <glyph glyph-name="R" unicode="R" horiz-adv-x="560" 
d="M113 277v-317h-48v726h210q111 0 169 -50t58 -144v-20q0 -19 -4.5 -43.5t-17.5 -49.5q-14 -25 -38 -48t-63 -39q19 -35 40 -77t42 -86q21 -45 40 -88.5t34 -80.5h-50q-13 33 -30 73t-37 82t-41 84.5t-42 80.5q-17 -2 -32 -2.5t-30 -0.5h-160zM113 642v-321h160
q92 0 136.5 36.5t44.5 114.5v20q0 75 -42.5 112.5t-138.5 37.5h-160z" />
    <glyph glyph-name="S" unicode="S" horiz-adv-x="505" 
d="M238 -54q-54 0 -104.5 13t-83.5 32l20 45q42 -23 86.5 -34.5t77.5 -11.5q91 0 136.5 39t45.5 101q0 53 -30.5 92t-103.5 75l-125 59q-65 32 -91 77.5t-26 99.5q0 35 13.5 65t40.5 53q26 22 63.5 35t85.5 13q51 0 92.5 -11.5t87.5 -39.5l-25 -40q-21 13 -38.5 22t-34.5 15
q-18 5 -37.5 7.5t-44.5 2.5q-27 0 -54.5 -5.5t-49.5 -19.5t-36 -37.5t-14 -59.5q0 -52 26 -83t81 -58l119 -58q82 -41 116 -89t34 -114q0 -49 -20 -84t-52 -57q-33 -23 -73.5 -33.5t-81.5 -10.5z" />
    <glyph glyph-name="T" unicode="T" horiz-adv-x="515" 
d="M233 641h-198v45h445v-45h-198v-681h-49v681z" />
    <glyph glyph-name="U" unicode="U" horiz-adv-x="611" 
d="M113 153q0 -40 15 -70.5t41 -50.5q26 -21 60 -31.5t73 -10.5h9q39 0 73 10.5t60 31.5q25 20 39.5 50.5t14.5 70.5v533h48v-522q0 -54 -19 -95t-51 -68q-32 -28 -74.5 -41.5t-90.5 -13.5h-9q-48 0 -91 13.5t-75 41.5q-33 27 -52 68t-19 95v522h48v-533z" />
    <glyph glyph-name="V" unicode="V" horiz-adv-x="597" 
d="M299 9l221 677h52l-241 -726h-64l-242 726h52z" />
    <glyph glyph-name="W" unicode="W" horiz-adv-x="857" 
d="M832 686l-179 -726h-57l-151 492q-6 16 -15 16q-11 0 -17 -19l-150 -489h-58l-180 726h49l161 -669l145 477q5 14 17.5 27t30.5 13q17 0 31.5 -12t18.5 -26l145 -479l161 669h48z" />
    <glyph glyph-name="X" unicode="X" horiz-adv-x="594" 
d="M25 -40l244 364l-235 362h54l210 -321l210 321h57l-238 -361l242 -365h-57l-215 323l-214 -323h-58z" />
    <glyph glyph-name="Y" unicode="Y" horiz-adv-x="560" 
d="M302 -40h-49v288l-228 438h54l201 -384l201 384h54l-233 -439v-287z" />
    <glyph glyph-name="Z" unicode="Z" horiz-adv-x="519" 
d="M457 686v-37l-361 -645h383v-44h-439v40l361 642h-349v44h405z" />
    <glyph glyph-name="bracketleft" unicode="[" horiz-adv-x="406" 
d="M328 -86h-190v846h190v-43h-141v-760h141v-43z" />
    <glyph glyph-name="backslash" unicode="\" horiz-adv-x="475" 
d="M115 721l280 -783h-50l-280 783h50z" />
    <glyph glyph-name="bracketright" unicode="]" horiz-adv-x="406" 
d="M84 -43h140v760h-140v43h189v-846h-189v43z" />
    <glyph glyph-name="asciicircum" unicode="^" horiz-adv-x="549" 
d="M252 786h46l165 -217h-55l-132 175l-131 -175h-57z" />
    <glyph glyph-name="underscore" unicode="_" horiz-adv-x="579" 
d="M108 -85h367v-45h-367v45z" />
    <glyph glyph-name="grave" unicode="`" horiz-adv-x="821" 
d="M328 -37q-24 0 -41 23q-8 9 -11.5 15.5t-4.5 14.5q-12 -9 -26 -14.5t-28 -5.5q-17 0 -34 7.5t-31 20.5l-26 27q-2 2 -6 3t-7 1q-6 0 -14 -2q-5 -3 -10 -5.5t-10 -2.5t-11 3.5t-6 9.5q0 11 7 19.5t17 13.5q-7 14 -7 21q0 13 13 26q1 1 3 1l55 3q1 0 2 -2l3 -7q8 0 11 -1
l-2 6q-2 2 -4 4.5t-2 5.5h-7q-10 0 -20 7q-14 9 -22 25.5t-8 33.5q0 32 27 56q-4 2 -8 6l-7 7q-33 30 -39 79q-3 21 -3 43q0 32 4.5 56.5t13.5 56.5q-1 17 0 40.5t5 47.5t11 46t18 36q13 18 33 18q19 0 37 -12t34 -26l22 -18l47 9q26 5 51.5 7t48.5 2h10q9 14 22 27t27 24
q14 10 25 15.5t22 5.5q5 0 10.5 -2.5t10.5 -5.5q10 -10 20 -27.5t15 -40.5q2 -9 5.5 -27t8.5 -45q11 -14 20 -29t15 -29q4 10 13 15v6q0 34 31 48q18 9 38 9q42 0 75 -50q22 -36 22 -64q0 -16 -7 -31.5t-18 -26.5q-2 -1 -4 -3l-5 -5l-4 -4q-94 -170 -259 -242q2 -31 -4 -59
q-2 -14 -5 -29t-8 -33q-5 -17 -10 -33t-12 -27q-5 -10 -13 -21.5t-16 -21.5l-12 -16q-6 -9 -11.5 -18.5t-10.5 -23.5q0 -1 -1 -2.5t-1 -2.5q-3 -8 -6 -15.5t-8 -14.5q-5 -6 -12 -12t-16 -6q-10 0 -17 7.5t-12 16.5q-6 13 -6 35q0 8 2.5 14.5t6.5 14.5v-1q4 5 7.5 10.5
t7.5 13.5zM119 289q7 -7 16 -13q5 2 10.5 4t11.5 2q8 0 16.5 -4t15.5 -9h8q17 0 27 -16v1q1 -2 2 -4.5t1 -5.5q27 -3 59 -3q18 0 38.5 1.5t40.5 5.5l16 2q91 12 153 48h-1q88 48 88 124q0 9 -2 19q-8 55 -25 96q-6 14 -14 27.5t-16 23.5v-1q-6 28 -10 47t-6 27
q-5 23 -14 39.5t-17 24.5q-5 5 -15 5q-17 1 -42 -18q-14 -11 -26 -24t-22 -27q-2 -2 -5 -2h-17q4 -9 4 -20.5t-2 -23.5q-1 -4 -2.5 -7.5t-3.5 -11.5q-4 16 -11 31t-15 31q-9 -1 -19.5 -1.5t-19.5 -2.5q-2 0 -3 -0.5t-3 -0.5q6 -15 11.5 -33.5t8.5 -36.5l-1 1q-5 4 -9 8
t-9 10q-11 11 -19.5 22.5t-13.5 22.5l-34 -6h-5l-22 20q-13 11 -30.5 23t-35.5 12q-15 0 -26 -13q-10 -12 -16 -33t-10 -45t-5 -48t0 -41q-8 -23 -13 -54t-5 -57q0 -10 0.5 -21t2.5 -21q2 -23 11.5 -41.5t23.5 -32.5zM215 200q-9 -8 -17 -8q0 -22 -24 -36h1l-9 -6
q9 -16 21.5 -25.5t27.5 -9.5q6 0 14.5 5t18.5 13l8 6q2 15 7.5 32.5t11.5 31.5q2 4 5 2q2 -1 3.5 -3.5t-0.5 -4.5q-9 -21 -14 -41.5t-5 -41.5q0 -31 11 -61h2l3 36l2.5 2.5t3.5 0.5q5 -3 4 -5l-4 -44v-4q-2 -10 -4 -17q-1 -2 -1 -6q0 -2 2.5 -9t9.5 -16q13 -13 26 -16
q2 2 2 5.5v5.5q0 8 -3 11q-1 0 1 2q2 1 2 0q3 -6 3 -13v-6t-2 -7q5 -2 10.5 -0.5t7.5 2.5q2 4 2 6.5v4.5q0 8 -3 13q-1 0 1 2q1 0 1 -2q5 -8 5 -13q0 -2 -0.5 -3t-2.5 -6q10 6 14 15.5t4 18.5v5.5t-1 5.5q0 2 1 4q5 13 7.5 26t2.5 27q0 26 -11.5 44.5t-37.5 18.5
q-12 0 -22.5 -5.5t-21.5 -19.5q0 -3 -4 -5q-2 0 -4 4t0 6q25 30 52 30q29 0 44 -21.5t15 -50.5q0 -16 -2.5 -29.5t-9.5 -26.5q2 -10 2 -13q0 -13 -6 -25.5t-19 -17.5l-15 -25l-6 -9q-7 -10 -7 -25q0 -11 1 -18t3 -13l3.5 -7t8.5 -8q4 8 4 16q0 6 1 6q2 0 2 -3
q0 -6 -0.5 -10.5t-2.5 -9.5q2 -2 6.5 -1.5t8.5 2.5q0 1 0.5 2.5t0.5 2.5q1 4 1.5 8.5t1.5 3.5l-1 4q0 1 1 2q2 2 2 1.5v-1.5q1 -3 1 -8.5t-2 -10.5l7 7l9 21q0 2 1.5 6.5t3.5 7.5q9 22 23 41l13 17q7 9 13.5 20t13.5 22q6 11 11.5 26t9.5 33l12 60q3 11 4 22t1 22
q0 8 -0.5 15.5t-1.5 15.5q-1 1 0.5 2.5t3.5 2.5q4 0 5 -4q1 -2 1 -7q156 68 243 221q-3 -1 -6.5 -1h-6.5q-14 0 -28.5 9t-34.5 31q-1 0 -2 0.5t-2 0.5q-14 2 -25 14l-2 -1q4 -14 5 -27q1 -5 1.5 -10.5t0.5 -11.5q0 -42 -23 -75t-68 -58q-33 -19 -72 -30.5t-85 -17.5l-16 -3
q-20 -3 -41 -5t-40 -2h-13q-7 -17 -15.5 -25t-23.5 -12l6 -4q2 -4 0 -6q-3 -3 -6 0zM661 461l6 -6l5 8q0 1 2.5 4t5.5 7q9 11 21 20t23 13q3 0 3 -1t-0.5 -1t-0.5 -1l-1 -1q-22 -6 -43 -32q-2 -3 -4.5 -7.5t-6.5 -12.5q23 -24 47 -24q18 0 37 19q10 11 16 24t6 28
q0 14 -6 29t-15 29q-31 47 -67 47q-16 0 -34 -9q-25 -10 -25 -40q15 -3 29 -12q10 5 20 7.5t23 2.5q2 0 2 -3q0 -2 -2 -2q-11 0 -20.5 -2t-18.5 -7q5 -4 10.5 -12.5t7.5 -13.5v-4t1 -3q0 -2 0.5 -3.5t0.5 -3.5q0 -11 -4.5 -19t-11.5 -13zM424 434q-4 -6 -10 -9
q-5 -23 -5 -43q0 -26 10 -54q3 -8 3 -15q0 -19 -14.5 -29t-33.5 -10q-17 0 -31.5 7t-22.5 21q-17 34 -17 64q0 32 5 46q-4 3 -10 10q-4 5 0 7t4 -1l2 -4q4 -5 13.5 -7.5t21.5 -0.5q16 3 23 19q2 4 2 12q0 3 3 3q2 0 3 -1l9 -17q4 -6 19 -6q13 0 20 13v-1q2 2 2 8q0 4 4 4
q3 0 3 -3t-0.5 -5t-1.5 -4q0 -1 -0.5 -2t-0.5 -2zM190 200q5 6 7 12.5t2 11.5q0 7 -4 11q-6 2 -11 3.5t-8 1.5q-10 0 -23 -5q-2 0 -2 2q-1 0 1 2h-1q12 4 25 4q5 0 9.5 -0.5t9.5 -1.5q0 8 -5 15q-5 5 -14 10.5t-19 5.5q-6 0 -12 -1.5t-12 -7.5l-4 -5q-18 -18 -18 -44
q0 -15 5 -28.5t19 -22.5q5 -3 8.5 -4.5t9.5 -1.5q6 1 21 9q14 10 14 26l-7 4q-2 0 -3 0.5t-3 0.5q-11 0 -26 -6q2 2 3 3.5t-1 0.5q12 7 24 7q2 0 3.5 -0.5t3.5 -0.5q2 -1 7 -1h1zM182 488q13 16 30 19q20 2 33 -9q16 -13 19 -29q1 -9 -1 -17.5t-9 -16.5q-10 -15 -28 -18
q-9 -1 -18.5 1t-15.5 7q-15 11 -18 30q-3 17 8 33zM514 534q15 -13 16 -30q3 -18 -6 -33t-25 -18q-7 -1 -15 1.5t-14 7.5q-5 6 -9.5 14t-6.5 16q-1 8 0 17.5t6 16.5q9 15 25 18q14 1 29 -10zM374 281q17 0 25 5q-2 21 -7.5 35t-13.5 24q-9 9 -21.5 14.5t-30.5 5.5h-7.5
t-8.5 -1q1 -14 4.5 -28.5t11.5 -29.5q12 -25 48 -25zM216 105q-14 0 -30 11q-6 -21 -29 -31l10 -10q9 -11 20 -17.5t25 -7.5q24 -3 49 16q-4 11 -4.5 24t-0.5 23v16l-9 -8q-7 -5 -15 -10.5t-16 -5.5zM141 84q-5 -5 -7.5 -12t-2.5 -13l19 -20l10 -10q13 -13 28 -18t29 -5
q29 0 57 26q0 3 -2 7q-1 0 -1 2l-7 16q-14 -10 -25.5 -14t-27.5 -3q-32 3 -51 30l-3 3q-4 3 -6 6t-9 5h-1zM674 498q0 3 -2 11q-5 14 -16 23.5t-25 9.5q-9 0 -12.5 -6.5t-3.5 -14.5q0 -15 15 -38q5 -8 10.5 -11.5t10.5 -3.5q10 0 16.5 11t6.5 19zM85 112q0 -10 6 -17
q15 5 27 5q9 0 13 -1l6 -1q-3 9 -3 18q0 8 8 18l-48 -1q-9 -11 -9 -21zM134 88q-6 3 -16 3q-4 0 -9.5 -1t-10.5 -3q-1 -4 -1 -10q0 -5 0.5 -8t2.5 -7q8 2 13 2q8 0 11 -1q3 13 11 23zM227 203q9 2 17.5 6.5t13.5 14.5l4 8q-10 1 -18 1.5t-16 0.5q0 -6 -1.5 -13t-6.5 -14
l6 -4h1zM215 249q-2 3 -6.5 6.5t-11.5 4.5q4 -6 6 -11t2 -11q3 -6 3 -14q0 -7 -6 -22q11 6 13.5 16.5t2.5 17.5q0 9 -3 14v-1zM221 491q-2 -4 -2 -9q2 -5 6 -8q2 -3 9 -2q5 0 8 5q2 2 2 5v5q0 5 -5 8q-4 4 -9 2q-3 -2 -5 -2.5t-4 -2.5v-1zM464 516q2 -5 5 -8.5t8 -3.5
t7.5 4.5t1.5 9.5q-1 4 -4 7.5t-8 3.5q-5 -1 -8 -5t-2 -8zM138 116q0 -11 3 -20q11 5 11 18q0 3 -1 8.5t-4 12.5q-9 -9 -9 -19zM94 61l-4 9q0 3 -1 5.5t0 5.5q-5 -3 -12.5 -9.5t-5.5 -12.5q2 -5 8 -5q4 0 14 5zM156 93q19 7 23 27q-8 1 -11 -0.5t-6 -4.5q0 -1 -1 -2.5
t-1 -2.5q-4 -7 -5 -16zM126 543q7 35 14 69.5t15 54.5h3q-10 -29 -17 -60.5t-13 -59.5zM148 574q6 25 10.5 47.5t10.5 46.5h3l-23 -93zM519 693l-26 -54q-1 1 -2 1l26 55zM491 701l-24 -50q-1 0 -1.5 0.5t-1.5 0.5l24 48zM166 594q4 19 8.5 35t8.5 35l2 -1
q-4 -17 -8.5 -33.5t-8.5 -33.5zM505 633q-1 1 -2 1l22 48l2 -2q-5 -11 -11 -23.5t-11 -23.5zM472 692q2 1 2 1.5t1 1.5l-18 -40l-4 1zM121 584q3 17 7.5 35.5t11.5 37.5v-1l1 1q-5 -17 -10.5 -37.5t-9.5 -40.5v5zM534 664l-19 -36q-1 1 -2 1l20 38zM170 371l14 33q1 1 4 1
l-16 -34h-2zM499 406l12 33h2l2 1l-14 -34h-2zM529 405l12 35q1 0 1.5 -0.5t1.5 -0.5q-2 -4 -4.5 -11t-4.5 -13l-4.5 -10.5t-0.5 0.5v1zM186 611q3 13 4.5 23.5t4.5 22.5q0 -1 1 -1l1 -1l-10 -43zM539 647l-14 -26q-1 1 -2 1l15 28zM505 703q-7 -14 -13 -29t-12 -29
q-1 1 -2 1l27 58v-1zM158 126q0 -3 0.5 -4.5t0.5 -2.5h2q1 1 3 2t3.5 2t3.5 3h-13zM279 -176l-16 -20h-3q4 5 8.5 10t8.5 10h2zM320 -198l-4 -1l22 24h1zM346 -198l19 23h2l-19 -23h-2zM360 -198l19 23h2l-19 -23h-2zM186 369l16 37v-1l1 1l-16 -38zM304 -197q5 6 9.5 11
t9.5 11h2q-5 -6 -9.5 -11t-9.5 -11h-2zM199 621l7 25l1 -1q-1 -5 -2.5 -10.5t-2.5 -10.5zM447 661q-1 1 -1 2l8 17l3 2zM394 -196l16 19h2q-4 -5 -8 -9.5t-8 -9.5h-2zM290 -197l18 22h2q-5 -5 -9.5 -11t-8.5 -11h-2zM410 -195l15 17h1l-13 -17h-3zM202 370l10 23l-8 -23h-2z
M293 -176h2l-17 -21zM514 404q2 8 7 19l-6 -20zM427 -193l10 13h2l-11 -13h-1zM264 -177l-15 -16q3 5 6.5 8.5t6.5 7.5h2zM165 393l1 2l1 1q-2 -4 -3.5 -8.5t-3.5 -8.5q-1 0 -1 1v1l6 13v-1zM496 431l-6 -16l-1 1l6 15v-1zM223 379l6 15l1 -1l-5 -12zM246 -180l-10 -12
q-1 0 -1 1l10 11h1zM225 -187l4 5h3q-2 -2 -3.5 -3t-2.5 -3zM443 -190q1 1 1.5 2.5t1.5 2.5l2 2l1 -1l-4 -5h1zM542 607l5 8v-2q-1 -2 -2 -3.5t-2 -3.5zM555 434l-1 -3q-1 1 -1 2zM527 685l-2 -3v2z" />
    <glyph glyph-name="a" unicode="a" horiz-adv-x="494" 
d="M429 -25q-45 -12 -94 -20.5t-104 -8.5q-40 0 -73 10.5t-57 30.5q-24 19 -37.5 46t-13.5 60v34q0 39 16 66t43 45q26 17 60.5 24.5t72.5 7.5h138v44q0 44 -28.5 70t-84.5 26q-26 0 -44.5 -1.5t-34.5 -4.5q-17 -3 -34 -8.5t-38 -12.5l-18 41q38 14 80 22t93 8
q82 0 120 -36.5t38 -103.5v-339zM232 -11q45 0 77.5 4.5t70.5 14.5v218h-135q-31 0 -58 -5.5t-46 -17.5q-20 -12 -31.5 -32t-11.5 -48v-19q0 -56 38 -85.5t96 -29.5z" />
    <glyph glyph-name="b" unicode="b" horiz-adv-x="505" 
d="M277 454q45 0 79 -12t57 -39t35 -70.5t12 -107.5v-48q0 -126 -46 -178.5t-137 -52.5q-35 0 -64.5 2.5t-54.5 6.5q-26 5 -48.5 11t-44.5 14v706h49v-283q38 25 79.5 38t83.5 13zM411 225q0 52 -7.5 87.5t-23.5 57.5q-17 22 -42 31.5t-61 9.5q-54 0 -96 -21t-67 -44v-334
q27 -11 69 -16.5t94 -5.5q36 0 61 9t42 31q16 21 23.5 57t7.5 90v48z" />
    <glyph glyph-name="c" unicode="c" horiz-adv-x="455" 
d="M261 -10q33 0 69 4t70 15l10 -42q-36 -11 -76.5 -16t-73.5 -5q-62 0 -103.5 15t-66.5 44t-35 70t-10 94v59q0 52 10 94t35 72q25 29 66.5 44.5t103.5 15.5q28 0 62 -3t78 -11l-12 -43q-35 8 -67 10.5t-61 2.5q-49 0 -81 -12t-51 -35t-26.5 -57.5t-7.5 -80.5v-52
q0 -46 7.5 -80.5t26.5 -56.5q18 -23 50.5 -34.5t82.5 -11.5z" />
    <glyph glyph-name="d" unicode="d" horiz-adv-x="505" 
d="M237 454q45 0 82 -13.5t72 -39.5v285h49v-705q-38 -13 -88 -24t-115 -11q-91 0 -141.5 57.5t-50.5 173.5v48q0 118 51 173.5t141 55.5zM94 177q0 -97 36 -141.5t107 -44.5q51 0 90.5 7t63.5 16v330q-9 10 -24.5 21.5t-35.5 21.5q-20 9 -44.5 15.5t-49.5 6.5
q-143 0 -143 -184v-48z" />
    <glyph glyph-name="e" unicode="e" horiz-adv-x="486" 
d="M93 216h301v54q0 140 -153 140q-71 0 -109.5 -41.5t-38.5 -105.5v-47zM248 -10q53 0 88 5.5t73 19.5l13 -40q-38 -16 -79 -22.5t-95 -6.5q-43 0 -80 14t-64 41q-28 26 -43.5 64t-15.5 87v97q0 100 52.5 152.5t143.5 52.5q54 0 92 -15.5t62 -41.5q24 -27 35 -62t11 -75
v-45q0 -27 -14 -35t-30 -8h-304v-29q0 -41 12.5 -69.5t34.5 -47.5q21 -19 49 -27.5t59 -8.5z" />
    <glyph glyph-name="f" unicode="f" horiz-adv-x="352" 
d="M294 356h-156v-396h-49v396h-59v44h59v147q0 64 31 105t101 41q29 0 53 -4t43 -10l-17 -39q-18 5 -40 7.5t-39 2.5q-25 0 -41 -9.5t-25 -23.5q-10 -15 -13.5 -33.5t-3.5 -36.5v-147h156v-44z" />
    <glyph glyph-name="g" unicode="g" horiz-adv-x="505" 
d="M440 444v-501q0 -42 -12 -77t-36 -61q-25 -25 -63.5 -39.5t-91.5 -14.5q-42 0 -79.5 6.5t-77.5 24.5l16 39q32 -14 63 -20t69 -6q27 0 56 5.5t53 20.5q23 15 38.5 42t15.5 69v61q-36 -29 -73.5 -38t-69.5 -9q-102 0 -152.5 63t-50.5 183v18q0 121 51.5 182.5t151.5 61.5
q42 0 76 -12.5t67 -36.5v39h49zM94 192q0 -49 7.5 -86.5t25.5 -62.5q18 -26 47.5 -39.5t73.5 -13.5q19 0 39.5 4t40.5 12q19 7 35.5 18t27.5 25v306q-27 24 -65 39.5t-78 15.5q-44 0 -73.5 -14t-47.5 -39q-18 -26 -25.5 -63.5t-7.5 -83.5v-18z" />
    <glyph glyph-name="h" unicode="h" horiz-adv-x="506" 
d="M392 -40v305q0 75 -29.5 109.5t-98.5 34.5q-38 0 -75 -16.5t-75 -37.5v-395h-49v726h49v-283q42 24 81.5 37.5t77.5 13.5q83 0 125.5 -48t42.5 -130v-316h-49z" />
    <glyph glyph-name="i" unicode="i" horiz-adv-x="193" 
d="M70 674h53v-111h-53v111zM121 454v-494h-49v494h49z" />
    <glyph glyph-name="j" unicode="j" horiz-adv-x="296" 
d="M176 454h48v-535q0 -78 -29.5 -123t-97.5 -45q-18 0 -34.5 2t-32.5 5l8 42q13 -2 30.5 -3.5t31.5 -1.5q38 0 57 28t19 76v555zM174 674h52v-111h-52v111z" />
    <glyph glyph-name="k" unicode="k" horiz-adv-x="454" 
d="M230 256q22 -33 48.5 -72.5t53.5 -79.5q26 -41 50 -78.5t42 -65.5h-53q-16 27 -37.5 61t-44.5 70q-24 35 -47.5 69t-42.5 61l-85 -96v-165h-49v726h49v-498l226 256h56z" />
    <glyph glyph-name="l" unicode="l" horiz-adv-x="187" 
d="M117 686v-726h-47v726h47z" />
    <glyph glyph-name="m" unicode="m" horiz-adv-x="737" 
d="M348 -40v315q0 30 -4.5 55t-14.5 43q-11 18 -29 28t-45 10q-40 0 -71 -16.5t-70 -46.5v-388h-49v484h49v-47q35 29 73.5 43t76.5 14t68 -15.5t49 -47.5q38 32 79 47.5t79 15.5q70 0 101.5 -41.5t31.5 -123.5v-329h-49v327q0 60 -21 92t-72 32q-40 0 -72.5 -17t-66.5 -45
q3 -17 4.5 -31.5t1.5 -31.5v-326h-49z" />
    <glyph glyph-name="n" unicode="n" horiz-adv-x="513" 
d="M399 -40v306q0 30 -7 56t-22 46q-16 19 -40.5 30.5t-58.5 11.5q-39 0 -79 -18t-78 -42v-390h-49v484h49v-45q43 26 85.5 40.5t80.5 14.5q83 0 125.5 -47.5t42.5 -129.5v-317h-49z" />
    <glyph glyph-name="o" unicode="o" horiz-adv-x="509" 
d="M415 235q0 84 -37 132.5t-124 48.5t-123.5 -48.5t-36.5 -132.5v-63q0 -41 8.5 -75t28.5 -58q19 -24 49 -37t74 -13q43 0 74 13t50 37t28 58t9 75v63zM254 459q100 0 155 -57.5t55 -166.5v-63q0 -110 -54 -168t-156 -58q-99 0 -154 58t-55 168v63q0 109 55.5 166.5
t153.5 57.5z" />
    <glyph glyph-name="p" unicode="p" horiz-adv-x="505" 
d="M277 454q43 0 77 -12.5t58 -39.5q23 -28 35.5 -71.5t12.5 -105.5v-48q0 -123 -48 -177t-135 -54q-42 0 -84.5 11.5t-78.5 36.5v-228h-49v656q51 14 101.5 23t110.5 9zM411 225q0 97 -34.5 141.5t-99.5 44.5q-45 0 -85.5 -6.5t-77.5 -16.5v-341q29 -28 67.5 -42.5
t95.5 -14.5q64 0 99 42.5t35 144.5v48z" />
    <glyph glyph-name="q" unicode="q" horiz-adv-x="505" 
d="M233 454q58 0 109.5 -8t97.5 -19v-661h-49v230q-14 -13 -33.5 -22.5t-40.5 -15.5t-43 -9t-41 -3q-87 0 -137.5 54t-50.5 177v48q0 62 13.5 105.5t38.5 71.5q24 27 58.5 39.5t77.5 12.5zM94 177q0 -102 37 -144.5t102 -42.5q30 0 56 6t47 16q20 9 34 20.5t21 23.5v338
q-35 8 -73.5 12.5t-84.5 4.5q-65 0 -102 -44.5t-37 -141.5v-48z" />
    <glyph glyph-name="r" unicode="r" horiz-adv-x="362" 
d="M312 406q-11 2 -23 3t-23 1q-38 0 -76.5 -15t-75.5 -57v-378h-49v484h49v-55q40 40 81 52.5t82 12.5q22 0 45 -5z" />
    <glyph glyph-name="s" unicode="s" horiz-adv-x="423" 
d="M200 454q37 0 72 -4t70 -15l-17 -43q-33 11 -62 15.5t-64 2.5q-58 -3 -84 -21.5t-26 -55.5q0 -31 16.5 -52t63.5 -35l92 -28q56 -17 89 -48t33 -87q0 -67 -48.5 -102t-126.5 -35q-41 0 -84.5 8t-81.5 24l16 44q39 -16 73 -24t76 -7q60 1 93.5 24t33.5 68q0 67 -82 92
l-92 28q-60 18 -90 47t-30 83q0 22 9 44t29 39q19 17 49.5 27.5t72.5 10.5z" />
    <glyph glyph-name="t" unicode="t" horiz-adv-x="361" 
d="M326 -39q-17 -7 -36 -11t-39 -4q-69 0 -96 30t-27 89v336h-93v44h93v220h49v-220h134v-44h-134v-335q0 -41 14 -59t62 -18q19 0 33 3.5t30 8.5z" />
    <glyph glyph-name="u" unicode="u" horiz-adv-x="514" 
d="M114 445v-322q0 -133 135 -133q41 0 78.5 5t72.5 19v431h49v-465q-50 -17 -99.5 -25.5t-109.5 -8.5q-83 0 -129 43.5t-46 133.5v322h49z" />
    <glyph glyph-name="v" unicode="v" horiz-adv-x="483" 
d="M216 -40l-186 484h52l163 -438l161 438h47l-181 -484h-56z" />
    <glyph glyph-name="w" unicode="w" horiz-adv-x="694" 
d="M664 444l-137 -484h-52l-127 361l-126 -361h-52l-140 484h48l120 -433l126 366q3 9 9.5 13t14.5 4t15 -4.5t10 -12.5l126 -366l121 433h44z" />
    <glyph glyph-name="x" unicode="x" horiz-adv-x="474" 
d="M30 -40l178 244l-171 240h54l145 -208l146 208h56l-171 -240l177 -244h-55l-150 210l-152 -210h-57z" />
    <glyph glyph-name="y" unicode="y" horiz-adv-x="468" 
d="M212 -20l-182 464h51l155 -402l152 402h50l-260 -678h-47z" />
    <glyph glyph-name="z" unicode="z" horiz-adv-x="432" 
d="M382 4v-44h-332v39l261 401h-247v44h305v-41l-260 -399h273z" />
    <glyph glyph-name="braceleft" unicode="{" horiz-adv-x="407" 
d="M337 -83h-47q-98 0 -98 111v201q0 37 -26.5 58t-61.5 28v40q39 4 63.5 23.5t24.5 61.5v205q0 56 25 86t78 30h42v-37q-52 -3 -76 -20.5t-24 -59.5v-198q0 -39 -15 -69t-44 -41q29 -14 44 -46t15 -67v-190q0 -44 23.5 -60.5t76.5 -18.5v-37z" />
    <glyph glyph-name="bar" unicode="|" horiz-adv-x="293" 
d="M173 737v-799h-40v799h40z" />
    <glyph glyph-name="braceright" unicode="}" horiz-adv-x="408" 
d="M80 -46q52 2 76.5 18.5t24.5 60.5v190q0 35 13.5 63.5t45.5 48.5q-59 32 -59 111v198q0 42 -24.5 59.5t-76.5 20.5v37h42q53 0 78.5 -30t25.5 -86v-205q0 -42 24.5 -61.5t63.5 -23.5v-40q-40 -6 -64 -27t-24 -59v-201q0 -111 -99 -111h-47v37z" />
    <glyph glyph-name="asciitilde" unicode="~" horiz-adv-x="703" 
d="M646 384q-2 -33 -10.5 -63t-26.5 -53t-45.5 -36.5t-66.5 -13.5q-50 0 -86.5 24t-68.5 61q-17 20 -31.5 34t-28.5 23q-14 8 -28.5 12t-32.5 4q-50 0 -76 -33t-32 -87h-46q4 36 16 66t31 52q19 21 45.5 33.5t60.5 12.5q50 0 86.5 -25t77.5 -73q23 -27 48.5 -43t62.5 -16
q52 0 78.5 29t29.5 92h43z" />
    <glyph glyph-name="uni00A0" unicode="&#xa0;" horiz-adv-x="280" 
 />
    <glyph glyph-name="exclamdown" unicode="&#xa1;" horiz-adv-x="268" 
d="M152 350l16 -570h-68l17 570h35zM104 547h63v-96h-63v96z" />
    <glyph glyph-name="currency" unicode="&#xa4;" horiz-adv-x="766" 
d="M149 566h38l58 -67q41 26 78.5 36.5t72.5 10.5q32 0 68 -7.5t75 -27.5l52 55h42l-70 -77q35 -36 54 -79.5t19 -91.5q0 -50 -15 -92.5t-44 -77.5l58 -71h-40l-44 48q-40 -23 -78.5 -32t-75.5 -9q-42 0 -81.5 11t-81.5 40l-53 -58h-43l74 83q-52 68 -52 158q0 45 17 85.5
t47 75.5zM202 319q0 -90 50.5 -145t144.5 -55q98 0 147.5 51t49.5 147q0 43 -15 79t-41 62q-27 25 -63.5 39t-79.5 14q-42 0 -77.5 -14.5t-60.5 -39.5q-26 -26 -40.5 -61t-14.5 -77z" />
    <glyph glyph-name="section" unicode="&#xa7;" horiz-adv-x="356" 
d="M265 341q0 22 -20 44t-48 37q-39 -8 -66 -29.5t-27 -53.5q0 -26 23 -48t65 -42q35 10 54 35t19 57zM238 633q-24 7 -50 7q-44 0 -69 -13t-25 -45q0 -13 9.5 -26.5t23.5 -25.5q13 -13 29 -24t28 -19q24 -15 47 -32t41 -35t29 -37.5t11 -40.5q0 -39 -20.5 -69.5
t-58.5 -51.5q51 -36 69.5 -65.5t18.5 -54.5q0 -50 -37 -83t-123 -33q-26 0 -50 3.5t-46 13.5l25 42q20 -7 39 -10t32 -3q54 0 82.5 17.5t28.5 50.5q0 16 -11.5 32.5t-27.5 31.5q-17 14 -36 26.5t-34 20.5q-17 9 -36 22t-35 29q-17 15 -27.5 34.5t-10.5 42.5q0 32 21.5 62.5
t74.5 49.5q-46 32 -77 63t-31 66q0 50 40 77.5t111 27.5q39 0 72 -11z" />
    <glyph glyph-name="dieresis" unicode="&#xa8;" horiz-adv-x="285" 
d="M86 584h-57v72h57v-72zM258 584h-56v72h56v-72z" />
    <glyph glyph-name="ordfeminine" unicode="&#xaa;" horiz-adv-x="432" 
d="M297 535q-94 -2 -124 -9q-30 -8 -46 -30t-16 -53q0 -29 19 -50t53 -21q37 0 66 17t48 37v109zM56 225v29h325v-29h-325zM297 347v48q-18 -19 -47.5 -35.5t-68.5 -16.5q-49 0 -74.5 28.5t-25.5 70.5q0 84 86 109q17 5 50.5 7t79.5 2v35q0 37 -21 55.5t-72 18.5
q-20 0 -42 -7.5t-40 -16.5l-16 22q21 14 48 23t51 9q58 0 90 -24t32 -82v-246h-30z" />
    <glyph glyph-name="uni00AD" unicode="&#xad;" horiz-adv-x="592" 
d="M90 301v39h418v-39h-418z" />
    <glyph glyph-name="registered" unicode="&#xae;" horiz-adv-x="880" 
d="M53 327q0 85 28.5 155.5t80.5 121.5q51 51 122 79t156 28q84 0 155 -28t123 -79q51 -51 79.5 -121.5t28.5 -155.5t-28.5 -156t-79.5 -122q-52 -51 -123 -79t-155 -28q-85 0 -156 28t-122 79q-52 51 -80.5 122t-28.5 156zM92 327q0 -75 25 -138.5t71 -109.5t110 -72
t141 -26q76 0 139.5 26t109.5 72q45 46 70.5 109.5t25.5 138.5t-25 138t-70 109q-46 46 -109.5 71.5t-140.5 25.5t-141 -26t-109 -71q-46 -46 -71.5 -109t-25.5 -138zM334 297v-222h-40v506h146q85 0 125.5 -34.5t40.5 -100.5v-14q0 -17 -4 -36t-14 -36q-11 -18 -28 -32.5
t-44 -21.5q14 -26 29 -56.5t29 -60.5q14 -31 26.5 -60.5t22.5 -53.5h-40q-10 24 -22 52t-25 58q-14 29 -28 58.5t-29 55.5q-15 -2 -23 -2h-16h-106zM334 546v-214h106q60 0 92 22t32 78v14q0 54 -31 77t-93 23h-106z" />
    <glyph glyph-name="degree" unicode="&#xb0;" horiz-adv-x="312" 
d="M73 691q0 38 24.5 61.5t59.5 23.5t59.5 -23.5t24.5 -61.5q0 -37 -24.5 -60.5t-59.5 -23.5t-59.5 23.5t-24.5 60.5zM96 691q0 -27 16 -45.5t45 -18.5q26 0 44 18.5t18 45.5t-18 46t-44 19q-29 0 -45 -19t-16 -46z" />
    <glyph glyph-name="plusminus" unicode="&#xb1;" horiz-adv-x="671" 
d="M117 54h438v-45h-438v45zM359 399h205v-45h-205v-199h-49v199h-203v45h203v195h49v-195z" />
    <glyph glyph-name="uni00B2" unicode="&#xb2;" horiz-adv-x="298" 
d="M43 286v36q0 22 8.5 43t19.5 35q7 9 15.5 18t20.5 20q11 11 27.5 25.5t39.5 34.5q31 27 41.5 48t10.5 50q0 33 -23 54t-61 21q-22 0 -39.5 -10t-33.5 -24l-24 24q18 17 43 29.5t55 12.5q51 0 83.5 -30.5t32.5 -77.5q0 -35 -15 -63.5t-42 -51.5q-25 -22 -48 -41t-47 -46
q-27 -31 -27 -59v-14h176v-34h-213z" />
    <glyph glyph-name="uni00B3" unicode="&#xb3;" horiz-adv-x="298" 
d="M126 703q24 0 46 -6t38 -18q16 -13 25.5 -32t9.5 -44q0 -32 -14.5 -56.5t-44.5 -39.5q37 -15 54.5 -41.5t17.5 -61.5q0 -58 -35.5 -91t-96.5 -32q-20 0 -47 5t-48 16l10 30q25 -11 46.5 -14.5t38.5 -3.5q49 0 73.5 24t24.5 64q0 19 -8 35.5t-21 28.5q-14 12 -32.5 18.5
t-38.5 6.5h-44v29h44q45 0 66 24t21 60q0 32 -22 50.5t-64 18.5q-23 0 -38 -4.5t-31 -13.5l-14 26q19 11 41 16.5t43 5.5z" />
    <glyph glyph-name="acute" unicode="&#xb4;" horiz-adv-x="253" 
d="M131 771h51l-77 -146h-23z" />
    <glyph glyph-name="paragraph" unicode="&#xb6;" horiz-adv-x="790" 
d="M572 715v-830h-41v786h-74v-786h-39v408q-47 3 -84.5 20.5t-63.5 46.5q-26 28 -39.5 65.5t-13.5 81.5q0 41 13 78.5t38 66.5t61.5 46t82.5 17h160z" />
    <glyph glyph-name="periodcentered" unicode="&#xb7;" horiz-adv-x="295" 
d="M183 297h-71v88h71v-88z" />
    <glyph glyph-name="cedilla" unicode="&#xb8;" horiz-adv-x="333" 
d="M148 -56q35 -4 62 -23t27 -55q0 -20 -11 -35t-29 -26q-18 -10 -41 -15.5t-47 -5.5h-17v38q48 2 75 13t27 38q0 20 -23.5 31t-53.5 11h-23l21 93l44 -6z" />
    <glyph glyph-name="uni00B9" unicode="&#xb9;" horiz-adv-x="296" 
d="M172 286h-34v377l-72 -27l-12 29l99 37q6 2 12.5 -1.5t6.5 -8.5v-406z" />
    <glyph glyph-name="ordmasculine" unicode="&#xba;" horiz-adv-x="440" 
d="M378 523q0 -42 -12.5 -75t-33.5 -56q-21 -24 -49.5 -36t-59.5 -12t-58.5 12t-47.5 36q-20 23 -32 56t-12 75t12 75t32 56t47.5 35.5t58.5 12.5t59.5 -12.5t49.5 -35.5t33.5 -56t12.5 -75zM109 520q0 -31 8 -57t23 -45t36 -30t47 -11q28 0 50 11t37 30t23 45.5t8 57.5
q0 66 -31 106.5t-87 40.5q-51 0 -82.5 -40.5t-31.5 -107.5zM56 229v29h333v-29h-333z" />
    <glyph glyph-name="onequarter" unicode="&#xbc;" horiz-adv-x="780" 
d="M628 690l-442 -748h-36l442 748h36zM169 286h-31v378l-73 -27l-11 28l103 37q4 0 8 -3t4 -7v-406zM496 55h136v232zM663 22v-80h-31v80h-175v27l176 297h30v-291h48v-33h-48z" />
    <glyph glyph-name="onehalf" unicode="&#xbd;" horiz-adv-x="777" 
d="M590 690l-442 -748h-36l442 748h36zM169 286h-31v380l-73 -29l-11 28l103 37q4 0 8 -3t4 -7v-406zM503 -58v36q0 22 8.5 43t19.5 35q7 10 15.5 19t20.5 20q11 10 27.5 24.5t39.5 34.5q31 27 41.5 48t10.5 50q0 33 -23 54t-61 21q-22 0 -39.5 -10t-33.5 -24l-24 24
q18 17 43 29.5t55 12.5q51 0 83.5 -30.5t32.5 -77.5q0 -35 -15 -63.5t-42 -51.5q-25 -22 -47.5 -42.5t-46.5 -47.5q-28 -32 -28 -56v-14h176v-34h-213z" />
    <glyph glyph-name="threequarters" unicode="&#xbe;" horiz-adv-x="779" 
d="M629 690l-442 -748h-36l442 748h36zM126 703q24 0 46 -6t38 -18q16 -13 25.5 -32t9.5 -44q0 -32 -14.5 -56.5t-44.5 -39.5q37 -15 54.5 -41.5t17.5 -61.5q0 -58 -35.5 -91t-96.5 -32q-20 0 -47 5t-48 16l10 30q25 -11 46.5 -14.5t38.5 -3.5q49 0 73.5 24t24.5 64
q0 19 -8 35.5t-21 28.5q-14 12 -32.5 18.5t-38.5 6.5h-44v29h44q45 0 66 24t21 60q0 32 -22 50.5t-64 18.5q-23 0 -38 -4.5t-31 -13.5l-14 26q19 11 41 16.5t43 5.5zM497 55h136v232zM664 22v-80h-31v80h-175v27l176 297h30v-291h48v-33h-48z" />
    <glyph glyph-name="questiondown" unicode="&#xbf;" horiz-adv-x="489" 
d="M309 350v-76q0 -42 -8 -63.5t-27 -35.5l-92 -64q-23 -16 -38 -31t-24 -32t-13 -36.5t-4 -43.5q0 -65 46 -104t134 -39q45 0 83.5 7.5t82.5 18.5l5 -43q-26 -8 -47.5 -13t-41.5 -8t-39.5 -4t-40.5 -1q-51 0 -93.5 12.5t-72.5 35.5q-31 24 -48 58.5t-17 78.5q0 56 20.5 96
t55.5 65l91 64q13 10 21 18t12 17t5 20.5t1 27.5v75h49zM255 547h60v-94h-60v94z" />
    <glyph glyph-name="AE" unicode="&#xc6;" horiz-adv-x="777" 
d="M185 182l-122 -224h-47l395 730h341v-46h-296v-288h258v-47h-258v-303h317v-46h-366v224h-222zM208 225h199v364z" />
    <glyph glyph-name="Eth" unicode="&#xd0;" horiz-adv-x="734" 
d="M168 688h203q77 0 138 -29t103 -79t64.5 -116.5t22.5 -140.5q0 -73 -23 -139t-65 -116q-43 -51 -103.5 -80.5t-136.5 -29.5h-203v360h-132v40h132v330zM385 318h-169v-314h155q68 0 120 27.5t88 72.5q35 45 53 102t18 116q0 65 -18 123.5t-53 102.5q-36 43 -88.5 68.5
t-121.5 25.5h-153v-284h169v-40z" />
    <glyph glyph-name="multiply" unicode="&#xd7;" horiz-adv-x="668" 
d="M143 165l158 159l-157 157l33 34l157 -157l158 157l32 -34l-157 -157l158 -157l-34 -34l-158 156l-157 -157z" />
    <glyph glyph-name="Oslash" unicode="&#xd8;" horiz-adv-x="777" 
d="M229 -116l48 138q-44 18 -81.5 48.5t-64.5 70.5q-28 40 -43.5 87.5t-15.5 99.5q0 73 25 133t69 103q43 43 102 66.5t126 23.5q50 0 95 -15l38 110h26l-41 -118q44 -17 82 -46.5t66 -68.5q27 -40 43 -87.5t16 -100.5q0 -71 -25 -131.5t-69 -104.5t-103 -68.5t-128 -24.5
q-50 0 -95 15l-45 -130h-25zM669 328q0 43 -12.5 83.5t-34.5 74.5q-23 34 -54.5 60t-70.5 42l-183 -530q37 -12 80 -12q67 0 118 22.5t86 60.5t53 89.5t18 109.5zM122 328q0 -43 12 -83.5t35 -74.5q22 -35 53 -61.5t70 -42.5l182 530q-38 12 -80 12q-63 0 -113 -20.5
t-85 -57.5q-36 -38 -55 -89.5t-19 -112.5z" />
    <glyph glyph-name="Thorn" unicode="&#xde;" horiz-adv-x="551" 
d="M100 -42v730h48v-139h141q47 0 87 -16t69 -45t45.5 -69.5t16.5 -88.5t-16.5 -88t-45.5 -69t-69 -45t-87 -16h-141v-154h-48zM289 156q36 0 67 13.5t55 37.5q23 23 36 55t13 68q0 37 -12.5 69t-35.5 56q-23 23 -54.5 36.5t-68.5 13.5h-141v-349h141z" />
    <glyph glyph-name="germandbls" unicode="&#xdf;" horiz-adv-x="534" 
d="M74 -29v531q0 49 15 86t42 62q26 24 62.5 36.5t78.5 12.5q41 0 76.5 -12.5t62.5 -35.5q26 -23 41.5 -56t15.5 -74q0 -27 -8 -54.5t-23 -51.5q-16 -25 -39 -43t-52 -25q45 -6 76.5 -23.5t52.5 -42.5q20 -25 29 -56t9 -63q0 -48 -18.5 -83.5t-49.5 -59.5q-32 -24 -73.5 -36
t-87.5 -12h-80v40h78q89 0 136 40.5t47 112.5q0 33 -12 61.5t-35 49.5q-24 21 -58 33t-78 12h-159v-349h-49zM123 364h147q31 0 58.5 12.5t48.5 33.5q20 21 32 48.5t12 58.5q0 28 -10 53t-29 44t-47.5 30t-64.5 11q-30 0 -56.5 -10t-46.5 -29t-32 -48t-12 -66v-138z" />
    <glyph glyph-name="ae" unicode="&#xe6;" horiz-adv-x="854" 
d="M759 -9q-28 -16 -62.5 -24.5t-85.5 -7.5q-59 1 -113 27t-83 81q-38 -58 -87.5 -83t-126.5 -25q-63 0 -101.5 38.5t-38.5 105.5q0 63 31.5 103.5t90.5 56.5q32 8 84.5 12t113.5 5v52q0 54 -38.5 78t-106.5 24q-23 0 -51 -9t-54 -23l-25 38q31 19 68.5 29t74.5 10
q38 0 65 -6t47 -18q20 -13 34 -31.5t26 -42.5q15 19 34 37t42 32q23 13 48.5 21t54.5 8q52 0 90 -18t63 -50q25 -33 37.5 -79t12.5 -101v-15.5t-2 -19.5h-375q2 -43 15 -79t37 -61q24 -26 57.5 -40.5t75.5 -14.5q35 0 68.5 6t60.5 17zM381 241q-64 0 -111 -4.5t-75 -13.5
q-49 -16 -67 -46.5t-18 -71.5q0 -54 27.5 -78t74.5 -26q27 -2 55.5 5.5t52.5 23.5t40.5 40.5t20.5 57.5v113zM754 238q-1 96 -41 147.5t-115 51.5q-30 0 -60 -13.5t-54 -38.5q-24 -26 -39 -63t-15 -84h324z" />
    <glyph glyph-name="eth" unicode="&#xf0;" horiz-adv-x="484" 
d="M138 686q82 -19 142 -63l61 65h46l-79 -86q75 -65 110.5 -160.5t35.5 -210.5q0 -62 -13.5 -112t-39.5 -85q-27 -35 -67 -54t-94 -19q-46 0 -83 15.5t-63 44.5q-27 28 -41 67.5t-14 86.5q0 44 13.5 82t38.5 67q25 28 60.5 44.5t79.5 16.5q52 0 96 -16.5t79 -53.5
q-17 90 -47 152.5t-78 104.5l-59 -65h-51l82 88q-52 37 -123 59zM87 172q0 -37 9 -68t29 -53q19 -23 49 -35.5t72 -12.5q80 0 120.5 56.5t40.5 152.5v23.5t-1 22.5q-38 50 -80.5 68t-87.5 18q-75 0 -113 -48.5t-38 -123.5z" />
    <glyph glyph-name="divide" unicode="&#xf7;" horiz-adv-x="672" 
d="M364 489h-62v82h62v-82zM364 111h-62v81h62v-81zM132 365h408v-46h-408v46z" />
    <glyph glyph-name="oslash" unicode="&#xf8;" horiz-adv-x="563" 
d="M118 -230l69 196q-63 26 -103.5 86t-40.5 159q0 56 15.5 104.5t46.5 84.5q30 36 76 56.5t107 20.5q37 0 75 -9l64 182h26l-66 -188q28 -10 54 -28.5t46 -48.5q19 -30 30.5 -72.5t11.5 -101.5q0 -56 -14.5 -104t-44.5 -83q-30 -36 -75 -56.5t-106 -20.5q-43 0 -80 12
l-66 -189h-25zM479 211q0 31 -7 61.5t-21 56.5q-15 26 -35.5 47t-47.5 34l-143 -406q28 -9 61 -9q47 0 83 15.5t61 44.5q24 28 36.5 68t12.5 88zM93 211q0 -31 7 -61t21 -56t34.5 -47t47.5 -34l143 406q-29 9 -60 9q-47 0 -83 -15.5t-60 -43.5q-25 -29 -37.5 -69t-12.5 -89z
" />
    <glyph glyph-name="thorn" unicode="&#xfe;" horiz-adv-x="563" 
d="M91 -266h-48v916h48v-266q16 23 39.5 40.5t50.5 29.5q26 11 54 17t53 6q61 0 106.5 -21t75.5 -57t44.5 -84.5t14.5 -103.5q0 -56 -14.5 -104.5t-44.5 -83.5q-30 -36 -75 -56t-106 -20q-51 0 -105 20t-93 71v-304zM93 211q0 -48 12.5 -88t37.5 -68q24 -29 60 -44.5
t83 -15.5t83 15.5t61 44.5q24 28 36.5 68t12.5 88q0 49 -12.5 89t-36.5 69q-25 28 -61 43.5t-83 15.5t-83 -15.5t-60 -43.5q-25 -29 -37.5 -69t-12.5 -89z" />
    <glyph glyph-name="dcroat" unicode="&#x111;" horiz-adv-x="599" 
d="M259 -62q-53 0 -93.5 20t-68.5 56q-29 35 -43.5 84t-14.5 108t15 107t43 83q28 34 69 52.5t94 18.5q48 0 86 -13t80 -45v162h-135v40h135v94h49v-94h108v-40h-108v-613h-49v53q-34 -34 -80 -53.5t-87 -19.5zM426 358q-38 31 -74 46.5t-76 15.5q-89 0 -137.5 -56.5
t-48.5 -162.5q0 -109 48 -163t136 -54q40 0 80.5 24.5t71.5 59.5v290z" />
    <glyph glyph-name="Hbar" unicode="&#x126;" horiz-adv-x="714" 
d="M678 491h-70v-532h-50v350h-395v-350h-49v532h-71v44h71v153h49v-153h395v153h50v-153h70v-44zM558 356v135h-395v-135h395z" />
    <glyph glyph-name="hbar" unicode="&#x127;" horiz-adv-x="554" 
d="M40 576v40h106v89h50v-89h136v-40h-136v-180q20 22 43.5 37.5t46.5 25.5q23 9 44 13.5t36 4.5q68 0 111.5 -43.5t43.5 -123.5v-352h-49v350q0 66 -30.5 94t-88.5 28q-19 0 -40 -7t-42 -19q-21 -13 -40.5 -29.5t-34.5 -34.5v-382h-50v618h-106z" />
    <glyph glyph-name="dotlessi" unicode="&#x131;" horiz-adv-x="217" 
d="M87 -43v510h50v-510h-50z" />
    <glyph glyph-name="IJ" unicode="&#x132;" horiz-adv-x="594" 
d="M58 -43v730h49v-730h-49zM207 -211q47 23 76.5 49.5t46.5 57.5t23.5 66.5t6.5 76.5v602h-132v46h313v-46h-132v-619q0 -100 -49 -168.5t-153 -109.5v45z" />
    <glyph glyph-name="ij" unicode="&#x133;" horiz-adv-x="462" 
d="M90 -43v511h49v-511h-49zM158 681q0 -21 -14 -34t-31 -13q-16 0 -29.5 13t-13.5 34q0 20 13 33t30 13q19 0 32 -13t13 -33zM200 -195q44 26 70 54t40 59q13 32 16.5 67t3.5 74v409h50v-437q0 -100 -55 -178q-21 -27 -53 -51.5t-72 -43.5v47zM398 679q0 -21 -13.5 -34
t-30.5 -13q-16 0 -30 13t-14 34q0 20 13.5 33t30.5 13q18 0 31 -13t13 -33z" />
    <glyph glyph-name="kgreenlandic" unicode="&#x138;" horiz-adv-x="473" 
d="M168 221q34 36 59 76t37 69q24 59 48.5 88t59.5 29q13 0 32 -6t37 -17l-22 -37q-9 5 -18.5 9.5t-21.5 4.5q-27 0 -40 -20.5t-28 -52.5q-20 -45 -38 -75t-46 -61l232 -271h-59zM84 468h53v-511h-53v511z" />
    <glyph glyph-name="Ldot" unicode="&#x13f;" horiz-adv-x="468" 
d="M400 359q0 -19 -12 -32.5t-30 -13.5q-19 0 -31.5 13.5t-12.5 32.5t12.5 32.5t31.5 13.5q18 0 30 -13.5t12 -32.5zM452 -42h-361v730h49v-684h312v-46z" />
    <glyph glyph-name="ldot" unicode="&#x140;" horiz-adv-x="406" 
d="M344 331q0 -19 -11.5 -32t-29.5 -13q-19 0 -31.5 13t-12.5 32t12.5 33t31.5 14q18 0 29.5 -14t11.5 -33zM81 -42v735h50v-735h-50z" />
    <glyph glyph-name="Lslash" unicode="&#x141;" horiz-adv-x="546" 
d="M174 249l-110 -128h-33l143 166v401h48v-345l148 173h33l-181 -211v-301h312v-46h-360v291z" />
    <glyph glyph-name="lslash" unicode="&#x142;" horiz-adv-x="428" 
d="M209 -42v332l-144 -169h-33l177 207v365h49v-307l114 134h33l-147 -173v-389h-49z" />
    <glyph glyph-name="napostrophe" unicode="&#x149;" horiz-adv-x="678" 
d="M556 -42v341q0 67 -35.5 99.5t-98.5 32.5q-44 0 -84.5 -22.5t-73.5 -57.5v-393h-51v510h50v-61q42 44 88.5 58t84.5 14q27 0 57 -9t55 -28t41 -50t16 -74v-360h-49zM120 583q-23 -2 -39 9t-16 29q0 26 11 35.5t31 9.5q47 0 47 -61q0 -21 -3.5 -43t-12.5 -42
q-10 -21 -28.5 -38.5t-48.5 -30.5v18q25 13 42 39.5t17 56.5v18z" />
    <glyph glyph-name="Eng" unicode="&#x14a;" horiz-adv-x="694" 
d="M441 -211q38 19 64 40t43 43q17 23 27 48t15 52l-450 633v-648h-49v730h45l456 -643v643h50v-657q0 -106 -49 -174t-152 -112v45z" />
    <glyph glyph-name="eng" unicode="&#x14b;" horiz-adv-x="536" 
d="M296 -196q45 25 71 53.5t40 59.5q13 32 17 67t4 74v239q0 33 -12 58t-31 42q-20 16 -45 24t-51 8q-45 0 -83.5 -24.5t-71.5 -63.5v-385h-50v510h49v-71q38 45 82 63.5t93 18.5q27 0 57 -9t55 -28t41 -50t16 -74v-286q0 -52 -14 -95.5t-43 -82.5q-20 -27 -53 -53t-71 -43
v48z" />
    <glyph glyph-name="OE" unicode="&#x152;" horiz-adv-x="854" 
d="M485 15h307v-44h-338q-24 -10 -48 -15t-53 -5q-77 0 -135 30t-97 82q-39 51 -58.5 121t-19.5 150q0 78 20 144.5t59 115.5t97 77t134 28q28 0 72 -11h346v-42h-286v-285h249v-45h-249v-301zM351 -4q17 0 40 4t47 11v629q-49 17 -85 17q-64 0 -112.5 -26t-81.5 -70
q-33 -45 -49.5 -103.5t-16.5 -123.5q0 -71 16.5 -132.5t48.5 -106.5q32 -46 80.5 -72.5t112.5 -26.5z" />
    <glyph glyph-name="oe" unicode="&#x153;" horiz-adv-x="854" 
d="M781 -7q-26 -14 -60 -24t-80 -10q-32 0 -63 8t-58 23t-49 37t-35 51q-17 -35 -38.5 -57.5t-45.5 -35.5q-25 -14 -50.5 -19.5t-49.5 -5.5q-48 0 -87 17.5t-66 51.5q-28 34 -43 83t-15 111q0 60 15 107.5t43 80.5q27 33 65.5 50.5t86.5 17.5q24 0 50 -5.5t51 -18.5
q24 -13 46.5 -35.5t39.5 -56.5q32 60 83 88t108 28q100 0 145.5 -64.5t45.5 -173.5v-21.5t-2 -21.5h-356q2 -93 49.5 -146t129.5 -53q70 0 118 29zM90 225q0 -57 12 -99t34 -69q21 -28 50 -41.5t63 -13.5q68 0 113.5 47t51.5 146v44q-2 48 -15.5 85t-35.5 62
q-23 25 -52 37.5t-62 12.5q-34 0 -63 -14t-50 -41q-22 -27 -34 -66t-12 -90zM773 238q0 96 -35.5 147.5t-110.5 51.5q-34 0 -63 -13.5t-51 -39.5t-34.5 -63t-13.5 -83h308z" />
    <glyph glyph-name="Tbar" unicode="&#x166;" horiz-adv-x="470" 
d="M408 321h-146v-363h-50v363h-146v40h146v281h-195v46h440v-46h-195v-281h146v-40z" />
    <glyph glyph-name="tbar" unicode="&#x167;" horiz-adv-x="361" 
d="M33 219v44h83v146h-88v44h88v184h49v-184h153v-44h-153v-146h143v-44h-143v-178q0 -40 58 -40q9 0 22 0.5t28 1.5t30.5 3t29.5 5v-43q-27 -6 -60 -10t-68 -4q-17 0 -32.5 4t-28.5 13q-13 10 -20.5 25t-7.5 36v187h-83z" />
    <glyph glyph-name="caron" unicode="&#x2c7;" horiz-adv-x="297" 
d="M130 617l-94 140h36l79 -115l76 115h39l-97 -140h-39z" />
    <glyph glyph-name="uni02D0" unicode="&#x2d0;" horiz-adv-x="185" 
d="M165 582l-71 -129l-73 129h144zM21 61l72 129l73 -129h-145z" />
    <glyph glyph-name="breve" unicode="&#x2d8;" horiz-adv-x="309" 
d="M280 758q-9 -49 -42 -80t-84 -31q-50 0 -82.5 28t-41.5 82h34q8 -43 31.5 -61t58.5 -18q32 0 58 18t33 62h35z" />
    <glyph glyph-name="dotaccent" unicode="&#x2d9;" horiz-adv-x="165" 
d="M129 683q0 -20 -13 -32.5t-31 -12.5q-19 0 -33 12.5t-14 32.5t14 33t33 13q18 0 31 -13t13 -33z" />
    <glyph glyph-name="ring" unicode="&#x2da;" horiz-adv-x="246" 
d="M41 690q0 34 24 57t60 23t60 -23t24 -57t-24 -57t-60 -23t-60 23t-24 57zM59 690q0 -27 17.5 -46t48.5 -19t48.5 19t17.5 46t-17.5 46t-48.5 19t-48.5 -19t-17.5 -46z" />
    <glyph glyph-name="ogonek" unicode="&#x2db;" horiz-adv-x="194" 
d="M67 -40q0 -26 16.5 -37.5t58.5 -13.5v-32h-4q-21 0 -41 3.5t-35 12.5t-24 24t-9 38q0 24 16 48t47 44l17 -17q-17 -14 -29.5 -32.5t-12.5 -37.5z" />
    <glyph glyph-name="hungarumlaut" unicode="&#x2dd;" horiz-adv-x="298" 
d="M95 771h51l-77 -146h-23zM201 771h51l-77 -146h-23z" />
    <glyph glyph-name="Alpha" unicode="&#x391;" horiz-adv-x="612" 
d="M10 -42l280 730h30l287 -730h-50l-86 226h-330l-82 -226h-49zM303 616l-145 -390h296z" />
    <glyph glyph-name="Beta" unicode="&#x392;" horiz-adv-x="557" 
d="M91 -42v730h193q42 0 77.5 -12t61.5 -35q25 -23 39 -56.5t14 -77.5q0 -62 -24.5 -104t-78.5 -67q39 -8 67 -25.5t46 -41.5q18 -25 26 -54t8 -59q0 -48 -18 -84.5t-49 -61.5q-31 -26 -71.5 -39t-85.5 -13h-205zM139 4h155q43 0 76.5 12t56.5 33t35 49t12 60
q0 31 -10.5 58.5t-32.5 48.5q-22 20 -56.5 31.5t-81.5 11.5h-154v-304zM139 642v-288h151q36 0 62.5 13t43.5 35q17 21 25.5 48t8.5 54t-8.5 52t-26.5 44t-46 30.5t-67 11.5h-143z" />
    <glyph glyph-name="Gamma" unicode="&#x393;" horiz-adv-x="468" 
d="M452 643h-312v-684h-49v729h361v-45z" />
    <glyph glyph-name="uni0394" unicode="&#x394;" horiz-adv-x="623" 
d="M11 -41l282 729h29l287 -729h-598zM308 611l-228 -608h459z" />
    <glyph glyph-name="Epsilon" unicode="&#x395;" horiz-adv-x="497" 
d="M457 642h-318v-304h259v-47h-259v-285h297v-47h-345v729h366v-46z" />
    <glyph glyph-name="Zeta" unicode="&#x396;" horiz-adv-x="548" 
d="M508 688v-30l-417 -653h430v-47h-494v26l419 658h-403v46h465z" />
    <glyph glyph-name="Eta" unicode="&#x397;" horiz-adv-x="669" 
d="M586 688v-730h-50v351h-395v-351h-50v730h50v-331h395v331h50z" />
    <glyph glyph-name="Theta" unicode="&#x398;" horiz-adv-x="777" 
d="M547 311h-291v39h291v-39zM48 324q0 77 26 145t73 119q46 51 109.5 81t137.5 30q78 0 142 -30t110 -81q46 -52 71.5 -120t25.5 -144q0 -75 -26 -143.5t-72 -120.5q-47 -52 -111 -83t-140 -31q-74 0 -137.5 31t-109.5 83q-47 52 -73 120.5t-26 143.5zM97 324
q0 -63 22 -123t62 -106q40 -47 94 -75t119 -28q69 0 124.5 29t94.5 77q39 47 60 106.5t21 119.5q0 65 -22.5 125t-62.5 106q-40 45 -95 72t-120 27q-64 0 -118.5 -27t-93.5 -72q-40 -46 -62.5 -106t-22.5 -125z" />
    <glyph glyph-name="Iota" unicode="&#x399;" horiz-adv-x="244" 
d="M100 -42v730h49v-730h-49z" />
    <glyph glyph-name="Kappa" unicode="&#x39a;" horiz-adv-x="610" 
d="M141 -42h-50v730h50v-730zM505 688h58l-302 -340l344 -390h-65l-340 386z" />
    <glyph glyph-name="Lambda" unicode="&#x39b;" horiz-adv-x="593" 
d="M571 -41h-47l-225 663l-221 -663h-50l248 729h45z" />
    <glyph glyph-name="Mu" unicode="&#x39c;" horiz-adv-x="797" 
d="M398 247l-258 361v-650h-49v730h44l268 -373l268 373h44v-730h-49v646l-258 -357h-10z" />
    <glyph glyph-name="Nu" unicode="&#x39d;" horiz-adv-x="726" 
d="M91 -42v730h46l455 -652v652h50v-730h-48l-454 646v-646h-49z" />
    <glyph glyph-name="Xi" unicode="&#x39e;" horiz-adv-x="494" 
d="M415 314h-332v40h332v-40zM449 646h-400v41h400v-41zM449 -41h-400v42h400v-42z" />
    <glyph glyph-name="Omicron" unicode="&#x39f;" horiz-adv-x="783" 
d="M48 324q0 77 26 145t73 119q46 51 109.5 81t137.5 30q78 0 142 -30t110 -81q46 -52 71.5 -120t25.5 -144q0 -75 -26 -143.5t-72 -120.5q-47 -52 -111 -83t-140 -31q-74 0 -137.5 31t-109.5 83q-47 52 -73 120.5t-26 143.5zM97 324q0 -63 22 -123t62 -106q40 -47 94 -75
t119 -28q69 0 124.5 29t94.5 77q39 47 60 106.5t21 119.5q0 65 -22.5 125t-62.5 106q-40 45 -95 72t-120 27q-64 0 -118.5 -27t-93.5 -72q-40 -46 -62.5 -106t-22.5 -125z" />
    <glyph glyph-name="Pi" unicode="&#x3a0;" horiz-adv-x="625" 
d="M542 -42h-48v692h-356v-692h-47v730h451v-730z" />
    <glyph glyph-name="Rho" unicode="&#x3a1;" horiz-adv-x="472" 
d="M75 -42v730h173q101 0 157.5 -57t56.5 -154q0 -46 -15 -84.5t-43 -65.5q-28 -28 -68 -43.5t-90 -15.5h-122v-310h-49zM124 315h121q80 0 124 44t44 118q0 78 -43 121.5t-123 43.5h-123v-327z" />
    <glyph glyph-name="Sigma" unicode="&#x3a3;" horiz-adv-x="524" 
d="M79 688h394v-42h-341l224 -306v-14l-219 -312h336v-42h-398v40l226 320l-222 307v49z" />
    <glyph glyph-name="Tau" unicode="&#x3a4;" horiz-adv-x="470" 
d="M212 -42v684h-195v46h440v-46h-195v-684h-50z" />
    <glyph glyph-name="Upsilon" unicode="&#x3a5;" horiz-adv-x="566" 
d="M258 -42v346l-243 384h55l216 -338l215 338h53l-245 -384v-346h-51z" />
    <glyph glyph-name="Phi" unicode="&#x3a6;" horiz-adv-x="563" 
d="M260 -41v138q-48 7 -88 26.5t-68 49.5q-29 29 -44.5 67.5t-15.5 85.5q0 46 15.5 85t44.5 69q28 29 67.5 48t88.5 26v134h50v-133q49 -6 89 -25.5t68 -48.5q28 -30 43.5 -69.5t15.5 -85.5q0 -47 -15.5 -86.5t-43.5 -68.5q-28 -30 -68 -49t-89 -25v-138h-50zM476 326
q0 34 -10.5 64.5t-30.5 54.5q-21 24 -52 40t-73 22v-363q84 11 125 61.5t41 120.5zM93 326q0 -70 41.5 -120t125.5 -62v362q-83 -11 -125 -61t-42 -119z" />
    <glyph glyph-name="Chi" unicode="&#x3a7;" horiz-adv-x="614" 
d="M15 -42l261 374l-242 356h57l219 -327l214 327h59l-240 -357l257 -373h-57l-232 335l-237 -335h-59z" />
    <glyph glyph-name="Psi" unicode="&#x3a8;" horiz-adv-x="647" 
d="M357 -41h-46v204q-118 14 -172 82t-54 185v258h50v-258q0 -105 41.5 -158t134.5 -64v480h46v-481q85 17 126 69.5t41 151.5v260h49v-259q0 -112 -51 -180.5t-165 -84.5v-205z" />
    <glyph glyph-name="uni03A9" unicode="&#x3a9;" horiz-adv-x="604" 
d="M197 129q-38 17 -67.5 44.5t-50.5 62.5t-32 76t-11 85q0 70 21.5 125.5t58.5 94.5q36 39 85 59.5t105 20.5q57 0 106 -21t86 -60q36 -39 57 -94.5t21 -124.5q0 -44 -12 -85t-33 -76q-22 -35 -53 -62.5t-68 -44.5v-131h143v-39h-188v199q77 29 119.5 89t42.5 150
q0 58 -16 105.5t-45 81.5q-30 34 -70.5 52.5t-89.5 18.5q-47 0 -87.5 -18t-70.5 -51q-30 -34 -47 -81.5t-17 -107.5q0 -94 43.5 -155t114.5 -84v-199h-185v39h140v131z" />
    <glyph glyph-name="alpha" unicode="&#x3b1;" horiz-adv-x="542" 
d="M101 215q1 -49 10.5 -89t27.5 -68q18 -29 44.5 -45t60.5 -16q38 0 66 16t46 45q18 28 27 68t9 89q0 55 -11.5 96t-31.5 69q-20 27 -47 40.5t-58 13.5q-35 0 -62.5 -17t-45.5 -46q-18 -30 -27 -70t-8 -86zM477 468q-26 -48 -36.5 -113t-10.5 -143q0 -67 15.5 -116.5
t57.5 -84.5l-34 -35q-13 11 -31.5 31t-32.5 46q-29 -55 -72 -76.5t-98 -21.5q-41 0 -75.5 19.5t-59.5 54.5t-39.5 82.5t-14.5 103.5q0 60 15 108.5t41 82.5q26 33 60 51.5t73 18.5q23 0 47 -5.5t46 -15.5q21 -11 39.5 -27t30.5 -38q8 23 16.5 44t16.5 34h46z" />
    <glyph glyph-name="beta" unicode="&#x3b2;" horiz-adv-x="469" 
d="M123 -251h-51v783q0 37 8 69t26 56q18 23 47.5 36.5t73.5 13.5q78 0 123 -45t45 -119q0 -45 -25.5 -89t-77.5 -72q35 -12 63.5 -34t49.5 -51q20 -29 31 -62.5t11 -66.5q0 -49 -15.5 -88t-42.5 -66q-28 -28 -66 -42.5t-82 -14.5q-21 0 -48.5 6.5t-69.5 21.5v-236zM398 168
q0 44 -15 79t-40 60q-25 24 -58.5 37.5t-69.5 15.5v34q26 1 49.5 12.5t41.5 31.5q18 19 28.5 45.5t10.5 59.5q0 57 -31 90.5t-87 33.5q-28 0 -47.5 -10t-31.5 -28q-13 -18 -19 -42t-6 -52v-505q33 -15 63.5 -23.5t57.5 -8.5q37 0 66 13t49 36q19 23 29 54t10 67z" />
    <glyph glyph-name="gamma" unicode="&#x3b3;" horiz-adv-x="496" 
d="M266 -158q1 23 -8 66t-22 101q-32 -53 -54.5 -97t-22.5 -70q0 -23 14 -38.5t31 -15.5q9 0 19.5 3t20.5 10q9 7 15.5 17t6.5 24zM270 44q17 -72 27 -124.5t10 -78.5q0 -36 -27 -62t-74 -26q-22 0 -39 7.5t-28 20.5t-17 29.5t-6 33.5q0 22 11.5 51t28.5 58q16 29 33.5 56
t29.5 46q-5 24 -13 62.5t-17 84.5q-10 46 -20 94.5t-17 92.5q-5 29 -22 47t-39 18q-16 0 -27 -6t-19 -14l-32 22q18 21 40.5 31.5t42.5 10.5q15 0 30 -5t29 -14q13 -10 23 -24.5t13 -33.5l60 -329l201 381l37 -20l2 -1z" />
    <glyph glyph-name="delta" unicode="&#x3b4;" horiz-adv-x="563" 
d="M43 212q0 82 37.5 148.5t113.5 104.5q-58 25 -83 58t-25 59q0 59 41 93.5t130 34.5q45 0 84 -15t70 -38l-30 -34q-32 22 -64 34t-63 12q-54 0 -83 -17.5t-29 -59.5q0 -14 7.5 -30.5t23.5 -31.5q15 -16 38 -30t55 -22h22q61 0 106.5 -20.5t75.5 -56.5t44.5 -84.5
t14.5 -104.5t-14.5 -104t-44.5 -83q-30 -36 -75 -56t-106 -20t-107 20t-77 56q-31 35 -46.5 83t-15.5 104zM93 212q0 -97 49 -156t144 -59t144 59t49 156q0 49 -12.5 89t-36.5 69q-25 28 -61 43.5t-83 15.5t-83 -15.5t-60 -43.5q-25 -29 -37.5 -69t-12.5 -89z" />
    <glyph glyph-name="epsilon" unicode="&#x3b5;" horiz-adv-x="440" 
d="M261 205h-72q-48 0 -75 -33.5t-24 -83.5q1 -27 15 -46t35 -31t45.5 -18t48.5 -6q46 0 79.5 14t59.5 41l30 -28q-35 -36 -75.5 -51.5t-93.5 -15.5q-42 0 -78 10.5t-61 29.5q-26 18 -40.5 44t-14.5 57q0 50 20.5 84t55.5 57q-34 22 -49.5 54.5t-13.5 61.5q4 63 44 100
t123 37q55 0 98.5 -20t72.5 -53l-30 -22q-26 25 -62.5 39.5t-78.5 14.5q-63 0 -90 -23.5t-27 -70.5q0 -42 23 -71t63 -29h72v-42z" />
    <glyph glyph-name="zeta" unicode="&#x3b6;" horiz-adv-x="528" 
d="M62 683q41 -8 85 -11t88 -3q36 0 71.5 2.5t70.5 8.5l1 -41q-18 -3 -44 -5.5t-61 -5.5q-42 -13 -74.5 -42.5t-54.5 -70.5q-23 -42 -34.5 -94t-11.5 -110q0 -163 62 -242.5t197 -79.5q71 0 107.5 -33.5t36.5 -93.5q0 -50 -49.5 -82.5t-148.5 -35.5v41q42 1 71 8t47 18
q18 12 26 27t8 31q0 31 -22.5 55t-75.5 24q-153 0 -232 87t-79 273q0 42 8.5 85.5t25.5 86.5q16 42 41.5 80.5t59.5 70.5q-15 0 -32.5 1t-33.5 3q-17 2 -31.5 4.5t-21.5 4.5v39z" />
    <glyph glyph-name="eta" unicode="&#x3b7;" horiz-adv-x="550" 
d="M427 -265v564q0 67 -35.5 99.5t-98.5 32.5q-44 0 -84.5 -22.5t-73.5 -57.5v-393h-51v510h50v-61q42 44 88.5 58t84.5 14q27 0 57 -9t55 -28t41 -50t16 -74v-583h-49z" />
    <glyph glyph-name="theta" unicode="&#x3b8;" horiz-adv-x="584" 
d="M40 326q0 86 18 155.5t52 118.5q33 49 80.5 75.5t105.5 26.5q63 0 111.5 -26.5t81.5 -75.5q32 -49 49 -118.5t17 -155.5q0 -85 -17 -154.5t-49 -118.5q-33 -50 -81.5 -77.5t-111.5 -27.5q-58 0 -105.5 27.5t-80.5 77.5q-34 49 -52 118.5t-18 154.5zM296 659
q-49 0 -86 -23t-62 -64q-26 -41 -39.5 -99t-16.5 -128h409q-3 70 -17.5 128t-40.5 99t-63 64t-84 23zM296 -8q48 0 85 24t63 66q25 42 39.5 100t17.5 127h-409q3 -69 18 -127.5t41 -100.5q25 -42 61.5 -65.5t83.5 -23.5z" />
    <glyph glyph-name="iota" unicode="&#x3b9;" horiz-adv-x="217" 
d="M87 -42v509h50v-509h-50z" />
    <glyph glyph-name="kappa" unicode="&#x3ba;" horiz-adv-x="474" 
d="M167 227q32 35 60 73t41 65q11 24 21.5 45.5t22.5 37.5q12 15 26.5 24t34.5 9q13 0 32 -4.5t37 -18.5l-21 -35q-9 6 -19 10t-23 4t-22 -6.5t-16 -17.5q-7 -12 -13.5 -26.5t-14.5 -30.5q-20 -39 -39.5 -67t-46.5 -59l233 -272h-60zM84 468h53v-510h-52z" />
    <glyph glyph-name="lambda" unicode="&#x3bb;" horiz-adv-x="561" 
d="M67 699q28 -6 54 -29.5t49 -55.5q22 -33 40 -71.5t31 -75.5l145 -422q11 -30 28.5 -46.5t43.5 -16.5q23 0 38.5 9t26.5 22l24 -29q-16 -18 -40 -31t-59 -13q-38 0 -66 23t-42 65l-128 376l-129 -445h-48l152 508q-23 75 -57.5 122t-77.5 72z" />
    <glyph glyph-name="uni03BC" unicode="&#x3bc;" horiz-adv-x="534" 
d="M132 -265h-48v731h50v-357q0 -34 12.5 -56t31.5 -35t42 -18.5t44 -5.5q39 0 83 20.5t81 67.5v384h49v-509h-49v72q-12 -17 -32 -32t-44 -26t-50 -17.5t-49 -6.5q-12 0 -28 2.5t-33 8.5q-18 6 -34 15.5t-26 23.5v-262z" />
    <glyph glyph-name="nu" unicode="&#x3bd;" horiz-adv-x="448" 
d="M411 467q4 -21 6.5 -46.5t2.5 -45.5q0 -97 -45 -203.5t-123 -213.5h-44l-194 509h52l169 -464q26 39 51 82.5t45 90.5q20 46 32 93.5t12 93.5q0 23 -3.5 51.5t-8.5 52.5h48z" />
    <glyph glyph-name="xi" unicode="&#x3be;" horiz-adv-x="560" 
d="M312 -217q77 4 118.5 27t41.5 79q0 31 -19 52t-73 21h-56q-69 0 -117.5 21.5t-78.5 55.5q-31 34 -46 77t-16 85q-1 34 8 68.5t26 64.5q16 30 39.5 53.5t51.5 36.5q-29 14 -48 48t-19 78q0 10 1.5 23.5t6.5 27.5t14.5 28.5t24.5 25.5q-31 3 -55.5 6t-41.5 5l1 38
q40 -6 83.5 -10t88.5 -4q34 0 72.5 3.5t73.5 9.5l1 -37q-31 -6 -67.5 -10t-67.5 -4q-21 0 -37.5 -9.5t-27.5 -24.5q-12 -15 -18 -32.5t-6 -33.5q0 -18 5 -36.5t17 -33.5q11 -15 28.5 -25t42.5 -10h103v-41h-69q-39 0 -72.5 -15.5t-57.5 -42.5q-25 -27 -39 -63.5t-13 -78.5
q1 -43 15 -80.5t41 -64.5q26 -28 64.5 -43.5t88.5 -15.5h54q75 0 110 -31t35 -91q0 -26 -11 -49.5t-35 -42.5q-25 -18 -65.5 -30t-99.5 -15v40z" />
    <glyph glyph-name="omicron" unicode="&#x3bf;" horiz-adv-x="563" 
d="M43 211q0 56 15.5 104.5t46.5 84.5q30 36 76 56.5t107 20.5t106.5 -21t75.5 -57t44.5 -84.5t14.5 -103.5q0 -56 -14.5 -104t-44.5 -83q-30 -36 -75 -56.5t-106 -20.5t-107 20.5t-77 56.5q-31 35 -46.5 83t-15.5 104zM93 211q0 -48 12.5 -88t37.5 -68q24 -29 60 -44.5
t83 -15.5t83 15.5t61 44.5q24 28 36.5 68t12.5 88q0 49 -12.5 89t-36.5 69q-25 28 -61 43.5t-83 15.5t-83 -15.5t-60 -43.5q-25 -29 -37.5 -69t-12.5 -89z" />
    <glyph glyph-name="pi" unicode="&#x3c0;" horiz-adv-x="574" 
d="M548 425h-126v-350q0 -44 18.5 -62t58.5 -18q11 0 25 1t25 5v-41q-11 -7 -24.5 -9.5t-29.5 -2.5q-65 0 -94.5 32.5t-29.5 89.5v355h-186v-355q0 -50 -24.5 -84t-59.5 -56l-28 37q29 19 45 47t16 61v350h-101v42h515v-42z" />
    <glyph glyph-name="rho" unicode="&#x3c1;" horiz-adv-x="563" 
d="M43 210q0 56 15.5 104.5t46.5 84.5q30 36 76 56.5t107 20.5t106.5 -21t75.5 -57t44.5 -84.5t14.5 -103.5q0 -56 -14.5 -104t-44.5 -83q-30 -36 -75 -56.5t-106 -20.5q-25 0 -54 5.5t-56 17.5q-28 13 -51 32.5t-37 48.5v-308h-48v468zM93 210q0 -48 12.5 -88t37.5 -68
q24 -29 60 -44.5t83 -15.5t83 15.5t61 44.5q24 28 36.5 68t12.5 88q0 49 -12.5 89t-36.5 69q-25 28 -61 43.5t-83 15.5t-83 -15.5t-60 -43.5q-25 -29 -37.5 -69t-12.5 -89z" />
    <glyph glyph-name="sigma" unicode="&#x3c3;" horiz-adv-x="579" 
d="M43 211q0 56 15 104.5t46 84.5t76.5 56.5t107.5 20.5h278v-43h-137q25 -16 44 -41.5t32 -55.5q13 -31 19 -63.5t6 -62.5q0 -56 -14.5 -104t-44.5 -83q-30 -36 -75.5 -56.5t-106.5 -20.5q-62 0 -108 20.5t-76 56.5q-31 35 -46.5 83t-15.5 104zM93 211q0 -48 12.5 -88
t37.5 -68q24 -29 60 -44.5t83 -15.5t83 15.5t61 44.5q24 28 36.5 68t12.5 88q0 49 -12.5 89t-36.5 69q-25 28 -61 43.5t-83 15.5t-83 -15.5t-60 -43.5q-25 -29 -37.5 -69t-12.5 -89z" />
    <glyph glyph-name="tau" unicode="&#x3c4;" horiz-adv-x="402" 
d="M26 452h351v-44h-153v-368q0 -22 11 -31t41 -9q21 0 51.5 3t54.5 8v-43q-26 -7 -61.5 -10.5t-62.5 -3.5q-34 0 -58.5 19t-24.5 61v374h-149v44z" />
    <glyph glyph-name="upsilon" unicode="&#x3c5;" horiz-adv-x="546" 
d="M84 467h54v-335q0 -29 7.5 -54t23.5 -43q15 -19 39 -29.5t57 -10.5q29 0 58 13.5t52 44.5q22 31 36 81.5t14 123.5q0 47 -14.5 95.5t-37.5 82.5l37 25l4 3q28 -35 45 -87t17 -111q0 -96 -21 -157.5t-52 -96.5q-32 -36 -69 -50t-70 -14q-35 0 -67.5 12t-57.5 36
q-25 23 -40 57.5t-15 78.5v335z" />
    <glyph glyph-name="phi" unicode="&#x3c6;" horiz-adv-x="581" 
d="M322 -265h-53v220q-58 3 -103 27t-76 61t-47 84t-16 97q0 90 28.5 149t73.5 98l28 -39q-38 -38 -58.5 -89.5t-20.5 -118.5q0 -44 13.5 -83t38.5 -69q24 -30 59.5 -49.5t79.5 -23.5v417q0 33 23.5 54t54.5 21q53 0 94 -20t69 -56t42.5 -86t14.5 -110q0 -54 -18 -101.5
t-50 -82.5t-77 -56.5t-100 -24.5v-219zM322 -1q45 2 81 20.5t61 48.5q24 30 37 69t13 82t-8.5 84.5t-26.5 74.5q-18 32 -45 51.5t-63 19.5q-8 0 -17 -1t-16 -5q-7 -5 -11.5 -14.5t-4.5 -27.5v-402z" />
    <glyph glyph-name="chi" unicode="&#x3c7;" horiz-adv-x="620" 
d="M14 -265l266 377l-248 357h62l221 -322l215 322h63l-245 -358l262 -376h-61l-233 341l-240 -341h-62z" />
    <glyph glyph-name="psi" unicode="&#x3c8;" horiz-adv-x="647" 
d="M359 -265h-47v195q-119 14 -173 82.5t-54 186.5v267h50v-267q0 -104 41.5 -161.5t135.5 -62.5v491h47v-491q85 11 126.5 69.5t41.5 152.5v269h50v-268q0 -113 -52 -181.5t-166 -84.5v-197z" />
    <glyph glyph-name="omega" unicode="&#x3c9;" horiz-adv-x="631" 
d="M185 434q-27 -8 -46 -33t-30 -60q-12 -36 -17.5 -76.5t-5.5 -78.5q0 -32 5 -66t18 -63t35.5 -47.5t57.5 -18.5q31 0 50 13.5t29 35.5t13 48.5t3 53.5v105h52v-107q0 -29 3 -56t13 -47q9 -21 27.5 -33.5t48.5 -12.5q35 0 58 18.5t37 47.5q13 28 18.5 62.5t5.5 66.5
q0 31 -5 70t-17 75t-31.5 64.5t-48.5 38.5v40q41 -8 69 -37t46 -69q17 -41 24.5 -88.5t7.5 -93.5q0 -45 -9.5 -88t-29.5 -76q-20 -34 -51 -54.5t-74 -20.5q-30 0 -64 17.5t-53 53.5q-20 -35 -55 -53t-67 -18q-42 0 -72 20.5t-50 54.5q-20 33 -29.5 76t-9.5 88q0 49 7.5 97
t24.5 88q16 40 43.5 68t68.5 36v-41z" />
    <glyph glyph-name="uni0401" unicode="&#x401;" horiz-adv-x="485" 
d="M194 734q0 -17 -11.5 -27.5t-26.5 -10.5t-26.5 10.5t-11.5 27.5t11.5 27.5t26.5 10.5t26.5 -10.5t11.5 -27.5zM457 -40h-366v647h345v-46h-297v-246h259v-47h-259v-262h318v-46zM406 734q0 -17 -11.5 -27.5t-26.5 -10.5t-26.5 10.5t-11.5 27.5t11.5 27.5t26.5 10.5
t26.5 -10.5t11.5 -27.5z" />
    <glyph glyph-name="uni0410" unicode="&#x410;" horiz-adv-x="612" 
d="M10 -42l280 730h30l287 -730h-50l-86 226h-330l-82 -226h-49zM303 616l-145 -390h296z" />
    <glyph glyph-name="uni0411" unicode="&#x411;" horiz-adv-x="534" 
d="M85 688h328v-41h-278v-298h120q69 0 116 -17t76 -45q28 -28 40.5 -62.5t12.5 -70.5q0 -47 -18.5 -83.5t-49.5 -60.5q-31 -25 -72.5 -38t-86.5 -13h-188v729zM135 2h136q44 0 78 12t57 33t35 49t12 60q0 67 -47 109t-135 42h-136v-305z" />
    <glyph glyph-name="uni0412" unicode="&#x412;" horiz-adv-x="557" 
d="M91 -42v730h193q42 0 77.5 -12t61.5 -35q25 -23 39 -56.5t14 -77.5q0 -62 -24.5 -104t-78.5 -67q39 -8 67 -25.5t46 -41.5q18 -25 26 -54t8 -59q0 -48 -18 -84.5t-49 -61.5q-31 -26 -71.5 -39t-85.5 -13h-205zM139 4h155q43 0 76.5 12t56.5 33t35 49t12 60
q0 31 -10.5 58.5t-32.5 48.5q-22 20 -56.5 31.5t-81.5 11.5h-154v-304zM139 642v-288h151q36 0 62.5 13t43.5 35q17 21 25.5 48t8.5 54t-8.5 52t-26.5 44t-46 30.5t-67 11.5h-143z" />
    <glyph glyph-name="uni0413" unicode="&#x413;" horiz-adv-x="468" 
d="M452 643h-312v-685h-49v730h361v-45z" />
    <glyph glyph-name="uni0414" unicode="&#x414;" horiz-adv-x="619" 
d="M580 -176h-51v147h-448v-147h-50v185h19q23 0 43 9.5t36 25.5q20 20 28 50.5t8 68.5v525h356v-679h59v-185zM472 645h-259v-490q0 -20 -2.5 -41t-9.5 -40q-7 -20 -18.5 -36.5t-30.5 -28.5h320v636z" />
    <glyph glyph-name="uni0415" unicode="&#x415;" horiz-adv-x="497" 
d="M457 642h-318v-304h259v-47h-259v-285h297v-47h-345v729h366v-46z" />
    <glyph glyph-name="uni0416" unicode="&#x416;" horiz-adv-x="841" 
d="M458 -41h-50v729h50v-729zM747 688h59l-245 -339l270 -390h-61l-265 386zM361 345l-265 -386h-60l269 389l-245 340h60z" />
    <glyph glyph-name="uni0417" unicode="&#x417;" horiz-adv-x="504" 
d="M81 674q75 25 149 25q47 0 85.5 -12.5t65.5 -35.5t42 -55.5t15 -72.5q0 -60 -31 -106t-92 -69q66 -22 102.5 -66.5t36.5 -123.5q0 -43 -15.5 -80t-45.5 -64q-31 -27 -76.5 -42.5t-106.5 -15.5q-37 0 -76.5 6t-74.5 18l11 44q36 -13 71.5 -18.5t67.5 -5.5q98 0 149 44.5
t51 115.5q0 72 -50.5 115.5t-161.5 43.5h-43v45h45q43 0 78.5 11.5t61.5 32.5t40.5 49.5t14.5 61.5q0 29 -13 54t-36 44q-23 18 -55.5 28.5t-71.5 10.5q-30 0 -60 -7t-65 -20z" />
    <glyph glyph-name="uni0418" unicode="&#x418;" horiz-adv-x="726" 
d="M594 -42v641l-457 -641h-46v730h51v-646l457 646h43v-730h-48z" />
    <glyph glyph-name="uni0419" unicode="&#x419;" horiz-adv-x="726" 
d="M488 768q-12 -49 -47 -78t-80 -29q-49 0 -85.5 30t-45.5 76h39q22 -71 92 -71q35 0 56 18.5t32 53.5h39zM594 -42v615l-457 -615h-46v700h51v-620l457 620h43v-700h-48z" />
    <glyph glyph-name="uni041A" unicode="&#x41a;" horiz-adv-x="610" 
d="M141 -42h-50v730h50v-730zM505 688h58l-302 -340l344 -390h-65l-340 386z" />
    <glyph glyph-name="uni041B" unicode="&#x41b;" horiz-adv-x="668" 
d="M166 688h419v-729h-49v684h-321v-413q0 -93 -45.5 -163.5t-135.5 -101.5v46q39 16 64.5 39.5t40.5 52.5q15 28 21 59.5t6 64.5v461z" />
    <glyph glyph-name="uni041C" unicode="&#x41c;" horiz-adv-x="797" 
d="M398 247l-258 361v-650h-49v730h44l268 -373l268 373h44v-730h-49v646l-258 -357h-10z" />
    <glyph glyph-name="uni041D" unicode="&#x41d;" horiz-adv-x="669" 
d="M586 688v-730h-50v351h-395v-351h-50v730h50v-331h395v331h50z" />
    <glyph glyph-name="uni041E" unicode="&#x41e;" horiz-adv-x="783" 
d="M48 324q0 77 26 145t73 119q46 51 109.5 81t137.5 30q78 0 142 -30t110 -81q46 -52 71.5 -120t25.5 -144q0 -75 -26 -143.5t-72 -120.5q-47 -52 -111 -83t-140 -31q-74 0 -137.5 31t-109.5 83q-47 52 -73 120.5t-26 143.5zM97 324q0 -63 22 -123t62 -106q40 -47 94 -75
t119 -28q69 0 124.5 29t94.5 77q39 47 60 106.5t21 119.5q0 65 -22.5 125t-62.5 106q-40 45 -95 72t-120 27q-64 0 -118.5 -27t-93.5 -72q-40 -46 -62.5 -106t-22.5 -125z" />
    <glyph glyph-name="uni041F" unicode="&#x41f;" horiz-adv-x="670" 
d="M587 -42h-48v692h-401v-692h-47v730h496v-730z" />
    <glyph glyph-name="uni0420" unicode="&#x420;" horiz-adv-x="472" 
d="M75 -42v730h173q101 0 157.5 -57t56.5 -154q0 -46 -15 -84.5t-43 -65.5q-28 -28 -68 -43.5t-90 -15.5h-122v-310h-49zM124 315h121q80 0 124 44t44 118q0 78 -43 121.5t-123 43.5h-123v-327z" />
    <glyph glyph-name="uni0421" unicode="&#x421;" horiz-adv-x="662" 
d="M406 -50q-77 0 -143 30t-114 82q-48 51 -75.5 120.5t-27.5 148.5q0 76 27.5 143.5t75.5 117.5t114 79t143 29q69 0 127 -16.5t105 -47.5l-26 -40q-45 27 -98.5 42.5t-107.5 15.5q-65 0 -121.5 -24t-97.5 -67q-42 -43 -65.5 -102.5t-23.5 -129.5q0 -72 23.5 -133.5
t65.5 -105.5q42 -45 98.5 -70.5t122.5 -25.5q69 0 123.5 19t92.5 43l25 -38q-48 -33 -111 -51.5t-132 -18.5z" />
    <glyph glyph-name="uni0422" unicode="&#x422;" horiz-adv-x="470" 
d="M212 -42v684h-195v46h440v-46h-195v-684h-50z" />
    <glyph glyph-name="uni0423" unicode="&#x423;" horiz-adv-x="454" 
d="M196 270l-188 418h55l159 -363l174 363h53l-351 -729h-50z" />
    <glyph glyph-name="uni0424" unicode="&#x424;" horiz-adv-x="643" 
d="M301 -41v159q-52 5 -98.5 20.5t-81.5 41.5q-36 26 -56.5 62.5t-20.5 83.5q0 46 20.5 82.5t56.5 63.5q35 26 81.5 42t98.5 21v153h49v-154q52 -5 98.5 -20.5t82.5 -41.5q35 -26 55.5 -62.5t20.5 -83.5q0 -48 -20.5 -84.5t-55.5 -62.5q-36 -26 -82.5 -41.5t-98.5 -20.5
v-158h-49zM558 326q0 36 -16.5 64.5t-44.5 48.5q-29 20 -66.5 32.5t-80.5 15.5v-323q43 3 80.5 15t66.5 33q28 21 44.5 49.5t16.5 64.5zM93 326q0 -36 16 -64.5t45 -49.5q28 -21 65.5 -33t81.5 -15v323q-44 -3 -81.5 -15.5t-65.5 -32.5q-29 -21 -45 -49t-16 -64z" />
    <glyph glyph-name="uni0425" unicode="&#x425;" horiz-adv-x="614" 
d="M15 -42l261 374l-242 356h57l219 -327l214 327h59l-240 -357l257 -373h-57l-232 335l-237 -335h-59z" />
    <glyph glyph-name="uni0426" unicode="&#x426;" horiz-adv-x="604" 
d="M485 687v-671h69v-192h-50v147h-419v716h51v-671h298v671h51z" />
    <glyph glyph-name="uni0427" unicode="&#x427;" horiz-adv-x="534" 
d="M408 -41v301q-41 -38 -88.5 -56t-85.5 -18q-67 0 -108 43t-41 122v348h48v-346q0 -66 31 -95t82 -29q17 0 38.5 6t44.5 17q22 10 42.5 25t36.5 32v390h50v-740h-50z" />
    <glyph glyph-name="uni0428" unicode="&#x428;" horiz-adv-x="719" 
d="M91 -41v729h50v-683h197v683h50v-683h199v683h49v-729h-545z" />
    <glyph glyph-name="uni0429" unicode="&#x429;" horiz-adv-x="754" 
d="M636 688v-672h70v-192h-50v147h-571v717h50v-672h204v672h49v-672h197v672h51z" />
    <glyph glyph-name="uni042A" unicode="&#x42a;" horiz-adv-x="668" 
d="M216 -41v688h-194v41h244v-339h121q69 0 116 -17.5t76 -44.5q28 -28 40.5 -63t12.5 -71q0 -47 -18.5 -83t-49.5 -61q-32 -25 -73.5 -37.5t-86.5 -12.5h-188zM266 2h136q44 0 78 12t57 33q23 20 35 48t12 60q0 67 -47 109.5t-135 42.5h-136v-305z" />
    <glyph glyph-name="uni042B" unicode="&#x42b;" horiz-adv-x="788" 
d="M141 688v-339h120q69 0 116 -17.5t76 -45.5q28 -28 40.5 -63t12.5 -71q0 -47 -17 -83t-47 -60q-31 -25 -72.5 -37.5t-90.5 -12.5h-188v729h50zM141 2h136q44 0 78 11.5t57 32.5q23 20 35 48t12 60q0 67 -47 110t-135 43h-136v-305zM658 -42v730h48v-730h-48z" />
    <glyph glyph-name="uni042C" unicode="&#x42c;" horiz-adv-x="544" 
d="M141 688v-339h120q69 0 116 -17.5t76 -45.5q28 -28 40.5 -63t12.5 -71q0 -47 -17 -83t-47 -60q-31 -25 -72.5 -37.5t-90.5 -12.5h-188v729h50zM141 2h136q44 0 78 11.5t57 32.5q23 20 35 48t12 60q0 67 -47 110t-135 43h-136v-305z" />
    <glyph glyph-name="uni042D" unicode="&#x42d;" horiz-adv-x="662" 
d="M277 -50q-72 0 -134 17t-109 53l24 38q38 -26 91 -42t130 -16q62 0 117.5 23.5t97.5 65.5q41 41 66.5 98.5t27.5 126.5h-508v46h507q-5 64 -30 118.5t-66 93.5q-42 39 -96.5 61t-117.5 22q-56 0 -108.5 -14.5t-97.5 -42.5l-26 38q46 30 104.5 47t127.5 17q85 0 152 -30.5
t113 -81.5t70.5 -117.5t24.5 -139.5q0 -75 -24.5 -144t-70.5 -121q-46 -53 -113 -84.5t-152 -31.5z" />
    <glyph glyph-name="uni042E" unicode="&#x42e;" horiz-adv-x="787" 
d="M765 324q0 -91 -17 -162t-48 -119q-31 -49 -74.5 -74t-95.5 -25q-50 0 -92 24.5t-73 71.5q-31 46 -49 114t-21 156h-155v-351h-48v729h48v-335h156q4 84 22.5 149.5t49.5 110.5q30 45 71.5 68.5t90.5 23.5q52 0 95.5 -25.5t74.5 -73.5q31 -49 48 -120t17 -162zM719 324
q0 73 -13 135t-37 107q-25 45 -60 70.5t-79 25.5t-79 -25.5t-59 -70.5q-25 -45 -38 -107t-13 -135q0 -74 13 -136t38 -106q24 -45 59 -70t79 -25t79 25t60 70q24 44 37 106t13 136z" />
    <glyph glyph-name="uni042F" unicode="&#x42f;" horiz-adv-x="564" 
d="M450 -42v336h-110q-21 0 -41 -5.5t-40 -20.5t-40 -41t-39 -66l-101 -203h-51l103 204q26 52 52 87.5t66 58.5q-33 6 -61 22.5t-49 41.5t-33 56t-12 66q0 87 52.5 140.5t161.5 53.5h192v-730h-50zM450 642h-141q-81 0 -123.5 -41t-42.5 -108q0 -33 11.5 -61t33.5 -48
q21 -20 52.5 -31.5t71.5 -11.5h138v301z" />
    <glyph glyph-name="uni0430" unicode="&#x430;" horiz-adv-x="492" 
d="M391 -43v61q-19 -18 -38 -31t-40 -22q-22 -8 -48 -12t-60 -4q-32 0 -61.5 12t-51.5 33q-23 21 -36.5 49.5t-13.5 61.5q0 32 10.5 58.5t28.5 47.5t42.5 35.5t52.5 21.5q12 3 30 5.5t38 3.5t41.5 1.5t40.5 0.5h60v53q0 48 -29.5 76.5t-104.5 28.5q-38 0 -71.5 -10.5
t-65.5 -30.5l-19 39q32 20 73 33t82 14q37 1 70 -7t58 -26t39.5 -45.5t14.5 -65.5v-381h-42zM386 237h-130q-21 -1 -38.5 -3t-27.5 -5q-43 -14 -72 -44t-29 -78t30.5 -81.5t93.5 -33.5q57 0 102.5 20.5t70.5 54.5v170z" />
    <glyph glyph-name="uni0431" unicode="&#x431;" horiz-adv-x="562" 
d="M43 249q3 121 29 204.5t66 135.5q39 52 88.5 75t99.5 23h11v-45h-17q-35 0 -69 -16.5t-62 -47.5q-29 -32 -49 -78.5t-27 -106.5q16 24 38.5 39t46.5 24q23 8 46.5 11t42.5 3q61 0 106.5 -20t75.5 -55t44.5 -82.5t14.5 -103.5t-14.5 -103.5t-44.5 -82.5t-75 -54.5
t-106 -19.5t-107 19.5t-76 54.5q-31 35 -46.5 82.5t-15.5 103.5v40zM92 209q0 -97 49 -154.5t144 -57.5t144 57.5t49 154.5q0 100 -49 156.5t-144 56.5t-144 -57t-49 -156z" />
    <glyph glyph-name="uni0432" unicode="&#x432;" horiz-adv-x="484" 
d="M91 -42v521h146q81 0 123.5 -35.5t42.5 -95.5q0 -17 -4 -34.5t-13 -32.5q-9 -16 -24.5 -29t-39.5 -19q30 -2 53 -14t40 -30q16 -19 24.5 -41.5t8.5 -44.5q0 -69 -49 -107t-139 -38h-169zM142 -2h116q63 0 102.5 26.5t39.5 80.5q0 26 -12 45t-32 31t-45.5 18t-52.5 6h-116
v-207zM142 246h90q22 0 44 5t40 17t29 31t11 46q0 17 -7 34t-21 31q-15 13 -38 21t-55 8h-93v-193z" />
    <glyph glyph-name="uni0433" unicode="&#x433;" horiz-adv-x="408" 
d="M393 422h-253v-464h-49v509h302v-45z" />
    <glyph glyph-name="uni0434" unicode="&#x434;" horiz-adv-x="529" 
d="M482 -179h-48v148h-347v-148h-49v190h18q32 0 54 12.5t36 31.5q13 19 18.5 42t5.5 44v326h261v-456h51v-190zM383 428h-165v-282q0 -17 -4 -37.5t-12 -39.5t-21.5 -34.5t-31.5 -23.5h234v417z" />
    <glyph glyph-name="uni0435" unicode="&#x435;" horiz-adv-x="507" 
d="M444 -7q-38 -24 -80.5 -35t-91.5 -11q-117 0 -173 67t-56 191q0 133 57 202.5t161 69.5q52 0 91 -18t65 -51t39 -80t13 -105v-16.5t-1 -18.5h-379q7 -101 50 -147t133 -46q35 0 76 6.5t76 26.5zM421 232q-2 95 -40 146t-122 51q-74 0 -120 -50t-48 -147h330z" />
    <glyph glyph-name="uni0436" unicode="&#x436;" horiz-adv-x="600" 
d="M325 219q52 8 80.5 44.5t46.5 96.5q17 58 44 88t75 32v-41q-32 -3 -49.5 -26.5t-27.5 -55.5q-13 -43 -30 -76t-40 -56l172 -267h-47l-156 243q-28 -16 -68 -21v-222h-48v221q-21 2 -39 7.5t-33 13.5l-143 -242h-48l160 263q-25 23 -42.5 57t-31.5 79q-10 32 -27.5 55.5
t-49.5 26.5v41q48 -2 75 -32t44 -88q19 -62 49 -99.5t86 -42.5v249h48v-248z" />
    <glyph glyph-name="uni0437" unicode="&#x437;" horiz-adv-x="357" 
d="M60 22q24 -14 48 -22t58 -8q30 0 54.5 9t41.5 25q17 15 26.5 35t9.5 42q1 35 -12 59.5t-34 39.5q-22 15 -51.5 22t-61.5 7v34q19 0 37.5 4.5t26.5 6.5q34 11 55 38.5t21 59.5q0 51 -33 73t-84 22q-19 0 -39.5 -7t-37.5 -15l-16 33q23 11 46.5 18t46.5 7q75 0 116.5 -35.5
t41.5 -88.5q0 -45 -23 -79t-65 -52q48 -12 77.5 -53t29.5 -93q0 -28 -10.5 -55t-31.5 -48q-22 -21 -54 -34t-75 -13q-34 -1 -65 6.5t-60 27.5z" />
    <glyph glyph-name="uni0438" unicode="&#x438;" horiz-adv-x="576" 
d="M84 467h46v-447l322 447h50v-510h-46v442l-319 -442h-53v510z" />
    <glyph glyph-name="uni0439" unicode="&#x439;" horiz-adv-x="576" 
d="M84 467h46v-447l322 447h50v-510h-46v442l-319 -442h-53v510zM418 676q-12 -49 -47 -78t-80 -29q-49 0 -85.5 30t-45.5 76h39q22 -71 92 -71q35 0 56 18.5t32 53.5h39z" />
    <glyph glyph-name="uni043A" unicode="&#x43a;" horiz-adv-x="480" 
d="M173 226l212 241h62l-212 -238l230 -271h-60zM133 467v-509h-49v509h49z" />
    <glyph glyph-name="uni043B" unicode="&#x43b;" horiz-adv-x="534" 
d="M32 5q37 7 61 22t38 36t19.5 48.5t5.5 60.5v295h311v-509h-48v464h-215v-255q0 -90 -44.5 -140t-127.5 -67v45z" />
    <glyph glyph-name="uni043C" unicode="&#x43c;" horiz-adv-x="635" 
d="M315 131l-178 251v-424h-47v509h38l192 -272l197 272h37v-509h-46v421l-183 -248h-10z" />
    <glyph glyph-name="uni043D" unicode="&#x43d;" horiz-adv-x="575" 
d="M501 467v-509h-48v241h-321v-241h-48v509h48v-222h321v222h48z" />
    <glyph glyph-name="uni043E" unicode="&#x43e;" horiz-adv-x="563" 
d="M43 211q0 56 15.5 104.5t46.5 84.5q30 36 76 56.5t107 20.5t106.5 -21t75.5 -57t44.5 -84.5t14.5 -103.5q0 -56 -14.5 -104t-44.5 -83q-30 -36 -75 -56t-106 -20t-107 20t-77 56q-31 35 -46.5 83t-15.5 104zM93 211q0 -97 49 -156t144 -59t144 59t49 156q0 49 -12.5 89
t-36.5 69q-25 28 -61 43.5t-83 15.5t-83 -15.5t-60 -43.5q-25 -29 -37.5 -69t-12.5 -89z" />
    <glyph glyph-name="uni043F" unicode="&#x43f;" horiz-adv-x="575" 
d="M501 467v-509h-48v464h-321v-464h-48v509h417z" />
    <glyph glyph-name="uni0440" unicode="&#x440;" horiz-adv-x="472" 
d="M74 -265v730h175q51 0 91 -18.5t68 -52.5q27 -34 42 -80.5t15 -103.5q0 -54 -15 -100.5t-43 -80.5q-29 -34 -69 -53t-91 -19h-123v-222h-50zM124 4h122q81 0 125 53.5t44 152.5q0 103 -43 156t-124 53h-124v-415z" />
    <glyph glyph-name="uni0441" unicode="&#x441;" horiz-adv-x="479" 
d="M460 -15q-16 -10 -35.5 -17t-39.5 -12q-20 -4 -39.5 -6.5t-35.5 -2.5q-58 0 -104 19.5t-78 54.5t-49 83.5t-17 107.5t17.5 107.5t49.5 83.5q31 35 75.5 54.5t98.5 19.5q35 0 73.5 -8t73.5 -31l-21 -35q-24 13 -53.5 19.5t-72.5 6.5q-46 0 -82 -16.5t-60 -45.5
q-25 -30 -37.5 -69.5t-12.5 -84.5q0 -101 50 -159.5t148 -58.5q43 0 74 6.5t56 20.5z" />
    <glyph glyph-name="uni0442" unicode="&#x442;" horiz-adv-x="394" 
d="M23 433v35h353v-35h-152v-476h-49v476h-152z" />
    <glyph glyph-name="uni0443" unicode="&#x443;" horiz-adv-x="454" 
d="M7 466h55l161 -376l176 376h53l-349 -726h-51l147 303z" />
    <glyph glyph-name="uni0444" unicode="&#x444;" horiz-adv-x="814" 
d="M439 -264h-52v319q-12 -30 -31.5 -49.5t-40.5 -31.5q-22 -12 -42.5 -17t-33.5 -5q-46 0 -83 19.5t-63 55.5q-27 35 -41 83.5t-14 106.5q0 55 14 102.5t41 82.5q26 35 63 55.5t82 20.5q16 0 36.5 -4.5t41.5 -16.5t40 -33t31 -54v321h52v-322q12 33 31.5 54.5t40.5 33.5
t41.5 16.5t36.5 4.5q45 0 82 -20.5t63 -55.5q25 -35 39 -82.5t14 -102.5q0 -58 -14 -106.5t-40 -83.5q-26 -36 -62.5 -55.5t-82.5 -19.5q-14 0 -33 4.5t-39 16.5t-40.5 32.5t-36.5 52.5v-322zM87 219q0 -45 8.5 -85.5t27.5 -71.5q18 -31 46 -49.5t67 -18.5q36 0 65 16t49 46
q19 29 29.5 69.5t10.5 90.5q0 46 -10.5 86.5t-29.5 69.5q-20 29 -49 46t-65 17q-37 0 -65 -17t-46 -46q-19 -30 -28.5 -69.5t-9.5 -83.5zM738 219q0 44 -9 83.5t-27 69.5q-19 29 -46.5 46t-64.5 17t-65.5 -17t-48.5 -46t-30.5 -69.5t-10.5 -86.5q0 -50 10.5 -90.5
t30.5 -69.5q20 -30 48.5 -46t65.5 -16q39 0 67 18.5t46 49.5q17 31 25.5 71.5t8.5 85.5z" />
    <glyph glyph-name="uni0445" unicode="&#x445;" horiz-adv-x="449" 
d="M7 -43l188 259l-173 251h54l150 -223l145 223h57l-173 -253l176 -257h-55l-149 225l-159 -225h-61z" />
    <glyph glyph-name="uni0446" unicode="&#x446;" horiz-adv-x="581" 
d="M436 466v-466h71v-179h-47v137h-376v508h47v-466h258v466h47z" />
    <glyph glyph-name="uni0447" unicode="&#x447;" horiz-adv-x="515" 
d="M394 -42v193q-26 -26 -66.5 -46.5t-88.5 -20.5q-33 0 -61 11t-49 33q-21 21 -32.5 52t-11.5 71v216h47v-214q0 -67 29.5 -96t86.5 -29q38 0 77 21t69 61v257h47v-509h-47z" />
    <glyph glyph-name="uni0448" unicode="&#x448;" horiz-adv-x="659" 
d="M91 -42v509h46v-466h174v466h47v-466h175v466h46v-509h-488z" />
    <glyph glyph-name="uni0449" unicode="&#x449;" horiz-adv-x="694" 
d="M579 467v-466h70v-180h-47v137h-518v509h47v-466h180v466h46v-466h175v466h47z" />
    <glyph glyph-name="uni044A" unicode="&#x44a;" horiz-adv-x="553" 
d="M176 -42v468h-154v41h201v-200h81q62 0 103.5 -13t66.5 -35q24 -22 34 -49.5t10 -56.5q0 -80 -54 -117.5t-144 -37.5h-144zM223 -2h96q45 0 74.5 8.5t46.5 24.5q17 15 23.5 36.5t6.5 47.5q0 23 -6.5 43.5t-23.5 36.5q-17 15 -46.5 24t-74.5 9h-96v-230z" />
    <glyph glyph-name="uni044B" unicode="&#x44b;" horiz-adv-x="676" 
d="M91 -42v509h47v-199h79q62 0 103 -13.5t65 -34.5q24 -22 33.5 -50t9.5 -57q0 -80 -52 -117.5t-141 -37.5h-144zM138 -2h95q47 0 75.5 8.5t44.5 24.5q16 15 21 36.5t5 47.5q0 23 -7 43.5t-24 36.5q-17 15 -45 24t-70 9h-95v-230zM551 -42v509h45v-509h-45z" />
    <glyph glyph-name="uni044C" unicode="&#x44c;" horiz-adv-x="464" 
d="M91 -42v509h47v-199h80q62 0 102.5 -13.5t64.5 -34.5q24 -22 33.5 -50t9.5 -57q0 -80 -51.5 -117.5t-141.5 -37.5h-144zM138 -2h95q47 0 76 8.5t45 24.5q15 15 20.5 36.5t5.5 47.5q0 23 -7 43.5t-24 36.5q-18 15 -46 24t-70 9h-95v-230z" />
    <glyph glyph-name="uni044D" unicode="&#x44d;" horiz-adv-x="491" 
d="M73 22q25 -14 56 -21.5t74 -7.5q182 0 199 205h-318v41h316q-5 91 -56 142.5t-134 51.5q-45 0 -74.5 -8t-53.5 -22l-21 34q36 25 74 32.5t75 7.5q54 0 98.5 -19.5t76.5 -54.5q31 -35 48 -83.5t17 -107.5t-17 -107.5t-49 -83.5t-78 -54.5t-104 -19.5q-16 0 -35.5 2
t-38.5 6q-20 5 -39 12.5t-35 17.5z" />
    <glyph glyph-name="uni044E" unicode="&#x44e;" horiz-adv-x="643" 
d="M91 -42v509h44v-232h123q4 53 17 97t36 76q22 31 54 48.5t73 17.5q90 0 138 -67.5t48 -189.5q0 -126 -44.5 -193.5t-141.5 -67.5q-83 0 -126.5 63.5t-52.5 172.5h-124v-234h-44zM304 217q0 -48 8.5 -88t25.5 -69q16 -29 41 -45.5t59 -16.5t60.5 16t44.5 45q17 28 26 68.5
t9 89.5q0 46 -10 85.5t-28 68.5q-19 28 -45 44t-57 16q-32 0 -57 -17t-42 -46t-26 -68t-9 -83z" />
    <glyph glyph-name="uni044F" unicode="&#x44f;" horiz-adv-x="451" 
d="M342 -42v216h-48q-42 0 -77.5 -23.5t-61.5 -65.5l-76 -127h-51l83 139q12 20 31.5 45.5t61.5 44.5q-26 4 -49.5 16.5t-41.5 31.5t-28.5 41.5t-10.5 46.5q0 66 46 105t141 39h127v-509h-46zM342 421h-82q-66 0 -102.5 -22.5t-36.5 -76.5q0 -27 11 -46t31 -31
q19 -13 45 -19t56 -6h78v201z" />
    <glyph glyph-name="uni0451" unicode="&#x451;" horiz-adv-x="494" 
d="M444 -6q-38 -25 -80.5 -35.5t-91.5 -10.5q-117 0 -173 67.5t-56 190.5q0 133 57 202.5t161 69.5q52 0 91 -18t65 -51t39 -80t13 -105v-16.5t-1 -18.5h-379q8 -102 55 -148.5t128 -46.5q35 0 76 8.5t75 28.5zM421 233q-2 94 -40 145.5t-122 51.5q-74 0 -120 -50.5
t-48 -146.5h330zM188 616q0 -17 -11.5 -27.5t-26.5 -10.5t-26.5 10.5t-11.5 27.5t11.5 27.5t26.5 10.5t26.5 -10.5t11.5 -27.5zM400 616q0 -17 -11.5 -27.5t-26.5 -10.5t-26.5 10.5t-11.5 27.5t11.5 27.5t26.5 10.5t26.5 -10.5t11.5 -27.5z" />
    <glyph glyph-name="uni2015" unicode="&#x2015;" horiz-adv-x="782" 
d="M37 301v39h716v-39h-716z" />
    <glyph glyph-name="quoteleft" unicode="&#x2018;" horiz-adv-x="297" 
d="M137 650h56v-96h-88v110q0 45 15.5 73.5t46.5 45.5l14 -19q-22 -15 -33 -34t-11 -46v-34z" />
    <glyph glyph-name="quoteright" unicode="&#x2019;" horiz-adv-x="297" 
d="M151 673h-56v96h88v-110q0 -45 -15.5 -73.5t-46.5 -45.5l-14 19q22 15 33 34t11 46v34z" />
    <glyph glyph-name="quotedblleft" unicode="&#x201c;" horiz-adv-x="434" 
d="M137 650h54v-96h-86v110q0 45 15.5 73.5t46.5 45.5l14 -19q-22 -15 -33 -34t-11 -46v-34zM289 650h54v-96h-86v110q0 45 15.5 73.5t46.5 45.5l14 -19q-22 -15 -33 -34t-11 -46v-34z" />
    <glyph glyph-name="quotedblright" unicode="&#x201d;" horiz-adv-x="434" 
d="M303 673h-54v96h86v-110q0 -45 -15.5 -73.5t-46.5 -45.5l-14 19q22 15 33 34t11 46v34zM151 673h-54v96h86v-110q0 -45 -15.5 -73.5t-46.5 -45.5l-14 19q22 15 33 34t11 46v34z" />
    <glyph glyph-name="dagger" unicode="&#x2020;" horiz-adv-x="782" 
d="M358 -45v519h-123v51h123v159h59v-159h129v-51h-129v-519h-59z" />
    <glyph glyph-name="daggerdbl" unicode="&#x2021;" horiz-adv-x="782" 
d="M358 -45v330h-123v52h123v137h-123v51h123v159h59v-159h129v-51h-129v-137h129v-52h-129v-330h-59z" />
    <glyph glyph-name="twodotenleader" unicode="&#x2025;" horiz-adv-x="366" 
d="M124 -9v-82h-65v82h65zM306 -9v-82h-65v82h65z" />
    <glyph glyph-name="ellipsis" unicode="&#x2026;" horiz-adv-x="539" 
d="M487 -9v-82h-65v82h65zM124 -9v-82h-65v82h65zM306 -9v-82h-65v82h65z" />
    <glyph glyph-name="perthousand" unicode="&#x2030;" horiz-adv-x="892" 
d="M611 89q0 63 33.5 100.5t98.5 37.5q62 0 96.5 -37.5t34.5 -100.5q0 -72 -34 -104.5t-97 -32.5q-65 0 -98.5 36.5t-33.5 100.5zM659 89q0 -18 3.5 -35t13.5 -30q9 -13 25 -21t42 -8q47 0 63.5 23.5t16.5 70.5q0 18 -3.5 34.5t-12.5 29.5t-24.5 20.5t-39.5 7.5
q-26 0 -42 -7.5t-25 -20.5q-10 -13 -13.5 -29.5t-3.5 -34.5zM301 89q0 63 33.5 100.5t98.5 37.5q62 0 96.5 -37.5t34.5 -100.5t-34 -100t-97 -37q-65 0 -98.5 36.5t-33.5 100.5zM349 89q0 -18 3.5 -35t13.5 -30q9 -13 25 -21t42 -8q47 0 63.5 23.5t16.5 70.5q0 18 -3.5 34.5
t-12.5 29.5t-24.5 20.5t-39.5 7.5q-26 0 -42 -7.5t-25 -20.5q-10 -13 -13.5 -29.5t-3.5 -34.5zM455 687h52l-366 -728h-51zM21 519q0 63 33.5 100.5t98.5 37.5q62 0 96.5 -37.5t34.5 -100.5t-34 -100t-97 -37q-65 0 -98.5 36.5t-33.5 100.5zM69 519q0 -18 3.5 -35t13.5 -30
q9 -13 25 -21t42 -8q24 0 39.5 8t24.5 21t12.5 30t3.5 35t-3.5 34.5t-12.5 29.5t-24.5 20.5t-39.5 7.5q-26 0 -42 -7.5t-25 -20.5q-10 -13 -13.5 -29.5t-3.5 -34.5z" />
    <glyph glyph-name="minute" unicode="&#x2032;" horiz-adv-x="235" 
d="M127 706h51l-84 -195h-23z" />
    <glyph glyph-name="second" unicode="&#x2033;" horiz-adv-x="351" 
d="M125 706h51l-83 -195h-24zM245 706h51l-84 -195h-24z" />
    <glyph glyph-name="uni203B" unicode="&#x203b;" horiz-adv-x="888" 
d="M695 41l-33 -32l-230 231l-230 -231l-33 32l231 230l-231 231l33 32l230 -231l230 231l33 -32l-231 -231zM432 111q20 0 33.5 -14.5t13.5 -35.5q0 -23 -13.5 -37t-33.5 -14q-19 0 -32.5 14.5t-13.5 35.5t13 36t33 15zM432 533q20 0 33.5 -14.5t13.5 -35.5
q0 -23 -13.5 -37t-33.5 -14q-19 0 -32.5 14.5t-13.5 35.5t13 36t33 15zM222 322q19 0 32 -14t13 -37q0 -21 -12.5 -36t-32.5 -15t-33.5 15t-13.5 36t13.5 36t33.5 15zM642 322q20 0 33.5 -14t13.5 -37q0 -21 -13.5 -36t-33.5 -15q-18 0 -31.5 15t-13.5 36t13 36t32 15z" />
    <glyph glyph-name="uni2074" unicode="&#x2074;" horiz-adv-x="292" 
d="M66 403h133v238zM233 369v-80h-34v80h-172v28l164 290h42v-284h37v-34h-37z" />
    <glyph glyph-name="uni207F" unicode="&#x207f;" horiz-adv-x="292" 
d="M252 289v266q0 52 -21 78t-75 26q-29 0 -57.5 -12t-59.5 -35v-323h-34v398h34v-41q34 24 64 36.5t60 12.5q61 0 92 -35.5t31 -96.5v-274h-34z" />
    <glyph glyph-name="uni2081" unicode="&#x2081;" horiz-adv-x="301" 
d="M192 -155h-34v377l-72 -27l-12 29l99 37q6 2 12.5 -1.5t6.5 -8.5v-406z" />
    <glyph glyph-name="uni2082" unicode="&#x2082;" horiz-adv-x="299" 
d="M43 -155v36q0 22 8.5 43t19.5 35q7 10 15.5 19t20.5 20q11 10 27.5 24.5t39.5 34.5q31 27 41.5 48t10.5 50q0 33 -23 54t-61 21q-22 0 -39.5 -10t-33.5 -24l-24 24q18 17 43 29.5t55 12.5q51 0 83.5 -30.5t32.5 -77.5q0 -35 -15 -63.5t-42 -51.5q-25 -22 -47.5 -42.5
t-46.5 -47.5q-28 -32 -28 -56v-14h176v-34h-213z" />
    <glyph glyph-name="uni2083" unicode="&#x2083;" horiz-adv-x="299" 
d="M126 262q24 0 46 -6t38 -18q16 -13 25.5 -32t9.5 -44q0 -32 -14.5 -56.5t-44.5 -39.5q37 -15 54.5 -41.5t17.5 -61.5q0 -58 -35.5 -91t-96.5 -32q-20 0 -47 5t-48 16l10 30q25 -11 46.5 -14.5t38.5 -3.5q49 0 73.5 24t24.5 64q0 19 -8 35.5t-21 28.5q-14 12 -32.5 18.5
t-38.5 6.5h-44v29h44q45 0 66 24t21 60q0 32 -22 50.5t-64 18.5q-23 0 -38 -4.5t-31 -13.5l-14 26q19 11 41 16.5t43 5.5z" />
    <glyph glyph-name="uni2084" unicode="&#x2084;" horiz-adv-x="292" 
d="M63 -41h133v238zM230 -75v-80h-34v80h-172v28l164 290h42v-284h37v-34h-37z" />
    <glyph glyph-name="Euro" unicode="&#x20ac;" horiz-adv-x="868" 
d="M149 424h71q13 76 41 128.5t67 85.5q38 33 84 48t94 15q60 0 101.5 -8t79.5 -24l-16 -41q-22 8 -41 13.5t-38 9.5q-20 3 -40.5 4.5t-45.5 1.5q-34 0 -70 -9t-68 -34q-32 -26 -58 -71.5t-39 -118.5h279v-46h-285q-2 -20 -2.5 -35t-0.5 -30q0 -23 1 -44t5 -41h282v-46h-272
q18 -60 45 -97.5t61 -58.5q33 -21 70.5 -28.5t75.5 -7.5q45 0 82 6t73 25l18 -40q-32 -20 -73.5 -28t-108.5 -8q-53 0 -99.5 13t-84.5 42q-38 28 -66.5 73t-45.5 109h-76v46h68q-3 23 -4 43.5t-1 42.5q0 14 1 32t2 32h-66v46z" />
    <glyph glyph-name="uni2103" unicode="&#x2103;" horiz-adv-x="771" 
d="M53 663q0 -34 19.5 -56.5t55.5 -22.5t55.5 22.5t19.5 56.5t-19.5 56.5t-55.5 22.5t-55.5 -22.5t-19.5 -56.5zM22 663q0 48 29.5 78t76.5 30t76.5 -30t29.5 -78q0 -46 -29 -77t-77 -31t-77 31t-29 77zM748 -19q-32 -20 -73.5 -28t-108.5 -8q-66 0 -122.5 20t-97.5 64
q-42 44 -65.5 114t-23.5 171q0 107 24.5 181t65.5 120q41 45 94 65.5t110 20.5q60 0 101.5 -8t79.5 -24l-16 -41q-22 8 -41 13.5t-38 9.5q-20 3 -40.5 4.5t-45.5 1.5q-45 0 -88.5 -17t-77.5 -56q-35 -40 -56.5 -106t-21.5 -165q0 -90 22 -152t59 -100t85.5 -54.5
t101.5 -16.5q45 0 82 6t73 25z" />
    <glyph glyph-name="uni2109" unicode="&#x2109;" horiz-adv-x="884" 
d="M413 325v-366h-50v728h436v-44h-386v-274h352v-44h-352zM94 650q0 -34 19.5 -56.5t55.5 -22.5t55.5 22.5t19.5 56.5t-19.5 56.5t-55.5 22.5t-55.5 -22.5t-19.5 -56.5zM63 650q0 48 29.5 78t76.5 30t76.5 -30t29.5 -78q0 -46 -29 -77t-77 -31t-77 31t-29 77z" />
    <glyph glyph-name="uni2113" unicode="&#x2113;" horiz-adv-x="445" 
d="M68 24q7 1 17.5 3.5t21.5 5.5t22 7t19 8q-14 31 -26 70.5t-21 81.5q-9 41 -14 80.5t-5 69.5q0 64 9.5 126.5t30.5 111.5q20 49 52.5 79.5t78.5 30.5q33 0 56 -19.5t37 -50.5q13 -32 19 -71.5t6 -79.5q0 -53 -8 -112t-26 -117q-19 -59 -50 -113.5t-77 -99.5
q11 -21 28.5 -34.5t43.5 -13.5q24 0 44.5 12.5t38.5 42.5l33 -22q-23 -34 -51 -54.5t-64 -20.5q-35 0 -63.5 17.5t-49.5 49.5q-21 -8 -44.5 -14.5t-43.5 -11.5zM254 656q-32 0 -55.5 -25.5t-39.5 -67.5t-23.5 -94.5t-7.5 -106.5q0 -28 3 -63t10 -73q7 -39 18 -79.5t27 -79.5
q40 42 66.5 92t43.5 103q16 53 23 105t7 99q0 32 -2.5 65.5t-9.5 61.5q-8 28 -22 45.5t-38 17.5z" />
    <glyph glyph-name="uni2116" unicode="&#x2116;" horiz-adv-x="872" 
d="M469 -41v46h371v-46h-371zM85 687l276 -639v639h40v-728h-44l-278 644v-644h-40v728h46zM782 344q0 38 -6 70.5t-21 56.5q-15 23 -41 36.5t-66 13.5t-66 -13.5t-41 -36.5q-15 -24 -20.5 -56.5t-5.5 -70.5v-53q0 -38 5.5 -70.5t20.5 -56.5t41 -37.5t66 -13.5t66 13.5
t41 37.5t21 56.5t6 70.5v53zM648 564q94 0 137.5 -56.5t43.5 -163.5v-53q0 -109 -43 -165.5t-138 -56.5q-92 0 -136 56.5t-44 165.5v53q0 107 44 163.5t136 56.5z" />
    <glyph glyph-name="uni2121" unicode="&#x2121;" horiz-adv-x="872" 
d="M218 643h-200v44h447v-44h-201v-684h-46v684zM405 217h258v53q0 71 -30.5 108t-101.5 37q-66 0 -96 -38t-30 -109v-51zM538 -15q25 0 44 1t35 4q15 3 29 8.5t30 13.5l16 -38q-19 -8 -36 -13.5t-35 -9.5q-18 -3 -38.5 -4.5t-44.5 -1.5q-82 0 -133 54t-51 153v97
q0 101 46 153.5t131 52.5q52 0 86.5 -15.5t55.5 -41.5q21 -27 30 -62.5t9 -75.5v-27q0 -28 -12 -42t-43 -14h-252v-34q0 -40 12.5 -70t32.5 -49q19 -20 42.5 -29.5t45.5 -9.5zM840 687v-728h-47v728h47z" />
    <glyph glyph-name="trademark" unicode="&#x2122;" horiz-adv-x="872" 
d="M166 648h-133v39h307v-39h-134v-359h-40v359zM710 687h41v-398h-37v322l-78 -164q-20 -44 -58 -44q-19 0 -33.5 11t-23.5 31l-78 167v-323h-37v398h41l108 -229q3 -7 9 -12.5t14 -5.5t14 5.5t10 13.5z" />
    <glyph glyph-name="Omega" unicode="&#x2126;" horiz-adv-x="594" 
d="M365 121q61 26 100 87t39 149q0 106 -50.5 166t-147.5 60t-147 -60t-50 -166q0 -43 10.5 -79.5t29.5 -66.5t44 -52t54 -36v-161h-157v37h112v99q-31 19 -57 46.5t-45 61.5q-19 33 -29.5 71.5t-10.5 79.5q1 66 20.5 116.5t52.5 84.5q33 33 77.5 50.5t95.5 17.5
q52 0 96.5 -17.5t77.5 -50.5q33 -34 52 -84.5t20 -116.5q0 -40 -10.5 -78t-29.5 -71q-19 -34 -45 -62t-57 -47v-100h111v-37h-156v159z" />
    <glyph glyph-name="uni212B" unicode="&#x212b;" horiz-adv-x="664" 
d="M223 673q0 45 30 74t77 29t77 -29t30 -74q0 -33 -18.5 -59.5t-49.5 -37.5l260 -617h-51l-68 164h-356l-66 -164h-54l255 618q-30 12 -48 38t-18 58zM492 170l-161 396l-160 -396h321zM254 673q0 -34 22 -54.5t54 -20.5t54 20.5t22 54.5t-22 54t-54 20t-54 -20t-22 -54z
" />
    <glyph glyph-name="onethird" unicode="&#x2153;" horiz-adv-x="779" 
d="M598 690l-442 -748h-36l442 748h36zM169 286h-31v378l-73 -27l-11 28l103 37q4 0 8 -3t4 -7v-406zM589 360q24 0 46 -6t38 -18q16 -13 25.5 -32t9.5 -44q0 -32 -14.5 -56.5t-44.5 -39.5q37 -15 54.5 -41.5t17.5 -61.5q0 -58 -35.5 -91t-96.5 -32q-20 0 -47 5t-48 16
l10 30q25 -11 46.5 -14.5t38.5 -3.5q49 0 73.5 24t24.5 64q0 19 -8 35.5t-21 28.5q-14 12 -32.5 18.5t-38.5 6.5h-44v29h44q45 0 66 24t21 60q0 32 -22 50.5t-64 18.5q-23 0 -38 -4.5t-31 -13.5l-14 26q19 11 41 16.5t43 5.5z" />
    <glyph glyph-name="twothirds" unicode="&#x2154;" horiz-adv-x="784" 
d="M639 690l-442 -748h-36l442 748h36zM594 360q24 0 46 -6t38 -18q16 -13 25.5 -32t9.5 -44q0 -32 -14.5 -56.5t-44.5 -39.5q37 -15 54.5 -41.5t17.5 -61.5q0 -58 -35.5 -91t-96.5 -32q-20 0 -47 5t-48 16l10 30q25 -11 46.5 -14.5t38.5 -3.5q49 0 73.5 24t24.5 64
q0 19 -8 35.5t-21 28.5q-14 12 -32.5 18.5t-38.5 6.5h-44v29h44q45 0 66 24t21 60q0 32 -22 50.5t-64 18.5q-23 0 -38 -4.5t-31 -13.5l-14 26q19 11 41 16.5t43 5.5zM52 286v36q0 22 8.5 43t19.5 35q7 10 15.5 19t20.5 20q11 10 27.5 24.5t39.5 34.5q31 27 41.5 48t10.5 50
q0 33 -23 54t-61 21q-22 0 -39.5 -10t-33.5 -24l-24 24q18 17 43 29.5t55 12.5q51 0 83.5 -30.5t32.5 -77.5q0 -35 -15 -63.5t-42 -51.5q-25 -22 -48 -40.5t-47 -45.5q-14 -17 -20.5 -32t-6.5 -28v-14h176v-34h-213z" />
    <glyph glyph-name="oneeighth" unicode="&#x215b;" horiz-adv-x="778" 
d="M595 -55q-26 0 -49 7.5t-40 20.5q-18 14 -28 34t-10 46q0 41 19 70.5t54 43.5q-33 16 -45.5 41t-12.5 50q0 27 9 46.5t24 32.5q15 12 35 18t42 6t42.5 -6t36.5 -19t25 -32t9 -46q0 -25 -15 -52.5t-49 -39.5q41 -12 59.5 -43t18.5 -67q0 -22 -8 -42t-24 -36
q-16 -15 -39.5 -24t-53.5 -9zM593 152q-45 0 -70.5 -25.5t-25.5 -67.5t27 -65.5t71 -23.5q24 0 42 8t30 21q12 12 18 27.5t6 30.5q0 44 -25 69.5t-73 25.5zM593 179q42 0 62.5 22.5t20.5 56.5q0 37 -23.5 57.5t-58.5 20.5q-39 0 -60.5 -21.5t-21.5 -56.5q0 -33 20.5 -56
t60.5 -23zM608 690l-442 -748h-36l442 748h36zM169 286h-31v378l-73 -27l-11 28l103 37q4 0 8 -3t4 -7v-406z" />
    <glyph glyph-name="threeeighths" unicode="&#x215c;" horiz-adv-x="781" 
d="M598 -55q-26 0 -49 7.5t-40 20.5q-18 14 -28 34t-10 46q0 41 19 70.5t54 43.5q-33 16 -45.5 41t-12.5 50q0 27 9 46.5t24 32.5q15 12 35 18t42 6t42.5 -6t36.5 -19t25 -32t9 -46q0 -25 -15 -52.5t-49 -39.5q41 -12 59.5 -43t18.5 -67q0 -22 -8 -42t-24 -36
q-16 -15 -39.5 -24t-53.5 -9zM596 152q-45 0 -70.5 -25.5t-25.5 -67.5t27 -65.5t71 -23.5q24 0 42 8t30 21q12 12 18 27.5t6 30.5q0 44 -25 69.5t-73 25.5zM596 179q42 0 62.5 22.5t20.5 56.5q0 37 -23.5 57.5t-58.5 20.5q-39 0 -60.5 -21.5t-21.5 -56.5q0 -33 20.5 -56
t60.5 -23zM611 690l-442 -748h-36l442 748h36zM146 703q24 0 46 -6t38 -18q16 -13 25.5 -32t9.5 -44q0 -32 -14.5 -56.5t-44.5 -39.5q37 -15 54.5 -41.5t17.5 -61.5q0 -58 -35.5 -91t-96.5 -32q-20 0 -47 5t-48 16l10 30q25 -11 46.5 -14.5t38.5 -3.5q49 0 73.5 24t24.5 64
q0 19 -8 35.5t-21 28.5q-14 12 -32.5 18.5t-38.5 6.5h-44v29h44q45 0 66 24t21 60q0 32 -22 50.5t-64 18.5q-23 0 -38 -4.5t-31 -13.5l-14 26q19 11 41 16.5t43 5.5z" />
    <glyph glyph-name="fiveeighths" unicode="&#x215d;" horiz-adv-x="775" 
d="M140 504q-20 0 -34.5 -3t-34.5 -10q-5 -2 -10 0t-4 7l14 189h175v-26h-149l-12 -143q16 6 30.5 8.5t24.5 2.5q65 0 98.5 -33.5t33.5 -88.5q0 -54 -35 -88.5t-96 -34.5q-24 0 -46.5 4.5t-42.5 15.5l7 25q36 -19 82 -19q53 0 77.5 28.5t24.5 68.5q0 44 -24 70.5t-79 26.5z
M592 -55q-26 0 -49 7.5t-40 20.5q-18 14 -28 34t-10 46q0 41 19 70.5t54 43.5q-33 16 -45.5 41t-12.5 50q0 27 9 46.5t24 32.5q15 12 35 18t42 6t42.5 -6t36.5 -19t25 -32t9 -46q0 -25 -15 -52.5t-49 -39.5q41 -12 59.5 -43t18.5 -67q0 -22 -8 -42t-24 -36
q-16 -15 -39.5 -24t-53.5 -9zM590 152q-45 0 -70.5 -25.5t-25.5 -67.5t27 -65.5t71 -23.5q24 0 42 8t30 21q12 12 18 27.5t6 30.5q0 44 -25 69.5t-73 25.5zM590 179q42 0 62.5 22.5t20.5 56.5q0 37 -23.5 57.5t-58.5 20.5q-39 0 -60.5 -21.5t-21.5 -56.5q0 -33 20.5 -56
t60.5 -23zM605 690l-442 -748h-36l442 748h36z" />
    <glyph glyph-name="seveneighths" unicode="&#x215e;" horiz-adv-x="776" 
d="M263 672q0 -9 -3 -19l-129 -364h-29l131 370h-177v28h207v-15zM593 -55q-26 0 -49 7.5t-40 20.5q-18 14 -28 34t-10 46q0 41 19 70.5t54 43.5q-33 16 -45.5 41t-12.5 50q0 27 9 46.5t24 32.5q15 12 35 18t42 6t42.5 -6t36.5 -19t25 -32t9 -46q0 -25 -15 -52.5t-49 -39.5
q41 -12 59.5 -43t18.5 -67q0 -22 -8 -42t-24 -36q-16 -15 -39.5 -24t-53.5 -9zM591 152q-45 0 -70.5 -25.5t-25.5 -67.5t27 -65.5t71 -23.5q24 0 42 8t30 21q12 12 18 27.5t6 30.5q0 44 -25 69.5t-73 25.5zM591 179q42 0 62.5 22.5t20.5 56.5q0 37 -23.5 57.5t-58.5 20.5
q-39 0 -60.5 -21.5t-21.5 -56.5q0 -33 20.5 -56t60.5 -23zM606 690l-442 -748h-36l442 748h36z" />
    <glyph glyph-name="uni2160" unicode="&#x2160;" horiz-adv-x="782" 
d="M370 -49v729h50v-729h-50z" />
    <glyph glyph-name="uni2161" unicode="&#x2161;" horiz-adv-x="782" 
d="M260 -49v729h49v-729h-49zM480 -49v729h49v-729h-49z" />
    <glyph glyph-name="uni2162" unicode="&#x2162;" horiz-adv-x="782" 
d="M160 -49v729h49v-729h-49zM370 -49v729h50v-729h-50zM581 -49v729h49v-729h-49z" />
    <glyph glyph-name="uni2163" unicode="&#x2163;" horiz-adv-x="779" 
d="M486 -49h-43l-229 729h49l202 -654l206 654h46zM67 -49v729h50v-729h-50z" />
    <glyph glyph-name="uni2164" unicode="&#x2164;" horiz-adv-x="776" 
d="M413 -49h-45l-248 729h51l221 -662l224 662h47z" />
    <glyph glyph-name="uni2165" unicode="&#x2165;" horiz-adv-x="779" 
d="M671 -49v729h50v-729h-50zM341 -49h-43l-229 729h50l201 -661l207 661h45z" />
    <glyph glyph-name="uni2166" unicode="&#x2166;" horiz-adv-x="779" 
d="M560 -49v729h44v-729h-44zM705 -49v729h44v-729h-44zM275 -49h-38l-197 729h50l168 -642l168 642h48z" />
    <glyph glyph-name="uni2167" unicode="&#x2167;" horiz-adv-x="781" 
d="M457 -49v729h43v-729h-43zM578 -49v729h42v-729h-42zM698 -49v729h42v-729h-42zM229 -49h-35l-168 729h45l141 -642l144 642h46z" />
    <glyph glyph-name="uni2168" unicode="&#x2168;" horiz-adv-x="776" 
d="M204 -49l225 373l-207 356h60l183 -328l179 328h59l-204 -359l222 -370h-60l-198 337l-200 -337h-59zM58 -49v729h49v-729h-49z" />
    <glyph glyph-name="uni2169" unicode="&#x2169;" horiz-adv-x="767" 
d="M92 -49l264 374l-245 355h60l218 -322l215 322h61l-242 -355l259 -374h-60l-233 336l-235 -336h-62z" />
    <glyph glyph-name="uni2170" unicode="&#x2170;" horiz-adv-x="806" 
d="M379 -42v500h50v-500h-50zM444 668q0 -20 -12 -33t-29 -13t-29 13t-12 33t11.5 33.5t29.5 13.5t29.5 -13.5t11.5 -33.5z" />
    <glyph glyph-name="uni2171" unicode="&#x2171;" horiz-adv-x="810" 
d="M266 -42v500h48v-500h-48zM333 668q0 -20 -13.5 -33t-30.5 -13t-30 13t-13 33t13 33.5t30 13.5q18 0 31 -13.5t13 -33.5zM498 -42v500h48v-500h-48zM564 668q0 -20 -13 -33t-30 -13q-16 0 -30 13t-14 33t13.5 33.5t30.5 13.5q18 0 30.5 -13.5t12.5 -33.5z" />
    <glyph glyph-name="uni2172" unicode="&#x2172;" horiz-adv-x="805" 
d="M154 -42v500h48v-500h-48zM221 668q0 -20 -13.5 -33t-30.5 -13t-30 13t-13 33t13 33.5t30 13.5q18 0 31 -13.5t13 -33.5zM384 -42v500h48v-500h-48zM450 668q0 -20 -13 -33t-30 -13q-16 0 -30 13t-14 33t13.5 33.5t30.5 13.5q18 0 30.5 -13.5t12.5 -33.5zM614 -42v500h48
v-500h-48zM680 668q0 -20 -13 -33t-30 -13q-16 0 -30 13t-14 33t13.5 33.5t30.5 13.5q18 0 30.5 -13.5t12.5 -33.5z" />
    <glyph glyph-name="uni2173" unicode="&#x2173;" horiz-adv-x="802" 
d="M501 33l168 425h48l-199 -500h-35l-201 500h51zM146 -42v500h48v-500h-48zM213 668q0 -20 -13.5 -33t-30.5 -13t-30 13t-13 33t13 33.5t30 13.5q18 0 31 -13.5t13 -33.5z" />
    <glyph glyph-name="uni2174" unicode="&#x2174;" horiz-adv-x="794" 
d="M402 23l168 432h49l-198 -498h-39l-199 498h54z" />
    <glyph glyph-name="uni2175" unicode="&#x2175;" horiz-adv-x="802" 
d="M312 33l168 425h48l-199 -500h-35l-201 500h51zM616 -42v500h48v-500h-48zM683 668q0 -20 -13.5 -33t-30.5 -13t-30 13t-13 33t13 33.5t30 13.5q18 0 31 -13.5t13 -33.5z" />
    <glyph glyph-name="uni2176" unicode="&#x2176;" horiz-adv-x="803" 
d="M245 33l148 425h48l-179 -500h-35l-181 500h51zM529 -42v500h48v-500h-48zM596 668q0 -20 -13.5 -33t-30.5 -13t-30 13t-13 33t13 33.5t30 13.5q18 0 31 -13.5t13 -33.5zM702 -42v500h48v-500h-48zM769 668q0 -20 -13.5 -33t-30.5 -13t-30 13t-13 33t13 33.5t30 13.5
q18 0 31 -13.5t13 -33.5z" />
    <glyph glyph-name="uni2177" unicode="&#x2177;" horiz-adv-x="813" 
d="M198 33l113 425h46l-142 -500h-35l-144 500h49zM434 -42v500h44v-500h-44zM499 668q0 -20 -13.5 -33t-30.5 -13t-30 13t-13 33t13 33.5t30 13.5q18 0 31 -13.5t13 -33.5zM577 -42v500h44v-500h-44zM642 668q0 -20 -13.5 -33t-30.5 -13t-30 13t-13 33t13 33.5t30 13.5
q18 0 31 -13.5t13 -33.5zM713 -42v500h44v-500h-44zM778 668q0 -20 -13.5 -33t-30.5 -13t-30 13t-13 33t13 33.5t30 13.5q18 0 31 -13.5t13 -33.5z" />
    <glyph glyph-name="uni2178" unicode="&#x2178;" horiz-adv-x="797" 
d="M272 -42l188 255l-172 245h57l145 -214l140 214h59l-170 -249l175 -251h-56l-146 217l-159 -217h-61zM120 -42v500h48v-500h-48zM187 668q0 -20 -13.5 -33t-30.5 -13t-30 13t-13 33t13 33.5t30 13.5q18 0 31 -13.5t13 -33.5z" />
    <glyph glyph-name="uni2179" unicode="&#x2179;" horiz-adv-x="786" 
d="M187 -43l186 254l-172 244h56l146 -212l142 212h59l-172 -246l176 -252h-56l-148 216l-156 -216h-61z" />
    <glyph glyph-name="arrowleft" unicode="&#x2190;" horiz-adv-x="889" 
d="M884 290v-40h-756l54 -116l-172 136l173 132l-55 -112h756z" />
    <glyph glyph-name="arrowup" unicode="&#x2191;" horiz-adv-x="870" 
d="M448 -200h-40v824l-116 -54l136 172l132 -173l-112 55v-824z" />
    <glyph glyph-name="arrowright" unicode="&#x2192;" horiz-adv-x="889" 
d="M766 290l-55 112l173 -132l-172 -136l54 116h-756v40h756z" />
    <glyph glyph-name="arrowdown" unicode="&#x2193;" horiz-adv-x="872" 
d="M448 -69l112 55l-132 -173l-136 172l116 -54v824h40v-824z" />
    <glyph glyph-name="arrowboth" unicode="&#x2194;" horiz-adv-x="896" 
d="M186 394l-52 -104h635l-52 104l174 -124l-171 -126l49 106h-633l48 -106l-172 126z" />
    <glyph glyph-name="arrowupdn" unicode="&#x2195;" horiz-adv-x="915" 
d="M471 -79l112 55l-132 -173l-136 172l116 -54v713l-116 -54l136 172l132 -173l-112 55v-713z" />
    <glyph glyph-name="uni2196" unicode="&#x2196;" horiz-adv-x="896" 
d="M854 -126l-29 -29l-721 732l-44 -120l-26 217l216 -29l-118 -40z" />
    <glyph glyph-name="uni2197" unicode="&#x2197;" horiz-adv-x="896" 
d="M747 605l-118 40l216 29l-26 -217l-44 120l-721 -732l-29 29z" />
    <glyph glyph-name="uni2198" unicode="&#x2198;" horiz-adv-x="896" 
d="M28 645l29 29l721 -732l44 120l26 -217l-216 29l118 40z" />
    <glyph glyph-name="uni2199" unicode="&#x2199;" horiz-adv-x="885" 
d="M129 -86l118 -40l-216 -29l26 217l44 -120l721 732l29 -29z" />
    <glyph glyph-name="arrowdblright" unicode="&#x21d2;" horiz-adv-x="810" 
d="M520 112q-8 9 -14 15.5t-14 14.5l136 132h-600v39h635l66 68l-69 69h-632v39h593l-131 133q10 6 16.5 11.5t14.5 10.5l265 -266z" />
    <glyph glyph-name="arrowdblboth" unicode="&#x21d4;" horiz-adv-x="810" 
d="M537 107q-10 8 -16.5 14.5t-14.5 13.5l135 134h-462l133 -130q-9 -8 -16 -14t-15 -14l-267 265l266 265l31 -25l-131 -132h458l-131 129l29 26l267 -266zM676 445h-534l-70 -68l73 -70h531l70 69z" />
    <glyph glyph-name="universal" unicode="&#x2200;" horiz-adv-x="573" 
d="M136 464h301l73 222h52l-249 -726h-50l-253 726h50zM289 16l133 403h-271z" />
    <glyph glyph-name="partialdiff" unicode="&#x2202;" horiz-adv-x="782" 
d="M277 547q32 24 68.5 38t70.5 14q49 0 85.5 -19t61.5 -50q24 -32 36 -74t12 -88q0 -40 -6.5 -85.5t-19.5 -89.5q-14 -45 -34.5 -86.5t-47.5 -72.5q-27 -32 -61.5 -51t-76.5 -19q-41 0 -75 12.5t-58 35.5q-25 22 -38.5 54.5t-13.5 71.5q0 47 17 82t46 58q28 23 65.5 34.5
t78.5 11.5q38 0 80.5 -5.5t94.5 -16.5q4 23 6 42.5t2 33.5q0 37 -8 70t-26 58q-19 25 -49.5 39.5t-75.5 14.5q-25 0 -52.5 -10t-50.5 -27zM223 133q0 -54 34.5 -90.5t96.5 -36.5q52 0 86.5 22.5t57.5 59.5t36.5 84.5t23.5 96.5q-53 8 -95 13t-75 5q-81 0 -123 -36.5
t-42 -117.5z" />
    <glyph glyph-name="existential" unicode="&#x2203;" horiz-adv-x="512" 
d="M453 686v-726h-382v44h334v273h-291v44h291v321h-346v44h394z" />
    <glyph glyph-name="gradient" unicode="&#x2207;" horiz-adv-x="767" 
d="M382 12l-327 550h663zM138 544l266 -458l280 458h-546z" />
    <glyph glyph-name="element" unicode="&#x2208;" horiz-adv-x="782" 
d="M144 313q4 -38 16 -70t34 -55q22 -24 55.5 -37.5t81.5 -13.5h356v-41h-353q-54 0 -97 17.5t-73 48.5t-45.5 74t-14.5 95q1 51 18 94.5t47 74.5q29 31 70 48.5t91 17.5h354v-40h-350q-47 0 -81 -13t-56 -36q-23 -23 -35.5 -55.5t-17.5 -72.5h542v-36h-542z" />
    <glyph glyph-name="suchthat" unicode="&#x220b;" horiz-adv-x="782" 
d="M104 313v36h542q-5 40 -18 72.5t-35 55.5q-23 23 -56.5 36t-80.5 13h-350v40h354q49 0 90.5 -17.5t71.5 -48.5q29 -31 46 -74.5t18 -94.5q1 -52 -14.5 -95t-45.5 -74t-73 -48.5t-97 -17.5h-353v41h356q48 0 81.5 13.5t55.5 37.5q22 23 34 55t16 70h-542z" />
    <glyph glyph-name="product" unicode="&#x220f;" horiz-adv-x="782" 
d="M565 592v-592h-38v592h-264v-592h-38v592h-108v35h555v-35h-107z" />
    <glyph glyph-name="summation" unicode="&#x2211;" horiz-adv-x="782" 
d="M137 -35v12l307 304l-306 313v33h505v-23h-444l300 -299l-286 -288h440v-52h-516z" />
    <glyph glyph-name="radical" unicode="&#x221a;" horiz-adv-x="777" 
d="M328 -76h-49l-145 320h-106v30h155l134 -306l402 794h34z" />
    <glyph glyph-name="proportional" unicode="&#x221d;" horiz-adv-x="789" 
d="M713 197q-25 -12 -45.5 -14.5t-42.5 -2.5q-51 0 -96 35.5t-82 101.5q-22 -35 -43 -60t-44 -42t-50.5 -25t-62.5 -8q-36 0 -66.5 11t-51.5 33q-22 21 -34.5 52t-12.5 71q0 41 13 72.5t36 53.5q22 22 53.5 33t69.5 11q27 0 52 -6.5t49 -21.5q23 -15 45.5 -41t45.5 -65
q37 76 84.5 105.5t95.5 29.5q40 0 84 -15l-11 -31q-22 8 -39 9t-35 1q-29 0 -54 -11.5t-45 -30.5t-35 -42.5t-25 -48.5q11 -23 26.5 -47.5t35.5 -43.5q20 -20 45.5 -32.5t55.5 -12.5q17 0 34 1.5t39 12.5zM243 215q66 0 108 36t75 99q-30 64 -70.5 99.5t-106.5 35.5
q-35 0 -60 -10.5t-40 -28.5q-16 -18 -23.5 -42.5t-7.5 -53.5q0 -26 7.5 -50.5t22.5 -42.5q15 -19 38.5 -30.5t56.5 -11.5z" />
    <glyph glyph-name="infinity" unicode="&#x221e;" horiz-adv-x="782" 
d="M752 333q0 -36 -13.5 -67.5t-36.5 -54.5q-24 -24 -55.5 -38t-68.5 -14q-52 0 -100 30.5t-81 98.5q-35 -69 -81 -99t-105 -30q-36 0 -68 13.5t-55 36.5t-36.5 55t-13.5 69q0 35 13 66.5t36 55.5q23 23 54.5 37t69.5 14q27 0 52 -6t49 -21q23 -15 43.5 -39.5t37.5 -61.5
q17 34 38.5 58.5t45.5 40.5q24 15 50 22t51 7q35 0 66.5 -13.5t55.5 -36.5t38 -55t14 -68zM719 333q0 32 -10.5 57.5t-29.5 43.5t-44 27.5t-55 9.5q-67 0 -106.5 -35t-59.5 -104q7 -28 23.5 -53.5t39.5 -44.5q22 -20 49 -31.5t54 -11.5q28 0 53.5 9.5t44.5 27.5t30 44.5
t11 60.5zM208 191q31 0 59 11t50 30q21 19 36 45t21 56q-14 65 -59 101.5t-107 36.5q-28 0 -52.5 -9t-42.5 -26q-19 -18 -29.5 -44t-10.5 -59q0 -67 38.5 -104.5t96.5 -37.5z" />
    <glyph glyph-name="angle" unicode="&#x2220;" horiz-adv-x="771" 
d="M183 50h515v-34h-607l523 525l28 -29z" />
    <glyph glyph-name="uni2225" unicode="&#x2225;" horiz-adv-x="782" 
d="M288 716h34v-839h-34v839zM467 716h35v-839h-35v839z" />
    <glyph glyph-name="logicaland" unicode="&#x2227;" horiz-adv-x="779" 
d="M395 588l258 -509l-35 -18l-223 443l-226 -446l-36 19z" />
    <glyph glyph-name="logicalor" unicode="&#x2228;" horiz-adv-x="779" 
d="M133 569l36 19l226 -446l223 443l35 -18l-258 -509z" />
    <glyph glyph-name="intersection" unicode="&#x2229;" horiz-adv-x="782" 
d="M392 602q-46 0 -81 -15t-59 -41q-24 -27 -36 -63t-12 -77v-371h-40v372q0 49 14.5 91.5t43.5 74.5q29 31 72 49t99 18q54 0 97 -18t73 -49q30 -32 46 -75t16 -92v-367h-41v367q0 41 -12.5 77t-36.5 63q-24 26 -60 41t-83 15z" />
    <glyph glyph-name="union" unicode="&#x222a;" horiz-adv-x="782" 
d="M392 55q88 0 140 52t52 143v367h41v-368q0 -50 -16.5 -92.5t-46.5 -72.5q-31 -31 -74 -48.5t-95 -17.5q-56 0 -99 18t-72 49t-43.5 73t-14.5 90v374h40v-372q0 -41 12 -77t36 -62t59 -41t81 -15z" />
    <glyph glyph-name="integral" unicode="&#x222b;" horiz-adv-x="780" 
d="M371 61q-2 -17 -8 -33t-18 -30t-32 -24.5t-51 -16.5l6 37q36 9 49 26t16 40l69 500q3 21 11 40.5t23 35.5q14 16 36 26t52 12l-6 -36q-38 -5 -56.5 -27t-23.5 -61z" />
    <glyph glyph-name="uni222C" unicode="&#x222c;" horiz-adv-x="761" 
d="M253 61q-2 -17 -8 -33t-18 -30t-32 -24.5t-51 -16.5l6 37q36 9 49 26t16 40l69 500q3 21 11 40.5t23 35.5q14 16 36 26t52 12l-6 -36q-38 -5 -56.5 -27t-23.5 -61zM470 61q-2 -17 -8 -33t-18 -30t-32 -24.5t-51 -16.5l6 37q36 9 49 26t16 40l69 500q3 21 11 40.5t23 35.5
q14 16 36 26t52 12l-6 -36q-38 -5 -56.5 -27t-23.5 -61z" />
    <glyph glyph-name="uni222E" unicode="&#x222e;" horiz-adv-x="782" 
d="M564 294q0 -38 -14.5 -66t-38.5 -47t-54.5 -29.5t-62.5 -13.5l-12 -98q-2 -17 -7.5 -34.5t-17.5 -32.5t-32 -26.5t-51 -15.5v34q35 8 49 25.5t17 40.5l15 111q-27 6 -50.5 19t-40.5 32q-18 18 -28 43.5t-10 57.5q0 37 14.5 65.5t38.5 47.5t54.5 29.5t63.5 12.5l8 58
q7 50 36 84.5t90 39.5v-36q-33 -6 -55.5 -24.5t-29.5 -60.5q-2 -13 -4.5 -32.5t-4.5 -33.5q27 -8 50 -20.5t40 -31.5t27 -43.5t10 -54.5zM255 292q0 -51 29.5 -80t73.5 -41l35 250q-27 -2 -52 -9.5t-44 -23.5t-30.5 -39.5t-11.5 -56.5zM398 166q28 2 53 10.5t44 24.5
q19 15 30 38t11 54q0 51 -28.5 80t-73.5 42z" />
    <glyph glyph-name="therefore" unicode="&#x2234;" horiz-adv-x="789" 
d="M443 540q0 -17 -12.5 -31.5t-30.5 -14.5q-19 0 -32 14.5t-13 31.5t13 31t32 14q18 0 30.5 -14t12.5 -31zM206 152q0 -17 -13 -31.5t-31 -14.5t-31.5 14.5t-13.5 31.5t13.5 31t31.5 14t31 -14t13 -31zM679 152q0 -17 -12.5 -31.5t-29.5 -14.5q-19 0 -32.5 14.5t-13.5 31.5
t13.5 31t32.5 14q17 0 29.5 -14t12.5 -31z" />
    <glyph glyph-name="uni2235" unicode="&#x2235;" horiz-adv-x="790" 
d="M443 151q0 -17 -12.5 -31t-30.5 -14q-19 0 -32 14t-13 31t13 31.5t32 14.5q18 0 30.5 -14.5t12.5 -31.5zM206 539q0 -17 -13 -31t-31 -14t-31.5 14t-13.5 31t13.5 31.5t31.5 14.5t31 -14.5t13 -31.5zM680 539q0 -17 -13 -31t-30 -14q-19 0 -32.5 14t-13.5 31t13.5 31.5
t32.5 14.5q17 0 30 -14.5t13 -31.5z" />
    <glyph glyph-name="similar" unicode="&#x223c;" horiz-adv-x="890" 
d="M83 219q4 40 19.5 75.5t41.5 61.5t63 41.5t85 15.5q55 0 92.5 -27.5t71.5 -69.5q10 -12 24.5 -26t32.5 -26q17 -12 36 -19.5t37 -7.5q35 0 58 11.5t38 30.5q14 19 22 43.5t14 51.5h68q-7 -39 -22.5 -74.5t-39.5 -61.5q-25 -26 -60 -41.5t-80 -15.5q-50 0 -91.5 28
t-80.5 69q-14 14 -27 27.5t-28 24.5t-31.5 17.5t-35.5 6.5q-63 0 -97.5 -38.5t-42.5 -96.5h-67z" />
    <glyph glyph-name="uni223D" unicode="&#x223d;" horiz-adv-x="782" 
d="M283 318q34 0 60 10t46 30q14 13 28 25.5t30 22.5q15 9 32 14.5t38 5.5q22 0 42 -9t37 -23q16 -15 29.5 -33.5t23.5 -38.5l-26 -13q-20 35 -45 59t-63 24q-29 0 -54 -18.5t-57 -46.5q-54 -45 -120 -45q-48 0 -85 33.5t-57 87.5l33 8q6 -17 16 -34t24 -30q13 -13 30 -21
t38 -8z" />
    <glyph glyph-name="uni2252" unicode="&#x2252;" horiz-adv-x="782" 
d="M128 365h534v-37h-534v37zM128 224h534v-35h-534v35zM233 519q0 -21 -13 -34t-31 -13q-19 0 -32 13t-13 34q0 20 13 33t32 13q18 0 31 -13t13 -33zM646 29q0 -17 -12 -31t-32 -14t-33 12.5t-13 32.5t13 33.5t33 13.5t32 -15t12 -32z" />
    <glyph glyph-name="notequal" unicode="&#x2260;" horiz-adv-x="772" 
d="M664 196v-47h-297l-59 -162l-47 10l57 152h-211v47h229l50 150h-279v47h296l56 165l44 -9l-52 -156h213v-47h-230l-51 -150h281z" />
    <glyph glyph-name="equivalence" unicode="&#x2261;" horiz-adv-x="782" 
d="M122 322h546v-34h-546v34zM122 453h546v-33h-546v33zM122 190h546v-33h-546v33z" />
    <glyph glyph-name="lessequal" unicode="&#x2264;" horiz-adv-x="782" 
d="M167 399l439 194l15 -34l-359 -160l361 -162l-15 -32zM128 116h535v-38h-535v38z" />
    <glyph glyph-name="greaterequal" unicode="&#x2265;" horiz-adv-x="782" 
d="M183 205l-15 32l361 162l-359 160l15 34l439 -194zM663 78h-535v38h535v-38z" />
    <glyph glyph-name="uni226A" unicode="&#x226a;" horiz-adv-x="782" 
d="M457 562l-319 -209l319 -211v-39l-352 234v32l352 230v-37zM685 562l-319 -209l319 -211v-39l-352 234v32l352 230v-37z" />
    <glyph glyph-name="uni226B" unicode="&#x226b;" horiz-adv-x="782" 
d="M333 599l352 -230v-32l-352 -234v39l319 211l-319 209v37zM105 599l352 -230v-32l-352 -234v39l319 211l-319 209v37z" />
    <glyph glyph-name="propersubset" unicode="&#x2282;" horiz-adv-x="782" 
d="M140 331q0 -93 48 -149t140 -56h363v-38h-359q-51 0 -94 17.5t-73 49.5q-31 32 -48.5 76.5t-17.5 98.5q0 56 19.5 100t53.5 74q33 30 76.5 45.5t91.5 15.5h348v-38h-346q-42 0 -78.5 -13t-63.5 -38q-28 -25 -44 -61.5t-16 -83.5z" />
    <glyph glyph-name="propersuperset" unicode="&#x2283;" horiz-adv-x="784" 
d="M651 331q0 47 -16 83.5t-43 61.5q-28 25 -64.5 38t-78.5 13h-346v38h348q48 0 91.5 -15.5t77.5 -45.5q33 -30 52.5 -74t19.5 -100q0 -54 -17.5 -98.5t-47.5 -76.5q-31 -32 -74 -49.5t-94 -17.5h-359v38h363q91 0 139.5 56t48.5 149z" />
    <glyph glyph-name="reflexsubset" unicode="&#x2286;" horiz-adv-x="782" 
d="M340 582q-39 0 -73 -9.5t-60 -29.5t-41 -51t-15 -74q0 -85 51 -128t135 -43h334v-37h-341q-44 0 -84 14t-70 41q-30 26 -48 63.5t-18 84.5t17 85t47 65q29 26 69 40.5t87 14.5h341v-36h-331zM139 87h540v-37h-540v37z" />
    <glyph glyph-name="reflexsuperset" unicode="&#x2287;" horiz-adv-x="782" 
d="M117 582v36h341q46 0 86.5 -14.5t70.5 -40.5q29 -27 46 -65t17 -85t-18 -84.5t-48 -63.5q-30 -27 -70 -41t-84 -14h-341v37h334q42 0 76 11t59 33q25 21 38.5 53t13.5 74q0 43 -15 74t-41 51t-60.5 29.5t-73.5 9.5h-331zM650 49h-538v38h538v-38z" />
    <glyph glyph-name="uni2299" unicode="&#x2299;" horiz-adv-x="998" 
d="M444 321q0 23 15 40.5t39 17.5t39.5 -17.5t15.5 -40.5q0 -25 -15.5 -41t-39.5 -16q-23 0 -38.5 16t-15.5 41zM933 315q0 -91 -34 -171.5t-93 -140.5t-138 -94.5t-169 -34.5t-169 34.5t-138 94.5t-93.5 140.5t-34.5 171.5t34.5 171t93.5 140t138 95t169 35t169 -35
t138 -95t93 -140t34 -171zM100 315q0 -83 31 -156.5t85 -129.5t126.5 -88.5t156.5 -32.5t157 32.5t127 88.5t85 129.5t31 156.5q0 82 -31 156t-85 130q-54 55 -127 87.5t-157 32.5t-156.5 -32.5t-126.5 -87.5q-54 -56 -85 -130t-31 -156z" />
    <glyph glyph-name="perpendicular" unicode="&#x22a5;" horiz-adv-x="782" 
d="M103 54h272v516h40v-516h272v-38h-584v38z" />
    <glyph glyph-name="uni2312" unicode="&#x2312;" horiz-adv-x="776" 
d="M101 -48q14 59 39 107t61 82q36 33 83.5 51.5t105.5 18.5q61 0 109.5 -20t84.5 -54q36 -35 60.5 -82.5t37.5 -102.5h-40q-14 52 -34 93t-50 70q-30 28 -71.5 43t-96.5 15q-53 0 -94.5 -16t-71.5 -45q-31 -29 -51.5 -70t-32.5 -90h-39z" />
    <glyph glyph-name="uni2460" unicode="&#x2460;" horiz-adv-x="890" 
d="M482 50h-45v512l-106 -35l-11 34l137 47q8 3 16.5 -3t8.5 -14v-541zM445 743q87 0 163 -33t133 -90q56 -57 89 -133.5t33 -163.5t-33 -163.5t-89 -133.5q-57 -57 -133 -90t-163 -33t-163 33t-132 90q-57 57 -90 133.5t-33 163.5t33 163.5t90 133.5q56 57 132 90t163 33z
M445 704q-78 0 -147.5 -30t-120.5 -81q-52 -52 -82 -121.5t-30 -148.5t30 -148.5t82 -120.5q51 -52 120.5 -82t147.5 -30t147.5 30t121.5 82q51 51 81 120.5t30 148.5t-30 148.5t-81 121.5q-52 51 -121.5 81t-147.5 30z" />
    <glyph glyph-name="uni2461" unicode="&#x2461;" horiz-adv-x="890" 
d="M297 50v35q0 31 12 55t29 44q22 26 57 59t79 74l16 15q21 19 34 36t21 33q7 15 9.5 31.5t2.5 34.5q0 48 -33.5 77t-83.5 29q-32 0 -60.5 -14.5t-53.5 -34.5l-25 28q26 23 61 40.5t80 17.5q72 0 116 -39t44 -105q0 -49 -20 -86.5t-66 -78.5q-39 -35 -74 -68.5t-68 -72.5
q-15 -18 -22 -33.5t-7 -23.5v-16h258v-37h-306zM445 743q87 0 163 -33t133 -90q56 -57 89 -133.5t33 -163.5t-33 -163.5t-89 -133.5q-57 -57 -133 -90t-163 -33t-163 33t-132 90q-57 57 -90 133.5t-33 163.5t33 163.5t90 133.5q56 57 132 90t163 33zM445 704
q-78 0 -147.5 -30t-120.5 -81q-52 -52 -82 -121.5t-30 -148.5t30 -148.5t82 -120.5q51 -52 120.5 -82t147.5 -30t147.5 30t121.5 82q51 51 81 120.5t30 148.5t-30 148.5t-81 121.5q-52 51 -121.5 81t-147.5 30z" />
    <glyph glyph-name="uni2462" unicode="&#x2462;" horiz-adv-x="890" 
d="M437 608q75 0 120.5 -32t45.5 -106q0 -47 -22.5 -81t-66.5 -46q27 -6 47 -20t34 -33q13 -19 19.5 -40.5t6.5 -43.5q0 -85 -47.5 -128t-136.5 -41q-14 0 -32 2t-36 6q-19 3 -37 8.5t-33 13.5l16 38q35 -18 65.5 -23.5t56.5 -5.5q68 0 103.5 31.5t35.5 94.5q0 65 -39 92.5
t-103 27.5h-67v37h67q65 0 94.5 28.5t29.5 84.5q0 49 -29.5 74t-92.5 25q-32 0 -53 -6.5t-46 -20.5l-21 31q26 15 56.5 24t64.5 9zM445 743q87 0 163 -33t133 -90q56 -57 89 -133.5t33 -163.5t-33 -163.5t-89 -133.5q-57 -57 -133 -90t-163 -33t-163 33t-132 90
q-57 57 -90 133.5t-33 163.5t33 163.5t90 133.5q56 57 132 90t163 33zM445 704q-78 0 -147.5 -30t-120.5 -81q-52 -52 -82 -121.5t-30 -148.5t30 -148.5t82 -120.5q51 -52 120.5 -82t147.5 -30t147.5 30t121.5 82q51 51 81 120.5t30 148.5t-30 148.5t-81 121.5
q-52 51 -121.5 81t-147.5 30z" />
    <glyph glyph-name="uni2463" unicode="&#x2463;" horiz-adv-x="890" 
d="M283 196h202v343zM526 160v-112h-41v112h-253v29l243 409h51v-402h66v-36h-66zM445 743q87 0 163 -33t133 -90q56 -57 89 -133.5t33 -163.5t-33 -163.5t-89 -133.5q-57 -57 -133 -90t-163 -33t-163 33t-132 90q-57 57 -90 133.5t-33 163.5t33 163.5t90 133.5
q56 57 132 90t163 33zM445 704q-78 0 -147.5 -30t-120.5 -81q-52 -52 -82 -121.5t-30 -148.5t30 -148.5t82 -120.5q51 -52 120.5 -82t147.5 -30t147.5 30t121.5 82q51 51 81 120.5t30 148.5t-30 148.5t-81 121.5q-52 51 -121.5 81t-147.5 30z" />
    <glyph glyph-name="uni2464" unicode="&#x2464;" horiz-adv-x="890" 
d="M433 336q-25 0 -46.5 -5t-41.5 -11q-29 -8 -27 12l19 264h253v-37h-214l-18 -198q21 6 41 9t34 3q92 0 137.5 -43.5t45.5 -119.5q0 -38 -11.5 -69.5t-34.5 -54.5q-23 -24 -57 -37t-78 -13q-38 0 -73 8t-62 23l16 34q15 -7 28 -12.5t27 -8.5q13 -4 28.5 -5.5t35.5 -1.5
q33 0 58.5 11t43.5 30q17 19 25.5 44t8.5 52q0 59 -34.5 92.5t-103.5 33.5zM445 743q87 0 163 -33t133 -90q56 -57 89 -133.5t33 -163.5t-33 -163.5t-89 -133.5q-57 -57 -133 -90t-163 -33t-163 33t-132 90q-57 57 -90 133.5t-33 163.5t33 163.5t90 133.5q56 57 132 90
t163 33zM445 704q-78 0 -147.5 -30t-120.5 -81q-52 -52 -82 -121.5t-30 -148.5t30 -148.5t82 -120.5q51 -52 120.5 -82t147.5 -30t147.5 30t121.5 82q51 51 81 120.5t30 148.5t-30 148.5t-81 121.5q-52 51 -121.5 81t-147.5 30z" />
    <glyph glyph-name="uni2465" unicode="&#x2465;" horiz-adv-x="890" 
d="M445 743q87 0 163 -33t133 -90q56 -57 89 -133.5t33 -163.5t-33 -163.5t-89 -133.5q-57 -57 -133 -90t-163 -33t-163 33t-132 90q-57 57 -90 133.5t-33 163.5t33 163.5t90 133.5q56 57 132 90t163 33zM445 704q-78 0 -147.5 -30t-120.5 -81q-52 -52 -82 -121.5
t-30 -148.5t30 -148.5t82 -120.5q51 -52 120.5 -82t147.5 -30t147.5 30t121.5 82q51 51 81 120.5t30 148.5t-30 148.5t-81 121.5q-52 51 -121.5 81t-147.5 30zM455 385q69 0 110 -40t41 -127v-13q0 -86 -40 -127t-111 -41q-47 0 -80.5 10.5t-54.5 29.5q-22 19 -32.5 45.5
t-10.5 57.5v232q0 39 11 73t33 60q22 25 54 40t74 15q37 0 66 -6.5t58 -21.5l-20 -30q-24 11 -50.5 15.5t-53.5 4.5q-30 0 -54 -12t-41 -32q-17 -21 -26 -49t-9 -59v-76q25 29 61.5 40t74.5 11zM561 218q0 65 -27.5 97.5t-78.5 32.5q-28 0 -50 -6.5t-39 -16.5
q-17 -11 -28 -23.5t-16 -25.5v-86q0 -27 6.5 -48t21.5 -36t40.5 -23t64.5 -8q51 0 78.5 31t27.5 99v13z" />
    <glyph glyph-name="uni2466" unicode="&#x2466;" horiz-adv-x="890" 
d="M607 567q0 -9 -1 -16t-4 -16l-179 -495h-44l187 512h-266v38h307v-23zM445 743q87 0 163 -33t133 -90q56 -57 89 -133.5t33 -163.5t-33 -163.5t-89 -133.5q-57 -57 -133 -90t-163 -33t-163 33t-132 90q-57 57 -90 133.5t-33 163.5t33 163.5t90 133.5q56 57 132 90t163 33
zM445 704q-78 0 -147.5 -30t-120.5 -81q-52 -52 -82 -121.5t-30 -148.5t30 -148.5t82 -120.5q51 -52 120.5 -82t147.5 -30t147.5 30t121.5 82q51 51 81 120.5t30 148.5t-30 148.5t-81 121.5q-52 51 -121.5 81t-147.5 30z" />
    <glyph glyph-name="uni2467" unicode="&#x2467;" horiz-adv-x="890" 
d="M445 743q87 0 163 -33t133 -90q56 -57 89 -133.5t33 -163.5t-33 -163.5t-89 -133.5q-57 -57 -133 -90t-163 -33t-163 33t-132 90q-57 57 -90 133.5t-33 163.5t33 163.5t90 133.5q56 57 132 90t163 33zM445 704q-78 0 -147.5 -30t-120.5 -81q-52 -52 -82 -121.5
t-30 -148.5t30 -148.5t82 -120.5q51 -52 120.5 -82t147.5 -30t147.5 30t121.5 82q51 51 81 120.5t30 148.5t-30 148.5t-81 121.5q-52 51 -121.5 81t-147.5 30zM447 38q-38 0 -71 9t-57 28t-38 47t-14 67q0 58 23 94.5t68 59.5q-42 20 -56 53t-14 67q0 39 12 66.5t34 45.5
q21 17 49.5 25t61.5 8t62 -8.5t51 -25.5q22 -18 34.5 -45t12.5 -65q0 -17 -4 -35.5t-13 -34.5q-10 -17 -25 -30.5t-37 -22.5q53 -21 76 -59t23 -88q0 -70 -44.5 -113t-133.5 -43zM445 323q-68 0 -100.5 -33t-32.5 -93q0 -58 35.5 -89.5t99.5 -31.5q36 0 61.5 10t41.5 27
t23 38t7 44q0 61 -31.5 94.5t-103.5 33.5zM444 356q58 0 86.5 26t28.5 82q0 58 -31.5 82t-81.5 24q-54 0 -84 -25.5t-30 -80.5q0 -108 112 -108z" />
    <glyph glyph-name="uni2468" unicode="&#x2468;" horiz-adv-x="890" 
d="M445 743q87 0 163 -33t133 -90q56 -57 89 -133.5t33 -163.5t-33 -163.5t-89 -133.5q-57 -57 -133 -90t-163 -33t-163 33t-132 90q-57 57 -90 133.5t-33 163.5t33 163.5t90 133.5q56 57 132 90t163 33zM445 704q-78 0 -147.5 -30t-120.5 -81q-52 -52 -82 -121.5
t-30 -148.5t30 -148.5t82 -120.5q51 -52 120.5 -82t147.5 -30t147.5 30t121.5 82q51 51 81 120.5t30 148.5t-30 148.5t-81 121.5q-52 51 -121.5 81t-147.5 30zM445 259q-70 0 -114.5 40t-44.5 127v17q0 85 44 124.5t115 39.5q46 0 78.5 -11t52.5 -30q20 -20 29.5 -48
t9.5 -62v-231q0 -41 -9 -75t-29 -59q-21 -25 -54 -39t-81 -14q-29 0 -65.5 8.5t-64.5 19.5l13 34q26 -11 57.5 -17.5t59.5 -6.5q70 0 100.5 42t30.5 109v78q-27 -22 -59.5 -34t-68.5 -12zM331 426q0 -65 31.5 -97t82.5 -32t85.5 18.5t39.5 49.5v82q0 29 -5 52t-19 39
q-14 15 -38 23t-63 8q-50 0 -82 -29t-32 -97v-17z" />
    <glyph glyph-name="uni2469" unicode="&#x2469;" horiz-adv-x="890" 
d="M445 743q87 0 163 -33t133 -90q56 -57 89 -133.5t33 -163.5t-33 -163.5t-89 -133.5q-57 -57 -133 -90t-163 -33t-163 33t-132 90q-57 57 -90 133.5t-33 163.5t33 163.5t90 133.5q56 57 132 90t163 33zM445 704q-78 0 -147.5 -30t-120.5 -81q-52 -52 -82 -121.5
t-30 -148.5t30 -148.5t82 -120.5q51 -52 120.5 -82t147.5 -30t147.5 30t121.5 82q51 51 81 120.5t30 148.5t-30 148.5t-81 121.5q-52 51 -121.5 81t-147.5 30zM548 579q45 0 73 -16t45 -48q16 -32 22 -79.5t6 -110.5q0 -137 -33 -197.5t-113 -60.5q-42 0 -70 16t-44 48
q-17 32 -23.5 80.5t-6.5 113.5q0 61 6.5 108.5t22.5 79.5t44 49t71 17zM548 100q36 0 57.5 16t32.5 45t14 71t3 93q0 50 -3 90.5t-14 69.5t-32 45t-58 16q-35 0 -56 -16t-32 -45t-14.5 -69.5t-3.5 -90.5q0 -51 3.5 -93t14.5 -71t32 -45t56 -16zM320 78h-34v461l-72 -28
l-12 28l98 40q7 1 13.5 -3.5t6.5 -11.5v-486z" />
    <glyph glyph-name="uni246A" unicode="&#x246a;" horiz-adv-x="890" 
d="M445 743q87 0 163 -33t133 -90q56 -57 89 -133.5t33 -163.5t-33 -163.5t-89 -133.5q-57 -57 -133 -90t-163 -33t-163 33t-132 90q-57 57 -90 133.5t-33 163.5t33 163.5t90 133.5q56 57 132 90t163 33zM445 704q-78 0 -147.5 -30t-120.5 -81q-52 -52 -82 -121.5
t-30 -148.5t30 -148.5t82 -120.5q51 -52 120.5 -82t147.5 -30t147.5 30t121.5 82q51 51 81 120.5t30 148.5t-30 148.5t-81 121.5q-52 51 -121.5 81t-147.5 30zM348 78h-34v461l-72 -28l-12 28l98 40q7 1 13.5 -3.5t6.5 -11.5v-486zM593 78h-34v461l-72 -28l-12 28l98 40
q7 1 13.5 -3.5t6.5 -11.5v-486z" />
    <glyph glyph-name="uni246B" unicode="&#x246b;" horiz-adv-x="890" 
d="M445 743q87 0 163 -33t133 -90q56 -57 89 -133.5t33 -163.5t-33 -163.5t-89 -133.5q-57 -57 -133 -90t-163 -33t-163 33t-132 90q-57 57 -90 133.5t-33 163.5t33 163.5t90 133.5q56 57 132 90t163 33zM445 704q-78 0 -147.5 -30t-120.5 -81q-52 -52 -82 -121.5
t-30 -148.5t30 -148.5t82 -120.5q51 -52 120.5 -82t147.5 -30t147.5 30t121.5 82q51 51 81 120.5t30 148.5t-30 148.5t-81 121.5q-52 51 -121.5 81t-147.5 30zM413 78v44q0 27 16.5 56t40.5 57t51.5 52.5t49.5 43.5q56 45 56 122q0 50 -27.5 72t-68.5 22q-27 0 -50 -12
t-44 -32l-20 27q23 20 51.5 35.5t64.5 15.5q60 0 96.5 -35t36.5 -94q0 -46 -18.5 -80t-60.5 -72q-21 -19 -44.5 -41t-43.5 -45t-33 -45.5t-13 -42.5v-15h214v-33h-254zM328 78h-34v461l-72 -28l-12 28l98 40q7 1 13.5 -3.5t6.5 -11.5v-486z" />
    <glyph glyph-name="uni246C" unicode="&#x246c;" horiz-adv-x="890" 
d="M445 743q87 0 163 -33t133 -90q56 -57 89 -133.5t33 -163.5t-33 -163.5t-89 -133.5q-57 -57 -133 -90t-163 -33t-163 33t-132 90q-57 57 -90 133.5t-33 163.5t33 163.5t90 133.5q56 57 132 90t163 33zM445 704q-78 0 -147.5 -30t-120.5 -81q-52 -52 -82 -121.5
t-30 -148.5t30 -148.5t82 -120.5q51 -52 120.5 -82t147.5 -30t147.5 30t121.5 82q51 51 81 120.5t30 148.5t-30 148.5t-81 121.5q-52 51 -121.5 81t-147.5 30zM521 579q64 0 101.5 -29t37.5 -95q0 -42 -21 -74.5t-56 -40.5q45 -12 69 -47.5t24 -74.5q0 -76 -39.5 -115
t-115.5 -37q-23 1 -53.5 5t-56.5 18l14 33q30 -15 53 -18.5t43 -3.5q116 0 116 114q0 30 -10 50t-26 33q-17 13 -38 18.5t-44 5.5h-48v35h48q47 0 74.5 25t27.5 76q0 45 -23.5 67.5t-77.5 22.5q-24 0 -39 -4t-37 -15l-18 27q23 14 45 19t50 5zM332 78h-34v461l-72 -28
l-12 28l98 40q7 1 13.5 -3.5t6.5 -11.5v-486z" />
    <glyph glyph-name="uni246D" unicode="&#x246d;" horiz-adv-x="890" 
d="M445 743q87 0 163 -33t133 -90q56 -57 89 -133.5t33 -163.5t-33 -163.5t-89 -133.5q-57 -57 -133 -90t-163 -33t-163 33t-132 90q-57 57 -90 133.5t-33 163.5t33 163.5t90 133.5q56 57 132 90t163 33zM445 704q-78 0 -147.5 -30t-120.5 -81q-52 -52 -82 -121.5
t-30 -148.5t30 -148.5t82 -120.5q51 -52 120.5 -82t147.5 -30t147.5 30t121.5 82q51 51 81 120.5t30 148.5t-30 148.5t-81 121.5q-52 51 -121.5 81t-147.5 30zM422 208h170v308zM627 177v-101h-35v101h-209v28l200 365h44v-362h55v-31h-55zM324 78h-34v461l-72 -28l-12 28
l98 40q7 1 13.5 -3.5t6.5 -11.5v-486z" />
    <glyph glyph-name="uni246E" unicode="&#x246e;" horiz-adv-x="890" 
d="M445 743q87 0 163 -33t133 -90q56 -57 89 -133.5t33 -163.5t-33 -163.5t-89 -133.5q-57 -57 -133 -90t-163 -33t-163 33t-132 90q-57 57 -90 133.5t-33 163.5t33 163.5t90 133.5q56 57 132 90t163 33zM445 704q-78 0 -147.5 -30t-120.5 -81q-52 -52 -82 -121.5
t-30 -148.5t30 -148.5t82 -120.5q51 -52 120.5 -82t147.5 -30t147.5 30t121.5 82q51 51 81 120.5t30 148.5t-30 148.5t-81 121.5q-52 51 -121.5 81t-147.5 30zM328 78h-34v460l-71 -28l-13 29l98 40q6 2 13 -3t7 -12v-486zM513 334q-17 0 -32 -4.5t-43 -12.5q-6 -2 -13 1.5
t-6 11.5l20 237h205v-32h-173l-15 -179q20 5 33.5 8t23.5 3q80 0 117 -39t37 -107q0 -34 -9.5 -62.5t-28.5 -49.5t-47.5 -33t-66.5 -12q-61 0 -110 28l13 31q26 -15 45.5 -20.5t51.5 -5.5q31 0 52.5 10t35.5 27q13 17 19 39.5t6 47.5q0 53 -27.5 83t-87.5 30z" />
    <glyph glyph-name="uni2474" unicode="&#x2474;" horiz-adv-x="890" 
d="M482 50h-45v512l-106 -35l-11 34l137 47q8 3 16.5 -3t8.5 -14v-541zM76 206q4 -30 15 -63t28 -64q16 -32 37 -59t46 -45l-20 -28q-28 20 -53 51t-44 68q-20 36 -33 75t-17 75l-3.5 31.5t-1.5 26.5q-1 12 -1 26v33q0 37 0.5 65t5.5 62q11 73 48 140.5t100 113.5l20 -26
q-25 -18 -46 -42.5t-37 -52.5q-17 -29 -28.5 -60.5t-15.5 -62.5q-5 -35 -6 -67t-1 -70v-37t1 -30l2 -28t4 -32zM813 206q3 18 4 32l2 28t1 30v37q0 39 -1 71t-6 66q-5 31 -16 62.5t-27 60.5q-17 28 -38 52.5t-46 42.5l19 26q66 -46 102 -112.5t47 -141.5q4 -32 5 -62t1 -65
v-33v-26q-1 -13 -2.5 -26.5l-3.5 -31.5q-5 -36 -17.5 -74.5t-31.5 -74.5q-20 -37 -45 -68t-53 -51l-20 27q25 18 46 45t38 59q16 31 26.5 64t15.5 63z" />
    <glyph glyph-name="uni2475" unicode="&#x2475;" horiz-adv-x="890" 
d="M76 206q4 -30 15 -63t28 -64q16 -32 37 -59t46 -45l-20 -28q-28 20 -53 51t-44 68q-20 36 -33 75t-17 75l-3.5 31.5t-1.5 26.5q-1 12 -1 26v33q0 37 0.5 65t5.5 62q11 73 48 140.5t100 113.5l20 -26q-25 -18 -46 -42.5t-37 -52.5q-17 -29 -28.5 -60.5t-15.5 -62.5
q-5 -35 -6 -67t-1 -70v-37t1 -30l2 -28t4 -32zM813 206q3 18 4 32l2 28t1 30v37q0 39 -1 71t-6 66q-5 31 -16 62.5t-27 60.5q-17 28 -38 52.5t-46 42.5l19 26q66 -46 102 -112.5t47 -141.5q4 -32 5 -62t1 -65v-33v-26q-1 -13 -2.5 -26.5l-3.5 -31.5q-5 -36 -17.5 -74.5
t-31.5 -74.5q-20 -37 -45 -68t-53 -51l-20 27q25 18 46 45t38 59q16 31 26.5 64t15.5 63zM297 50v35q0 31 12 55t29 44q22 26 57 59t79 74l16 15q21 19 34 36t21 33q7 15 9.5 31.5t2.5 34.5q0 48 -33.5 77t-83.5 29q-32 0 -60.5 -14.5t-53.5 -34.5l-25 28q26 23 61 40.5
t80 17.5q72 0 116 -39t44 -105q0 -49 -20 -86.5t-66 -78.5q-39 -35 -74 -68.5t-68 -72.5q-15 -18 -22 -33.5t-7 -23.5v-16h258v-37h-306z" />
    <glyph glyph-name="uni2476" unicode="&#x2476;" horiz-adv-x="890" 
d="M76 206q4 -30 15 -63t28 -64q16 -32 37 -59t46 -45l-20 -28q-28 20 -53 51t-44 68q-20 36 -33 75t-17 75l-3.5 31.5t-1.5 26.5q-1 12 -1 26v33q0 37 0.5 65t5.5 62q11 73 48 140.5t100 113.5l20 -26q-25 -18 -46 -42.5t-37 -52.5q-17 -29 -28.5 -60.5t-15.5 -62.5
q-5 -35 -6 -67t-1 -70v-37t1 -30l2 -28t4 -32zM813 206q3 18 4 32l2 28t1 30v37q0 39 -1 71t-6 66q-5 31 -16 62.5t-27 60.5q-17 28 -38 52.5t-46 42.5l19 26q66 -46 102 -112.5t47 -141.5q4 -32 5 -62t1 -65v-33v-26q-1 -13 -2.5 -26.5l-3.5 -31.5q-5 -36 -17.5 -74.5
t-31.5 -74.5q-20 -37 -45 -68t-53 -51l-20 27q25 18 46 45t38 59q16 31 26.5 64t15.5 63zM437 608q75 0 120.5 -32t45.5 -106q0 -47 -22.5 -81t-66.5 -46q27 -6 47 -20t34 -33q13 -19 19.5 -40.5t6.5 -43.5q0 -85 -47.5 -128t-136.5 -41q-14 0 -32 2t-36 6q-19 3 -37 8.5
t-33 13.5l16 38q35 -18 65.5 -23.5t56.5 -5.5q68 0 103.5 31.5t35.5 94.5q0 65 -39 92.5t-103 27.5h-67v37h67q65 0 94.5 28.5t29.5 84.5q0 49 -29.5 74t-92.5 25q-32 0 -53 -6.5t-46 -20.5l-21 31q26 15 56.5 24t64.5 9z" />
    <glyph glyph-name="uni2477" unicode="&#x2477;" horiz-adv-x="890" 
d="M76 206q4 -30 15 -63t28 -64q16 -32 37 -59t46 -45l-20 -28q-28 20 -53 51t-44 68q-20 36 -33 75t-17 75l-3.5 31.5t-1.5 26.5q-1 12 -1 26v33q0 37 0.5 65t5.5 62q11 73 48 140.5t100 113.5l20 -26q-25 -18 -46 -42.5t-37 -52.5q-17 -29 -28.5 -60.5t-15.5 -62.5
q-5 -35 -6 -67t-1 -70v-37t1 -30l2 -28t4 -32zM813 206q3 18 4 32l2 28t1 30v37q0 39 -1 71t-6 66q-5 31 -16 62.5t-27 60.5q-17 28 -38 52.5t-46 42.5l19 26q66 -46 102 -112.5t47 -141.5q4 -32 5 -62t1 -65v-33v-26q-1 -13 -2.5 -26.5l-3.5 -31.5q-5 -36 -17.5 -74.5
t-31.5 -74.5q-20 -37 -45 -68t-53 -51l-20 27q25 18 46 45t38 59q16 31 26.5 64t15.5 63zM283 196h202v343zM526 160v-112h-41v112h-253v29l243 409h51v-402h66v-36h-66z" />
    <glyph glyph-name="uni2478" unicode="&#x2478;" horiz-adv-x="890" 
d="M76 206q4 -30 15 -63t28 -64q16 -32 37 -59t46 -45l-20 -28q-28 20 -53 51t-44 68q-20 36 -33 75t-17 75l-3.5 31.5t-1.5 26.5q-1 12 -1 26v33q0 37 0.5 65t5.5 62q11 73 48 140.5t100 113.5l20 -26q-25 -18 -46 -42.5t-37 -52.5q-17 -29 -28.5 -60.5t-15.5 -62.5
q-5 -35 -6 -67t-1 -70v-37t1 -30l2 -28t4 -32zM813 206q3 18 4 32l2 28t1 30v37q0 39 -1 71t-6 66q-5 31 -16 62.5t-27 60.5q-17 28 -38 52.5t-46 42.5l19 26q66 -46 102 -112.5t47 -141.5q4 -32 5 -62t1 -65v-33v-26q-1 -13 -2.5 -26.5l-3.5 -31.5q-5 -36 -17.5 -74.5
t-31.5 -74.5q-20 -37 -45 -68t-53 -51l-20 27q25 18 46 45t38 59q16 31 26.5 64t15.5 63zM433 336q-25 0 -46.5 -5t-41.5 -11q-29 -8 -27 12l19 264h253v-37h-214l-18 -198q21 6 41 9t34 3q92 0 137.5 -43.5t45.5 -119.5q0 -38 -11.5 -69.5t-34.5 -54.5q-23 -24 -57 -37
t-78 -13q-38 0 -73 8t-62 23l16 34q15 -7 28 -12.5t27 -8.5q13 -4 28.5 -5.5t35.5 -1.5q33 0 58.5 11t43.5 30q17 19 25.5 44t8.5 52q0 59 -34.5 92.5t-103.5 33.5z" />
    <glyph glyph-name="uni2479" unicode="&#x2479;" horiz-adv-x="890" 
d="M455 385q69 0 110 -40t41 -127v-13q0 -86 -40 -127t-111 -41q-47 0 -80.5 10.5t-54.5 29.5q-22 19 -32.5 45.5t-10.5 57.5v232q0 39 11 73t33 60q22 25 54 40t74 15q37 0 66 -6.5t58 -21.5l-20 -30q-24 11 -50.5 15.5t-53.5 4.5q-30 0 -54 -12t-41 -32q-17 -21 -26 -49
t-9 -59v-72q29 21 63.5 34t72.5 13zM561 218q0 65 -27.5 97.5t-78.5 32.5q-28 0 -50 -6.5t-39 -16.5q-17 -11 -28 -23.5t-16 -25.5v-86q0 -27 6.5 -48t21.5 -36t40.5 -23t64.5 -8q51 0 78.5 31t27.5 99v13zM76 206q4 -30 15 -63t28 -64q16 -32 37 -59t46 -45l-20 -28
q-28 20 -53 51t-44 68q-20 36 -33 75t-17 75l-3.5 31.5t-1.5 26.5q-1 12 -1 26v33q0 37 0.5 65t5.5 62q11 73 48 140.5t100 113.5l20 -26q-25 -18 -46 -42.5t-37 -52.5q-17 -29 -28.5 -60.5t-15.5 -62.5q-5 -35 -6 -67t-1 -70v-37t1 -30l2 -28t4 -32zM813 206q3 18 4 32
l2 28t1 30v37q0 39 -1 71t-6 66q-5 31 -16 62.5t-27 60.5q-17 28 -38 52.5t-46 42.5l19 26q66 -46 102 -112.5t47 -141.5q4 -32 5 -62t1 -65v-33v-26q-1 -13 -2.5 -26.5l-3.5 -31.5q-5 -36 -17.5 -74.5t-31.5 -74.5q-20 -37 -45 -68t-53 -51l-20 27q25 18 46 45t38 59
q16 31 26.5 64t15.5 63z" />
    <glyph glyph-name="uni247A" unicode="&#x247a;" horiz-adv-x="890" 
d="M76 206q4 -30 15 -63t28 -64q16 -32 37 -59t46 -45l-20 -28q-28 20 -53 51t-44 68q-20 36 -33 75t-17 75l-3.5 31.5t-1.5 26.5q-1 12 -1 26v33q0 37 0.5 65t5.5 62q11 73 48 140.5t100 113.5l20 -26q-25 -18 -46 -42.5t-37 -52.5q-17 -29 -28.5 -60.5t-15.5 -62.5
q-5 -35 -6 -67t-1 -70v-37t1 -30l2 -28t4 -32zM813 206q3 18 4 32l2 28t1 30v37q0 39 -1 71t-6 66q-5 31 -16 62.5t-27 60.5q-17 28 -38 52.5t-46 42.5l19 26q66 -46 102 -112.5t47 -141.5q4 -32 5 -62t1 -65v-33v-26q-1 -13 -2.5 -26.5l-3.5 -31.5q-5 -36 -17.5 -74.5
t-31.5 -74.5q-20 -37 -45 -68t-53 -51l-20 27q25 18 46 45t38 59q16 31 26.5 64t15.5 63zM607 567q0 -9 -1 -16t-4 -16l-179 -495h-44l187 512h-266v38h307v-23z" />
    <glyph glyph-name="uni247B" unicode="&#x247b;" horiz-adv-x="890" 
d="M447 38q-38 0 -71 9t-57 28t-38 47t-14 67q0 58 23 94.5t68 59.5q-42 20 -56 53t-14 67q0 39 12 66.5t34 45.5q21 17 49.5 25t61.5 8t62 -8.5t51 -25.5q22 -18 34.5 -45t12.5 -65q0 -17 -4 -35.5t-13 -34.5q-10 -17 -25 -30.5t-37 -22.5q53 -21 76 -59t23 -88
q0 -70 -44.5 -113t-133.5 -43zM445 323q-68 0 -100.5 -33t-32.5 -93q0 -58 35.5 -89.5t99.5 -31.5q36 0 61.5 10t41.5 27t23 38t7 44q0 61 -31.5 94.5t-103.5 33.5zM444 356q58 0 86.5 26t28.5 82q0 58 -31.5 82t-81.5 24q-54 0 -84 -25.5t-30 -80.5q0 -108 112 -108z
M76 206q4 -30 15 -63t28 -64q16 -32 37 -59t46 -45l-20 -28q-28 20 -53 51t-44 68q-20 36 -33 75t-17 75l-3.5 31.5t-1.5 26.5q-1 12 -1 26v33q0 37 0.5 65t5.5 62q11 73 48 140.5t100 113.5l20 -26q-25 -18 -46 -42.5t-37 -52.5q-17 -29 -28.5 -60.5t-15.5 -62.5
q-5 -35 -6 -67t-1 -70v-37t1 -30l2 -28t4 -32zM813 206q3 18 4 32l2 28t1 30v37q0 39 -1 71t-6 66q-5 31 -16 62.5t-27 60.5q-17 28 -38 52.5t-46 42.5l19 26q66 -46 102 -112.5t47 -141.5q4 -32 5 -62t1 -65v-33v-26q-1 -13 -2.5 -26.5l-3.5 -31.5q-5 -36 -17.5 -74.5
t-31.5 -74.5q-20 -37 -45 -68t-53 -51l-20 27q25 18 46 45t38 59q16 31 26.5 64t15.5 63z" />
    <glyph glyph-name="uni247C" unicode="&#x247c;" horiz-adv-x="890" 
d="M615 225q0 -41 -9 -75t-29 -59q-21 -25 -54 -39t-81 -14q-29 0 -65.5 8.5t-64.5 19.5l13 34q26 -11 57.5 -17.5t59.5 -6.5q70 0 100.5 42t30.5 109v78q-27 -22 -59.5 -34t-68.5 -12q-70 0 -114.5 40t-44.5 127v17q0 85 44 124.5t115 39.5q46 0 78.5 -11t52.5 -30
q20 -20 29.5 -48t9.5 -62v-231zM331 426q0 -65 31.5 -97t82.5 -32t85.5 18.5t39.5 49.5v82q0 29 -5 52t-19 39q-14 15 -38 23t-63 8q-50 0 -82 -29t-32 -97v-17zM76 206q4 -30 15 -63t28 -64q16 -32 37 -59t46 -45l-20 -28q-28 20 -53 51t-44 68q-20 36 -33 75t-17 75
l-3.5 31.5t-1.5 26.5q-1 12 -1 26v33q0 37 0.5 65t5.5 62q11 73 48 140.5t100 113.5l20 -26q-25 -18 -46 -42.5t-37 -52.5q-17 -29 -28.5 -60.5t-15.5 -62.5q-5 -35 -6 -67t-1 -70v-37t1 -30l2 -28t4 -32zM813 206q3 18 4 32l2 28t1 30v37q0 39 -1 71t-6 66q-5 31 -16 62.5
t-27 60.5q-17 28 -38 52.5t-46 42.5l19 26q66 -46 102 -112.5t47 -141.5q4 -32 5 -62t1 -65v-33v-26q-1 -13 -2.5 -26.5l-3.5 -31.5q-5 -36 -17.5 -74.5t-31.5 -74.5q-20 -37 -45 -68t-53 -51l-20 27q25 18 46 45t38 59q16 31 26.5 64t15.5 63z" />
    <glyph glyph-name="uni247D" unicode="&#x247d;" horiz-adv-x="890" 
d="M548 579q45 0 73 -16t45 -48q16 -32 22 -79.5t6 -110.5q0 -137 -33 -197.5t-113 -60.5q-42 0 -70 16t-44 48q-17 32 -23.5 80.5t-6.5 113.5q0 61 6.5 108.5t22.5 79.5t44 49t71 17zM548 100q36 0 57.5 16t32.5 45t14 71t3 93q0 50 -3 90.5t-14 69.5t-32 45t-58 16
q-35 0 -56 -16t-32 -45t-14.5 -69.5t-3.5 -90.5q0 -51 3.5 -93t14.5 -71t32 -45t56 -16zM320 78h-34v461l-72 -28q-4 9 -6.5 14.5t-5.5 13.5l98 40q7 1 13.5 -3.5t6.5 -11.5v-486zM76 206q4 -30 15 -63t28 -64q16 -32 37 -59t46 -45l-20 -28q-28 20 -53 51t-44 68
q-20 36 -33 75t-17 75l-3.5 31.5t-1.5 26.5q-1 12 -1 26v33q0 37 0.5 65t5.5 62q11 73 48 140.5t100 113.5l20 -26q-25 -18 -46 -42.5t-37 -52.5q-17 -29 -28.5 -60.5t-15.5 -62.5q-5 -35 -6 -67t-1 -70v-37t1 -30l2 -28t4 -32zM813 206q3 18 4 32l2 28t1 30v37q0 39 -1 71
t-6 66q-5 31 -16 62.5t-27 60.5q-17 28 -38 52.5t-46 42.5l19 26q66 -46 102 -112.5t47 -141.5q4 -32 5 -62t1 -65v-33v-26q-1 -13 -2.5 -26.5l-3.5 -31.5q-5 -36 -17.5 -74.5t-31.5 -74.5q-20 -37 -45 -68t-53 -51l-20 27q25 18 46 45t38 59q16 31 26.5 64t15.5 63z" />
    <glyph glyph-name="uni247E" unicode="&#x247e;" horiz-adv-x="890" 
d="M348 78h-34v461l-72 -28l-12 28l98 40q7 1 13.5 -3.5t6.5 -11.5v-486zM593 78h-34v461l-72 -28l-12 28l98 40q7 1 13.5 -3.5t6.5 -11.5v-486zM76 206q4 -30 15 -63t28 -64q16 -32 37 -59t46 -45l-20 -28q-28 20 -53 51t-44 68q-20 36 -33 75t-17 75l-3.5 31.5t-1.5 26.5
q-1 12 -1 26v33q0 37 0.5 65t5.5 62q11 73 48 140.5t100 113.5l20 -26q-25 -18 -46 -42.5t-37 -52.5q-17 -29 -28.5 -60.5t-15.5 -62.5q-5 -35 -6 -67t-1 -70v-37t1 -30l2 -28t4 -32zM813 206q3 18 4 32l2 28t1 30v37q0 39 -1 71t-6 66q-5 31 -16 62.5t-27 60.5
q-17 28 -38 52.5t-46 42.5l19 26q66 -46 102 -112.5t47 -141.5q4 -32 5 -62t1 -65v-33v-26q-1 -13 -2.5 -26.5l-3.5 -31.5q-5 -36 -17.5 -74.5t-31.5 -74.5q-20 -37 -45 -68t-53 -51l-20 27q25 18 46 45t38 59q16 31 26.5 64t15.5 63z" />
    <glyph glyph-name="uni247F" unicode="&#x247f;" horiz-adv-x="890" 
d="M76 206q4 -30 15 -63t28 -64q16 -32 37 -59t46 -45l-20 -28q-28 20 -53 51t-44 68q-20 36 -33 75t-17 75l-3.5 31.5t-1.5 26.5q-1 12 -1 26v33q0 37 0.5 65t5.5 62q11 73 48 140.5t100 113.5l20 -26q-25 -18 -46 -42.5t-37 -52.5q-17 -29 -28.5 -60.5t-15.5 -62.5
q-5 -35 -6 -67t-1 -70v-37t1 -30l2 -28t4 -32zM813 206q3 18 4 32l2 28t1 30v37q0 39 -1 71t-6 66q-5 31 -16 62.5t-27 60.5q-17 28 -38 52.5t-46 42.5l19 26q66 -46 102 -112.5t47 -141.5q4 -32 5 -62t1 -65v-33v-26q-1 -13 -2.5 -26.5l-3.5 -31.5q-5 -36 -17.5 -74.5
t-31.5 -74.5q-20 -37 -45 -68t-53 -51l-20 27q25 18 46 45t38 59q16 31 26.5 64t15.5 63zM413 78v44q0 27 16.5 56t40.5 57t51.5 52.5t49.5 43.5q56 45 56 122q0 50 -27.5 72t-68.5 22q-27 0 -50 -12t-44 -32l-20 27q23 20 51.5 35.5t64.5 15.5q60 0 96.5 -35t36.5 -94
q0 -46 -18.5 -80t-60.5 -72q-21 -19 -44.5 -41t-43.5 -45t-33 -45.5t-13 -42.5v-15h214v-33h-254zM328 78h-34v461l-72 -28l-12 28l98 40q7 1 13.5 -3.5t6.5 -11.5v-486z" />
    <glyph glyph-name="uni2480" unicode="&#x2480;" horiz-adv-x="890" 
d="M76 206q4 -30 15 -63t28 -64q16 -32 37 -59t46 -45l-20 -28q-28 20 -53 51t-44 68q-20 36 -33 75t-17 75l-3.5 31.5t-1.5 26.5q-1 12 -1 26v33q0 37 0.5 65t5.5 62q11 73 48 140.5t100 113.5l20 -26q-25 -18 -46 -42.5t-37 -52.5q-17 -29 -28.5 -60.5t-15.5 -62.5
q-5 -35 -6 -67t-1 -70v-37t1 -30l2 -28t4 -32zM813 206q3 18 4 32l2 28t1 30v37q0 39 -1 71t-6 66q-5 31 -16 62.5t-27 60.5q-17 28 -38 52.5t-46 42.5l19 26q66 -46 102 -112.5t47 -141.5q4 -32 5 -62t1 -65v-33v-26q-1 -13 -2.5 -26.5l-3.5 -31.5q-5 -36 -17.5 -74.5
t-31.5 -74.5q-20 -37 -45 -68t-53 -51l-20 27q25 18 46 45t38 59q16 31 26.5 64t15.5 63zM521 579q64 0 101.5 -29t37.5 -95q0 -42 -21 -74.5t-56 -40.5q45 -12 69 -47.5t24 -74.5q0 -76 -39.5 -115t-115.5 -37q-23 1 -53.5 5t-56.5 18l14 33q30 -15 53 -18.5t43 -3.5
q116 0 116 114q0 30 -10 50t-26 33q-17 13 -38 18.5t-44 5.5h-48v35h48q47 0 74.5 25t27.5 76q0 45 -23.5 67.5t-77.5 22.5q-24 0 -39 -4t-37 -15l-18 27q23 14 45 19t50 5zM332 78h-34v461l-72 -28l-12 28l98 40q7 1 13.5 -3.5t6.5 -11.5v-486z" />
    <glyph glyph-name="uni2481" unicode="&#x2481;" horiz-adv-x="890" 
d="M76 206q4 -30 15 -63t28 -64q16 -32 37 -59t46 -45l-20 -28q-28 20 -53 51t-44 68q-20 36 -33 75t-17 75l-3.5 31.5t-1.5 26.5q-1 12 -1 26v33q0 37 0.5 65t5.5 62q11 73 48 140.5t100 113.5l20 -26q-25 -18 -46 -42.5t-37 -52.5q-17 -29 -28.5 -60.5t-15.5 -62.5
q-5 -35 -6 -67t-1 -70v-37t1 -30l2 -28t4 -32zM813 206q3 18 4 32l2 28t1 30v37q0 39 -1 71t-6 66q-5 31 -16 62.5t-27 60.5q-17 28 -38 52.5t-46 42.5l19 26q66 -46 102 -112.5t47 -141.5q4 -32 5 -62t1 -65v-33v-26q-1 -13 -2.5 -26.5l-3.5 -31.5q-5 -36 -17.5 -74.5
t-31.5 -74.5q-20 -37 -45 -68t-53 -51l-20 27q25 18 46 45t38 59q16 31 26.5 64t15.5 63zM422 208h170v308zM627 177v-101h-35v101h-209v28l200 365h44v-362h55v-31h-55zM324 78h-34v461l-72 -28l-12 28l98 40q7 1 13.5 -3.5t6.5 -11.5v-486z" />
    <glyph glyph-name="uni2482" unicode="&#x2482;" horiz-adv-x="890" 
d="M76 206q4 -30 15 -63t28 -64q16 -32 37 -59t46 -45l-20 -28q-28 20 -53 51t-44 68q-20 36 -33 75t-17 75l-3.5 31.5t-1.5 26.5q-1 12 -1 26v33q0 37 0.5 65t5.5 62q11 73 48 140.5t100 113.5l20 -26q-25 -18 -46 -42.5t-37 -52.5q-17 -29 -28.5 -60.5t-15.5 -62.5
q-5 -35 -6 -67t-1 -70v-37t1 -30l2 -28t4 -32zM813 206q3 18 4 32l2 28t1 30v37q0 39 -1 71t-6 66q-5 31 -16 62.5t-27 60.5q-17 28 -38 52.5t-46 42.5l19 26q66 -46 102 -112.5t47 -141.5q4 -32 5 -62t1 -65v-33v-26q-1 -13 -2.5 -26.5l-3.5 -31.5q-5 -36 -17.5 -74.5
t-31.5 -74.5q-20 -37 -45 -68t-53 -51l-20 27q25 18 46 45t38 59q16 31 26.5 64t15.5 63zM328 78h-34v460l-71 -28l-13 29l98 40q6 2 13 -3t7 -12v-486zM513 334q-17 0 -32 -4.5t-43 -12.5q-6 -2 -13 1.5t-6 11.5l20 237h205v-32h-173l-15 -179q20 5 33.5 8t23.5 3
q80 0 117 -39t37 -107q0 -34 -9.5 -62.5t-28.5 -49.5t-47.5 -33t-66.5 -12q-61 0 -110 28l13 31q26 -15 45.5 -20.5t51.5 -5.5q31 0 52.5 10t35.5 27q13 17 19 39.5t6 47.5q0 53 -27.5 83t-87.5 30z" />
    <glyph glyph-name="uni249C" unicode="&#x249c;" horiz-adv-x="910" 
d="M76 206q4 -30 15 -63t28 -64q16 -32 37 -59t46 -45l-20 -28q-28 20 -53 51t-44 68q-20 36 -33 75t-17 75l-3.5 31.5t-1.5 26.5q-1 12 -1 26v33q0 37 0.5 65t5.5 62q11 73 48 140.5t100 113.5l20 -26q-25 -18 -46 -42.5t-37 -52.5q-17 -29 -28.5 -60.5t-15.5 -62.5
q-5 -35 -6 -67t-1 -70v-37t1 -30l2 -28t4 -32zM813 206q3 18 4 32l2 28t1 30v37q0 39 -1 71t-6 66q-5 31 -16 62.5t-27 60.5q-17 28 -38 52.5t-46 42.5l19 26q66 -46 102 -112.5t47 -141.5q4 -32 5 -62t1 -65v-33v-26q-1 -13 -2.5 -26.5l-3.5 -31.5q-5 -36 -17.5 -74.5
t-31.5 -74.5q-20 -37 -45 -68t-53 -51l-20 27q25 18 46 45t38 59q16 31 26.5 64t15.5 63zM575 153q-36 -10 -72.5 -16t-80.5 -6q-62 0 -101 31t-39 82v25q0 30 12.5 51t33.5 34q20 13 46.5 19t55.5 6h100v30q0 29 -20.5 49.5t-60.5 20.5q-20 0 -34.5 -1t-27.5 -3
q-13 -3 -26 -7t-30 -10l-13 34q32 12 62.5 20t71.5 8q57 0 90 -29.5t33 -81.5v-256zM423 169q30 0 55.5 2.5t51.5 9.5v160h-97q-45 0 -75.5 -14t-30.5 -55v-24q0 -41 27 -60t69 -19z" />
    <glyph glyph-name="uni249D" unicode="&#x249d;" horiz-adv-x="890" 
d="M76 206q4 -30 15 -63t28 -64q16 -32 37 -59t46 -45l-20 -28q-28 20 -53 51t-44 68q-20 36 -33 75t-17 75l-3.5 31.5t-1.5 26.5q-1 12 -1 26v33q0 37 0.5 65t5.5 62q11 73 48 140.5t100 113.5l20 -26q-25 -18 -46 -42.5t-37 -52.5q-17 -29 -28.5 -60.5t-15.5 -62.5
q-5 -35 -6 -67t-1 -70v-37t1 -30l2 -28t4 -32zM813 206q3 18 4 32l2 28t1 30v37q0 39 -1 71t-6 66q-5 31 -16 62.5t-27 60.5q-17 28 -38 52.5t-46 42.5l19 26q66 -46 102 -112.5t47 -141.5q4 -32 5 -62t1 -65v-33v-26q-1 -13 -2.5 -26.5l-3.5 -31.5q-5 -36 -17.5 -74.5
t-31.5 -74.5q-20 -37 -45 -68t-53 -51l-20 27q25 18 46 45t38 59q16 31 26.5 64t15.5 63zM477 427q34 0 60.5 -9t44.5 -29q18 -21 27.5 -54.5t9.5 -81.5v-36q0 -96 -36 -136t-106 -40q-53 0 -90.5 7.5t-72.5 19.5v533h45v-209q26 17 55.5 26t62.5 9zM574 253q0 76 -23 106.5
t-74 30.5q-45 0 -77 -14.5t-41 -34.5v-247q18 -7 49 -11t69 -4q25 0 43.5 6.5t30.5 22.5t17.5 42.5t5.5 66.5v36z" />
    <glyph glyph-name="uni249E" unicode="&#x249e;" horiz-adv-x="890" 
d="M76 206q4 -30 15 -63t28 -64q16 -32 37 -59t46 -45l-20 -28q-28 20 -53 51t-44 68q-20 36 -33 75t-17 75l-3.5 31.5t-1.5 26.5q-1 12 -1 26v33q0 37 0.5 65t5.5 62q11 73 48 140.5t100 113.5l20 -26q-25 -18 -46 -42.5t-37 -52.5q-17 -29 -28.5 -60.5t-15.5 -62.5
q-5 -35 -6 -67t-1 -70v-37t1 -30l2 -28t4 -32zM813 206q3 18 4 32l2 28t1 30v37q0 39 -1 71t-6 66q-5 31 -16 62.5t-27 60.5q-17 28 -38 52.5t-46 42.5l19 26q66 -46 102 -112.5t47 -141.5q4 -32 5 -62t1 -65v-33v-26q-1 -13 -2.5 -26.5l-3.5 -31.5q-5 -36 -17.5 -74.5
t-31.5 -74.5q-20 -37 -45 -68t-53 -51l-20 27q25 18 46 45t38 59q16 31 26.5 64t15.5 63zM445 177q27 0 52 2.5t55 9.5l9 -34q-35 -10 -62.5 -13.5t-54.5 -3.5q-48 0 -80 11.5t-50 33.5q-19 21 -27 52.5t-8 72.5v44q0 40 8 72t27 54q18 22 50 34t80 12q22 0 48.5 -2t61.5 -9
l-11 -38q-27 5 -52 8t-47 3q-36 0 -59 -8.5t-36 -25.5q-14 -18 -19.5 -43.5t-5.5 -58.5v-39q0 -34 5.5 -59t19.5 -41q13 -17 36.5 -25.5t59.5 -8.5z" />
    <glyph glyph-name="uni249F" unicode="&#x249f;" horiz-adv-x="890" 
d="M76 206q4 -30 16 -63t29 -64q16 -32 37 -59t44 -45l-20 -28q-28 20 -53 51t-44 67q-20 36 -33 75.5t-17 75.5l-3.5 31.5t-1.5 26.5q-1 12 -1 26v33q0 37 0.5 65t5.5 62q11 73 48 140.5t100 113.5l20 -26q-25 -18 -46 -42.5t-37 -52.5q-17 -29 -28.5 -60.5t-15.5 -62.5
q-5 -35 -6 -67t-1 -70v-37t1 -30l2 -28t4 -32zM813 206q3 18 4 32l2 28t1 30v37q0 39 -1 71t-6 66q-5 31 -16 62.5t-27 60.5q-17 28 -38 52.5t-46 42.5l19 26q66 -46 102 -112.5t47 -141.5q4 -32 5 -62t1 -65v-33v-26q-1 -13 -2.5 -26.5l-3.5 -31.5q-5 -36 -17.5 -74.5
t-31.5 -74.5q-20 -37 -45 -68t-53 -51l-20 27q25 18 46 45t38 59q16 31 26.5 64t15.5 63zM402 432q61 0 112 -34v208h45v-533q-32 -11 -68.5 -19t-88.5 -8q-71 0 -109.5 43.5t-38.5 132.5v36q0 91 39.5 132.5t108.5 41.5zM299 222q0 -71 26 -104.5t77 -33.5q38 0 66.5 4
t45.5 10v249q-17 20 -45.5 34t-66.5 14q-51 0 -77 -35t-26 -102v-36z" />
    <glyph glyph-name="uni24A0" unicode="&#x24a0;" horiz-adv-x="890" 
d="M76 206q4 -30 15 -63t28 -64q16 -32 37 -59t46 -45l-20 -28q-28 20 -53 51t-44 68q-20 36 -33 75t-17 75l-3.5 31.5t-1.5 26.5q-1 12 -1 26v33q0 37 0.5 65t5.5 62q11 73 48 140.5t100 113.5l20 -26q-25 -18 -46 -42.5t-37 -52.5q-17 -29 -28.5 -60.5t-15.5 -62.5
q-5 -35 -6 -67t-1 -70v-37t1 -30l2 -28t4 -32zM813 206q3 18 4 32l2 28t1 30v37q0 39 -1 71t-6 66q-5 31 -16 62.5t-27 60.5q-17 28 -38 52.5t-46 42.5l19 26q66 -46 102 -112.5t47 -141.5q4 -32 5 -62t1 -65v-33v-26q-1 -13 -2.5 -26.5l-3.5 -31.5q-5 -36 -17.5 -74.5
t-31.5 -74.5q-20 -37 -45 -68t-53 -51l-20 27q25 18 46 45t38 59q16 31 26.5 64t15.5 63zM331 336h217v38q0 104 -111 104q-51 0 -78.5 -26t-27.5 -78v-38zM443 166q42 0 68 4t55 15l11 -32q-32 -14 -61.5 -19t-72.5 -5q-33 0 -62 10.5t-50 30.5t-33 49t-12 67v73
q0 77 40.5 116.5t110.5 39.5q42 0 71.5 -11.5t48.5 -31.5q18 -21 26.5 -48t8.5 -57v-24q0 -22 -10 -33t-35 -11h-216v-20q0 -30 10.5 -51.5t27.5 -34.5q16 -14 36 -20.5t38 -6.5z" />
    <glyph glyph-name="uni24A1" unicode="&#x24a1;" horiz-adv-x="890" 
d="M76 206q4 -30 15 -63t28 -64q16 -32 37 -59t46 -45l-20 -28q-28 20 -53 51t-44 68q-20 36 -33 75t-17 75l-3.5 31.5t-1.5 26.5q-1 12 -1 26v33q0 37 0.5 65t5.5 62q11 73 48 140.5t100 113.5l20 -26q-25 -18 -46 -42.5t-37 -52.5q-17 -29 -28.5 -60.5t-15.5 -62.5
q-5 -35 -6 -67t-1 -70v-37t1 -30l2 -28t4 -32zM813 206q3 18 4 32l2 28t1 30v37q0 39 -1 71t-6 66q-5 31 -16 62.5t-27 60.5q-17 28 -38 52.5t-46 42.5l19 26q66 -46 102 -112.5t47 -141.5q4 -32 5 -62t1 -65v-33v-26q-1 -13 -2.5 -26.5l-3.5 -31.5q-5 -36 -17.5 -74.5
t-31.5 -74.5q-20 -37 -45 -68t-53 -51l-20 27q25 18 46 45t38 59q16 31 26.5 64t15.5 63zM544 346h-118v-297h-44v297h-45v38h45v108q0 49 27 80.5t81 31.5q16 0 35 -3t34 -8l-13 -35q-14 4 -28 6.5t-28 2.5q-19 0 -31 -7t-19 -17q-8 -11 -11 -24.5t-3 -26.5v-108h118v-38z
" />
    <glyph glyph-name="uni24A2" unicode="&#x24a2;" horiz-adv-x="890" 
d="M76 206q4 -30 15 -63t28 -64q16 -32 37 -59t46 -45l-20 -28q-28 20 -53 51t-44 68q-20 36 -33 75t-17 75l-3.5 31.5t-1.5 26.5q-1 12 -1 26v33q0 37 0.5 65t5.5 62q11 73 48 140.5t100 113.5l20 -26q-25 -18 -46 -42.5t-37 -52.5q-17 -29 -28.5 -60.5t-15.5 -62.5
q-5 -35 -6 -67t-1 -70v-37t1 -30l2 -28t4 -32zM813 206q3 18 4 32l2 28t1 30v37q0 39 -1 71t-6 66q-5 31 -16 62.5t-27 60.5q-17 28 -38 52.5t-46 42.5l19 26q66 -46 102 -112.5t47 -141.5q4 -32 5 -62t1 -65v-33v-26q-1 -13 -2.5 -26.5l-3.5 -31.5q-5 -36 -17.5 -74.5
t-31.5 -74.5q-20 -37 -45 -68t-53 -51l-20 27q25 18 46 45t38 59q16 31 26.5 64t15.5 63zM585 574v-378q0 -64 -37.5 -105.5t-119.5 -41.5q-32 0 -61 5t-60 19l13 33q27 -12 49 -16t53 -4q19 0 40 4.5t39 15.5q17 11 28 31t11 51v40q-25 -15 -51.5 -23.5t-51.5 -8.5
q-78 0 -117.5 47.5t-39.5 139.5v13q0 186 157 186q27 0 53.5 -10t49.5 -24v26h45zM325 383q0 -72 24.5 -110.5t87.5 -38.5q29 0 59 10.5t44 31.5v227q-20 21 -47.5 31t-55.5 10q-63 0 -87.5 -39.5t-24.5 -108.5v-13z" />
    <glyph glyph-name="uni24A3" unicode="&#x24a3;" horiz-adv-x="890" 
d="M76 206q4 -30 15 -63t28 -64q16 -32 37 -59t46 -45l-20 -28q-28 20 -53 51t-44 68q-20 36 -33 75t-17 75l-3.5 31.5t-1.5 26.5q-1 12 -1 26v33q0 37 0.5 65t5.5 62q11 73 48 140.5t100 113.5l20 -26q-25 -18 -46 -42.5t-37 -52.5q-17 -29 -28.5 -60.5t-15.5 -62.5
q-5 -35 -6 -67t-1 -70v-37t1 -30l2 -28t4 -32zM813 206q3 18 4 32l2 28t1 30v37q0 39 -1 71t-6 66q-5 31 -16 62.5t-27 60.5q-17 28 -38 52.5t-46 42.5l19 26q66 -46 102 -112.5t47 -141.5q4 -32 5 -62t1 -65v-33v-26q-1 -13 -2.5 -26.5l-3.5 -31.5q-5 -36 -17.5 -74.5
t-31.5 -74.5q-20 -37 -45 -68t-53 -51l-20 27q25 18 46 45t38 59q16 31 26.5 64t15.5 63zM563 58v231q0 50 -21 78.5t-71 28.5q-29 0 -54.5 -10.5t-53.5 -26.5v-301h-45v550h45v-208q28 16 56 25t59 9q64 0 97 -36.5t33 -99.5v-240h-45z" />
    <glyph glyph-name="uni24A4" unicode="&#x24a4;" horiz-adv-x="890" 
d="M76 206q4 -30 15 -63t28 -64q16 -32 37 -59t46 -45l-20 -28q-28 20 -53 51t-44 68q-20 36 -33 75t-17 75l-3.5 31.5t-1.5 26.5q-1 12 -1 26v33q0 37 0.5 65t5.5 62q11 73 48 140.5t100 113.5l20 -26q-25 -18 -46 -42.5t-37 -52.5q-17 -29 -28.5 -60.5t-15.5 -62.5
q-5 -35 -6 -67t-1 -70v-37t1 -30l2 -28t4 -32zM813 206q3 18 4 32l2 28t1 30v37q0 39 -1 71t-6 66q-5 31 -16 62.5t-27 60.5q-17 28 -38 52.5t-46 42.5l19 26q66 -46 102 -112.5t47 -141.5q4 -32 5 -62t1 -65v-33v-26q-1 -13 -2.5 -26.5l-3.5 -31.5q-5 -36 -17.5 -74.5
t-31.5 -74.5q-20 -37 -45 -68t-53 -51l-20 27q25 18 46 45t38 59q16 31 26.5 64t15.5 63zM420 593h49v-81h-49v81zM467 421v-368h-45v368h45z" />
    <glyph glyph-name="uni24A5" unicode="&#x24a5;" horiz-adv-x="890" 
d="M76 206q4 -30 15 -63t28 -64q16 -32 37 -59t46 -45l-20 -28q-28 20 -53 51t-44 68q-20 36 -33 75t-17 75l-3.5 31.5t-1.5 26.5q-1 12 -1 26v33q0 37 0.5 65t5.5 62q11 73 48 140.5t100 113.5l20 -26q-25 -18 -46 -42.5t-37 -52.5q-17 -29 -28.5 -60.5t-15.5 -62.5
q-5 -35 -6 -67t-1 -70v-37t1 -30l2 -28t4 -32zM813 206q3 18 4 32l2 28t1 30v37q0 39 -1 71t-6 66q-5 31 -16 62.5t-27 60.5q-17 28 -38 52.5t-46 42.5l19 26q66 -46 102 -112.5t47 -141.5q4 -32 5 -62t1 -65v-33v-26q-1 -13 -2.5 -26.5l-3.5 -31.5q-5 -36 -17.5 -74.5
t-31.5 -74.5q-20 -37 -45 -68t-53 -51l-20 27q25 18 46 45t38 59q16 31 26.5 64t15.5 63zM446 469h44v-334q0 -60 -23 -94t-76 -34q-28 0 -55 6l6 34q8 -2 20 -3t24 -1q33 0 46.5 21.5t13.5 55.5v349zM444 641h48v-81h-48v81z" />
    <glyph glyph-name="uni24A6" unicode="&#x24a6;" horiz-adv-x="890" 
d="M76 206q4 -30 15 -63t28 -64q16 -32 37 -59t46 -45l-20 -28q-28 20 -53 51t-44 68q-20 36 -33 75t-17 75l-3.5 31.5t-1.5 26.5q-1 12 -1 26v33q0 37 0.5 65t5.5 62q11 73 48 140.5t100 113.5l20 -26q-25 -18 -46 -42.5t-37 -52.5q-17 -29 -28.5 -60.5t-15.5 -62.5
q-5 -35 -6 -67t-1 -70v-37t1 -30l2 -28t4 -32zM813 206q3 18 4 32l2 28t1 30v37q0 39 -1 71t-6 66q-5 31 -16 62.5t-27 60.5q-17 28 -38 52.5t-46 42.5l19 26q66 -46 102 -112.5t47 -141.5q4 -32 5 -62t1 -65v-33v-26q-1 -13 -2.5 -26.5l-3.5 -31.5q-5 -36 -17.5 -74.5
t-31.5 -74.5q-20 -37 -45 -68t-53 -51l-20 27q25 18 46 45t38 59q16 31 26.5 64t15.5 63zM334 618h45v-367l171 185h48l-129 -143l144 -225h-49l-124 193l-61 -67v-126h-45v550z" />
    <glyph glyph-name="uni24A7" unicode="&#x24a7;" horiz-adv-x="890" 
d="M76 206q4 -30 15 -63t28 -64q16 -32 37 -59t46 -45l-20 -28q-28 20 -53 51t-44 68q-20 36 -33 75t-17 75l-3.5 31.5t-1.5 26.5q-1 12 -1 26v33q0 37 0.5 65t5.5 62q11 73 48 140.5t100 113.5l20 -26q-25 -18 -46 -42.5t-37 -52.5q-17 -29 -28.5 -60.5t-15.5 -62.5
q-5 -35 -6 -67t-1 -70v-37t1 -30l2 -28t4 -32zM813 206q3 18 4 32l2 28t1 30v37q0 39 -1 71t-6 66q-5 31 -16 62.5t-27 60.5q-17 28 -38 52.5t-46 42.5l19 26q66 -46 102 -112.5t47 -141.5q4 -32 5 -62t1 -65v-33v-26q-1 -13 -2.5 -26.5l-3.5 -31.5q-5 -36 -17.5 -74.5
t-31.5 -74.5q-20 -37 -45 -68t-53 -51l-20 27q25 18 46 45t38 59q16 31 26.5 64t15.5 63zM467 598v-550h-45v550h45z" />
    <glyph glyph-name="uni24A8" unicode="&#x24a8;" horiz-adv-x="890" 
d="M76 206q4 -30 15 -63t28 -64q16 -32 37 -59t46 -45l-20 -28q-28 20 -53 51t-44 68q-20 36 -33 75t-17 75l-3.5 31.5t-1.5 26.5q-1 12 -1 26v33q0 37 0.5 65t5.5 62q11 73 48 140.5t100 113.5l20 -26q-25 -18 -46 -42.5t-37 -52.5q-17 -29 -28.5 -60.5t-15.5 -62.5
q-5 -35 -6 -67t-1 -70v-37t1 -30l2 -28t4 -32zM813 206q3 18 4 32l2 28t1 30v37q0 39 -1 71t-6 66q-5 31 -16 62.5t-27 60.5q-17 28 -38 52.5t-46 42.5l19 26q66 -46 102 -112.5t47 -141.5q4 -32 5 -62t1 -65v-33v-26q-1 -13 -2.5 -26.5l-3.5 -31.5q-5 -36 -17.5 -74.5
t-31.5 -74.5q-20 -37 -45 -68t-53 -51l-20 27q25 18 46 45t38 59q16 31 26.5 64t15.5 63zM433 139v239q0 44 -14 71.5t-52 27.5q-29 0 -51 -10t-50 -31v-297h-45v368h45v-31q26 18 54 28.5t54 10.5q31 0 52.5 -12.5t36.5 -36.5q27 23 57.5 36t59.5 13q55 0 79.5 -33
t24.5 -96v-247h-45v239q0 44 -13.5 71.5t-51.5 27.5q-29 0 -50.5 -9t-50.5 -32q5 -23 5 -50v-247h-45z" />
    <glyph glyph-name="uni24A9" unicode="&#x24a9;" horiz-adv-x="890" 
d="M76 206q4 -30 15 -63t28 -64q16 -32 37 -59t46 -45l-20 -28q-28 20 -53 51t-44 68q-20 36 -33 75t-17 75l-3.5 31.5t-1.5 26.5q-1 12 -1 26v33q0 37 0.5 65t5.5 62q11 73 48 140.5t100 113.5l20 -26q-25 -18 -46 -42.5t-37 -52.5q-17 -29 -28.5 -60.5t-15.5 -62.5
q-5 -35 -6 -67t-1 -70v-37t1 -30l2 -28t4 -32zM813 206q3 18 4 32l2 28t1 30v37q0 39 -1 71t-6 66q-5 31 -16 62.5t-27 60.5q-17 28 -38 52.5t-46 42.5l19 26q66 -46 102 -112.5t47 -141.5q4 -32 5 -62t1 -65v-33v-26q-1 -13 -2.5 -26.5l-3.5 -31.5q-5 -36 -17.5 -74.5
t-31.5 -74.5q-20 -37 -45 -68t-53 -51l-20 27q25 18 46 45t38 59q16 31 26.5 64t15.5 63zM555 145v232q0 22 -5 41t-16 34q-11 14 -28.5 22.5t-42.5 8.5q-27 0 -55.5 -11t-57.5 -29v-298h-45v368h45v-33q29 20 59.5 30.5t60.5 10.5q64 0 97 -36.5t33 -99.5v-240h-45z" />
    <glyph glyph-name="uni24AA" unicode="&#x24aa;" horiz-adv-x="890" 
d="M76 206q4 -30 15 -63t28 -64q16 -32 37 -59t46 -45l-20 -28q-28 20 -53 51t-44 68q-20 36 -33 75t-17 75l-3.5 31.5t-1.5 26.5q-1 12 -1 26v33q0 37 0.5 65t5.5 62q11 73 48 140.5t100 113.5l20 -26q-25 -18 -46 -42.5t-37 -52.5q-17 -29 -28.5 -60.5t-15.5 -62.5
q-5 -35 -6 -67t-1 -70v-37t1 -30l2 -28t4 -32zM813 206q3 18 4 32l2 28t1 30v37q0 39 -1 71t-6 66q-5 31 -16 62.5t-27 60.5q-17 28 -38 52.5t-46 42.5l19 26q66 -46 102 -112.5t47 -141.5q4 -32 5 -62t1 -65v-33v-26q-1 -13 -2.5 -26.5l-3.5 -31.5q-5 -36 -17.5 -74.5
t-31.5 -74.5q-20 -37 -45 -68t-53 -51l-20 27q25 18 46 45t38 59q16 31 26.5 64t15.5 63zM561 352q0 62 -27 97.5t-90 35.5t-89.5 -35.5t-26.5 -97.5v-47q0 -61 26.5 -97.5t89.5 -36.5t90 36.5t27 97.5v47zM444 522q78 0 120 -43.5t42 -126.5v-47q0 -85 -42 -128.5
t-120 -43.5q-77 0 -119 43.5t-42 128.5v47q0 83 42.5 126.5t118.5 43.5z" />
    <glyph glyph-name="uni24AB" unicode="&#x24ab;" horiz-adv-x="890" 
d="M76 206q4 -30 15 -63t28 -64q16 -32 37 -59t46 -45l-20 -28q-28 20 -53 51t-44 68q-20 36 -33 75t-17 75l-3.5 31.5t-1.5 26.5q-1 12 -1 26v33q0 37 0.5 65t5.5 62q11 73 48 140.5t100 113.5l20 -26q-25 -18 -46 -42.5t-37 -52.5q-17 -29 -28.5 -60.5t-15.5 -62.5
q-5 -35 -6 -67t-1 -70v-37t1 -30l2 -28t4 -32zM813 206q3 18 4 32l2 28t1 30v37q0 39 -1 71t-6 66q-5 31 -16 62.5t-27 60.5q-17 28 -38 52.5t-46 42.5l19 26q66 -46 102 -112.5t47 -141.5q4 -32 5 -62t1 -65v-33v-26q-1 -13 -2.5 -26.5l-3.5 -31.5q-5 -36 -17.5 -74.5
t-31.5 -74.5q-20 -37 -45 -68t-53 -51l-20 27q25 18 46 45t38 59q16 31 26.5 64t15.5 63zM481 581q67 0 104.5 -40t37.5 -134v-36q0 -93 -37 -134.5t-105 -41.5q-33 0 -63 9t-55 23v-167h-45v497q39 11 77.5 17.5t85.5 6.5zM578 407q0 72 -25.5 104.5t-71.5 32.5
q-70 0 -118 -13v-253q14 -19 43.5 -32t74.5 -13q46 0 71.5 31.5t25.5 106.5v36z" />
    <glyph glyph-name="uni24AC" unicode="&#x24ac;" horiz-adv-x="890" 
d="M76 206q4 -30 15 -63t28 -64q16 -32 37 -59t46 -45l-20 -28q-28 20 -53 51t-44 68q-20 36 -33 75t-17 75l-3.5 31.5t-1.5 26.5q-1 12 -1 26v33q0 37 0.5 65t5.5 62q11 73 48 140.5t100 113.5l20 -26q-25 -18 -46 -42.5t-37 -52.5q-17 -29 -28.5 -60.5t-15.5 -62.5
q-5 -35 -6 -67t-1 -70v-37t1 -30l2 -28t4 -32zM813 206q3 18 4 32l2 28t1 30v37q0 39 -1 71t-6 66q-5 31 -16 62.5t-27 60.5q-17 28 -38 52.5t-46 42.5l19 26q66 -46 102 -112.5t47 -141.5q4 -32 5 -62t1 -65v-33v-26q-1 -13 -2.5 -26.5l-3.5 -31.5q-5 -36 -17.5 -74.5
t-31.5 -74.5q-20 -37 -45 -68t-53 -51l-20 27q25 18 46 45t38 59q16 31 26.5 64t15.5 63zM405 576q86 0 160 -21v-500h-45v167q-25 -14 -54 -23t-61 -9q-68 0 -106.5 41.5t-38.5 134.5v36q0 94 39 134t106 40zM305 366q0 -75 27 -106.5t73 -31.5q45 0 75.5 15t39.5 36v249
q-25 6 -53 8.5t-62 2.5q-46 0 -73 -32.5t-27 -104.5v-36z" />
    <glyph glyph-name="uni24AD" unicode="&#x24ad;" horiz-adv-x="890" 
d="M76 206q4 -30 15 -63t28 -64q16 -32 37 -59t46 -45l-20 -28q-28 20 -53 51t-44 68q-20 36 -33 75t-17 75l-3.5 31.5t-1.5 26.5q-1 12 -1 26v33q0 37 0.5 65t5.5 62q11 73 48 140.5t100 113.5l20 -26q-25 -18 -46 -42.5t-37 -52.5q-17 -29 -28.5 -60.5t-15.5 -62.5
q-5 -35 -6 -67t-1 -70v-37t1 -30l2 -28t4 -32zM813 206q3 18 4 32l2 28t1 30v37q0 39 -1 71t-6 66q-5 31 -16 62.5t-27 60.5q-17 28 -38 52.5t-46 42.5l19 26q66 -46 102 -112.5t47 -141.5q4 -32 5 -62t1 -65v-33v-26q-1 -13 -2.5 -26.5l-3.5 -31.5q-5 -36 -17.5 -74.5
t-31.5 -74.5q-20 -37 -45 -68t-53 -51l-20 27q25 18 46 45t38 59q16 31 26.5 64t15.5 63zM567 477q-8 2 -17.5 2.5t-20.5 0.5q-21 0 -52 -11.5t-58 -40.5v-286h-45v368h45v-41q27 26 57 37.5t61 11.5q18 0 38 -5z" />
    <glyph glyph-name="uni24AE" unicode="&#x24ae;" horiz-adv-x="890" 
d="M76 206q4 -30 15 -63t28 -64q16 -32 37 -59t46 -45l-20 -28q-28 20 -53 51t-44 68q-20 36 -33 75t-17 75l-3.5 31.5t-1.5 26.5q-1 12 -1 26v33q0 37 0.5 65t5.5 62q11 73 48 140.5t100 113.5l20 -26q-25 -18 -46 -42.5t-37 -52.5q-17 -29 -28.5 -60.5t-15.5 -62.5
q-5 -35 -6 -67t-1 -70v-37t1 -30l2 -28t4 -32zM813 206q3 18 4 32l2 28t1 30v37q0 39 -1 71t-6 66q-5 31 -16 62.5t-27 60.5q-17 28 -38 52.5t-46 42.5l19 26q66 -46 102 -112.5t47 -141.5q4 -32 5 -62t1 -65v-33v-26q-1 -13 -2.5 -26.5l-3.5 -31.5q-5 -36 -17.5 -74.5
t-31.5 -74.5q-20 -37 -45 -68t-53 -51l-20 27q25 18 46 45t38 59q16 31 26.5 64t15.5 63zM437 520q29 0 55.5 -2.5t56.5 -13.5l-14 -37q-28 9 -48.5 13t-49.5 2q-42 -3 -60.5 -16t-18.5 -39q0 -22 15 -37.5t42 -25.5l69 -21q48 -14 70.5 -41t22.5 -63q0 -52 -36.5 -78.5
t-97.5 -26.5q-32 0 -65.5 6t-62.5 20l13 37q29 -11 56.5 -18t58.5 -6q39 0 65 17t26 49q0 49 -59 67l-69 20q-46 14 -69.5 37.5t-23.5 63.5q0 17 7 34t22 30t38.5 21t56.5 8z" />
    <glyph glyph-name="uni24AF" unicode="&#x24af;" horiz-adv-x="890" 
d="M76 206q4 -30 15 -63t28 -64q16 -32 37 -59t46 -45l-20 -28q-28 20 -53 51t-44 68q-20 36 -33 75t-17 75l-3.5 31.5t-1.5 26.5q-1 12 -1 26v33q0 37 0.5 65t5.5 62q11 73 48 140.5t100 113.5l20 -26q-25 -18 -46 -42.5t-37 -52.5q-17 -29 -28.5 -60.5t-15.5 -62.5
q-5 -35 -6 -67t-1 -70v-37t1 -30l2 -28t4 -32zM813 206q3 18 4 32l2 28t1 30v37q0 39 -1 71t-6 66q-5 31 -16 62.5t-27 60.5q-17 28 -38 52.5t-46 42.5l19 26q66 -46 102 -112.5t47 -141.5q4 -32 5 -62t1 -65v-33v-26q-1 -13 -2.5 -26.5l-3.5 -31.5q-5 -36 -17.5 -74.5
t-31.5 -74.5q-20 -37 -45 -68t-53 -51l-20 27q25 18 46 45t38 59q16 31 26.5 64t15.5 63zM557 65q-14 -5 -29.5 -9.5t-30.5 -4.5q-54 0 -76 23t-22 72v247h-70v38h70v165h45v-165h101v-38h-101v-247q0 -27 10 -42t43 -15q15 0 26 1.5t25 5.5z" />
    <glyph glyph-name="uni24B0" unicode="&#x24b0;" horiz-adv-x="890" 
d="M76 206q4 -30 15 -63t28 -64q16 -32 37 -59t46 -45l-20 -28q-28 20 -53 51t-44 68q-20 36 -33 75t-17 75l-3.5 31.5t-1.5 26.5q-1 12 -1 26v33q0 37 0.5 65t5.5 62q11 73 48 140.5t100 113.5l20 -26q-25 -18 -46 -42.5t-37 -52.5q-17 -29 -28.5 -60.5t-15.5 -62.5
q-5 -35 -6 -67t-1 -70v-37t1 -30l2 -28t4 -32zM813 206q3 18 4 32l2 28t1 30v37q0 39 -1 71t-6 66q-5 31 -16 62.5t-27 60.5q-17 28 -38 52.5t-46 42.5l19 26q66 -46 102 -112.5t47 -141.5q4 -32 5 -62t1 -65v-33v-26q-1 -13 -2.5 -26.5l-3.5 -31.5q-5 -36 -17.5 -74.5
t-31.5 -74.5q-20 -37 -45 -68t-53 -51l-20 27q25 18 46 45t38 59q16 31 26.5 64t15.5 63zM337 493v-236q0 -49 23.5 -77t73.5 -28q29 0 56.5 3t52.5 14v324h45v-352q-39 -14 -77 -20.5t-84 -6.5q-65 0 -100 33t-35 102v244h45z" />
    <glyph glyph-name="uni24B1" unicode="&#x24b1;" horiz-adv-x="890" 
d="M76 206q4 -30 15 -63t28 -64q16 -32 37 -59t46 -45l-20 -28q-28 20 -53 51t-44 68q-20 36 -33 75t-17 75l-3.5 31.5t-1.5 26.5q-1 12 -1 26v33q0 37 0.5 65t5.5 62q11 73 48 140.5t100 113.5l20 -26q-25 -18 -46 -42.5t-37 -52.5q-17 -29 -28.5 -60.5t-15.5 -62.5
q-5 -35 -6 -67t-1 -70v-37t1 -30l2 -28t4 -32zM813 206q3 18 4 32l2 28t1 30v37q0 39 -1 71t-6 66q-5 31 -16 62.5t-27 60.5q-17 28 -38 52.5t-46 42.5l19 26q66 -46 102 -112.5t47 -141.5q4 -32 5 -62t1 -65v-33v-26q-1 -13 -2.5 -26.5l-3.5 -31.5q-5 -36 -17.5 -74.5
t-31.5 -74.5q-20 -37 -45 -68t-53 -51l-20 27q25 18 46 45t38 59q16 31 26.5 64t15.5 63zM422 122l-141 368h45l121 -327l120 327h41l-137 -368h-49z" />
    <glyph glyph-name="uni24B2" unicode="&#x24b2;" horiz-adv-x="890" 
d="M76 206q4 -30 15 -63t28 -64q16 -32 37 -59t46 -45l-20 -28q-28 20 -53 51t-44 68q-20 36 -33 75t-17 75l-3.5 31.5t-1.5 26.5q-1 12 -1 26v33q0 37 0.5 65t5.5 62q11 73 48 140.5t100 113.5l20 -26q-25 -18 -46 -42.5t-37 -52.5q-17 -29 -28.5 -60.5t-15.5 -62.5
q-5 -35 -6 -67t-1 -70v-37t1 -30l2 -28t4 -32zM813 206q3 18 4 32l2 28t1 30v37q0 39 -1 71t-6 66q-5 31 -16 62.5t-27 60.5q-17 28 -38 52.5t-46 42.5l19 26q66 -46 102 -112.5t47 -141.5q4 -32 5 -62t1 -65v-33v-26q-1 -13 -2.5 -26.5l-3.5 -31.5q-5 -36 -17.5 -74.5
t-31.5 -74.5q-20 -37 -45 -68t-53 -51l-20 27q25 18 46 45t38 59q16 31 26.5 64t15.5 63zM688 475l-105 -368h-44l-92 275l-95 -275h-44l-107 368h41l88 -328l93 275q6 16 22 16q7 0 13.5 -5t8.5 -11l94 -274l89 327h38z" />
    <glyph glyph-name="uni24B3" unicode="&#x24b3;" horiz-adv-x="890" 
d="M76 206q4 -30 15 -63t28 -64q16 -32 37 -59t46 -45l-20 -28q-28 20 -53 51t-44 68q-20 36 -33 75t-17 75l-3.5 31.5t-1.5 26.5q-1 12 -1 26v33q0 37 0.5 65t5.5 62q11 73 48 140.5t100 113.5l20 -26q-25 -18 -46 -42.5t-37 -52.5q-17 -29 -28.5 -60.5t-15.5 -62.5
q-5 -35 -6 -67t-1 -70v-37t1 -30l2 -28t4 -32zM813 206q3 18 4 32l2 28t1 30v37q0 39 -1 71t-6 66q-5 31 -16 62.5t-27 60.5q-17 28 -38 52.5t-46 42.5l19 26q66 -46 102 -112.5t47 -141.5q4 -32 5 -62t1 -65v-33v-26q-1 -13 -2.5 -26.5l-3.5 -31.5q-5 -36 -17.5 -74.5
t-31.5 -74.5q-20 -37 -45 -68t-53 -51l-20 27q25 18 46 45t38 59q16 31 26.5 64t15.5 63zM286 138l133 185l-128 183h48l104 -153l104 153h50l-128 -183l134 -185h-50l-107 155l-111 -155h-49z" />
    <glyph glyph-name="uni24B4" unicode="&#x24b4;" horiz-adv-x="890" 
d="M76 206q4 -30 15 -63t28 -64q16 -32 37 -59t46 -45l-20 -28q-28 20 -53 51t-44 68q-20 36 -33 75t-17 75l-3.5 31.5t-1.5 26.5q-1 12 -1 26v33q0 37 0.5 65t5.5 62q11 73 48 140.5t100 113.5l20 -26q-25 -18 -46 -42.5t-37 -52.5q-17 -29 -28.5 -60.5t-15.5 -62.5
q-5 -35 -6 -67t-1 -70v-37t1 -30l2 -28t4 -32zM813 206q3 18 4 32l2 28t1 30v37q0 39 -1 71t-6 66q-5 31 -16 62.5t-27 60.5q-17 28 -38 52.5t-46 42.5l19 26q66 -46 102 -112.5t47 -141.5q4 -32 5 -62t1 -65v-33v-26q-1 -13 -2.5 -26.5l-3.5 -31.5q-5 -36 -17.5 -74.5
t-31.5 -74.5q-20 -37 -45 -68t-53 -51l-20 27q25 18 46 45t38 59q16 31 26.5 64t15.5 63zM425 182l-135 360h47l109 -305l115 305h48l-199 -514h-43z" />
    <glyph glyph-name="uni24B5" unicode="&#x24b5;" horiz-adv-x="890" 
d="M76 206q4 -30 15 -63t28 -64q16 -32 37 -59t46 -45l-20 -28q-28 20 -53 51t-44 68q-20 36 -33 75t-17 75l-3.5 31.5t-1.5 26.5q-1 12 -1 26v33q0 37 0.5 65t5.5 62q11 73 48 140.5t100 113.5l20 -26q-25 -18 -46 -42.5t-37 -52.5q-17 -29 -28.5 -60.5t-15.5 -62.5
q-5 -35 -6 -67t-1 -70v-37t1 -30l2 -28t4 -32zM813 206q3 18 4 32l2 28t1 30v37q0 39 -1 71t-6 66q-5 31 -16 62.5t-27 60.5q-17 28 -38 52.5t-46 42.5l19 26q66 -46 102 -112.5t47 -141.5q4 -32 5 -62t1 -65v-33v-26q-1 -13 -2.5 -26.5l-3.5 -31.5q-5 -36 -17.5 -74.5
t-31.5 -74.5q-20 -37 -45 -68t-53 -51l-20 27q25 18 46 45t38 59q16 31 26.5 64t15.5 63zM574 186v-38h-258v35l200 295h-189v38h237v-36l-200 -294h210z" />
    <glyph glyph-name="uni24D0" unicode="&#x24d0;" horiz-adv-x="910" 
d="M445 743q87 0 163 -33t133 -90q56 -57 89 -133.5t33 -163.5t-33 -163.5t-89 -133.5q-57 -57 -133 -90t-163 -33t-163 33t-132 90q-57 57 -90 133.5t-33 163.5t33 163.5t90 133.5q56 57 132 90t163 33zM445 704q-78 0 -147.5 -30t-120.5 -81q-52 -52 -82 -121.5
t-30 -148.5t30 -148.5t82 -120.5q51 -52 120.5 -82t147.5 -30t147.5 30t121.5 82q51 51 81 120.5t30 148.5t-30 148.5t-81 121.5q-52 51 -121.5 81t-147.5 30zM575 153q-36 -10 -72.5 -16t-80.5 -6q-62 0 -101 31t-39 82v25q0 30 12.5 51t33.5 34q20 13 46.5 19t55.5 6h100
v30q0 29 -20.5 49.5t-60.5 20.5q-20 0 -34.5 -1t-27.5 -3q-13 -3 -26 -7t-30 -10l-13 34q32 12 62.5 20t71.5 8q57 0 90 -29.5t33 -81.5v-256zM423 169q30 0 55.5 2.5t51.5 9.5v160h-97q-45 0 -75.5 -14t-30.5 -55v-24q0 -41 27 -60t69 -19z" />
    <glyph glyph-name="uni24D1" unicode="&#x24d1;" horiz-adv-x="890" 
d="M445 743q87 0 163 -33t133 -90q56 -57 89 -133.5t33 -163.5t-33 -163.5t-89 -133.5q-57 -57 -133 -90t-163 -33t-163 33t-132 90q-57 57 -90 133.5t-33 163.5t33 163.5t90 133.5q56 57 132 90t163 33zM445 704q-78 0 -147.5 -30t-120.5 -81q-52 -52 -82 -121.5
t-30 -148.5t30 -148.5t82 -120.5q51 -52 120.5 -82t147.5 -30t147.5 30t121.5 82q51 51 81 120.5t30 148.5t-30 148.5t-81 121.5q-52 51 -121.5 81t-147.5 30zM477 427q34 0 60.5 -9t44.5 -29q18 -21 27.5 -54.5t9.5 -81.5v-36q0 -96 -36 -136t-106 -40q-53 0 -90.5 7.5
t-72.5 19.5v533h45v-209q26 17 55.5 26t62.5 9zM574 253q0 76 -23 106.5t-74 30.5q-45 0 -77 -14.5t-41 -34.5v-247q18 -7 49 -11t69 -4q25 0 43.5 6.5t30.5 22.5t17.5 42.5t5.5 66.5v36z" />
    <glyph glyph-name="uni24D2" unicode="&#x24d2;" horiz-adv-x="890" 
d="M445 743q87 0 163 -33t133 -90q56 -57 89 -133.5t33 -163.5t-33 -163.5t-89 -133.5q-57 -57 -133 -90t-163 -33t-163 33t-132 90q-57 57 -90 133.5t-33 163.5t33 163.5t90 133.5q56 57 132 90t163 33zM445 704q-78 0 -147.5 -30t-120.5 -81q-52 -52 -82 -121.5
t-30 -148.5t30 -148.5t82 -120.5q51 -52 120.5 -82t147.5 -30t147.5 30t121.5 82q51 51 81 120.5t30 148.5t-30 148.5t-81 121.5q-52 51 -121.5 81t-147.5 30zM445 177q27 0 52 2.5t55 9.5l9 -34q-35 -10 -62.5 -13.5t-54.5 -3.5q-48 0 -80 11.5t-50 33.5q-19 21 -27 52.5
t-8 72.5v44q0 40 8 72t27 54q18 22 50 34t80 12q22 0 48.5 -2t61.5 -9l-11 -38q-27 5 -52 8t-47 3q-36 0 -59 -8.5t-36 -25.5q-14 -18 -19.5 -43.5t-5.5 -58.5v-39q0 -34 5.5 -59t19.5 -41q13 -17 36.5 -25.5t59.5 -8.5z" />
    <glyph glyph-name="uni24D3" unicode="&#x24d3;" horiz-adv-x="890" 
d="M445 743q87 0 163 -33t133 -90q56 -57 89 -133.5t33 -163.5t-33 -163.5t-89 -133.5q-57 -57 -133 -90t-163 -33t-163 33t-132 90q-57 57 -90 133.5t-33 163.5t33 163.5t90 133.5q56 57 132 90t163 33zM445 704q-78 0 -147.5 -30t-120.5 -81q-52 -52 -82 -121.5
t-30 -148.5t30 -148.5t82 -120.5q51 -52 120.5 -82t147.5 -30t147.5 30t121.5 82q51 51 81 120.5t30 148.5t-30 148.5t-81 121.5q-52 51 -121.5 81t-147.5 30zM402 432q61 0 112 -34v208h45v-533q-32 -11 -68.5 -19t-88.5 -8q-71 0 -109.5 43.5t-38.5 132.5v36
q0 91 39.5 132.5t108.5 41.5zM299 222q0 -71 26 -104.5t77 -33.5q38 0 66.5 4.5t45.5 10.5v244q-9 21 -39 36.5t-73 15.5q-51 0 -77 -35t-26 -102v-36z" />
    <glyph glyph-name="uni24D4" unicode="&#x24d4;" horiz-adv-x="890" 
d="M331 336h217v38q0 104 -111 104q-51 0 -78.5 -26t-27.5 -78v-38zM443 166q42 0 68 4t55 15l11 -32q-32 -14 -61.5 -19t-72.5 -5q-33 0 -62 10.5t-50 30.5t-33 49t-12 67v73q0 77 40.5 116.5t110.5 39.5q42 0 71.5 -11.5t48.5 -31.5q18 -21 26.5 -48t8.5 -57v-24
q0 -22 -10 -33t-35 -11h-216v-20q0 -30 10.5 -51.5t27.5 -34.5q16 -14 36 -20.5t38 -6.5zM445 743q87 0 163 -33t133 -90q56 -57 89 -133.5t33 -163.5t-33 -163.5t-89 -133.5q-57 -57 -133 -90t-163 -33t-163 33t-132 90q-57 57 -90 133.5t-33 163.5t33 163.5t90 133.5
q56 57 132 90t163 33zM445 704q-78 0 -147.5 -30t-120.5 -81q-52 -52 -82 -121.5t-30 -148.5t30 -148.5t82 -120.5q51 -52 120.5 -82t147.5 -30t147.5 30t121.5 82q51 51 81 120.5t30 148.5t-30 148.5t-81 121.5q-52 51 -121.5 81t-147.5 30z" />
    <glyph glyph-name="uni24D5" unicode="&#x24d5;" horiz-adv-x="890" 
d="M544 346h-118v-297h-44v297h-45v38h45v108q0 49 27 80.5t81 31.5q16 0 35 -3t34 -8l-13 -35q-14 4 -28 6.5t-28 2.5q-19 0 -31 -7t-19 -17q-8 -11 -11 -24.5t-3 -26.5v-108h118v-38zM445 743q87 0 163 -33t133 -90q56 -57 89 -133.5t33 -163.5t-33 -163.5t-89 -133.5
q-57 -57 -133 -90t-163 -33t-163 33t-132 90q-57 57 -90 133.5t-33 163.5t33 163.5t90 133.5q56 57 132 90t163 33zM445 704q-78 0 -147.5 -30t-120.5 -81q-52 -52 -82 -121.5t-30 -148.5t30 -148.5t82 -120.5q51 -52 120.5 -82t147.5 -30t147.5 30t121.5 82q51 51 81 120.5
t30 148.5t-30 148.5t-81 121.5q-52 51 -121.5 81t-147.5 30z" />
    <glyph glyph-name="uni24D6" unicode="&#x24d6;" horiz-adv-x="890" 
d="M445 743q87 0 163 -33t133 -90q56 -57 89 -133.5t33 -163.5t-33 -163.5t-89 -133.5q-57 -57 -133 -90t-163 -33t-163 33t-132 90q-57 57 -90 133.5t-33 163.5t33 163.5t90 133.5q56 57 132 90t163 33zM445 704q-78 0 -147.5 -30t-120.5 -81q-52 -52 -82 -121.5
t-30 -148.5t30 -148.5t82 -120.5q51 -52 120.5 -82t147.5 -30t147.5 30t121.5 82q51 51 81 120.5t30 148.5t-30 148.5t-81 121.5q-52 51 -121.5 81t-147.5 30zM585 574v-378q0 -64 -37.5 -105.5t-119.5 -41.5q-32 0 -61 5t-60 19l13 33q27 -12 49 -16t53 -4q19 0 40 4.5
t39 15.5q17 11 28 31t11 51v40q-25 -15 -51.5 -23.5t-51.5 -8.5q-78 0 -117.5 47.5t-39.5 139.5v13q0 186 157 186q27 0 53.5 -10t49.5 -24v26h45zM325 383q0 -72 24.5 -110.5t87.5 -38.5q29 0 59 10.5t44 31.5v227q-20 21 -47.5 31t-55.5 10q-63 0 -87.5 -39.5
t-24.5 -108.5v-13z" />
    <glyph glyph-name="uni24D7" unicode="&#x24d7;" horiz-adv-x="890" 
d="M445 743q87 0 163 -33t133 -90q56 -57 89 -133.5t33 -163.5t-33 -163.5t-89 -133.5q-57 -57 -133 -90t-163 -33t-163 33t-132 90q-57 57 -90 133.5t-33 163.5t33 163.5t90 133.5q56 57 132 90t163 33zM445 704q-78 0 -147.5 -30t-120.5 -81q-52 -52 -82 -121.5
t-30 -148.5t30 -148.5t82 -120.5q51 -52 120.5 -82t147.5 -30t147.5 30t121.5 82q51 51 81 120.5t30 148.5t-30 148.5t-81 121.5q-52 51 -121.5 81t-147.5 30zM563 58v231q0 50 -21 78.5t-71 28.5q-29 0 -54.5 -10.5t-53.5 -26.5v-301h-45v550h45v-208q28 16 56 25t59 9
q64 0 97 -36.5t33 -99.5v-240h-45z" />
    <glyph glyph-name="uni24D8" unicode="&#x24d8;" horiz-adv-x="890" 
d="M420 593h49v-81h-49v81zM467 421v-368h-45v368h45zM445 743q87 0 163 -33t133 -90q56 -57 89 -133.5t33 -163.5t-33 -163.5t-89 -133.5q-57 -57 -133 -90t-163 -33t-163 33t-132 90q-57 57 -90 133.5t-33 163.5t33 163.5t90 133.5q56 57 132 90t163 33zM445 704
q-78 0 -147.5 -30t-120.5 -81q-52 -52 -82 -121.5t-30 -148.5t30 -148.5t82 -120.5q51 -52 120.5 -82t147.5 -30t147.5 30t121.5 82q51 51 81 120.5t30 148.5t-30 148.5t-81 121.5q-52 51 -121.5 81t-147.5 30z" />
    <glyph glyph-name="uni24D9" unicode="&#x24d9;" horiz-adv-x="890" 
d="M445 743q87 0 163 -33t133 -90q56 -57 89 -133.5t33 -163.5t-33 -163.5t-89 -133.5q-57 -57 -133 -90t-163 -33t-163 33t-132 90q-57 57 -90 133.5t-33 163.5t33 163.5t90 133.5q56 57 132 90t163 33zM445 704q-78 0 -147.5 -30t-120.5 -81q-52 -52 -82 -121.5
t-30 -148.5t30 -148.5t82 -120.5q51 -52 120.5 -82t147.5 -30t147.5 30t121.5 82q51 51 81 120.5t30 148.5t-30 148.5t-81 121.5q-52 51 -121.5 81t-147.5 30zM446 469h44v-334q0 -60 -23 -94t-76 -34q-28 0 -55 6l6 34q8 -2 20 -3t24 -1q33 0 46.5 21.5t13.5 55.5v349z
M444 641h48v-81h-48v81z" />
    <glyph glyph-name="uni24DA" unicode="&#x24da;" horiz-adv-x="890" 
d="M445 743q87 0 163 -33t133 -90q56 -57 89 -133.5t33 -163.5t-33 -163.5t-89 -133.5q-57 -57 -133 -90t-163 -33t-163 33t-132 90q-57 57 -90 133.5t-33 163.5t33 163.5t90 133.5q56 57 132 90t163 33zM445 704q-78 0 -147.5 -30t-120.5 -81q-52 -52 -82 -121.5
t-30 -148.5t30 -148.5t82 -120.5q51 -52 120.5 -82t147.5 -30t147.5 30t121.5 82q51 51 81 120.5t30 148.5t-30 148.5t-81 121.5q-52 51 -121.5 81t-147.5 30zM334 618h45v-367l171 185h48l-129 -143l144 -225h-49l-124 193l-61 -67v-126h-45v550z" />
    <glyph glyph-name="uni24DB" unicode="&#x24db;" horiz-adv-x="890" 
d="M467 598v-550h-45v550h45zM445 743q87 0 163 -33t133 -90q56 -57 89 -133.5t33 -163.5t-33 -163.5t-89 -133.5q-57 -57 -133 -90t-163 -33t-163 33t-132 90q-57 57 -90 133.5t-33 163.5t33 163.5t90 133.5q56 57 132 90t163 33zM445 704q-78 0 -147.5 -30t-120.5 -81
q-52 -52 -82 -121.5t-30 -148.5t30 -148.5t82 -120.5q51 -52 120.5 -82t147.5 -30t147.5 30t121.5 82q51 51 81 120.5t30 148.5t-30 148.5t-81 121.5q-52 51 -121.5 81t-147.5 30z" />
    <glyph glyph-name="uni24DC" unicode="&#x24dc;" horiz-adv-x="890" 
d="M445 743q87 0 163 -33t133 -90q56 -57 89 -133.5t33 -163.5t-33 -163.5t-89 -133.5q-57 -57 -133 -90t-163 -33t-163 33t-132 90q-57 57 -90 133.5t-33 163.5t33 163.5t90 133.5q56 57 132 90t163 33zM445 704q-78 0 -147.5 -30t-120.5 -81q-52 -52 -82 -121.5
t-30 -148.5t30 -148.5t82 -120.5q51 -52 120.5 -82t147.5 -30t147.5 30t121.5 82q51 51 81 120.5t30 148.5t-30 148.5t-81 121.5q-52 51 -121.5 81t-147.5 30zM433 139v239q0 44 -14 71.5t-52 27.5q-29 0 -51 -10t-50 -31v-297h-45v368h45v-31q26 18 54 28.5t54 10.5
q31 0 52.5 -12.5t36.5 -36.5q27 23 57.5 36t59.5 13q55 0 79.5 -33t24.5 -96v-247h-45v239q0 44 -13.5 71.5t-51.5 27.5q-29 0 -50.5 -9t-50.5 -32q5 -23 5 -50v-247h-45z" />
    <glyph glyph-name="uni24DD" unicode="&#x24dd;" horiz-adv-x="890" 
d="M445 743q87 0 163 -33t133 -90q56 -57 89 -133.5t33 -163.5t-33 -163.5t-89 -133.5q-57 -57 -133 -90t-163 -33t-163 33t-132 90q-57 57 -90 133.5t-33 163.5t33 163.5t90 133.5q56 57 132 90t163 33zM445 704q-78 0 -147.5 -30t-120.5 -81q-52 -52 -82 -121.5
t-30 -148.5t30 -148.5t82 -120.5q51 -52 120.5 -82t147.5 -30t147.5 30t121.5 82q51 51 81 120.5t30 148.5t-30 148.5t-81 121.5q-52 51 -121.5 81t-147.5 30zM555 145v232q0 22 -5 41t-16 34q-11 14 -28.5 22.5t-42.5 8.5q-27 0 -55.5 -11t-57.5 -29v-298h-45v368h45v-33
q29 20 59.5 30.5t60.5 10.5q64 0 97 -36.5t33 -99.5v-240h-45z" />
    <glyph glyph-name="uni24DE" unicode="&#x24de;" horiz-adv-x="890" 
d="M561 352q0 62 -27 97.5t-90 35.5t-89.5 -35.5t-26.5 -97.5v-47q0 -61 26.5 -97.5t89.5 -36.5t90 36.5t27 97.5v47zM444 522q78 0 120 -43.5t42 -126.5v-47q0 -85 -42 -128.5t-120 -43.5q-77 0 -119 43.5t-42 128.5v47q0 83 42.5 126.5t118.5 43.5zM445 743q87 0 163 -33
t133 -90q56 -57 89 -133.5t33 -163.5t-33 -163.5t-89 -133.5q-57 -57 -133 -90t-163 -33t-163 33t-132 90q-57 57 -90 133.5t-33 163.5t33 163.5t90 133.5q56 57 132 90t163 33zM445 704q-78 0 -147.5 -30t-120.5 -81q-52 -52 -82 -121.5t-30 -148.5t30 -148.5t82 -120.5
q51 -52 120.5 -82t147.5 -30t147.5 30t121.5 82q51 51 81 120.5t30 148.5t-30 148.5t-81 121.5q-52 51 -121.5 81t-147.5 30z" />
    <glyph glyph-name="uni24DF" unicode="&#x24df;" horiz-adv-x="890" 
d="M445 743q87 0 163 -33t133 -90q56 -57 89 -133.5t33 -163.5t-33 -163.5t-89 -133.5q-57 -57 -133 -90t-163 -33t-163 33t-132 90q-57 57 -90 133.5t-33 163.5t33 163.5t90 133.5q56 57 132 90t163 33zM445 704q-78 0 -147.5 -30t-120.5 -81q-52 -52 -82 -121.5
t-30 -148.5t30 -148.5t82 -120.5q51 -52 120.5 -82t147.5 -30t147.5 30t121.5 82q51 51 81 120.5t30 148.5t-30 148.5t-81 121.5q-52 51 -121.5 81t-147.5 30zM481 581q67 0 104.5 -40t37.5 -134v-36q0 -93 -37 -134.5t-105 -41.5q-33 0 -63 9t-55 23v-167h-45v497
q39 11 77.5 17.5t85.5 6.5zM578 407q0 72 -25.5 104.5t-71.5 32.5q-70 0 -118 -13v-249q10 -21 41.5 -35t76.5 -14q46 0 71.5 31.5t25.5 106.5v36z" />
    <glyph glyph-name="uni24E0" unicode="&#x24e0;" horiz-adv-x="890" 
d="M445 743q87 0 163 -33t133 -90q56 -57 89 -133.5t33 -163.5t-33 -163.5t-89 -133.5q-57 -57 -133 -90t-163 -33t-163 33t-132 90q-57 57 -90 133.5t-33 163.5t33 163.5t90 133.5q56 57 132 90t163 33zM445 704q-78 0 -147.5 -30t-120.5 -81q-52 -52 -82 -121.5
t-30 -148.5t30 -148.5t82 -120.5q51 -52 120.5 -82t147.5 -30t147.5 30t121.5 82q51 51 81 120.5t30 148.5t-30 148.5t-81 121.5q-52 51 -121.5 81t-147.5 30zM405 576q86 0 160 -21v-500h-45v167q-25 -14 -54 -23t-61 -9q-68 0 -106.5 41.5t-38.5 134.5v36q0 94 39 134
t106 40zM305 366q0 -75 27 -106.5t73 -31.5q45 0 75.5 15t39.5 36v249q-25 6 -53 8.5t-62 2.5q-46 0 -73 -32.5t-27 -104.5v-36z" />
    <glyph glyph-name="uni24E1" unicode="&#x24e1;" horiz-adv-x="890" 
d="M445 743q87 0 163 -33t133 -90q56 -57 89 -133.5t33 -163.5t-33 -163.5t-89 -133.5q-57 -57 -133 -90t-163 -33t-163 33t-132 90q-57 57 -90 133.5t-33 163.5t33 163.5t90 133.5q56 57 132 90t163 33zM445 704q-78 0 -147.5 -30t-120.5 -81q-52 -52 -82 -121.5
t-30 -148.5t30 -148.5t82 -120.5q51 -52 120.5 -82t147.5 -30t147.5 30t121.5 82q51 51 81 120.5t30 148.5t-30 148.5t-81 121.5q-52 51 -121.5 81t-147.5 30zM567 477q-8 2 -17.5 2.5t-20.5 0.5q-21 0 -52 -11.5t-58 -40.5v-286h-45v368h45v-41q27 26 57 37.5t61 11.5
q18 0 38 -5z" />
    <glyph glyph-name="uni24E2" unicode="&#x24e2;" horiz-adv-x="890" 
d="M445 743q87 0 163 -33t133 -90q56 -57 89 -133.5t33 -163.5t-33 -163.5t-89 -133.5q-57 -57 -133 -90t-163 -33t-163 33t-132 90q-57 57 -90 133.5t-33 163.5t33 163.5t90 133.5q56 57 132 90t163 33zM445 704q-78 0 -147.5 -30t-120.5 -81q-52 -52 -82 -121.5
t-30 -148.5t30 -148.5t82 -120.5q51 -52 120.5 -82t147.5 -30t147.5 30t121.5 82q51 51 81 120.5t30 148.5t-30 148.5t-81 121.5q-52 51 -121.5 81t-147.5 30zM437 520q29 0 55.5 -2.5t56.5 -13.5l-14 -37q-28 9 -48.5 13t-49.5 2q-42 -3 -60.5 -16t-18.5 -39
q0 -22 15 -37.5t42 -25.5l69 -21q48 -14 70.5 -41t22.5 -63q0 -52 -36.5 -78.5t-97.5 -26.5q-32 0 -65.5 6t-62.5 20l13 37q29 -11 56.5 -18t58.5 -6q39 0 65 17t26 49q0 49 -59 67l-69 20q-46 14 -69.5 37.5t-23.5 63.5q0 17 7 34t22 30t38.5 21t56.5 8z" />
    <glyph glyph-name="uni24E3" unicode="&#x24e3;" horiz-adv-x="890" 
d="M557 65q-14 -5 -29.5 -9.5t-30.5 -4.5q-54 0 -76 23t-22 72v247h-70v38h70v165h45v-165h101v-38h-101v-247q0 -27 10 -42t43 -15q15 0 26 1.5t25 5.5zM445 743q87 0 163 -33t133 -90q56 -57 89 -133.5t33 -163.5t-33 -163.5t-89 -133.5q-57 -57 -133 -90t-163 -33
t-163 33t-132 90q-57 57 -90 133.5t-33 163.5t33 163.5t90 133.5q56 57 132 90t163 33zM445 704q-78 0 -147.5 -30t-120.5 -81q-52 -52 -82 -121.5t-30 -148.5t30 -148.5t82 -120.5q51 -52 120.5 -82t147.5 -30t147.5 30t121.5 82q51 51 81 120.5t30 148.5t-30 148.5
t-81 121.5q-52 51 -121.5 81t-147.5 30z" />
    <glyph glyph-name="uni24E4" unicode="&#x24e4;" horiz-adv-x="890" 
d="M445 743q87 0 163 -33t133 -90q56 -57 89 -133.5t33 -163.5t-33 -163.5t-89 -133.5q-57 -57 -133 -90t-163 -33t-163 33t-132 90q-57 57 -90 133.5t-33 163.5t33 163.5t90 133.5q56 57 132 90t163 33zM445 704q-78 0 -147.5 -30t-120.5 -81q-52 -52 -82 -121.5
t-30 -148.5t30 -148.5t82 -120.5q51 -52 120.5 -82t147.5 -30t147.5 30t121.5 82q51 51 81 120.5t30 148.5t-30 148.5t-81 121.5q-52 51 -121.5 81t-147.5 30zM337 493v-236q0 -49 23.5 -77t73.5 -28q29 0 56.5 3t52.5 14v324h45v-352q-39 -14 -77 -20.5t-84 -6.5
q-65 0 -100 33t-35 102v244h45z" />
    <glyph glyph-name="uni24E5" unicode="&#x24e5;" horiz-adv-x="890" 
d="M445 743q87 0 163 -33t133 -90q56 -57 89 -133.5t33 -163.5t-33 -163.5t-89 -133.5q-57 -57 -133 -90t-163 -33t-163 33t-132 90q-57 57 -90 133.5t-33 163.5t33 163.5t90 133.5q56 57 132 90t163 33zM445 704q-78 0 -147.5 -30t-120.5 -81q-52 -52 -82 -121.5
t-30 -148.5t30 -148.5t82 -120.5q51 -52 120.5 -82t147.5 -30t147.5 30t121.5 82q51 51 81 120.5t30 148.5t-30 148.5t-81 121.5q-52 51 -121.5 81t-147.5 30zM422 122l-141 368h45l121 -327l120 327h41l-137 -368h-49z" />
    <glyph glyph-name="uni24E6" unicode="&#x24e6;" horiz-adv-x="890" 
d="M688 475l-105 -368h-44l-92 275l-95 -275h-44l-107 368h41l88 -328l93 275q6 16 22 16q7 0 13.5 -5t8.5 -11l94 -274l89 327h38zM445 743q87 0 163 -33t133 -90q56 -57 89 -133.5t33 -163.5t-33 -163.5t-89 -133.5q-57 -57 -133 -90t-163 -33t-163 33t-132 90
q-57 57 -90 133.5t-33 163.5t33 163.5t90 133.5q56 57 132 90t163 33zM445 704q-78 0 -147.5 -30t-120.5 -81q-52 -52 -82 -121.5t-30 -148.5t30 -148.5t82 -120.5q51 -52 120.5 -82t147.5 -30t147.5 30t121.5 82q51 51 81 120.5t30 148.5t-30 148.5t-81 121.5
q-52 51 -121.5 81t-147.5 30z" />
    <glyph glyph-name="uni24E7" unicode="&#x24e7;" horiz-adv-x="890" 
d="M445 743q87 0 163 -33t133 -90q56 -57 89 -133.5t33 -163.5t-33 -163.5t-89 -133.5q-57 -57 -133 -90t-163 -33t-163 33t-132 90q-57 57 -90 133.5t-33 163.5t33 163.5t90 133.5q56 57 132 90t163 33zM445 704q-78 0 -147.5 -30t-120.5 -81q-52 -52 -82 -121.5
t-30 -148.5t30 -148.5t82 -120.5q51 -52 120.5 -82t147.5 -30t147.5 30t121.5 82q51 51 81 120.5t30 148.5t-30 148.5t-81 121.5q-52 51 -121.5 81t-147.5 30zM286 138l133 185l-128 183h48l104 -153l104 153h50l-128 -183l134 -185h-50l-107 155l-111 -155h-49z" />
    <glyph glyph-name="uni24E8" unicode="&#x24e8;" horiz-adv-x="890" 
d="M445 743q87 0 163 -33t133 -90q56 -57 89 -133.5t33 -163.5t-33 -163.5t-89 -133.5q-57 -57 -133 -90t-163 -33t-163 33t-132 90q-57 57 -90 133.5t-33 163.5t33 163.5t90 133.5q56 57 132 90t163 33zM445 704q-78 0 -147.5 -30t-120.5 -81q-52 -52 -82 -121.5
t-30 -148.5t30 -148.5t82 -120.5q51 -52 120.5 -82t147.5 -30t147.5 30t121.5 82q51 51 81 120.5t30 148.5t-30 148.5t-81 121.5q-52 51 -121.5 81t-147.5 30zM425 182l-135 360h47l109 -305l115 305h48l-199 -514h-43z" />
    <glyph glyph-name="uni24E9" unicode="&#x24e9;" horiz-adv-x="890" 
d="M445 743q87 0 163 -33t133 -90q56 -57 89 -133.5t33 -163.5t-33 -163.5t-89 -133.5q-57 -57 -133 -90t-163 -33t-163 33t-132 90q-57 57 -90 133.5t-33 163.5t33 163.5t90 133.5q56 57 132 90t163 33zM445 704q-78 0 -147.5 -30t-120.5 -81q-52 -52 -82 -121.5
t-30 -148.5t30 -148.5t82 -120.5q51 -52 120.5 -82t147.5 -30t147.5 30t121.5 82q51 51 81 120.5t30 148.5t-30 148.5t-81 121.5q-52 51 -121.5 81t-147.5 30zM574 186v-38h-258v35l200 295h-189v38h237v-36l-200 -294h210z" />
    <glyph glyph-name="SF100000" unicode="&#x2500;" horiz-adv-x="920" 
d="M0 264v36h920v-36h-920z" />
    <glyph glyph-name="uni2501" unicode="&#x2501;" horiz-adv-x="920" 
d="M0 245v72h920v-72h-920z" />
    <glyph glyph-name="SF110000" unicode="&#x2502;" horiz-adv-x="920" 
d="M431 -220v1000h38v-1000h-38z" />
    <glyph glyph-name="uni2503" unicode="&#x2503;" horiz-adv-x="920" 
d="M412 -220v1000h76v-1000h-76z" />
    <glyph glyph-name="SF010000" unicode="&#x250c;" horiz-adv-x="920" 
d="M920 264h-441v-484h-38v520h479v-36z" />
    <glyph glyph-name="uni250D" unicode="&#x250d;" horiz-adv-x="920" 
d="M920 245h-441v-465h-38v537h479v-72z" />
    <glyph glyph-name="uni250E" unicode="&#x250e;" horiz-adv-x="920" 
d="M920 264h-422v-484h-76v520h498v-36z" />
    <glyph glyph-name="uni250F" unicode="&#x250f;" horiz-adv-x="920" 
d="M422 -220v537h498v-72h-422v-465h-76z" />
    <glyph glyph-name="SF030000" unicode="&#x2510;" horiz-adv-x="920" 
d="M441 -220v484h-441v36h479v-520h-38z" />
    <glyph glyph-name="uni2511" unicode="&#x2511;" horiz-adv-x="920" 
d="M441 -220v465h-441v72h479v-537h-38z" />
    <glyph glyph-name="uni2512" unicode="&#x2512;" horiz-adv-x="920" 
d="M422 -220v484h-422v36h498v-520h-76z" />
    <glyph glyph-name="uni2513" unicode="&#x2513;" horiz-adv-x="920" 
d="M0 317h498v-537h-76v465h-422v72z" />
    <glyph glyph-name="SF020000" unicode="&#x2514;" horiz-adv-x="920" 
d="M479 780v-480h441v-36h-479v516h38z" />
    <glyph glyph-name="uni2515" unicode="&#x2515;" horiz-adv-x="920" 
d="M479 780v-463h441v-72h-479v535h38z" />
    <glyph glyph-name="uni2516" unicode="&#x2516;" horiz-adv-x="920" 
d="M498 780v-480h422v-36h-498v516h76z" />
    <glyph glyph-name="uni2517" unicode="&#x2517;" horiz-adv-x="920" 
d="M920 245h-498v535h76v-463h422v-72z" />
    <glyph glyph-name="SF040000" unicode="&#x2518;" horiz-adv-x="920" 
d="M0 300h441v480h38v-516h-479v36z" />
    <glyph glyph-name="uni2519" unicode="&#x2519;" horiz-adv-x="920" 
d="M0 317h441v463h38v-535h-479v72z" />
    <glyph glyph-name="uni251A" unicode="&#x251a;" horiz-adv-x="920" 
d="M0 300h422v480h76v-516h-498v36z" />
    <glyph glyph-name="uni251B" unicode="&#x251b;" horiz-adv-x="920" 
d="M498 780v-535h-498v72h422v463h76z" />
    <glyph glyph-name="SF080000" unicode="&#x251c;" horiz-adv-x="920" 
d="M479 781v-481h441v-36h-441v-484h-38v1001h38z" />
    <glyph glyph-name="uni251D" unicode="&#x251d;" horiz-adv-x="920" 
d="M479 780v-463h441v-72h-441v-465h-38v1000h38z" />
    <glyph glyph-name="uni251E" unicode="&#x251e;" horiz-adv-x="920" 
d="M498 780v-480h422v-36h-441v-484h-38v500h-19v500h76z" />
    <glyph glyph-name="uni251F" unicode="&#x251f;" horiz-adv-x="920" 
d="M479 780v-480h441v-36h-422v-443h-76v461h19v498h38z" />
    <glyph glyph-name="uni2520" unicode="&#x2520;" horiz-adv-x="920" 
d="M498 -220h-76v1000h76v-480h422v-36h-422v-484z" />
    <glyph glyph-name="uni2521" unicode="&#x2521;" horiz-adv-x="920" 
d="M498 780v-463h422v-72h-441v-465h-38v501h-19v499h76z" />
    <glyph glyph-name="uni2522" unicode="&#x2522;" horiz-adv-x="920" 
d="M479 780v-463h441v-72h-422v-465h-76v501h19v499h38z" />
    <glyph glyph-name="uni2523" unicode="&#x2523;" horiz-adv-x="920" 
d="M498 -220h-76v1000h76v-463h422v-72h-422v-465z" />
    <glyph glyph-name="SF090000" unicode="&#x2524;" horiz-adv-x="920" 
d="M441 -220v484h-441v36h441v480h38v-1000h-38z" />
    <glyph glyph-name="uni2525" unicode="&#x2525;" horiz-adv-x="920" 
d="M441 -220v465h-441v72h441v463h38v-1000h-38z" />
    <glyph glyph-name="uni2526" unicode="&#x2526;" horiz-adv-x="920" 
d="M441 -220v484h-441v36h422v480h76v-498h-19v-502h-38z" />
    <glyph glyph-name="uni2527" unicode="&#x2527;" horiz-adv-x="920" 
d="M422 -220v484h-422v36h441v480h38v-498h19v-502h-76z" />
    <glyph glyph-name="uni2528" unicode="&#x2528;" horiz-adv-x="920" 
d="M498 780v-1000h-76v484h-422v36h422v480h76z" />
    <glyph glyph-name="uni2529" unicode="&#x2529;" horiz-adv-x="920" 
d="M441 -220v465h-441v72h422v463h76v-499h-19v-501h-38z" />
    <glyph glyph-name="uni252A" unicode="&#x252a;" horiz-adv-x="920" 
d="M422 -220v465h-422v72h441v463h38v-499h19v-501h-76z" />
    <glyph glyph-name="uni252B" unicode="&#x252b;" horiz-adv-x="920" 
d="M498 780v-1000h-76v465h-422v72h422v463h76z" />
    <glyph glyph-name="SF060000" unicode="&#x252c;" horiz-adv-x="920" 
d="M920 264h-441v-484h-38v484h-441v36h920v-36z" />
    <glyph glyph-name="uni252D" unicode="&#x252d;" horiz-adv-x="920" 
d="M920 264h-441v-484h-38v465h-441v72h460v-17h460v-36z" />
    <glyph glyph-name="uni252E" unicode="&#x252e;" horiz-adv-x="920" 
d="M920 245h-441v-465h-38v484h-441v36h460v17h460v-72z" />
    <glyph glyph-name="uni252F" unicode="&#x252f;" horiz-adv-x="920" 
d="M479 -220h-38v465h-441v72h920v-72h-441v-465z" />
    <glyph glyph-name="uni2530" unicode="&#x2530;" horiz-adv-x="920" 
d="M920 264h-422v-484h-76v484h-422v36h920v-36z" />
    <glyph glyph-name="uni2531" unicode="&#x2531;" horiz-adv-x="920" 
d="M920 264h-422v-484h-76v465h-422v72h460v-17h460v-36z" />
    <glyph glyph-name="uni2532" unicode="&#x2532;" horiz-adv-x="920" 
d="M422 -220v484h-422v36h460v17h460v-72h-422v-465h-76z" />
    <glyph glyph-name="uni2533" unicode="&#x2533;" horiz-adv-x="920" 
d="M498 -220h-76v465h-422v72h920v-72h-422v-465z" />
    <glyph glyph-name="SF070000" unicode="&#x2534;" horiz-adv-x="920" 
d="M0 300h441v480h38v-480h441v-36h-920v36z" />
    <glyph glyph-name="uni2535" unicode="&#x2535;" horiz-adv-x="920" 
d="M0 317h441v463h38v-480h441v-36h-460v-19h-460v72z" />
    <glyph glyph-name="uni2536" unicode="&#x2536;" horiz-adv-x="920" 
d="M479 780v-463h441v-72h-460v19h-460v36h441v480h38z" />
    <glyph glyph-name="uni2537" unicode="&#x2537;" horiz-adv-x="920" 
d="M441 317v463h38v-463h441v-72h-920v72h441z" />
    <glyph glyph-name="uni2538" unicode="&#x2538;" horiz-adv-x="920" 
d="M0 300h422v480h76v-480h422v-36h-920v36z" />
    <glyph glyph-name="uni2539" unicode="&#x2539;" horiz-adv-x="920" 
d="M0 317h422v463h76v-480h422v-36h-460v-19h-460v72z" />
    <glyph glyph-name="uni253A" unicode="&#x253a;" horiz-adv-x="920" 
d="M498 780v-463h422v-72h-460v19h-460v36h422v480h76z" />
    <glyph glyph-name="uni253B" unicode="&#x253b;" horiz-adv-x="920" 
d="M422 317v463h76v-463h422v-72h-920v72h422z" />
    <glyph glyph-name="SF050000" unicode="&#x253c;" horiz-adv-x="920" 
d="M441 -220v484h-441v36h441v480h38v-480h441v-36h-441v-484h-38z" />
    <glyph glyph-name="uni253D" unicode="&#x253d;" horiz-adv-x="920" 
d="M441 -220v465h-441v72h441v463h38v-480h441v-36h-441v-484h-38z" />
    <glyph glyph-name="uni253E" unicode="&#x253e;" horiz-adv-x="920" 
d="M441 -220v484h-441v36h441v480h38v-463h441v-72h-441v-465h-38z" />
    <glyph glyph-name="uni253F" unicode="&#x253f;" horiz-adv-x="920" 
d="M441 317v463h38v-463h441v-72h-441v-465h-38v465h-441v72h441z" />
    <glyph glyph-name="uni2540" unicode="&#x2540;" horiz-adv-x="920" 
d="M441 -220v484h-441v36h422v480h76v-480h422v-36h-441v-484h-38z" />
    <glyph glyph-name="uni2541" unicode="&#x2541;" horiz-adv-x="920" 
d="M0 300h441v480h38v-480h441v-36h-422v-484h-76v484h-422v36z" />
    <glyph glyph-name="uni2542" unicode="&#x2542;" horiz-adv-x="920" 
d="M422 -220v484h-422v36h422v480h76v-480h422v-36h-422v-484h-76z" />
    <glyph glyph-name="uni2543" unicode="&#x2543;" horiz-adv-x="920" 
d="M920 264h-441v-484h-38v465h-441v72h422v463h76v-480h422v-36z" />
    <glyph glyph-name="uni2544" unicode="&#x2544;" horiz-adv-x="920" 
d="M441 -220v484h-441v36h422v480h76v-463h422v-72h-441v-465h-38z" />
    <glyph glyph-name="uni2545" unicode="&#x2545;" horiz-adv-x="920" 
d="M479 780v-480h441v-36h-422v-484h-76v465h-422v72h441v463h38z" />
    <glyph glyph-name="uni2546" unicode="&#x2546;" horiz-adv-x="920" 
d="M0 300h441v480h38v-463h441v-72h-422v-465h-76v484h-422v36z" />
    <glyph glyph-name="uni2547" unicode="&#x2547;" horiz-adv-x="920" 
d="M441 -220v465h-441v72h422v463h76v-463h422v-72h-441v-465h-38z" />
    <glyph glyph-name="uni2548" unicode="&#x2548;" horiz-adv-x="920" 
d="M0 317h441v463h38v-463h441v-72h-422v-465h-76v465h-422v72z" />
    <glyph glyph-name="uni2549" unicode="&#x2549;" horiz-adv-x="920" 
d="M920 264h-422v-484h-76v465h-422v72h422v463h76v-480h422v-36z" />
    <glyph glyph-name="uni254A" unicode="&#x254a;" horiz-adv-x="920" 
d="M422 -220v484h-422v36h422v480h76v-463h422v-72h-422v-465h-76z" />
    <glyph glyph-name="uni254B" unicode="&#x254b;" horiz-adv-x="920" 
d="M422 317v463h76v-463h422v-72h-422v-465h-76v465h-422v72h422z" />
    <glyph glyph-name="shade" unicode="&#x2592;" horiz-adv-x="800" 
d="M369 -26v65h61v-65h-61zM580 39h61v-65h-61v65zM535 -26h-61v65h61v-65zM221 -26h-61v65h61v-65zM114 -26h-61v65h61v-65zM323 -26h-58v65h58v-65zM685 39h61v-65h-61v65zM369 79v64h61v-64h-61zM580 143h61v-64h-61v64zM535 79h-61v64h61v-64zM221 79h-61v64h61v-64z
M114 79h-61v64h61v-64zM323 79h-58v64h58v-64zM685 143h61v-64h-61v64zM369 183v62h61v-62h-61zM580 245h61v-62h-61v62zM535 183h-61v62h61v-62zM221 183h-61v62h61v-62zM114 183h-61v62h61v-62zM323 183h-58v62h58v-62zM685 245h61v-62h-61v62zM369 287v66h61v-66h-61z
M580 353h61v-66h-61v66zM535 287h-61v66h61v-66zM221 287h-61v66h61v-66zM114 287h-61v66h61v-66zM323 287h-58v66h58v-66zM685 353h61v-66h-61v66zM369 395v61h61v-61h-61zM580 456h61v-61h-61v61zM535 395h-61v61h61v-61zM221 395h-61v61h61v-61zM114 395h-61v61h61v-61z
M323 395h-58v61h58v-61zM685 456h61v-61h-61v61zM369 497v65h61v-65h-61zM580 562h61v-65h-61v65zM535 497h-61v65h61v-65zM221 497h-61v65h61v-65zM114 497h-61v65h61v-65zM323 497h-58v65h58v-65zM685 562h61v-65h-61v65zM369 602v68h61v-68h-61zM580 670h61v-68h-61v68z
M535 602h-61v68h61v-68zM221 602h-61v68h61v-68zM114 602h-61v68h61v-68zM323 602h-58v68h58v-68zM685 670h61v-68h-61v68z" />
    <glyph glyph-name="filledbox" unicode="&#x25a0;" horiz-adv-x="800" 
d="M53 -28v699h693v-699h-693z" />
    <glyph glyph-name="H22073" unicode="&#x25a1;" horiz-adv-x="800" 
d="M53 -29v700h693v-700h-693zM717 638h-633v-633h633v633z" />
    <glyph glyph-name="uni25A3" unicode="&#x25a3;" horiz-adv-x="800" 
d="M225 143v353h347v-353h-347zM53 -29v700h693v-700h-693zM717 638h-633v-633h633v633z" />
    <glyph glyph-name="uni25A4" unicode="&#x25a4;" horiz-adv-x="800" 
d="M746 671v-698h-693v698h693zM78 4h643v138h-643v-138zM78 170h643v139h-643v-139zM78 338h643v137h-643v-137zM78 505h643v138h-643v-138z" />
    <glyph glyph-name="uni25A5" unicode="&#x25a5;" horiz-adv-x="800" 
d="M53 671h693v-698h-693v698zM721 0v643h-143v-643h143zM553 0v643h-141v-643h141zM385 0v643h-139v-643h139zM220 0v643h-142v-643h142z" />
    <glyph glyph-name="uni25A6" unicode="&#x25a6;" horiz-adv-x="800" 
d="M746 671v-698h-693v698h693zM412 170h141v139h-141v-139zM412 338h141v137h-141v-137zM246 170h139v139h-139v-139zM246 338h139v137h-139v-137zM412 0h141v142h-141v-142zM579 170h142v139h-142v-139zM246 0h139v142h-139v-142zM579 338h142v137h-142v-137zM78 170h141
v139h-141v-139zM553 643h-141v-138h141v138zM579 0h142v142h-142v-142zM78 338h141v137h-141v-137zM385 643h-139v-138h139v138zM78 0h141v142h-141v-142zM721 643h-142v-138h142v138zM78 505h141v138h-141v-138z" />
    <glyph glyph-name="uni25A7" unicode="&#x25a7;" horiz-adv-x="800" 
d="M53 -27v698h693v-698h-693zM721 643h-117l117 -119v119zM721 488l-153 155h-212l365 -365v210zM721 237l-406 406h-212l618 -624v218zM78 627v-221l403 -406h218zM78 368v-213l150 -155h212zM78 119v-119h117z" />
    <glyph glyph-name="uni25A8" unicode="&#x25a8;" horiz-adv-x="800" 
d="M746 671v-698h-693v698h693zM721 120l-117 -120h117v120zM721 367l-365 -367h212l153 156v211zM721 625l-618 -625h212l406 407v218zM699 644h-218l-403 -405v-222zM440 644h-212l-150 -155v-212zM195 644h-117v-120z" />
    <glyph glyph-name="uni25A9" unicode="&#x25a9;" horiz-adv-x="800" 
d="M53 -27v698h693v-698h-693zM272 212l109 110l-109 110l-110 -110zM397 83l110 111l-107 108l-109 -112zM397 560l-106 -106l109 -112l107 108zM527 214l108 108l-108 107l-106 -107zM145 561l-67 -71v-84l65 -65l109 113zM78 154l67 -71l107 107l-109 112l-65 -63v-85z
M480 0h88l65 67l-106 107l-109 -109zM721 488l-68 69l-106 -105l108 -110l66 65v81zM378 65l-106 107l-108 -107l62 -65h90zM129 68l-51 53v-104zM721 622l-51 -47l51 -50v97zM721 119l-51 -51l51 -46v97zM605 0h91l-45 51zM151 48l-48 -48h88zM193 643h-90l48 -48zM123 322
l-45 45v-85zM721 280v87l-46 -46zM395 599l44 44h-80zM439 0l-44 45l-36 -45h80zM654 85l67 70v82l-66 64l-108 -109zM700 643h-100l51 -47zM480 643l-62 -63l109 -110l106 107l-65 66h-88zM272 473l106 108l-63 62h-88l-63 -63zM78 523l51 53l-51 51v-104z" />
    <glyph glyph-name="triagup" unicode="&#x25b2;" horiz-adv-x="800" 
d="M44 89l359 547l353 -547h-712z" />
    <glyph glyph-name="uni25B3" unicode="&#x25b3;" horiz-adv-x="800" 
d="M756 88h-712l361 548zM689 125l-283 444l-296 -444h579z" />
    <glyph glyph-name="uni25B6" unicode="&#x25b6;" horiz-adv-x="800" 
d="M154 -28v711l549 -364z" />
    <glyph glyph-name="uni25B7" unicode="&#x25b7;" horiz-adv-x="800" 
d="M154 -29v712l549 -364zM188 40l444 281l-444 297v-578z" />
    <glyph glyph-name="triagdn" unicode="&#x25bc;" horiz-adv-x="800" 
d="M398 13l-354 550h712z" />
    <glyph glyph-name="uni25BD" unicode="&#x25bd;" horiz-adv-x="800" 
d="M405 13l-361 549h712zM110 526l296 -446l283 446h-579z" />
    <glyph glyph-name="uni25C0" unicode="&#x25c0;" horiz-adv-x="800" 
d="M96 319l550 364v-712z" />
    <glyph glyph-name="uni25C1" unicode="&#x25c1;" horiz-adv-x="800" 
d="M96 319l550 364v-712zM612 618l-444 -297l444 -281v578z" />
    <glyph glyph-name="uni25C6" unicode="&#x25c6;" horiz-adv-x="800" 
d="M399 -68l-385 388l384 390l387 -389z" />
    <glyph glyph-name="uni25C7" unicode="&#x25c7;" horiz-adv-x="800" 
d="M399 -68l-385 388l384 390l387 -389zM399 -20l338 344l-339 345l-338 -345z" />
    <glyph glyph-name="uni25C8" unicode="&#x25c8;" horiz-adv-x="800" 
d="M395 130l-193 194l193 194l194 -194zM399 -68l-385 388l384 390l387 -389zM399 -20l338 344l-339 345l-338 -345z" />
    <glyph glyph-name="circle" unicode="&#x25cb;" horiz-adv-x="800" 
d="M82 321q0 -65 25.5 -123t69.5 -101q43 -44 100.5 -70t122.5 -26t123 26t102 70q43 43 68.5 101t25.5 123t-25.5 123t-68.5 102q-44 44 -102 69.5t-123 25.5t-122.5 -25.5t-100.5 -69.5q-44 -44 -69.5 -102t-25.5 -123zM751 321q0 -72 -27.5 -136.5t-75.5 -112.5
t-112 -76.5t-136 -28.5t-135.5 28.5t-111.5 76.5t-76 112.5t-28 136.5q0 73 28 137t76 112t111.5 76t135.5 28t136 -28t112 -76t75.5 -112t27.5 -137z" />
    <glyph glyph-name="uni25CE" unicode="&#x25ce;" horiz-adv-x="800" 
d="M82 321q0 -65 25.5 -123t69.5 -101q43 -44 100.5 -70t122.5 -26t123 26t102 70q43 43 68.5 101t25.5 123t-25.5 123t-68.5 102q-44 44 -102 69.5t-123 25.5t-122.5 -25.5t-100.5 -69.5q-44 -44 -69.5 -102t-25.5 -123zM751 321q0 -72 -27.5 -136.5t-75.5 -112.5
t-112 -76.5t-136 -28.5t-135.5 28.5t-111.5 76.5t-76 112.5t-28 136.5q0 73 28 137t76 112t111.5 76t135.5 28t136 -28t112 -76t75.5 -112t27.5 -137zM218 321q0 -38 14 -71t39 -58q25 -26 58 -40.5t71 -14.5t71.5 14.5t58.5 40.5q25 25 39.5 58t14.5 71q0 37 -14.5 70.5
t-39.5 59.5q-25 25 -58.5 39.5t-71.5 14.5t-71 -14.5t-58 -39.5q-25 -26 -39 -59.5t-14 -70.5zM612 321q0 -44 -16.5 -83t-45.5 -68q-29 -30 -67.5 -47t-82.5 -17t-82.5 17t-67.5 47q-29 29 -46 68t-17 83t17 83t46 68t67.5 46t82.5 17t82.5 -17t67.5 -46t45.5 -68t16.5 -83
z" />
    <glyph glyph-name="H18533" unicode="&#x25cf;" horiz-adv-x="800" 
d="M751 321q0 -72 -27.5 -136.5t-75.5 -112.5t-112 -76.5t-136 -28.5t-135.5 28.5t-111.5 76.5t-76 112.5t-28 136.5q0 73 28 137t76 112t111.5 76t135.5 28t136 -28t112 -76t75.5 -112t27.5 -137z" />
    <glyph glyph-name="uni25D0" unicode="&#x25d0;" horiz-adv-x="800" 
d="M391 1q67 1 126.5 27.5t104.5 70.5t71 101.5t26 120.5q0 64 -26 121.5t-71 101.5q-45 43 -104.5 69.5t-126.5 27.5v-640zM751 321q0 -72 -27.5 -136.5t-75.5 -112.5t-112 -76.5t-136 -28.5t-135.5 28.5t-111.5 76.5t-76 112.5t-28 136.5q0 73 28 137t76 112t111.5 76
t135.5 28t136 -28t112 -76t75.5 -112t27.5 -137z" />
    <glyph glyph-name="uni25D1" unicode="&#x25d1;" horiz-adv-x="800" 
d="M408 641q-67 -1 -126.5 -27.5t-103.5 -69.5q-45 -44 -71 -101.5t-26 -121.5q0 -63 26 -120.5t71 -101.5q44 -44 103.5 -70.5t126.5 -27.5v640zM49 321q0 73 27.5 137t75.5 112t111.5 76t135.5 28t136 -28t112 -76t76 -112t28 -137q0 -72 -28 -136.5t-76 -112.5
t-112 -76.5t-136 -28.5t-135.5 28.5t-111.5 76.5t-75.5 112.5t-27.5 136.5z" />
    <glyph glyph-name="uni2605" unicode="&#x2605;" horiz-adv-x="800" 
d="M747 425l-217 -162l89 -257l-225 167q-54 -40 -108.5 -80t-108.5 -80l83 255l-209 157h262l82 242l84 -242h268z" />
    <glyph glyph-name="uni2606" unicode="&#x2606;" horiz-adv-x="800" 
d="M664 396h-208l-60 194l-59 -194h-208l168 -123l-71 -194l167 127l175 -132l-74 199zM747 425l-217 -162l89 -257l-225 167q-54 -40 -108.5 -80t-108.5 -80l83 255l-209 157h262l82 242l84 -242h268z" />
    <glyph glyph-name="uni260E" unicode="&#x260e;" horiz-adv-x="800" 
d="M562 233q0 36 -13.5 65t-35.5 49q-23 19 -53 29.5t-62 10.5q-33 0 -62.5 -11t-51.5 -31q-22 -21 -35 -49.5t-13 -62.5q0 -36 13.5 -64.5t36.5 -48.5q22 -21 51 -31.5t61 -10.5q34 0 64 11.5t53 32.5q22 20 34.5 48.5t12.5 62.5zM496 544q-29 -5 -51.5 -5.5t-39.5 -0.5
q-29 0 -53 3.5t-49 7.5v-74q0 -12 5 -19.5t13 -11.5q7 -4 16 -5t18 -1h87q9 0 18.5 0.5t17.5 4.5t13 11.5t5 21.5v68zM400 621q193 0 295 -64q37 -27 58.5 -64t25.5 -78q2 -27 -10 -45.5t-31 -16.5q-33 2 -60.5 11t-46.5 17q-41 19 -41 47q0 17 8 32t8 30q0 18 -19.5 29
t-41.5 11l-2 -54q-2 -32 5 -62.5t21 -54.5q13 -22 27.5 -39t29.5 -34q18 -20 33.5 -40.5t26.5 -44.5q6 -14 12.5 -32.5t11.5 -37.5q4 -19 7 -37.5t3 -33.5q0 -12 -4 -21.5t-15 -9.5h-593q-23 0 -26 21t3 48q4 17 10 45.5t20 57.5q11 25 26.5 46.5t33.5 41.5q15 17 28.5 33.5
t25.5 37.5q31 54 28 116l-3 54q-25 1 -40.5 -9.5t-18.5 -28.5q-2 -10 -0.5 -15.5t3.5 -10.5q6 -17 8.5 -25t2.5 -13q2 -28 -40 -47q-18 -8 -46.5 -17t-60.5 -11q-19 -2 -31.5 17t-10.5 46q4 40 26 77.5t59 63.5q49 34 123.5 49t171.5 15z" />
    <glyph glyph-name="uni260F" unicode="&#x260f;" horiz-adv-x="800" 
d="M478 527q-23 -5 -42 -4.5t-32 0.5q-14 0 -36 1.5t-49 6.5v-54q0 -12 6.5 -18.5t26.5 -6.5h90q23 0 29.5 7t6.5 25v43zM671 47q12 0 17.5 4t7.5 10t1 13.5t-1 16.5q-2 25 -10.5 59.5t-24.5 63.5q-11 20 -26.5 38.5t-29.5 32.5q-13 14 -25.5 29t-22.5 31q-14 22 -23 47.5
t-9 52.5q0 25 1 52t2 38q0 5 4.5 9t9.5 3q42 -3 62 -24.5t18 -43.5q-1 -5 -3 -9.5t-4 -9.5q-4 -8 -5 -14t-1 -12q0 -13 9.5 -21t20.5 -14q15 -8 38.5 -14.5t53.5 -9.5q15 -1 25.5 9t6.5 33q-9 57 -46 93t-91 58q-48 17 -109 26t-118 9q-60 0 -119 -5.5t-107 -25.5
q-54 -23 -91 -60.5t-47 -94.5q-4 -23 6.5 -33t25.5 -9q29 3 53 11t39 16q12 6 22 13.5t10 15.5q0 7 -2.5 15.5t-5.5 14.5q-2 3 -3.5 7.5t-2.5 10.5q-2 22 17.5 43t62.5 25q12 2 14 -12q1 -9 2 -35.5t1 -54.5q0 -26 -9 -51.5t-23 -48.5q-9 -14 -23 -30.5t-25 -29.5
q-14 -14 -30.5 -35t-26.5 -42q-14 -29 -23 -61.5t-12 -63.5q-2 -17 2 -26.5t25 -9.5h542zM399 92q-28 0 -54 9.5t-46 28.5q-21 18 -33.5 44t-12.5 59q0 31 11.5 57t31.5 45t46.5 29t56.5 10t56.5 -10t46.5 -29t31.5 -45t11.5 -57q0 -33 -12.5 -59t-32.5 -44
q-20 -19 -46.5 -28.5t-54.5 -9.5zM399 358q-26 0 -49.5 -9t-40.5 -25q-18 -16 -28 -39.5t-10 -51.5q0 -27 10 -49.5t28 -39.5q17 -17 40 -26.5t50 -9.5t50.5 9.5t40.5 26.5t27 39.5t10 49.5q0 28 -10 51.5t-27 39.5q-18 16 -41.5 25t-49.5 9zM400 621q193 0 295 -64
q37 -27 58.5 -64t25.5 -78q2 -27 -10 -45.5t-31 -16.5q-33 2 -60.5 11t-46.5 17q-41 19 -41 47q0 17 8 32t8 30q0 18 -19.5 29t-41.5 11l-2 -54q-2 -32 5 -62.5t21 -54.5q13 -22 27.5 -39t29.5 -34q18 -20 33.5 -40.5t26.5 -44.5q6 -14 12.5 -32.5t11.5 -37.5q4 -19 7 -37.5
t3 -33.5q0 -12 -4 -21.5t-15 -9.5h-593q-23 0 -26 21t3 48q4 17 10 45.5t20 57.5q11 25 26.5 46.5t33.5 41.5q15 17 28.5 33.5t25.5 37.5q31 54 28 116l-3 54q-25 1 -40.5 -9.5t-18.5 -28.5q-2 -10 -0.5 -15.5t3.5 -10.5q6 -17 8.5 -25t2.5 -13q2 -28 -40 -47
q-18 -8 -46.5 -17t-60.5 -11q-19 -2 -31.5 17t-10.5 46q4 40 26 77.5t59 63.5q49 34 123.5 49t171.5 15zM496 476q0 -14 -5 -21.5t-13 -11.5t-17.5 -4.5t-18.5 -0.5h-87q-9 0 -18 1t-16 5q-8 4 -13 11.5t-5 19.5v74q25 -4 49 -7.5t53 -3.5q17 0 39.5 0.5t51.5 5.5v-68z" />
    <glyph glyph-name="uni261C" unicode="&#x261c;" horiz-adv-x="800" 
d="M136 367q-17 1 -36 2t-35 5q-16 3 -26 10.5t-10 21.5q0 15 13.5 23t31.5 12t36.5 5t28.5 1q17 0 33 0.5t33 0.5h192h57.5t54.5 -2t49.5 -12t49.5 -24l13 -7q9 -5 17 -9t22 -4h24v29h86v-222h-87v21h-25q-21 -17 -52 -27.5t-65 -17.5q-35 -7 -71 -9.5t-69 -2.5
q-26 0 -48.5 1.5t-39.5 3.5q-18 3 -28 9.5t-13 15.5t0 19t10 18q-18 6 -24 24t2 33q-13 5 -21.5 12t-8.5 18q0 25 29 35q5 3 12.5 5t15.5 4l-98 5zM660 375q-14 0 -26.5 5t-25.5 13q-9 6 -22.5 13t-27.5 13t-27.5 10.5t-23.5 4.5q-5 0 -11 0.5t-11 0.5q-12 1 -24 1.5
t-22 0.5q-9 0 -18.5 -0.5t-19.5 -1.5q-20 -9 -32.5 -16.5t-21.5 -16.5t-15.5 -19.5t-14.5 -24.5q18 -3 29 -2t18 4t11 7.5t9 9.5t10.5 7.5t9.5 2.5q1 -1 1 -3t-0.5 -4.5t-3.5 -6.5q23 -5 36.5 -4t28.5 11q7 5 10 2q-2 -16 -9 -29q3 -6 10.5 -12t17.5 -11q9 -5 19 -9.5
t18 -6.5q11 -3 21 -4t21 -3q13 -2 23.5 -5t10.5 -6q0 -4 -9 -4.5t-21 1.5q-13 1 -27 3.5t-23 5.5q-23 6 -47.5 21t-36.5 36q-8 -2 -13 -3.5t-11 -1.5q-6 -1 -14 -1t-21 1q22 -6 30.5 -15.5t8.5 -22.5q0 -6 -3 -13.5t-6 -12.5q26 -8 26 -30q0 -10 -12 -20q29 -9 29 -29
q0 -13 -5 -21t-11 -13q31 0 63 4t61 12q29 7 53 17.5t39 24.5h26v140h-24zM312 375q4 9 19 27t33 33q-12 0 -35 -0.5t-36 -0.5q-38 -1 -78 -1t-75 -2q-44 -2 -68.5 -6.5t-24.5 -16.5q0 -14 19.5 -17.5t72.5 -6.5l52 -3q29 -2 58 -3.5t63 -2.5zM738 404h-40v-191h40v191z
M381 338q-14 2 -31 4.5t-35 2.5q-20 0 -37.5 -3t-26.5 -11q-12 -9 -3.5 -19t22.5 -12q9 -2 30 -3t43 -1q17 0 33.5 1t24.5 6q8 6 7.5 11.5t-5.5 10.5t-12 8.5t-10 4.5zM443 207q0 4 -1 7.5t-6 6.5q-6 2 -18.5 3.5t-35.5 0.5l-75 -1q-9 0 -14 -5t-5 -11q-1 -6 2.5 -12.5
t12.5 -9.5q7 -2 23.5 -4.5t36.5 -2.5q31 0 55.5 5t24.5 23zM426 263q0 11 -14 14.5t-28 3.5h-94q-8 0 -13 -4.5t-6 -10.5t2.5 -12.5t11.5 -10.5q11 -3 31 -3.5t43 -0.5h16q4 0 13 1.5t17 4.5t14.5 7.5t6.5 10.5z" />
    </font>
</defs>
</svg>
